<svg xmlns="http://www.w3.org/2000/svg" viewBox="0 0 799 802.5"><rect x="0.4" width="798.4" height="802.51" rx="399.2" fill="#eaeff2" opacity="0.3"/><path d="M399.5,801.8l-20.9-.5-13.9-1L344,797.9l-20.6-3.4-13.7-2.9-20.2-5.2-13.3-4.1L263,777.8l-19.4-7.7-19-8.7L206,751.8l-12-7-17.7-11.2-11.4-8-16.5-12.7-10.7-9-10.4-9.3-10-9.6-9.7-10.1-9.3-10.3-8.9-10.7L76.7,637.3,64.8,620.1l-7.4-11.8L47.2,590.1l-6.4-12.4-8.6-19-5.3-12.9-4.7-13.1-6.3-19.9-5.2-20.3L7.8,478.9,4.3,458.3,2,437.6,1,423.7l-.5-14V395.8L1,381.9,2,368l2.3-20.8,3.5-20.6L10.7,313l5.2-20.2,6.3-19.9,4.7-13.1,5.3-13,8.6-19,6.4-12.4,10.2-18.2,7.4-11.8,11.9-17.2,12.7-16.6L98.3,141l9.3-10.4,9.7-10,15.2-14.4L143,97.1l10.8-8.8,11.1-8.4,11.4-8L194,60.7l12-7,18.6-9.6,19-8.7L263,27.8l13.2-4.6,13.3-4,20.2-5.3L323.4,11,344,7.6l20.7-2.4,13.9-.9,20.9-.6" fill="none" stroke="#909090" stroke-linecap="round" stroke-linejoin="round"/><path d="M464.6,795.8l12.9-2.7,12.7-3.1,12.7-3.6,12.5-4.1,12.4-4.5,12.2-5,12-5.5,11.9-5.9,11.6-6.3,11.5-6.7,11.2-7.2,11-7.6,10.7-8,10.5-8.4,10.1-8.7,9.9-9.2,9.6-9.5,9.2-9.8,9-10.2,8.6-10.5,8.2-10.8,7.9-11.2,7.5-11.4,7.1-11.7,6.8-11.9,6.3-12.2,5.9-12.4,5.6-12.6,5.1-12.8,4.7-13,4.2-13.2,3.9-13.3,3.4-13.5,2.9-13.6,2.5-13.6,2-13.8,1.6-13.8,1.2-13.9.7-13.9.2-13.9-.2-14-.7-13.9-1.2-13.8-1.6-13.9-2-13.7-2.5-13.7-2.9-13.6L760,292.8l-3.9-13.3-4.2-13.2-4.7-13-5.1-12.8-5.6-12.7-5.9-12.4-6.3-12.2-6.8-11.9-7.1-11.7-7.5-11.4L695,157.1l-8.2-10.8-8.6-10.6-9-10.1-9.2-9.9-9.6-9.5-9.9-9.1-10.1-8.8-10.5-8.4-10.7-8-11-7.6L587,57.2l-11.5-6.8-11.6-6.3L552,38.2l-12-5.4-12.2-5-12.4-4.6-12.5-4-12.7-3.6-12.7-3.2L464.6,9.8" fill="none" stroke="#909090" stroke-miterlimit="10" stroke-width="0.25"/><path d="M467.7,795.8l13.5-2.7,13.4-3.1,13.2-3.6,13.1-4.1,13-4.5,12.8-5,12.6-5.5,12.5-5.9,12.2-6.3,12-6.7,11.8-7.2,11.5-7.6,11.2-8,11-8.4,10.6-8.7,10.4-9.2,10-9.5,9.7-9.8,9.4-10.2,9-10.5,8.6-10.8,8.2-11.2,7.9-11.4,7.5-11.7,7-11.9,6.7-12.2,6.2-12.4,5.8-12.6,5.4-12.8,4.9-13,4.5-13.2,4-13.3,3.5-13.5,3.1-13.6,2.6-13.6,2.2-13.8,1.6-13.8,1.2-13.9.8-13.9.2-13.9-.2-14-.8-13.9-1.2-13.8-1.6-13.9-2.2-13.7-2.6-13.7-3.1-13.6-3.5-13.4-4-13.3-4.5-13.2-4.9-13-5.4-12.8-5.8-12.7-6.2-12.4-6.7-12.2-7-11.9-7.5-11.7-7.9-11.4-8.2-11.1-8.6-10.8-9-10.6-9.4-10.1-9.7-9.9-10-9.5-10.4-9.1-10.6-8.8-11-8.4-11.2-8-11.5-7.6L596,57.2l-12-6.8-12.2-6.3-12.5-5.9-12.6-5.4-12.8-5-13-4.6-13.1-4-13.2-3.6-13.4-3.2L467.7,9.8" fill="none" stroke="#909090" stroke-miterlimit="10" stroke-width="0.25"/><path d="M331.3,795.8l-13.5-2.7L304.4,790l-13.2-3.6-13.1-4.1-13-4.5-12.8-5-12.6-5.5-12.5-5.9L215,755.1l-12-6.7-11.8-7.2-11.5-7.6-11.2-8-11-8.4-10.6-8.7-10.4-9.2-10-9.5-9.7-9.8-9.4-10.2-9-10.5-8.6-10.8-8.2-11.2-7.9-11.4-7.5-11.7-7-11.9-6.7-12.2-6.2-12.4-5.8-12.6-5.4-12.8-4.9-13-4.5-13.2-4-13.3-3.5-13.5-3.1-13.6-2.6-13.6-2.2-13.8L8.7,444.5,7.5,430.6l-.8-13.9-.2-13.9.2-14,.8-13.9,1.2-13.8,1.6-13.9,2.2-13.7,2.6-13.7,3.1-13.6,3.5-13.4,4-13.3,4.5-13.2,4.9-13,5.4-12.8,5.8-12.7,6.2-12.4,6.7-12.2,7-11.9,7.5-11.7,7.9-11.4,8.2-11.1,8.6-10.8,9-10.6,9.4-10.1,9.7-9.9,10-9.5,10.4-9.1,10.6-8.8,11-8.4,11.2-8,11.5-7.6L203,57.2l12-6.8,12.2-6.3,12.5-5.9,12.6-5.4,12.8-5,13-4.6,13.1-4,13.2-3.6,13.4-3.2,13.5-2.6" fill="none" stroke="#909090" stroke-miterlimit="10" stroke-width="0.25"/><path d="M334.4,795.8l-12.9-2.7L308.8,790l-12.7-3.6-12.5-4.1-12.4-4.5-12.2-5-12-5.5-11.9-5.9-11.6-6.3L212,748.4l-11.2-7.2-11-7.6-10.7-8-10.5-8.4-10.1-8.7-9.9-9.2-9.6-9.5-9.2-9.8-9-10.2-8.6-10.5L104,648.5l-7.9-11.2-7.5-11.4-7.1-11.7-6.8-11.9-6.3-12.2-5.9-12.4-5.6-12.6-5.1-12.8-4.7-13-4.2-13.2L39,512.8l-3.4-13.5-2.9-13.6-2.5-13.6-2-13.8-1.6-13.8-1.2-13.9-.7-13.9-.2-13.9.2-14,.7-13.9,1.2-13.8,1.6-13.9,2-13.7,2.5-13.7,2.9-13.6L39,292.8l3.9-13.3,4.2-13.2,4.7-13,5.1-12.8,5.6-12.7,5.9-12.4,6.3-12.2,6.8-11.9,7.1-11.7,7.5-11.4,7.9-11.1,8.2-10.8,8.6-10.6,9-10.1,9.2-9.9,9.6-9.5,9.9-9.1,10.1-8.8,10.5-8.4,10.7-8,11-7.6L212,57.2l11.5-6.8,11.6-6.3L247,38.2l12-5.4,12.2-5,12.4-4.6,12.5-4,12.7-3.6,12.7-3.2,12.9-2.6" fill="none" stroke="#909090" stroke-miterlimit="10" stroke-width="0.25"/><path d="M339.5,795.8,315.9,790l-23.2-7.7L270,772.8l-22-11.4-21.3-13-20.5-14.8-9.8-8-9.7-8.4-9.3-8.7-9.1-9.2-8.9-9.5-8.5-9.8-8.2-10.2-7.9-10.5-7.6-10.8-7.3-11.2L113,625.9l-6.6-11.7-6.2-11.9-5.8-12.2-5.5-12.4-5.1-12.6-4.7-12.8-4.4-13-3.9-13.2-3.5-13.3-3.1-13.5-2.7-13.6-2.3-13.6-1.9-13.8-1.5-13.8-1.1-13.9-.6-13.9-.2-13.9.2-14,.6-13.9,1.1-13.8,1.5-13.9,1.9-13.7,2.3-13.7,2.7-13.6,3.1-13.4,3.5-13.3,3.9-13.2,4.4-13,4.7-12.8,5.1-12.7,5.5-12.4,5.8-12.2,6.2-11.9,6.6-11.7,6.9-11.4,7.3-11.1,7.6-10.8,7.9-10.6,8.2-10.1,8.5-9.9,8.9-9.5,9.1-9.1,9.3-8.8,9.7-8.4,9.8-8,20.5-14.7L248,44.1l22-11.3,22.7-9.6,23.2-7.6,23.6-5.8" fill="none" stroke="#909090" stroke-miterlimit="10" stroke-width="0.25"/><path d="M346.4,795.8,325.5,790,305,782.3l-20-9.5-19.5-11.4-18.8-13-18.1-14.8-17.3-16.4-16.4-17.9L179.6,680l-14.3-20.7-13.1-22-11.9-23.1-10.7-24.1-9.4-25-8-25.8-6.6-26.5-5.1-27.1-3.7-27.4-2.3-27.7-.7-27.8.7-27.9,2.3-27.7,3.7-27.4,5.1-27,6.6-26.5,8-25.8,9.4-25.1,10.7-24.1,11.9-23.1,13.1-21.9,14.3-20.7,15.3-19.4,16.4-17.9,17.3-16.4,18.1-14.7,18.8-13.1L285,32.8l20-9.6,20.5-7.6,20.9-5.8" fill="none" stroke="#909090" stroke-miterlimit="10" stroke-width="0.25"/><path d="M355,795.8,337.4,790l-17.2-7.7-16.8-9.5-16.3-11.4-15.9-13-15.1-14.8-14.5-16.4-13.7-17.9L215,680l-12-20.7-11-22-10-23.1-9-24.1-7.8-25-6.7-25.8-5.6-26.5-4.3-27.1-3.1-27.4-1.9-27.7-.6-27.8.6-27.9,1.9-27.7,3.1-27.4,4.3-27,5.6-26.5,6.7-25.8,7.8-25.1,9-24.1,10-23.1,11-21.9,12-20.7,12.9-19.4,13.7-17.9,14.5-16.4,15.1-14.7,15.9-13.1,16.3-11.3,16.8-9.6,17.2-7.6L355,9.8" fill="none" stroke="#909090" stroke-miterlimit="10" stroke-width="0.25"/><path d="M364.9,795.8,351.2,790l-13.4-7.7-13-9.5L312,761.4l-12.3-13-11.8-14.8-11.2-16.4L266,699.3,256,680l-9.3-20.7-8.6-22-7.8-23.1-7-24.1-6.1-25L212,539.3l-4.3-26.5-3.4-27.1-2.4-27.4-1.4-27.7-.5-27.8.5-27.9,1.4-27.7,2.4-27.4,3.4-27,4.3-26.5,5.2-25.8,6.1-25.1,7-24.1,7.8-23.1,8.6-21.9,9.3-20.7,10-19.4,10.7-17.9,11.2-16.4,11.8-14.7L312,44.1l12.8-11.3,13-9.6,13.4-7.6,13.7-5.8" fill="none" stroke="#909090" stroke-miterlimit="10" stroke-width="0.25"/><path d="M375.8,795.8l-9.3-5.8-9.2-7.7-8.9-9.5-8.7-11.4-8.4-13-8.1-14.8-7.7-16.4-7.3-17.9L301.3,680l-6.4-20.7-5.8-22-5.3-23.1L279,590.1l-4.2-25-3.6-25.8-2.9-26.5L266,485.7l-1.7-27.4-1-27.7-.3-27.8.3-27.9,1-27.7,1.7-27.4,2.3-27,2.9-26.5,3.6-25.8,4.2-25.1,4.8-24.1,5.3-23.1,5.8-21.9,6.4-20.7,6.9-19.4,7.3-17.9,7.7-16.4,8.1-14.7,8.4-13.1,8.7-11.3,8.9-9.6,9.2-7.6,9.3-5.8" fill="none" stroke="#909090" stroke-miterlimit="10" stroke-width="0.25"/><path d="M387.5,795.8l-4.8-5.8-4.6-7.7-4.6-9.5-4.4-11.4-4.2-13-4.1-14.8-4-16.4-3.7-17.9L349.7,680l-3.3-20.7-3-22-2.7-23.1-2.4-24.1-2.1-25-1.8-25.8-1.5-26.5-1.2-27.1-.8-27.4-.5-27.7-.2-27.8.2-27.9.5-27.7.8-27.4,1.2-27,1.5-26.5,1.8-25.8,2.1-25.1,2.4-24.1,2.7-23.1,3-21.9,3.3-20.7,3.4-19.4,3.7-17.9,4-16.4,4.1-14.7,4.2-13.1,4.4-11.3,4.6-9.6,4.6-7.6,4.8-5.8" fill="none" stroke="#909090" stroke-miterlimit="10" stroke-width="0.25"/><path d="M399.5,801.8V3.7" fill="none" stroke="#909090" stroke-miterlimit="10" stroke-width="0.25"/><path d="M411.5,795.8l4.8-5.8,4.6-7.7,4.6-9.5,4.4-11.4,4.2-13,4.1-14.8,4-16.4,3.7-17.9,3.4-19.3,3.3-20.7,3-22,2.7-23.1,2.4-24.1,2.1-25,1.8-25.8,1.5-26.5,1.2-27.1.8-27.4.5-27.7.2-27.8-.2-27.9-.5-27.7-.8-27.4-1.2-27-1.5-26.5-1.8-25.8-2.1-25.1-2.4-24.1-2.7-23.1-3-21.9-3.3-20.7-3.4-19.4-3.7-17.9-4-16.4-4.1-14.7-4.2-13.1-4.4-11.3-4.6-9.6-4.6-7.6-4.8-5.8" fill="none" stroke="#909090" stroke-miterlimit="10" stroke-width="0.25"/><path d="M423.2,795.8l9.3-5.8,9.2-7.7,8.9-9.5,8.7-11.4,8.4-13,8.1-14.8,7.7-16.4,7.3-17.9,6.9-19.3,6.4-20.7,5.8-22,5.3-23.1,4.8-24.1,4.2-25,3.6-25.8,2.9-26.5,2.3-27.1,1.7-27.4,1-27.7.3-27.8-.3-27.9-1-27.7L533,319.8l-2.3-27-2.9-26.5-3.6-25.8L520,215.4l-4.8-24.1-5.3-23.1-5.8-21.9-6.4-20.7-6.9-19.4-7.3-17.9-7.7-16.4-8.1-14.7-8.4-13.1-8.7-11.3-8.9-9.6-9.2-7.6-9.3-5.8" fill="none" stroke="#909090" stroke-miterlimit="10" stroke-width="0.25"/><path d="M434.1,795.8l13.7-5.8,13.4-7.7,13-9.5L487,761.4l12.3-13,11.8-14.8,11.2-16.4L533,699.3,543,680l9.3-20.7,8.6-22,7.8-23.1,7-24.1,6.1-25,5.2-25.8,4.3-26.5,3.4-27.1,2.4-27.4,1.4-27.7.5-27.8-.5-27.9-1.4-27.7-2.4-27.4-3.4-27L587,266.3l-5.2-25.8-6.1-25.1-7-24.1-7.8-23.1-8.6-21.9L543,125.6l-10-19.4L522.3,88.3,511.1,71.9,499.3,57.2,487,44.1,474.2,32.8l-13-9.6-13.4-7.6L434.1,9.8" fill="none" stroke="#909090" stroke-miterlimit="10" stroke-width="0.25"/><path d="M444,795.8l17.6-5.8,17.2-7.7,16.8-9.5,16.3-11.4,15.9-13,15.1-14.8,14.5-16.4,13.7-17.9L584,680l12-20.7,11-22,10-23.1,9-24.1,7.8-25,6.7-25.8,5.6-26.5,4.3-27.1,3.1-27.4,1.9-27.7.6-27.8-.6-27.9-1.9-27.7-3.1-27.4-4.3-27-5.6-26.5-6.7-25.8L626,215.4l-9-24.1-10-23.1-11-21.9-12-20.7-12.9-19.4L557.4,88.3,542.9,71.9,527.8,57.2,511.9,44.1,495.6,32.8l-16.8-9.6-17.2-7.6L444,9.8" fill="none" stroke="#909090" stroke-miterlimit="10" stroke-width="0.25"/><path d="M452.6,795.8l20.9-5.8,20.5-7.7,20-9.5,19.5-11.4,18.8-13,18.1-14.8,17.3-16.4,16.4-17.9L619.4,680l14.3-20.7,13.1-22,11.9-23.1,10.7-24.1,9.4-25,8-25.8,6.6-26.5,5.1-27.1,3.7-27.4,2.3-27.7.7-27.8-.7-27.9-2.3-27.7-3.7-27.4-5.1-27-6.6-26.5-8-25.8-9.4-25.1-10.7-24.1-11.9-23.1-13.1-21.9-14.3-20.7-15.3-19.4L587.7,88.3,570.4,71.9,552.3,57.2,533.5,44.1,514,32.8l-20-9.6-20.5-7.6L452.6,9.8" fill="none" stroke="#909090" stroke-miterlimit="10" stroke-width="0.25"/><path d="M459.5,795.8l23.6-5.8,23.2-7.7,22.7-9.5,22-11.4,21.3-13,20.5-14.8,9.8-8,9.7-8.4,9.3-8.7,9.1-9.2,8.9-9.5,8.5-9.8,8.2-10.2,7.9-10.5,7.6-10.8,7.3-11.2,6.9-11.4,6.6-11.7,6.2-11.9,5.8-12.2,5.5-12.4,5.1-12.6,4.7-12.8,4.4-13,3.9-13.2,3.5-13.3,3.1-13.5,2.7-13.6,2.3-13.6,1.9-13.8,1.5-13.8,1.1-13.9.6-13.9.2-13.9-.2-14-.6-13.9-1.1-13.8-1.5-13.9-1.9-13.7-2.3-13.7-2.7-13.6-3.1-13.4-3.5-13.3-3.9-13.2-4.4-13-4.7-12.8-5.1-12.7-5.5-12.4-5.8-12.2-6.2-11.9L686,179.6l-6.9-11.4-7.3-11.1-7.6-10.8-7.9-10.6-8.2-10.1-8.5-9.9-8.9-9.5-9.1-9.1-9.3-8.8-9.7-8.4-9.8-8L572.3,57.2,551,44.1,529,32.8l-22.7-9.6-23.2-7.6L459.5,9.8" fill="none" stroke="#909090" stroke-miterlimit="10" stroke-width="0.25"/><path d="M399.5,801.8l20.9-.5,13.9-1,20.7-2.4,20.6-3.4,13.7-2.9,20.2-5.2,13.3-4.1,13.2-4.5,19.4-7.7,19-8.7,18.6-9.6,12-7,17.7-11.2,11.4-8,16.5-12.7,10.7-9,10.4-9.3,10-9.6,9.7-10.1,9.3-10.3,8.9-10.7,12.7-16.6,11.9-17.2,7.4-11.8,10.2-18.2,6.4-12.4,8.6-19,5.3-12.9,4.7-13.1,6.3-19.9,5.2-20.3,2.9-13.6,3.5-20.6,2.3-20.7,1-13.9.5-14V395.8l-.5-13.9L797,368l-2.3-20.8-3.5-20.6L788.3,313l-5.2-20.2-6.3-19.9-4.7-13.1-5.3-13-8.6-19-6.4-12.4-10.2-18.2-7.4-11.8-11.9-17.2-12.7-16.6L700.7,141l-9.3-10.4-9.7-10-15.2-14.4L656,97.1l-10.8-8.8-11.1-8.4-11.4-8L605,60.7l-12-7-18.6-9.6-19-8.7L536,27.8l-13.2-4.6-13.3-4-20.2-5.3L475.6,11,455,7.6,434.3,5.2l-13.9-.9-20.9-.6" fill="none" stroke="#909090" stroke-linecap="round" stroke-linejoin="round"/><path d="M602.3,469.9v-3.4l2.7-2.3,2.5,1.2,1.6-1.1,1.8,2.5-1.6,3.7-3.8.6Zm8.5-10.1,5-1.3,4-1.9-.7,3.9-7.9,2.5Z" fill="#c3ccd3"/><path d="M619.5,457l-.6,3.3-7.5,2.3-.3-2.6,4.8-1.3,3.6-1.7m-14.4,7.5,2.4,1.1,1.5-.9,1.6,2.2-1.5,3.4-3.6.6-2.9-1.2v-3.1l2.6-2.1m15-8.4-.9.4-3.5,1.8-4.8,1.2h-.4v.5l.3,2.6v.6l.6-.2,7.5-2.3h.3v-.3l.5-3.3.2-1ZM605,463.9l-.2.2-2.6,2.1-.2.2V470h.3l2.9,1.2h.3l3.6-.6h.2v-.3l1.6-3.4v-.3l-.2-.2-1.5-2.2-.3-.4-.4.2-1.4.9-2.1-1-.3-.2Z" fill="#fff"/><polygon points="721 236.6 722.8 234.5 726.3 239.5 722.9 241.1 721 236.6" fill="#c3ccd3"/><path d="M722.8,234.9l3.1,4.5-2.9,1.4-1.7-4.2,1.5-1.7m0-.8-.4.5-1.5,1.7-.2.2v.3l1.8,4.2.2.4.4-.2,2.9-1.4.6-.2-.4-.5-3.1-4.5-.4-.5Z" fill="#fff"/><path d="M432.1,406l-12.7-2-5.4-4.5-3.9-3.9-3.5-6.1-8.9-3-5.7,2-4,2.2.9,5.2-5.7,2.5-3.9-1.2L372,397l-.6-45.8,12.4,4.8,12.9,3.9,4.8,3.5,4,3.6,1,4,11.5,4.4,1.9,4.1-6.4.7,1.3,4.3,6.1,4.6,4.4,7.3,4.1-.2-.3,3.2,5.6,1.3-2.2,1.4,7,2.9-.9,2.4-4.8.4Zm37.2-26.1-3-4.6.3-4.4,2.5,1.9,3.2,4.5,3.3,2.6-1.1,2.2-2.2.7Zm-37.2-2.3-5.8-2.1-4.1-2.1.7-2.5,6.4,1.1,3.6-.5,1.2-3.8,1.8,4,3.7-.4,1.9-2.3,3.8-2.4-.8-4.2H449l1.6,1.3-.2,4-2.4,4.4-3.7.5-1.1,1.8-7.4,3.3ZM452.2,363l-1.6-2.7-6.9-5.3-5.3-2.2,2.3-2,9.1,5.3,2.8,3,2.7,2.4.8,3.8-2.6,2.1Z" fill="#c3ccd3"/><path d="M440.8,351.1l8.9,5.3,2.7,2.9,2.6,2.3.8,3.6-2.1,1.8-1.3-4.1-1.6-2.7-7-5.4-5-2.1,2-1.6m-69.1.4,12.1,4.7,12.8,3.9,4.8,3.5,3.9,3.5,1,4.1,11.5,4.4,1.7,3.7-6.4.7,1.5,4.6,6.2,4.7,4.4,7.4,3.9-.2-.3,3.1,5.2,1.2-2,1.3,7.2,3.1-.8,2-4.5.4-1.7-1.9-12.7-1.9-5.3-4.5-3.9-3.9-3.6-6.1-9-3-5.8,2-4.2,2.3.9,5.1-5.4,2.4-3.9-1.1-7.1-.2-.5-45.3m77.2,11.1,1.4,1.2v3.8l-2.4,4.2-3.6.5-1.1,1.9-7.4,3.2h-3.6l-5.7-2.1-3.9-2,.6-2.1,6.2,1,3.8-.5,1-3.3,1.7,3.6,3.9-.5,2-2.3,3.8-2.4-.7-4.1h4.1m18,8.8,2,1.6,3.2,4.5,3.2,2.5-1,1.9-1.9.6-2.9-2.8-2.9-4.5.3-3.8m-26.2-21-.3.3-1.9,1.6-.6.5.7.4,5,2,6.8,5.3,1.5,2.6,1.3,4.1.2.7.6-.5,2.1-1.8.3-.2v-.3l-.8-3.6v-.2h-.1l-2.6-2.2-2.7-3H450l-9-5.3-.3-.2Zm-69.5.4v.8l.5,45.2v.5h.4l7.1.2,3.8,1.1h.3l5.4-2.4.3-.2v-.4l-.9-4.7,3.9-2.2,5.6-1.9,8.7,2.9,3.5,6h0l3.9,3.8,5.3,4.6h.3l12.6,1.9,1.5,1.7.2.2h.2l4.5-.4h.3l.2-.2.8-2v-.5l-.4-.2-6.3-2.7,1.2-.7,1-.7-1.1-.2-4.9-1.2.3-2.7V396h-.5l-3.7.2-4.2-7.2h-.1l-6-4.6-1.3-3.9,5.7-.6h.7l-.3-.6-1.6-3.7v-.2H418l-11.3-4.2-1-3.9h-.1l-3.9-3.5-4.8-3.6h-.1l-12.9-3.9-12-4.6-.7-.3Zm77.9,11.3h-4.9v.6l.7,3.7-3.6,2.2h-.1l-1.9,2.2-3.3.4-1.5-3.2-.6-1.1-.4,1.2-.9,3-3.4.4-6.1-1h-.5v.4l-.6,2.2v.4h.4l3.9,2h0l5.7,2.1h4l7.4-3.2h.2l1-1.7,3.4-.5h.2v-.2l2.4-4.2h.1v-4.3l-1.4-1.2Zm17.3,8.3v.9l-.3,3.9v.2h.1l2.9,4.5h0l2.9,2.8.2.2h.3l1.9-.7h.2v-.2l1-1.9.2-.4-.3-.2-3.1-2.5-3.2-4.4h-.1l-2-1.6-.8-.6Z" fill="#fff"/><path d="M226.1,406.6l6.4-2.1,6,3.9-.3,2.3-2.9.4Zm29.4.2,2.6-4.6,6.5-3.4,1.1,3.9-4,5.6-5.8,2Zm-41-7,3.4-.4,1.5-2.7,2.5,1.7,3.9-.9,1.9,3.3-11.5,3.4-3.7.3ZM193,401.7l-5.2.7-6.1.2-5.5-.6-6.8-1.9-4-.2-2.3,1.2-10.4-1.5-1.2-2.9-5.1.2,3.4-7.6,6.8-.5,4.7,2.1,2.4.3.9,2.3,10.5-.6,1.1-3.1,11.3,2.2,2.4,4.2,8.8.4,8.2,3.6-7.2,3.6Zm39.1-.5-.2-3,5.2-1.9,4.1,1.8,4.1-.8,5.9-3.2-.8,4.6-9.6,2.7ZM366,391.4l-6.8-1.3-1.7,2-9.2.4,3.1-6.1,4.2-2-1.9-7.3-3.3-5.7-13.3-5.5-5.6-.4-10.2-5.9-1.9,3.3-2.9.7-1.7-2.6v-3l-5.5-3.4,7.8-2.9h4.6l-.4-1.3-10,.4-2.7-4.1-6-1-3.2-3.6,9.5-2.2,3.5-2.4,11.1,2.5,1.2,2.6,2,11.1,6.8,3.7L339,350l8-4.5h6.2l11.1,4.7,7.6,1.2.6,46.1Zm-228.2-5.9-6.9-4.6-2.4-3.9-4.1-5-2.6-4.8-4-9-4.3-4.9-1.4-5.7-1.7-5-4.1-3.4-2.3-5.4-3.2-3.1-4.4-6.6-.2-3.7,10.4-.4,3.8,5.9,6,6.3,4.4,6.4,5.1-.7,4.2,4,3,5.3,4,2.6-2,5.9,2.8,1.8h2l1,4.8,1.9,3.4h3.9l2.9,4.1-1,8.9.3,10.9-6.2,1.1Zm186.5-8.4,2.8-5.3,1.8,2.3v3.5l-3.8,5.4Zm-97,.4,1.6-6.6-1.1-6.3h-2.6l-2.2-4.8,2.6-4.9.8-5.4,3.1-10.7,1.4-2.9,5.5-5.7,5.1,1.7,8.1.3,7.3-.8,6.6-5.5,1.4,1.8-5.4,7.4-5,1.7-6.3-1-10.6,1.2-5.4,1.4-.8,4.9,5.4,5.4,3.3-3.2,12.4-3.3-.6,3.8-2.9-.8-2.7,4.1-5.4,3,6.1,8.3-1.1,2.4,6,7.6v4.7l-3.7,2.5-2.9-2.5,2.7-5.4-5.7,2.9-1.9-2.1.8-2.7-4.7-3.6.3-6.5-3.6,2.1.7,7.9.6,10.1-4.2,1.4ZM197,367.4h-4.2l-3-1.9-6.9,3.3-2.3-3.2-3.6.8-5-.2-1.1-9.2-2.9-1.6-2.8-5.6-.8-6,.8-6.5,3.8-5.5.9,4.9,3.7,3.3,3.6-1.8h3.7l3.4-3.8,3-.9,5.5,1.3,4.8-1.9,3.2-9.7,2.4-2.6,2.4-8,7.2-.7,5.7.7-3.8,6.6,4.4,6-1.2,3.2,7.2,6-7.7,1.5-2,4.7.2,6.2-5.8,5.3v6.7l-2.2,11.7-1.2-2.9-6.7,3.8Zm73.9-5.1-1.6-3.4,7.2-.7,1.9,2.4-2.7,2.7Zm25.3-2.5-5.5-.3-3.7.7h-5l1.7-4.4,8.4-.7,7.6,1.7,2.9,5.9Zm-15.6-21.2-2-8.8,1.4-5.7,2.6-3,.5,4,3.9.4.7,3-.4,6.3-3.5-.5-.9,3.9,2.9,3.6-2.4,1.2Z" fill="#c3ccd3"/><path d="M212.8,312.2l5.3.7-3.7,6.4,4.4,6.1-1.1,3.2,6.9,5.7-7.4,1.5-2.1,4.8.3,6.2-5.9,5.3v6.8l-2.1,10.8-1-2.3-6.7,3.7-2.5-3.9h-4.3l-3-1.9-6.9,3.3-2.3-3.1-3.8.8-4.7-.3-1.1-9.1-2.9-1.6-2.7-5.5-.8-5.9.7-6.4,3.4-5,.9,4.5,3.9,3.4,3.7-1.9H181l3.4-3.8,2.9-1,5.6,1.4,4.9-2,3.2-9.8,2.4-2.6,2.4-7.9,7-.7m-106.4,8,3.8,5.9,6.1,6.2,4.4,6.6,5.1-.8,4.2,4,2.9,5.3,3.9,2.5-2,5.9,3,1.9h1.9l1,4.7,1.9,3.6h4l2.7,4-1,8.8.4,10.7-5.9,1-4.8-5.1-6.9-4.6-2.4-3.9-4.1-5-2.6-4.7-4-9-4.3-4.9-1.4-5.7-1.6-5-4.2-3.5-2.2-5.4-3.3-3.1L96.7,324l-.2-3.4,9.9-.4m176.1,1.5.4,3.7,3.9.4.6,2.7-.3,6-3.5-.5-1,4.2,2.8,3.5-1.9,1-2.7-4.3-1.9-8.6,1.3-5.5,2.3-2.6m-19,4.7,1.1,1.4-5.3,7.2-4.9,1.6-6.2-.9-10.6,1.1-5.6,1.4-.9,5.3,5.7,5.7,3.4-3.4,12-3.2-.5,3.2-2.8-.8-2.8,4.2-5.6,3.1,6.2,8.4-1.1,2.5,6,7.6v4.5l-3.4,2.3-2.6-2.3,3-5.9-6.2,3.2-1.7-1.8.8-2.8-4.7-3.7.3-6.7L233,360l.7,8,.6,9.9-3.9,1.3-2.8-1.8,1.6-6.5-1.2-6.6-2.6.2-2.1-4.6,2.5-4.7.8-5.6,3.2-10.6,1.3-2.9,5.4-5.5,5,1.6,8.1.4,7.4-.8,6.5-5.4m48.8,11.3,11,2.4,1.1,2.5,1.9,11.1,7.2,3.9,5.6-7.4,7.9-4.4h6.2l11,4.6,7.5,1.2.5,45.3-6.1-5.6-7-1.3-1.7,2-8.6.4,2.8-5.7,4.3-2.1L354,377l-3.4-5.8-13.4-5.5-5.7-.4-10.3-6.1-2,3.5-2.6.7-1.5-2.5v-3l-5.2-3.2,7.3-2.8h4.8l-.6-1.8-9.9.3-2.7-4-6.1-1-2.9-3.3,9.1-2,3.5-2.4m-20.2,17.6,7.4,1.7,2.6,5.2-5.8-2.6-5.6-.3-3.7.6h-4.6l1.5-3.9,8.2-.7m-15.7,3.1,1.7,2.2-2.5,2.4-4.6-1-1.3-2.9,6.7-.7m50.7,13.8,1.6,2v3.3l-3.4,4.9-.7-5.2,2.5-5M156.6,389l4.6,2.2,2.3.2,1,2.4,10.8-.7,1.1-3,10.9,2.1,2.5,4.3,8.9.3,7.6,3.4-6.6,3.3-6.7-2.1-5.3.8h-6l-5.5-.6-6.7-1.8-4.2-.2-2.2,1.1-10.2-1.5-1.2-2.8-4.9.2,3.2-7.2,6.6-.5m94.3,5.5-.7,4-9.4,2.6-8.4-.2-.2-2.5,4.9-1.8,4,1.7,4.2-.8,5.6-3M219.5,397l2.4,1.7,3.7-.9,1.8,2.8-11.2,3.3-3.3.3,1.8-4.2,3.3-.4,1.5-2.6m45,2.2.9,3.4-3.9,5.5-5.4,1.9-.4-3.2,2.5-4.4,6.3-3.2m-32,5.6,5.7,3.8-.2,1.9-2.6.3-8.6-4.2,5.7-1.8m-19.7-93.1h-.1l-7,.7h-.3v.4l-2.3,7.8-2.3,2.5h-.2l-3.1,9.6-4.6,1.8-5.4-1.2h-.3l-2.8.9h-.2l-3.3,3.7h-3.7l-3.5,1.7-3.4-3.1-.9-4.3-.2-1.1-.7.9-3.4,5h-.1l-.7,6.4h0l.8,5.9h0l2.8,5.6h.2l2.6,1.4,1.1,8.9v.4h.5l4.7.3h.1l3.5-.8,2,2.9.3.3.4-.2,6.6-3.1,2.8,1.7h4.3l2.3,3.7.3.4.4-.2,6.3-3.5.7,1.8.7,1.6.3-1.7L210,359h0v-6.6l5.7-5.1.2-.2v-.2l-.3-6.1,1.9-4.5,7.2-1.4,1-.2-.8-.7-6.7-5.5,1-2.9v-.4l-4.2-5.8,3.5-6.2.4-.6h-.8l-5.3-.7Zm-106.1,8h-.3l-9.9.4H96v.5l.2,3.3v.2h0l4.3,6.5h.1l3.2,3,2.2,5.3h.2l4,3.4,1.7,4.9,1.3,5.6h.1l4.3,4.9,3.9,8.9,2.7,4.8h0l4.1,4.9,2.3,3.8h.2l6.9,4.6,4.7,5,.2.2h.3l5.9-1h.4v-.4l-.4-10.7,1-8.7v-.4l-2.7-4-.2-.2h-3.9l-1.8-3.3-.9-4.6v-.4h-2.2l-2.5-1.6,1.9-5.5v-.4l-.3-.2-3.8-2.5-2.9-5.1h-.1l-4.2-3.9v-.2h-.3l-4.8.7-4.2-6.2h-.1l-6-6.2-3.7-5.8-.2-.3Zm176.1.8-.7.8-2.3,2.6h-.1l-1.3,5.6h0l1.9,8.7h.1l2.7,4.2.2.4.4-.2,1.9-.9.5-.3-.3-.5-2.6-3.3.8-3.5,3,.4h.5v-.6l.3-6h0l-.6-2.8v-.3h-.3l-3.6-.4-.3-3.3-.2-1.1Zm-19.2,5.2-.4.3-6.4,5.3-7.3.8-7.9-.4-4.9-1.6h-.3l-.3.2-5.4,5.5h-.1l-1.3,2.9h0l-3.1,10.6h-.1l-.8,5.5-2.4,4.7v.4l2,4.6.2.3h.3l2.2-.2,1.1,6.1-1.6,6.4v.3l.3.2,2.7,1.8.2.2h.3l3.9-1.3h.4v-.4l-.6-9.9-.7-7.7,3.1-1.8-.2,5.8v.3h.2l4.4,3.5-.7,2.4v.5l1.7,1.8.3.3.3-.2,4.8-2.4-2.2,4.5-.2.4.3.2L248,378l.3.2.3-.2,3.4-2.3h.2v-4.9h0v-.2l-5.8-7.3,1-2.2v-.2l-.2-.3-5.8-7.9,5.1-2.8h.1l2.6-3.9,2.5.7h.5v-.5l.5-3.2v-.8l-.7.2-12,3.2h-.2l-3.1,3.1-5.1-5.2.7-4.6,5.2-1.4,10.6-1.1,6.2.9h.2l4.9-1.7h.2l5.3-7.2.3-.3-.3-.3-1.1-1.4-.3-.4Zm48.6,11.5H312l-3.4,2.3-9,2-.8.2.6.6,2.8,3.3v.2h.2l5.9,1,2.6,3.8v.2h.3l9.6-.3.2.8h-4.3l-7.3,2.8-1,.4.9.5,5,3.1v2.7h0l1.6,2.5.2.3h.4l2.6-.7h.2v-.2l1.7-3,9.9,5.8h.2l5.6.4,13.1,5.4,3.3,5.6,1.8,7.1-4,1.8h-.2l-2.8,5.8-.4.7h.9l8.6-.4h.3v-.2l1.5-1.8,6.5,1.2,6.1,5.6.9.7v-1.1l-.5-45.3v-.4h-.4l-7.4-1.3-11-4.6h-6.6l-7.9,4.3h-.2l-5.4,7.2-6.5-3.6-2-10.9h0l-1.1-2.5v-.2h-.2l-11-2.4Zm-20,17.6h-.1l-8.3.7h-.3v.3l-1.5,3.8-.3.7h5.5l3.7-.6,5.4.3,5.7,2.5,1.2.6-.6-1.2-2.5-5.2v-.2h-.3l-7.4-1.7Zm-15.6,3.1h-.3l-6.6.7H269l.3.6,1.3,2.9v.3h.2l4.6,1h.3l.2-.2,2.4-2.4.3-.4-.2-.3-1.7-2.2-.2-.2ZM327,371.3l-.3.7-2.6,4.9v.2h.1l.7,5.2.2,1.3.7-1,3.4-4.9h.1V374h-.1l-1.6-2-.5-.6ZM156.7,388.5h-.1l-6.7.5h-.3v.2l-3.2,7.2-.3.7h.8l4.6-.2,1,2.5v.3h.3l10.2,1.5h.3l2.1-1.1,4,.2,6.7,1.8h.1l5.4.6h6.2l5.2-.8,6.6,2.1h.3l6.6-3.4,1-.4-1-.5-7.6-3.4h-.2l-8.6-.3-2.3-4-.2-.2h-.2l-10.9-2.1h-.4l-.2.4-.9,2.7-10.2.6-.8-2v-.3h-.3l-2.3-.2-4.5-2.1Zm94.9,5.1-1,.5-5.5,2.9-3.9.8-3.9-1.7h-.4l-4.9,1.8-.3.2v.3l.2,2.6v.4h.5l8.3.2h.2l9.4-2.7h.3v-.3l.7-4,.2-1Zm-32.2,2.7-.3.5-1.4,2.4-3.1.3h-.2l-.2.3-1.8,4.2-.3.8h.8l3.3-.3h.1l11.2-3.3.6-.2-.3-.5-1.7-2.9-.2-.3h-.4l-3.5.9-2.2-1.6-.4-.3Zm45.4,2.2-.6.3-6.2,3.1h-.2l-2.5,4.5h-.1v.2l.4,3.2v.6l.6-.2,5.4-1.9h.2l3.9-5.5.2-.2v-.2l-1-3.4v-.6Zm-32.3,5.7h-.2l-5.7,1.9-1.1.3,1.1.6,8.6,4.2h.2l2.7-.3h.3v-.4l.2-1.9v-.3h-.3l-5.8-3.8-.2-.2Z" fill="#fff"/><polygon points="384.5 68.9 385.3 65.2 385.1 61.2 386.4 58.5 386.9 54 384.6 50.8 385.5 46.1 389.6 44.6 391.1 44.8 392.4 48 392.1 51.2 393.8 54.5 398.5 61.1 391.3 59.9 388.4 64.9 392.8 68.6 392.5 71.9 388.8 69.4 385.3 72.6 384.5 68.9" fill="#c3ccd3"/><path d="M389.6,44.9h1.3l1.3,3-.3,3.2,1.6,3.4,4.4,6.2-6.7-1.2-3.1,5.3,4.4,3.8-.2,2.7-3.5-2.3-3.4,3-.6-3.2.8-3.7-.3-3.9,1.3-2.7.5-4.6-2.2-3.3.8-4.4,3.9-1.4m0-.5h-.1l-4,1.5h-.2v.2l-.8,4.4V51l2.1,3.1-.5,4.3-1.2,2.7h-.1l.2,3.9-.7,3.6h0l.6,3.2.2.9.7-.6,3-2.8,3.2,2.1.7.5v-.8l.2-2.7v-.3h-.2l-4.1-3.6,2.8-4.6,6.3,1.1,1.2.2-.7-1L394,54.4l-1.6-3.3.3-3h-.1l-1.2-3.1v-.2h-1.7Z" fill="#fff"/><polygon points="142.7 686.2 147.7 687.3 150.9 690.7 149.2 692.6 142.7 686.2" fill="#c3ccd3"/><path d="M143.5,686.6l4.1.9,3,3.2-1.4,1.5-5.7-5.6m-1.6-.8,1.2,1.2,5.7,5.6.4.3.3-.4,1.4-1.4.4-.4-.4-.3-3-3.2h-.2l-4.1-.8-1.7-.4Z" fill="#fff"/><polygon points="264.2 399.2 264.9 397.3 270.6 395.4 275.2 394.9 277.2 393.9 280.2 394.7 277.5 397.1 270.8 400.5 265.3 403 264.2 399.2" fill="#c3ccd3"/><path d="M277.2,394.1l2.5.7-2.3,2.1-6.7,3.4-5.3,2.3-.9-3.4.6-1.7,5.5-1.9,4.6-.5,2-1m-.1-.5H277l-2,.9-4.4.5h-.1L265,397h-.3v.2L264,399v.2h.1l.9,3.5.2.5.5-.2,5.3-2.3,6.7-3.5h.1l2.3-2,.7-.6-.9-.2-2.5-.8Z" fill="#fff"/><path d="M543.9,450.6l.6-2.5,4,4.9-2.7,1Zm-1.9-3.4-.8-2.2.4-5.8,3.3,2.7.4,6.1Z" fill="#c3ccd3"/><path d="M541.8,439.7l2.8,2.3.5,5.7-3-.7-.7-2,.4-5.3m2.8,9,3.5,4.2-2.2.8-1.7-3.2.4-1.8m-3.2-10v.9l-.4,5.4h.1l.7,1.9v.3h.2l2.3.6-.2.6-.4,1.8v.4l1.7,3.1.2.4h.4l2.1-.8.7-.2-.4-.6-3.5-4.2-.2-.3h.1l.7.2v-.7l-.5-5.6v-.2l-.2-.2-2.8-2.3-.7-.6Z" fill="#fff"/><polygon points="139.4 279.5 137.8 276.3 136.2 269.9 136.2 262.1 140.4 256.1 147.3 253.8 152.1 254 155.8 255.9 159 251.1 163.6 253 164.2 257.2 162.4 265.3 152.8 271.4 154.6 275.2 148.7 276.5 143.9 279.8 139.4 279.5" fill="#c3ccd3"/><path d="M159,251.4l4.4,1.7.5,4.2-1.8,7.8-9.6,6.2,1.8,3.7-5.6,1.2-4.9,3.4-4.2-.3-1.6-3.1-1.6-6.4v-7.6l4.1-5.9,6.8-2.2,4.6.2,3.9,1.9,3.1-4.8m-.1-.6-.3.3-2.8,4.4-3.5-1.7h-.2l-4.7-.2h-.2l-6.7,2.2h-.3l-4.1,5.9H136v7.7h0l1.6,6.4h0l1.7,3.1v.2h.3l4.2.3h.3l4.8-3.3,5.5-1.2.6-.2-.3-.5-1.6-3.3,9.3-6h.2v-.2l1.8-7.8h0l-.5-4.1v-.3h-.3l-4.3-1.7-.3-.2Z" fill="#fff"/><polygon points="124 310.8 120.6 308.8 119.5 310.2 117.6 307.6 117.1 304.4 113 298.6 111.1 299.2 112.2 294.5 114.4 287.9 117.6 280.7 121.1 274.1 120.3 268.6 121 262.1 118.9 257.6 118.4 254.3 120.3 252.8 123.1 247.1 122.2 243.3 120.4 239.3 119.6 234 121.8 232.5 125.7 225.3 129 224.5 132.4 221.4 135.6 219.3 137.3 221.1 136.7 224.6 139.9 224.3 136.9 231.4 135.8 236.3 141.4 232 142.6 233 145.3 232.4 146.8 230 150.8 229.9 153.6 234.6 152.6 240.7 155.7 245.7 154.5 251.2 152.2 254.5 147.4 254.3 140.8 256.5 136.7 262.2 136.6 270.2 132.3 267.8 127.8 268.7 129.4 263.5 125.7 264.1 124.1 271.2 117.7 287.3 117.5 291.7 120.5 291.4 121.9 297.3 122.2 302.9 124.5 306.1 127.5 306.4 130 309.7 128 312.9 124.2 314.4 124 310.8" fill="#c3ccd3"/><path d="M135.6,219.7l1.5,1.5-.8,3.7,3.2-.3-2.9,6.7-1.2,5.6,6-4.5,1.2.8,2.9-.6,1.5-2.3,3.6-.2,2.7,4.5-.9,6.2,3,4.9-1.2,5.4-2.2,3.2-4.6-.2-6.8,2.2-4.1,5.9v7.6l-4-2.3-4.2.9,1.5-5.3-4.2.8-1.6,7.2-6.4,16.1-.3,4.8,3.1-.4,1.3,5.8.3,5.6,2.5,3.3,2.9.3,2.4,3.1-1.9,3-3.4,1.4v-3.4l-3.8-2.3-1,1.4-1.7-2.3-.5-3.1-4.2-6.1-1.7.5,1-4.2,2.2-6.6,3.3-7.2,3.5-6.6-.9-5.6.7-6.6-2.1-4.5-.5-3,1.9-1.5,2.9-5.9-1-3.8-1.8-4.1-.8-5.1,2.2-1.5,3.9-7.1,3.2-.8,3.5-3.2,3-1.8m.1-.7-.4.2-3,1.9h-.1l-3.3,3-3.1.9h-.3v.2l-3.8,7-2,1.4-.3.2v.3l.8,5.1h.1l1.7,4,.9,3.7-2.7,5.6-1.8,1.4h-.2v.3l.5,3h0l2.1,4.4-.7,6.4h0l.9,5.5-3.5,6.4-3.2,7.2h-.1l-2.1,6.6-1,4.3-.2.8.8-.2,1.3-.4,3.9,5.6.5,3.1h.1l1.7,2.3.5.5.3-.5.7-1,3.2,1.9v3.8l.6-.3,3.4-1.3h.2l1.9-3.1.2-.2-.2-.3-2.4-3.1v-.2h-.2l-2.8-.2-2.2-3.1-.3-5.5h0l-1.3-5.7v-.4h-.4l-2.5.3.2-4.1,6.4-16h0l1.5-6.9,3.1-.5-1.3,4.4-.2.8.8-.2,4-.7,3.9,2.1.7.5v-8.4l3.9-5.6,6.5-2.1,4.6.2h.3v-.2l2.2-3.2h.1l1.2-5.4v-.4l-3-4.7.9-6v-.2h0l-2.7-4.5-.2-.3h-.3l-3.6.2h-.3v.2l-1.4,2.1-2.5.6-1-.7-.3-.3-.3.3-4.9,3.7.9-4.2,2.8-6.7.3-.8h-.8l-2.4.2.6-3V221h-.2l-1.5-1.6-.2-.3Z" fill="#fff"/><polygon points="151.7 254.4 154 251 155.2 245.8 152.1 240.8 153.1 234.7 150.5 230.4 147.1 230.5 145.6 232.8 142.5 233.5 141.4 232.7 135 237.5 136.4 231.3 139.1 224.9 136 225.1 136.8 221.3 135.3 219.7 137 217.1 142.3 212.3 144.6 213.4 145.9 206.7 148.9 205.3 150.4 209.9 151 214.8 157.1 214 157.7 219.4 153.9 221.6 152.2 223.7 157.2 226.4 162 238.4 165.1 242.2 165.7 246.6 163.5 253.5 159.1 251.7 156 256.5 151.7 254.4" fill="#c3ccd3"/><path d="M148.8,205.6l1.4,4.4.6,5.1,6-.8.6,5-3.6,2.1-2,2.4,5.2,2.8,4.7,11.9,3.2,3.8.5,4.3-2,6.5-4.4-1.7-3.1,4.8-3.9-1.9,2.2-3.2,1.2-5.4-3-4.9.9-6.2-2.7-4.5-3.6.2-1.5,2.3-2.9.6-1.2-.8-6,4.5,1.2-5.6,2.9-6.7-3.2.3.8-3.7-1.5-1.5,1.6-2.5,5.1-4.6,2.5,1.1,1.3-6.8,2.7-1.3m.3-.7-.5.3-2.7,1.3h-.2v.2l-1.2,6.2-1.9-.9h-.3l-.2.2-5.1,4.7h-.1l-1.6,2.4-.3.3.3.3,1.3,1.4-.6,3.4-.2.6h.7l2.3-.2-2.5,5.9h0l-1.3,5.6-.3,1.4,1.1-.9,5.7-4.3.9.6.2.2h.2l2.9-.6h.3l1.4-2.1,3.1-.2,2.4,4.1-.9,6v.4l3,4.7-1.1,5.1-2.2,3.1-.3.5.5.2,3.9,1.9.4.2.2-.3,2.9-4.5,4,1.6.5.2v-.5l2.1-6.5h0l-.5-4.3v-.2h-.1l-3.1-3.8-4.8-11.8h-.2l-4.6-2.5,1.5-1.9,3.5-2.1h.3v-.4l-.6-5v-.5h-.5l-5.6.8-.5-4.7h0l-1.4-4.3-.2-.6Z" fill="#fff"/><polygon points="114.6 283.1 116.8 277.8 115.8 274.3 117.4 267.1 116.1 264.2 116.1 256.6 117 248.7 116.4 244.4 106.9 253.4 101.9 252.3 105.4 243.8 106 238.2 104.8 231.7 105.8 229.6 103.9 229.3 102.5 224.7 104 219.4 105 220.1 106.5 215.9 108.9 214 109.4 211.6 111.1 209.3 113.5 202.9 116.2 203.6 119.7 198.5 121 195.6 125.2 190.2 126.4 186.9 133.4 181.7 135.8 182.2 136.9 178.8 138.8 177.5 139.4 175.4 142.5 174.4 142.5 177.7 143.8 178.7 140.1 188.1 134.2 193.7 131.4 200.2 136.2 198.5 135.4 203.9 137.9 204.6 135 209.9 139 212.2 143.3 209.6 142.5 212.7 137.4 217.4 135.8 219.8 132.7 221.7 129.3 224.9 126 225.8 122.2 232.8 120.1 234.2 120.9 239.2 122.6 243.2 123.6 247.2 120.7 253.1 118.9 254.6 119.3 257.4 121.5 262 120.8 268.6 121.7 274.2 118.1 280.9 114.3 289.2 114.6 283.1" fill="#c3ccd3"/><path d="M142.2,174.7v3.1l1.3,1-3.6,9.2-5.9,5.6-3,7.1,4.9-1.9-.8,5.3,2.4.7-2.9,5.2,4.4,2.5,3.9-2.4-.6,2.5-5.1,4.6-1.6,2.5-3,1.8-3.5,3.2-3.2.8-3.9,7.1-2.2,1.5.8,5.1,1.8,4.1,1,3.8-2.9,5.9-1.9,1.5.5,3,2.1,4.5-.7,6.6.9,5.6-3.5,6.6-3.3,7.2.2-4.9,2.2-5.3-.9-3.5,1.5-7.2-1.2-3v-7.5l.9-7.9-.8-4.9-9.7,9.3-4.6-1,3.4-8.2.7-5.7-1.3-6.5,1.2-2.3-2.2-.3-1.2-4.4,1.3-4.9,1.1.6,1.5-4.4,2.5-1.8.4-2.5,1.7-2.3,2.4-6.2,2.6.7,3.6-5.3,1.3-2.9,4.2-5.4,1.2-3.3,6.9-5,2.5.5,1.1-3.5,1.9-1.3.6-2.1,2.6-.9m.5-.7-.6.2-2.6.9h-.3v.3l-.6,1.9-1.7,1.2h-.2l-1,3.1-2.1-.4h-.4l-6.9,5h-.1v.2l-1.2,3.2-4.1,5.3h0l-1.3,2.9-3.4,4.9-2.3-.6h-.4l-.2.4-2.4,6.2-1.6,2.2h-.1l-.4,2.3-2.3,1.7h-.1v.2l-1.4,3.8-.5-.3-.6-.3-.2.6-1.3,4.9h0l1.3,4.4v.4h.3l1.4.2-.8,1.7h-.1v.2l1.3,6.4-.7,5.6-3.3,8.1-.3.6h.6l4.6,1h.3l.2-.2,9-8.6.6,3.8-.9,7.9h0v7.5h0l1.2,2.8-1.5,7v.2h.1l.9,3.4-2.1,5.1h-.1l-.2,4.8v2.6l1.1-2.3,3.2-7.2,3.5-6.6h.1v-.2l-.9-5.5.7-6.5v-.2h0l-2.1-4.5-.4-2.6,1.6-1.3h.1l2.9-5.9h.1V247l-.9-3.8h0l-1.8-4-.7-4.7,1.9-1.4h.2l3.7-6.9,3.1-.8h.2l3.4-3.1,2.9-1.8h.2l1.6-2.3,5-4.6h.2v-.2l.6-2.5.3-1.1-1.1.6-3.6,2.2-3.7-2.1L138,205l.3-.5-.6-.2-2-.5.7-4.9v-.8l-.8.3-3.8,1.4,2.5-5.9,5.8-5.6h.2L144,179v-.4l-.3-.2-1.1-.9V174Z" fill="#fff"/><polygon points="145 287.4 146.9 282.8 143.4 279.5 148.5 276 153.9 274.8 152.1 271.3 161.9 264.9 163.7 257.2 163.1 253.1 165.2 246.6 164.6 242.4 161.5 238.6 156.8 226.8 151.5 223.9 153.6 221.2 157.1 219.2 156.6 214.5 150.6 215.4 149.9 210 148.5 205.5 151.7 203.5 155.5 203 160.4 201.6 165.6 197.7 167.5 199.7 172 200.2 170.2 203.9 171.8 205.8 177 206.8 168.4 213.2 162.7 219.5 160.7 223.8 166.3 237.1 170.4 240.4 172.8 245.2 173.4 256.7 171.1 268.4 165.9 273.3 159.2 278.4 154.2 284.4 146.6 291.8 145 287.4" fill="#c3ccd3"/><path d="M165.6,198l1.7,1.9,4.3.5-1.7,3.5,1.7,2.1,4.8.9-8.2,6.1-5.7,6.4-2.1,4.4,5.7,13.5,4.1,3.3,2.4,4.6.6,11.6-2.3,11.5-5.1,4.8-6.8,5.1-5,6.1-7.3,7.1-1.5-4,2-4.7-3.4-3.1,4.9-3.4,5.6-1.2-1.8-3.7,9.6-6.2,1.8-7.8-.5-4.2,2-6.5-.5-4.3-3.2-3.8L157,226.6l-5.2-2.8,2-2.4,3.6-2.1-.6-5-6,.8-.6-5.1-1.4-4.4,3-1.8,3.8-.6,4.9-1.4,5.1-3.8m.1-.6-.4.2-5,3.8-4.8,1.3-3.8.6h-.2l-3,1.9-.3.2v.4l1.4,4.3.6,5.1v.5h.5l5.5-.8.5,4.2-3.3,2h-.2l-1.9,2.4-.4.5.5.3,5,2.7,4.7,11.6h0l3.1,3.7.5,4.1-2,6.4h0l.5,4-1.7,7.6-9.5,6.1-.4.3.2.4,1.5,3-5,1.2h-.1l-4.9,3.3-.5.4.5.4,3.1,3-1.8,4.3v.4l1.4,4,.3.7.6-.5,7.2-7.2h.1l5-6,6.7-5.1h0l5.1-4.9h.2l2.3-11.5h0l-.6-11.5H173l-2.4-4.7h-.1l-4-3.2L161,223.8l2-4.2,5.5-6.2,8.2-6.1.9-.7-1.1-.2-4.6-.8-1.4-1.8,1.6-3.2.3-.7h-.7l-4.1-.5-1.6-1.7-.3-.3Z" fill="#fff"/><polygon points="290.2 109.2 295.6 103 290.6 100.9 296.1 97.5 302.4 94.7 306.9 91.4 308.9 92.6 312.9 92.6 312.8 90.4 321.1 88.1 323.9 85.5 326.6 88 327.4 89.2 325.1 89 320.8 92 320.1 95.2 317.1 96.4 313.7 98.6 310.1 99.5 307.6 100.8 307 102.5 310.5 105.6 309.2 107 303.2 107.9 300.5 110.1 297.7 110.6 294.5 110.7 290.2 109.2" fill="#c3ccd3"/><path d="M323.9,85.9l2.5,2.3h0l.5.7h-1.8l-4.5,3.1-.7,3.1L317,96.1l-3.4,2.3-3.6.9-2.6,1.3-.7,2,3.5,3-1.1,1.2-6.1.9-2.6,2.2-2.7.4-3.2.2-3.9-1.4,5.4-6.2-4.8-2.1,5-3.1,6.3-2.7,4.4-3.3,2,1.2h4.2V90.6l8.3-2.3,2.6-2.4m0-.7-.3.3L321,87.9l-8.1,2.2h-.4v2.1H309l-1.8-1.2h-.3l-.3.2-4.3,3.2L296,97.2h0l-5.1,3.1-.8.5.9.4,4.1,1.8-4.9,5.7-.4.5.7.3,3.9,1.4h.2l3.1-.2,2.8-.4h.2l2.6-2.2,5.9-.8h.1l.2-.2,1-1.1.4-.4-.4-.3-3.2-2.8.5-1.5,2.4-1.2,3.5-.9h.2l3.3-2.2,2.9-1.1h.2v-.3l.6-2.9,4.2-2.9h2.7l-.6-.8-.5-.8h0l-2.5-2.4-.4-.3Z" fill="#fff"/><polygon points="294.8 123.8 296.7 120.1 295.7 115 299.7 114 297.3 110.1 300.3 109.7 302.9 107.4 309 106.6 310.2 105.2 313.5 110.8 314.1 114 312.9 119.7 310.1 122.6 304.9 123.8 300.1 126.1 294.7 126.9 294.8 123.8" fill="#c3ccd3"/><path d="M310.2,105.6l3.1,5.3.6,3.1-1.3,5.6-2.6,2.8-5.2,1.2-4.8,2.3-5.1.7v-2.7l2-3.8-1-4.9,4.1-1-2.4-3.9,2.7-.4,2.6-2.2,6.1-.9,1.1-1.2m0-.8-.4.5-.9,1-5.9.9h-.3l-2.5,2.1-2.6.4h-.8l.5.7,2,3.3-3.4.8h-.5v.5l.9,4.8-1.8,3.6h-.1v3.3h.6l5-.7h.2L305,124l5.1-1.2h.3l2.6-2.8h.1l1.3-5.6h0l-.6-3h-.1l-3.1-5.3-.4-.6Z" fill="#fff"/><polygon points="179.3 100.2 181.1 96.7 179.8 96.6 178.4 94.8 171.8 95.2 172.7 93.1 178.6 87.9 179.9 85.2 177.9 83 180.5 80.2 183.9 78.8 192.6 74.2 198.7 71.4 199.8 72.1 202.8 71.5 202.8 72.8 205.2 72.4 208.5 72.6 214.1 69.4 215.2 67.5 222.5 63.1 224.4 64 226.6 63.9 229.9 64.3 227.7 67 230.4 67.7 234.2 66.5 239 65.4 242.2 65.4 244.2 66.8 244.7 68.3 248 67.9 252.2 67.9 256.3 66.6 261.8 65.4 269.4 62.2 271.6 62.4 272.7 63.4 278.5 62.5 268.9 69.7 274.6 70.6 278.7 68.9 281.4 69.8 283.9 72.4 282.5 74.1 279.2 73.9 272.8 75 269.2 76.4 264.5 79.3 257 81.5 251.5 84.2 245.6 83.7 241.9 86.5 242 89.3 233.6 93.8 227.7 96 221.4 96.9 213.9 99.3 207.5 102.5 206.6 101.3 201.9 102 198.2 100.2 195.1 100.1 189.9 101.6 183.3 101.9 179.2 102.8 179.3 100.2" fill="#c3ccd3"/><path d="M269.5,62.5l2,.2,1.1,1,4.9-.8-9.2,7,6.3.9,4.1-1.7,2.6,1,2.3,2.3-1.2,1.4h-3.2l-6.5,1-3.6,1.4-4.7,3L257,81.3l-5.6,2.6-5.8-.5-3.9,3v2.7l-8.3,4.5-5.9,2.1-6.3,1-7.5,2.4-6.3,3.1-.8-1.2-4.7.8-3.7-1.9h-3.2l-5.3,1.4-6.5.4-3.9.8.2-2.3,1.9-3.7h-1.6l-1.4-1.9-6.3.4.7-1.6,5.9-5.2,1.4-2.9-2-2.2,2.4-2.6L184,79l8.7-4.6,6-2.7,1,.6,2.9-.5v1.3l2.8-.4h3.3l5.7-3.2,1.1-1.9,7.1-4.3,1.8.8h2.4l2.7.3-2.1,2.6,3.1.8,3.9-1.1,4.7-1.1h3.1L244,67l.6,1.6,3.4-.5h4.2l4.2-1.3,5.5-1.1,7.6-3.2m-.1-.5h-.1l-7.6,3.2-5.4,1.1-4.2,1.3h-4.2l-3,.4-.4-1.2v-.2h-.1l-1.9-1.3h-3.5l-4.7,1.1-3.8,1.1-2.3-.6,1.7-2,.6-.7h-.9l-2.8-.3h-2.3l-1.6-.8h-.5l-7.2,4.3h-.2l-1,1.9-5.4,3h-3.3l-2.2.4V71.2h-.6l-2.7.5-.8-.5-.3-.2-.2.2-6,2.7-8.7,4.6-3.4,1.3h-.1l-2.5,2.6-.3.3.3.4,1.8,1.9-1.2,2.4-5.8,5.2h-.1l-.8,1.6-.3.7h.8l6.1-.4,1.2,1.7.2.2h1l-1.6,3.1h0l-.2,2.3v.6h.6l3.8-.8,6.5-.4h.1l5.3-1.4h2.9l3.7,1.8h.3l4.4-.7.6.9.3.3.4-.2,6.2-3,7.5-2.4,6.2-1h.1l5.8-2.1h.1l8.3-4.4.3-.2V86.6l3.5-2.7,5.7.5h.2l5.5-2.6,7.4-2.2h.1l4.7-2.9,3.6-1.4,6.3-1h3.5l1.3-1.5.3-.3-.3-.3-2.3-2.4h-.2l-2.6-.9h-.4l-3.9,1.6-5.1-.8,8.3-6.2,1.6-1.2-2,.3-4.6.7-1-.8h-.3l-2-.2Z" fill="#fff"/><polygon points="92.7 219.2 94.8 195.2 91.4 195.1 91 192.7 87.4 193.2 82.5 187.7 86.5 181.9 89.4 178.8 88.2 176.3 87.8 173.5 91 167.4 92.3 167.5 94.9 162.4 98.5 157.1 95.3 194.7 97.1 194.7 99.8 193.9 104.1 184.9 105.1 188.2 106.7 190.5 109.1 189.1 115.1 187.9 116.8 184.5 116.1 182.9 119.6 181.4 124.9 176.4 131.1 171.8 133.8 172.5 137.9 169.4 138.3 173.1 136.2 175.3 140 175.3 139.2 177.8 137.4 179.2 136.2 182.7 133.6 182.3 126.8 187.2 125.6 190.4 121.4 195.8 120.1 198.7 116.4 204.2 113.8 203.5 111.5 209.5 109.9 211.8 109.4 214.3 106.4 216.6 107.8 207.3 107.2 207.4 104.9 211.8 103.8 208.5 106.3 204.7 108.2 203.9 111.6 198.8 110.2 198.5 106.8 199.3 103.3 199.4 104.6 195.4 103.3 195.5 101.8 193.8 99.1 197.8 100.3 200.3 97.1 203.2 95.6 205.3 97.1 206.3 95 210.3 94.5 214.4 93.2 219.3 92.7 219.2" fill="#c3ccd3"/><path d="M98.2,158l-3.1,36.9H91.6l-.4-2.4-3.7.6-4.7-5.3,3.9-5.7,3-3.2-1.3-2.6-.3-2.6,3.1-5.9h1.2l2.7-5.3,3.1-4.5m39.5,11.9.3,3.1-2.4,2.6h4l-.6,2.1-1.9,1.3-1.1,3.5-2.5-.5-6.9,5-1.2,3.3-4.2,5.4-1.3,2.9-3.6,5.3-2.6-.7-2.4,6.2-1.7,2.3-.4,2.5-2.5,1.8,1.4-9.1-1.1.3-2,4-1-2.7,2.5-3.6,1.8-.8,3.7-5.4-1.8-.5-3.5.9h-3.1l1.4-4-1.6.2-1.6-1.9-3,4.3,1.2,2.5L96.9,203l-1.7,2.4,1.6,1-2.1,3.8-.5,4.2L93,219.3l2.1-24.4h2l2.9-.8,4.1-8.6.8,2.8,1.7,2.5,2.7-1.5,6-1.2,1.8-3.6-.7-1.5,3.3-1.4,5.4-5,6.1-4.5,2.6.7,3.9-2.9M98.9,156.2l-1.1,1.5-3.1,4.5h-.1l-2.5,5H90.9l-.2.3-3.1,5.8v.2h0l.3,2.6H88l1.1,2.3-2.8,2.9h-.1l-3.8,5.7-.3.4.3.3,4.7,5.2.2.2h.2l3.3-.4.3,1.9v.4h3.3l-2,23.8,1,.2,1.2-4.9h0l.5-4.1,2-3.7.2-.4L97,206l-1.1-.8,1.4-1.9,3-2.7.3-.3V200l-1.1-2.2,2.4-3.6,1.3,1.4v.2h1.1l-1.2,3.3-.2.6h4l3.3-.9,1,.3-3.2,4.7-1.7.7h-.2l-2.5,3.7v.4l.9,2.6.4,1.1.5-1,1.9-3.8h.2l-1.3,8.4-.2,1.2,1-.8,2.5-1.8v-.2h.1l.4-2.4,1.6-2.2h0l2.3-5.8,2.2.6h.3l.2-.3,3.6-5.3h.1l1.2-2.8,4.2-5.4h0l1.2-3.2,6.6-4.8,2.3.4h.5v-.4l1.1-3.3,1.7-1.2h.2v-.2l.6-2.1.2-.6h-3.6l1.7-1.8v-.4l-.3-3.1v-.9l-.7.6-3.7,2.7-2.4-.6h-.2l-.2.2-6.1,4.5h-.1l-5.3,5-3.2,1.4-.5.2.2.4.6,1.3-1.6,3.2-5.7,1.1H109l-2.2,1.2-1.5-2.1-.8-2.6-.3-1.2-.6,1.1-4,8.4-2.5.7H95.6L98.7,158l.2-1.8Z" fill="#fff"/><polygon points="102.4 221.8 103.5 215.9 103.2 213.1 100.2 213.6 99.7 215.8 97.2 219.7 92.7 219.5 94 214.3 94.5 210.1 96.4 206.5 94.9 205.4 96.7 202.8 99.7 200.2 98.5 197.7 101.7 193 103.5 195 105.4 194.8 104 198.9 106.7 198.8 110.2 197.9 112.4 198.6 108.5 204.3 106.7 205.1 104.3 208.6 105 210.5 106.8 207 108.4 206.6 107 216.1 105.3 220.8 104.3 220.2 102.6 226.4 102.4 221.8" fill="#c3ccd3"/><path d="M101.8,193.4l1.6,1.9,1.6-.2-1.4,4h3.1l3.5-.9,1.8.5-3.7,5.4-1.8.8-2.5,3.6,1,2.7,2-4,1.1-.3-1.4,9.1-1.5,4.4-1.1-.6-1.3,4.9v-3l1-5.8-.3-3.1-3.4.6-.6,2.4-2.3,3.6H93l1.2-4.9.5-4.2,2.1-3.8-1.6-1,1.7-2.4,3.1-2.8-1.2-2.5,3-4.3m-.1-.8-.3.6-3,4.3-.2.2.2.3,1,2.1-2.8,2.5h-.1l-1.7,2.4-.2.4.4.3,1.1.8-1.8,3.3h-.1l-.4,4.2-1.3,4.8v.6h4.9l.2-.3,2.4-3.7h0l.5-2.1,2.5-.4.3,2.5-1,5.8h0V228l.8-3.2,1.2-4.2.5.3.6.3.2-.6,1.5-4.4h0l1.4-9.1v-.7H108l-1.1.3h-.2v.2l-1.5,2.9-.5-1.3,2.2-3.3,1.7-.7h.2l3.7-5.4.4-.6-.6-.2-1.8-.5h-.3l-3.4.9h-2.4l1.2-3.3.2-.7h-2.1l-1.5-1.6-.4-.5Z" fill="#fff"/><polygon points="104.6 188.2 109 183.2 111.7 181.2 115.6 181.6 116.6 182.9 117.3 184.5 115.4 188.3 109.3 189.6 106.5 191.1 104.6 188.2" fill="#c3ccd3"/><path d="M111.7,181.5l3.8.4.9,1.1.7,1.5-1.8,3.6-6,1.2-2.7,1.5-1.7-2.5,4.3-4.9,2.5-1.9m-.1-.6-.2.2-2.5,1.9h-.1l-4.3,4.8-.3.3.3.3,1.7,2.6.2.4.4-.3,2.6-1.4,6-1.2h.2v-.2l1.8-3.6v-.4l-.7-1.5h0l-.9-1.2h-.4l-3.7-.4Z" fill="#fff"/><polygon points="91.4 195.1 91 192.7 87.4 193.2 82.5 187.7 86.5 181.9 89.6 178.6 91.6 176.8 93 177.9 94.7 183.4 97.6 185.5 100.5 185.8 104.5 185.2 100.1 194.3 97.2 195.2 91.4 195.1" fill="#c3ccd3"/><path d="M91.6,177.1l1.2,1,1.7,5.5,3,2.1,3,.3,3.6-.5-4.1,8.6-2.9.8H91.6l-.4-2.4-3.7.6-4.7-5.3,3.9-5.7,3-3.2,1.9-1.7m0-.7-.3.3-1.9,1.8-3.1,3.1h-.1l-3.8,5.7-.3.4.3.3,4.7,5.2.2.2h.2l3.3-.4.3,1.9v.4h6.1l2.8-.8h.2v-.2l4.1-8.5.4-.9-.9.2-3.5.4-2.8-.2-2.8-2-1.6-5.4h-.2l-1.2-1-.3-.3Z" fill="#fff"/><polygon points="529.1 487.8 525.6 483.9 522.1 478.9 521.4 476.1 524.4 476.4 527.7 478.9 531.8 483.5 536.2 488 539 491.6 536.1 493.3 529.1 487.8" fill="#c3ccd3"/><path d="M521.7,476.3l2.6.3,3.2,2.5,4.1,4.6,4.4,4.5,2.7,3.4-2.5,1.4-7-5.4-3.4-3.8-3.5-5.1-.6-2.4m-.7-.5.2.7.6,2.3h.1l3.4,5.1h.1l3.4,3.9h.1l7,5.4.2.2h.3l2.5-1.5.5-.3-.3-.5-2.7-3.3-4.4-4.6-4.1-4.5h-.1l-3.2-2.6h-.2l-2.7-.2Z" fill="#fff"/><path d="M512,411.6l-2.7-5.2,5.9,2.6,2,2.9Zm-11.8-7.8-1.5-1.2.6-3.2,4.6,1.4,3.5,3.9h-3.1Zm6.4-5.8-1.4-4.7,2.8.2,2.2,5.8,2.6,3.6-1.4,1.6Zm-14.4-8.8-1.8-3.9,9.2,5.7,2.1,4.6Zm-14-7.5.5-1.6,4.5,3.5-2.1,1.3Z" fill="#c3ccd3"/><path d="M478.8,380.5l4,3.1-1.6,1-2.8-3,.4-1.1M491,386l8.4,5.2,1.7,3.7-8.7-5.8L491,386m14.6,7.6h2.2l2.2,5.7,2.4,3.5-1,1.2-4.6-6.3-1.2-4.2m-6.1,6.1,4.3,1.3,3.1,3.5h-2.6l-4-.9-1.4-1.1.6-2.8m10.4,7.2,5.1,2.3,1.7,2.4-4.6-.2-2.2-4.5m-31.3-27.2-.3.6-.3,1.2v.3l.2.2,2.7,2.9.3.3.3-.2,1.7-1,.6-.4-.6-.4-4-3.1-.5-.4Zm11.2,5,.7,1.5,1.4,3.1h.2l8.7,5.8,1.5,1-.8-1.6-1.7-3.7h-.2l-8.4-5.3-1.4-.8Zm15.1,8.4.2.6,1.2,4.3h.1l4.6,6.3.4.5.4-.5,1-1.2.3-.3-.3-.3-2.4-3.5-2.1-5.6v-.3h-3.3Zm-5.8,6v.5l-.6,2.8v.3l.2.2L500,404h.2l4,.9H508l-.7-.8-3.1-3.5h-.3l-4.3-1.3-.5-.2Zm9.7,6.8.6,1.3,2.3,4.4v.2h.3l4.6.2h1l-.6-.8-1.7-2.5h-.2l-5.1-2.2-1.3-.6Z" fill="#fff"/><path d="M508.3,645l-2.2-2.1-4.9-.7v-2.4l3.8-4.1,7.7-5.2,3.4-.9,4-1.9,5-2.7,3.8-2.7,3.5-4.1,2.3-1.4,1.9-3.2,4.7-2.7.2,5.2,4.2-2.1.4,3-1,2.6-7.3,6.6-3.1,2,.6,3-3.8-.2-4.5,1.7-2.6,3.6-4.7,5.4-7.3,3.7Zm39.2-28.2,4.6-4.7-.2-3.1-4.3-3,1.1-2.4,4.1-1.8,2.4-4.4,1.1-3.9-.5-4.3.4-1-1.4-2.7-2.2-5.8-.9-5,2.5-.3,1.7,3.8,3.5,2L559,586l1.1,5.9,1.4-3.8,1.9,2.4-.9,4.6,3,2.3,2.7.7,3.6-2,2.4,1.2-3.3,5.4-2.9,3.5-3.5-.5-1.8,1.5-1.7,3.6-6.8,6.9-4.7,2.1Z" fill="#c3ccd3"/><path d="M554,574.6l1.7,3.8,3.4,1.9-.4,5.7,1.3,6.8,1.6-4.2,1.6,1.9-1,4.7,3.1,2.4,3,.8,3.5-2,2.1,1-3.2,5.2-2.8,3.3-3.4-.5-2,1.7-1.7,3.6-6.8,6.8-4.4,1.9-1.7-2.6,4.5-4.6-.3-3.4-4.2-2.8.9-2.2L553,602l2.5-4.5,1.1-4-.6-4.2.5-1.1-1.5-2.8-2.2-5.8L552,575l2-.4m-13,36.8.3,5.1,4.2-2.1.4,2.6-1,2.5-7.3,6.5-3.2,2.1.6,2.9-3.5-.3-4.6,1.8-2.7,3.6-4.7,5.5-7.1,3.6-4-.5-2.2-2-4.7-.7v-2.1l3.8-4,7.6-5.2,3.4-.8,4-2,5-2.7,3.8-2.7,3.6-4.2,2.3-1.3,1.9-3.2,4.2-2.4m13.3-37.3h-.4l-2,.4h-.5v.5l.8,4.7h0l2.2,5.9h.1l1.4,2.5-.4.8v.2h0l.6,4.2-1.1,3.8-2.4,4.4-4,1.6h-.1v.2l-.9,2.2-.2.3.4.3,3.9,2.7.2,2.9-4.3,4.5-.3.2.2.4,1.8,2.6.2.4.4-.2,4.4-2h.1l6.9-6.7h.1l1.6-3.5,1.7-1.5,3.2.5h.3l.2-.2,2.7-3.3h.1l3.2-5.2.3-.5-.5-.2-2.1-1h-.2l-.3.2-3.3,1.9-2.7-.8-2.7-2.1.9-4.4v-.2l-.2-.2-1.5-1.9-.6-.6-.3.8-.9,2.4-1-4.9.4-5.6v-.3l-.2-.2-3.3-1.9-1.6-3.6-.2-.3Zm-12.8,36.4-.7.4-4.3,2.5h-.2l-1.7,3.1-2.2,1.3h-.1l-3.6,4.1-3.8,2.7-4.9,2.7-4,1.9-3.3.8h-.2l-7.6,5.2h0l-3.9,4v2.9h.4l4.6.7,2.1,1.9h.3l3.9.5h.3l7.2-3.6h.1l4.7-5.5,2.6-3.5,4.4-1.7,3.3.3h.7l-.2-.6-.5-2.6,3-1.9h0l7.4-6.5h.1l.9-2.5h.1v-.2l-.4-2.6v-.6l-.6.3-3.5,1.7-.3-4.4v-.8Z" fill="#fff"/><path d="M404.6,623.6l-3.1-5.1-.7-4-3-5.2v-3.1l3.7.6,5.1,2.1,7-1.9,3.4.4v7.4l-1.9,2-.7,5.1-1.9-1.7-3.6,3.9ZM402,594l-3.5-1.2.8-2.9-2.5,1-4.8,4.5-8-2.6-3.1-.4-5.4-1.8-3.9-3.8-1.3-4.8-1.5-3-2.8-2.4-5.7-.7,1.7-3.3-1.5-4.1-2.2,4.1-5.7,1.5,3-4.1.6-3.7,1.9-3.1-.7-4.1-3.9,5.1-3.4,2.3-1.7,5.3-5.1-2.7-.2-3.4-4-4.5-3.4-2.4.9-1.4-7.6-3.5h-4l-6-2.9L308.9,552l-13,5.2h-5.4l-5.2,3.5-4.3,1.8-.4,3.2-1.5,3-7.8,1.2-5.1-.8-7,1.6-2.2,3.6h-1.6l-3.9,4.1-7.4.5-6.6-3.6-3.1-.9-1.1-3.9,2.3-1.2-1.1-8-1.6-3.7-4.5-6.2-1.9-3.6-.8-3.7-3.1-4-.7-1.9-3-2.3-2-5.2-4.6-5.2h1.8l-3.5-6.3,3.7,1.9.9-.7-6.4-8.7-.3-4.1.8-1.8v-3.4l-1.4-3.8,1.5-6.1,1.5,5.2,1.2-4.2,4.2-2.7,2.2-3.1,3.9-3,2.7-.8,1.7.7,4.1-2.9,3.4-1.1,2.1-2.3h3.4l5.9-2.5,2.7-3.2,1.1-3.8,3.1-3.7-.3-6.5,3.9-6.6,3.3,5.9,2-1.2-2.4-3,1.7-3.9,2.8,1.3.3-5,3.2-3.7,1.2-2.9,3.1-1.3v-2.1l2.9.6v-1.6l6-2.4,5.1,3,3.9,3.9,3.9-.2,3.8.4-1.5-3.4,2.8-5.9,2.7-1.8-1.1-1.6,2.8-4.3,4-2.7,3.4.7,5.3-1.5-.3-3.2-5.4-2.3,4.2-1.4,4.6,1.6,3.7,2.8,5.5,1.5,2-.8,4.2,2,3.8-2.1,2.5.6,1.6-1.5,3.5,3.7-1.7,3.9-2.6,3-2.1.3.8,2.5-4,7,.5,1.8,5.4,3.6,5.1,2.1,3.6,2.3,4.8,4h1.9l3.6,1.8,1.1,2.1,6.2,2.2,4.1-2.3,2.5-6.8.7-3.7,2-5.5-1-3.4.4-2-.8-3.9.8-5.4,1.3-1.4-1.1-2.2,2.9-7.7v-2l2.8-2.9,2.2,3.7.5,4.3,1.7.8.3,3,2.5,3.5.3,6.6,2.3,5.1,4.3-2.6,2.4,3.1,3.3,2.8-.7,3.1,2.4,9.3,1.6.8,1.9,6.1-.7,3.5,2,4.5,7,3.6,9.1,6.5-.9,1.7,3.5,4.2,2.3,7.2,2.5-1.4,2.5,3,1.7-1.1.9,7.5,7,6.8,4.6,5.6,1.5,5.5-.8,8,2.5,5.7-.8,5.9-3.3,8.8-.2,3.7-1.5,4.7-3.1,5.9-4.5,3-2.4,4.9-2.2,3.1-2,5.4-2.4,3.1-1.7,4.6-.9,4.3.2,2-3.5,2.2-6.2.2-5.1,2.4-5.9,5.1Z" fill="#c3ccd3"/><path d="M382.5,407.5l2,3.4.5,4.3,1.7.9.3,2.9,2.5,3.5.3,6.5,2.4,5.4,4.4-2.6,2.2,2.9,3.2,2.8-.7,3,2.4,9.4,1.7.9,1.8,5.9-.7,3.6,2.1,4.6,7.1,3.7,8.9,6.3-.9,1.6,3.6,4.4,2.3,7.4,2.6-1.5,2.5,3,1.6-1,.8,7.2,7.1,6.9,4.6,5.5,1.4,5.5-.8,7.9,2.5,5.7-.7,5.8-3.4,8.8v3.8l-1.6,4.6-3,5.8-4.5,3.1-2.5,4.9-2.1,3.1-2,5.4-2.4,3.1-1.7,4.7-1,4.2.2,2-3.3,2.1h-6.1l-5.2,2.5-5.9,5-4.4-2.7-3.4-1.1.9-3.2-3,1.1-4.7,4.5-7.9-2.6-3.1-.4-5.4-1.7-3.8-3.8-1.3-4.6-1.5-3.2-2.9-2.5-5.5-.6,1.7-3.1-1.8-4.7-2.4,4.5-4.9,1.2,2.6-3.5.6-3.7,2-3.2-.8-4.7-4.3,5.6-3.4,2.2-1.7,5.1-4.6-2.4-.2-3.4-4.1-4.5-3.3-2.3.9-1.5-7.8-3.7H325l-5.9-2.9-10.2,1.1-13.1,5.1h-5.4l-5.2,3.6-4.5,1.8-.3,3.4-1.4,2.7-7.8,1.3-5-.8-7.1,1.6-2.2,3.6-1.6-.2-4,4.2-7.1.4-6.5-3.5-3.1-.9-1-3.6,2.2-1.1-1-8.3-1.7-3.7-4.5-6.2-1.9-3.6-.7-3.7-3.2-4-.7-1.9-3-2.4-1.9-5.1-4.4-4.9h1.7l-3.3-5.9,3.1,1.6,1.3-1-6.6-8.8-.3-4,.8-1.7v-3.5l-1.4-3.8,1.3-5.1,1.5,5.1,1.4-4.9,4.1-2.7,2.3-3.2,3.9-2.9,2.5-.8,1.7.7,4.2-2.9,3.4-1.1,2.2-2.3h3.2l6-2.5,2.9-3.3,1-3.8,3.1-3.7-.3-6.5,3.7-6.2,3.2,5.8,2.5-1.6-2.5-3.1,1.6-3.4,2.9,1.3.2-5.3,3.1-3.7,1.3-2.8,3.1-1.4V436l2.8.6v-1.7l5.8-2.3,5,2.9,3.9,3.9h4l4.2.4-1.7-3.7,2.8-5.7,2.8-2-1.1-1.7,2.6-4,3.9-2.7,3.4.7,5.6-1.5-.3-3.6-5-2.1,3.5-1.1,4.5,1.5,3.7,2.8,5.7,1.6,1.8-.8,4.3,2,3.8-2.1,2.6.5,1.5-1.3,3.2,3.3-1.7,3.8-2.4,2.9-2.3.3.9,2.7-4.1,7,.6,2,5.4,3.6,5.2,2.1,3.5,2.3,5,4h1.8l3.5,1.7,1.1,2.1,6.4,2.2,4.3-2.4,2.5-6.8.8-3.8,1.9-5.5-1-3.4.5-2-.8-4,.8-5.2,1.3-1.4-1.1-2.4,2.8-7.5.2-2,2.5-2.6m15.6,199,3.5.6,5.1,2,7-1.9,3.1.4v7.1l-1.9,2-.7,4.7-1.7-1.6-3.7,4-4.1-.5-3.1-5-.7-3.9-3-5.1v-2.8M382.6,406.7l-.5.4-2.5,2.7h-.1v.2l-.2,1.9-2.8,7.5v.4l1,2-1.1,1.2h-.1l-.8,5.3h0l.8,3.9-.4,1.9h-.1v.2l.9,3.2-1.9,5.3h0l-.8,3.8-2.4,6.6-4,2.2-5.9-2.1-1-1.9v-.2h-.1L357,450h-1.9l-4.8-3.9-3.5-2.3h-.1l-5.1-2.1-5.3-3.6-.4-1.5,3.9-6.8v-.4l-.7-2.2,1.7-.2h.3l2.4-2.9h.1l1.7-3.8v-.3l-.2-.2-3.2-3.4-.3-.3-.4.3-1.4,1.2-2.3-.5h-.3l-3.6,1.9-4-1.9h-.4l-1.8.7-5.4-1.5-3.6-2.7h-.1l-4.5-1.6h-.4l-3.5,1.2-1.2.4,1.2.5,4.7,2,.2,2.8-5,1.4-3.3-.7h-.4l-3.8,2.6h-.2l-2.6,4.1-.2.3.2.2.8,1.3-2.4,1.7h-.2l-2.7,5.7v.4l1.3,3-3.3-.4h-3.9l-3.8-3.7h-.1l-5-2.9H280l-5.8,2.3h-.3V436l-2.2-.5H271v2.2l-2.8,1.3h-.1v.2l-1.3,2.8-3.1,3.5v.2h0l-.2,4.6-2.2-1-.5-.2-.2.4-1.6,3.5v.3l.2.3,2.2,2.6-1.6,1-3-5.3-.4-.8-.5.8-3.6,6.1v.2h0l.3,6.3-3,3.6h-.1l-1,3.7-2.7,3.1-5.8,2.4h-3.4v.2l-2,2.2-3.3,1h-.2l-3.9,2.8-1.5-.6H225l-2.6.7h-.1l-3.9,2.9h-.1l-2.2,3.1L212,493h-.1v.2l-.9,3.2-1-3.5-.5-1.7-.4,1.8-1.4,5.1h.1l1.3,3.8v3.3l-.7,1.6v.2h0l.3,3.9v.2h.1l6.3,8.4-.7.5-2.8-1.5-1.5-.7.8,1.4,2.9,5.3h-1.8l.7.8,4.2,4.8,2,5h.1l2.9,2.3.6,1.7h.1l3.1,3.9.7,3.6h.1l1.9,3.6h0l4.5,6.2,1.6,3.6,1,7.8-1.9.9-.4.2v.4l1,3.6v.3h.3l3,.9,6.5,3.4h.2l7.2-.4h.2v-.2l3.8-4,1.3.2h.4v-.3l2.1-3.4,6.9-1.5,4.8.8h.2l7.7-1.3h.3v-.2l1.4-2.7h.1l.3-3.1,4.2-1.7h.1l5.1-3.6H296l13-5.2,10-1,5.8,2.8H329l7.2,3.4-.6,1-.2.4.3.3,3.3,2.3,3.9,4.3.2,3.2v.3h.2l4.7,2.5.5.2.2-.5,1.6-4.9,3.3-2.2h.1l3.6-4.7.6,3.4-1.9,3h-.1l-.5,3.6-2.6,3.4-.9,1.2,1.4-.4,4.9-1.3h.2v-.2l2-3.5,1.2,3.5-1.5,2.9-.3.6h.7l5.3.6,2.7,2.3,1.4,3,1.3,4.7h.2l3.7,3.8h.2l5.4,1.7h.1l3.1.4,7.8,2.6h.3l.2-.2,4.7-4.4,1.9-.8-.6,2.3v.4l.5.2,3.3,1,4.4,2.7.3.2.3-.2,5.8-5,5-2.4h6.3l3.3-2.1.2-.2v-.3l-.2-1.8,1-4.2,1.6-4.6,2.4-3h0l2.1-5.4,2-3.1h.1l2.4-4.8,4.4-3h.2l3-5.8h0l1.5-4.7h.1v-3.7l3.3-8.7h.1l.7-5.8v-.2h-.1l-2.4-5.6.7-7.8h0l-1.4-5.4h-.1l-4.6-5.5h0l-7-6.7-.8-7.1V488l-.6.4-1.3.8-2.2-2.7-.3-.3-.3.2-2.1,1.2-2.1-6.9h-.1l-3.4-4.1.7-1.4.3-.4-.4-.2-8.9-6.3h-.1l-6.9-3.5-1.9-4.4.6-3.4h0v-.2l-1.8-5.9v-.2h-.2l-1.4-.7-2.4-9.1.7-2.9v-.3l-.3-.2-3.1-2.7-2.2-2.9-.3-.4-.4.3-3.8,2.3-2.2-4.8-.3-6.4h0v-.2l-2.4-3.4-.3-2.8v-.2l-.2-.2-1.5-.7-.5-4.1h0l-2-3.4-.3-.5ZM397.7,606v3.3h.1l2.9,5.1.7,3.8h.1l3.1,5v.2h.2l4.2.5h.2l.2-.2,3.3-3.7,1.3,1.3.7.6.2-.9.7-4.6,1.7-1.9h.2v-7.7h-.4l-3.2-.5h-.2l-6.8,1.9-4.9-2h-.1l-3.5-.6Z" fill="#fff"/><polygon points="39.7 327.6 40.4 318 43.5 306 45.2 309.6 46.6 320.3 45.3 327.6 43.8 330 40.6 332.9 39.7 327.6" fill="#c3ccd3"/><path d="M43.6,306.7l1.4,3,1.3,10.7-1.2,7.1-1.5,2.4-2.8,2.5-.8-4.9.6-9.4,3-11.4m-.2-1.4-.3,1.3-2.9,11.3h-.1l-.6,9.5h0l.8,4.9.2.9.6-.6,2.8-2.5H44l1.5-2.4h.1l1.2-7.2h0l-1.3-10.7h0L44,306.5l-.6-1.2Z" fill="#fff"/><path d="M174.9,225.3l1.1-5.6,3.3-3.2,6.3-2.5,3.3-.2.8,2.5-3,3.1-2,3.7-5.4,3.6ZM142,212.7l.5-2.1-3.5,2.1-4.7-2.6,2.9-5.2-2.4-.6.8-5.1-5.1,1.9,3.3-7.7,5.9-5.6,3.5-8.9-1.2-1v-2.8l-2.3.7H135l2.8-3-.3-2.6-3.6,2.8-2.7-.7-6,4.4-5.3,5-3.6,1.5-.9-1.2-3.6-.4-2.5,1.9-4.5,5.2-.9-3-3.4.5-3.1-.3-3.2-2.3-1.6-5.5-1-.8-1.9,1.8-1.5-2.9-.4-2.8,3.2-6.1h1.3l2.6-5.1,3.1-4.6,1.7-4.9-2-.7,2.5-4.1.4-1.7.8-1.4,31.2-29,2.2-2.6,2.7-1.8,5.7-7.2,6-3.4,2.1-1.3,9.7-8.3h3.1l3.3-2.3,4.5-4.2,2.5-1,4.8-3.1,2.4-1.1L178.5,83l2,2.1L179,88.2l-5.9,5.2-.5,1.2,6-.4,1.4,2h1.9l-2.1,4.1v1.9l3.5-.8,6.6-.3,5.2-1.5h3.3l3.7,1.8,4.8-.7.8,1.1,6.1-3,7.6-2.5,6.3-.9,5.8-2.1,8.1-4.4V86.2l4.1-3,5.9.5,5.5-2.6,7.4-2.3,4.6-2.9,3.7-1.4,6.6-1.1,3.1.2,1-1.2-2.1-2.1-2.5-.9-4,1.7-7-1.1,9.8-7.4,3.9,1,7-2.7,1-1.6,6-3.9,2.9-1.3,1-1.5-1.9-.7,4.9-2.1,5.2-1,5.2-.4,5.3.5,2.9,1.1.8,3.3.8,1.3.4,2.1v3.1l6.8.8,4.5,2.4.6,3.3,6.7-.3,4.3-1.6,8.6-1.5-3.8,4-2.1,1.4-2.7,4.2-4.3,4.1-5.6-.5-4.3,1.5.2,3.3-2.1,5.2-2.5.2-.7,2.4-2.6-2.5-2.5,2.4-8.1,2.2v2.3h-4.6L307,92l-4.3,3.2-6.4,2.7-5,3.1-7.5,1.9-4.5,2.4-2.6-.7-.4-2.1,5-3.2-1.4-1.8-4.7,1.8-6.7,3.6-4.3,3.2-4.8.6-3.2,2.3,1.1,2.6,3.9.5-.7,2.1,3.1,1,6.9-3.9,3.8,1.6,3.5-.2v3l-7.9,1.9-3.2,2.7-5.9,2.9-3.6,3.5,4.5,2.2.5,4.9,1.8,4.4,2.6,3.8-1.2,4.2-3.8,1.7.5,2.4,3,1.5-2.1,4.7-2.5,4.6-3.3.7-5.5,6.3-6.3,7.8-6.8,7.3-9,6.1-9,5.7-6.4,1.3-4.2,3.1-1.4-1.7-3.6,3.1-8.4,3.9-5.8,1.6-3.4,6.6-3.4.8-.4-4.6,1.6-2.3-6.1-.9-2.7,1.3-4.9-.9-1.9-2.4,1.6-3.3-4-.4-1.6-1.8-4.9,3.6-5,1.4-3.8.6-3,1.8-2.6,1.3-1.3,7Z" fill="#c3ccd3"/><path d="M312.7,48.6l5.2.6,2.8,1,.7,3.1.8,1.4.5,2V60l7,.8,4.3,2.3.6,3.4,6.9-.3,4.4-1.6,7.8-1.3-3.3,3.4-2.1,1.4-2.7,4.3-4.2,4-5.6-.5-4.5,1.6.3,3.4-2.1,4.9-2.5.3-.6,2.1-2.5-2.3-2.6,2.4L313,90.6v2.2h-4.2l-2-1.2L302.5,95l-6.3,2.7-5,3.1-7.5,1.8-4.4,2.4-2.4-.6-.3-1.7,5-3.4L280,97.2l-4.9,1.9-6.7,3.6-4.3,3.2-4.8.6-3.4,2.4,1.2,2.9,3.8.5-.7,2.1,3.4,1.1,6.9-3.9,3.8,1.5h3.2v2.5l-7.7,1.8-3.3,2.9-5.8,2.8-3.9,3.7,4.7,2.3.4,4.9,1.9,4.4,2.5,3.8-1.1,3.9-3.9,1.7.6,2.8,2.8,1.4-1.9,4.5-2.5,4.4-3.2.8-5.6,6.3-6.3,7.8-6.8,7.3-9,6.1-8.9,5.7-6.4,1.3-4,3-1.5-1.8-3.8,3.3-8.3,3.9-5.9,1.5-3.3,6.7-3.1.7-.4-4.3,1.9-2.5-6.6-1-2.7,1.3-4.8-.9-1.7-2.1,1.7-3.5-4.3-.5-1.7-1.9-5.1,3.8-4.9,1.4-3.8.6-3,1.8-2.7,1.3-1.3,6.8-2.5-1.1.6-2.5-3.9,2.4-4.4-2.5,2.9-5.2-2.4-.7.8-5.3-4.9,1.9,3-7.1,5.9-5.6,3.6-9.2-1.3-1v-3.1l-2.6.9h-4L138,173l-.3-3.1-3.9,2.9-2.6-.7-6.1,4.5-5.4,5-3.3,1.4-.9-1.1-3.8-.4-2.5,1.9-4.3,4.9-.8-2.8-3.6.5-3-.3-3-2.1-1.7-5.5-1.2-1-1.9,1.7-1.3-2.6-.3-2.6,3.1-5.9h1.2l2.7-5.3,3.1-4.5,1.9-5.3-2-.7,2.4-3.7.3-1.8.8-1.3,31.2-29,2.2-2.6,2.7-1.8,5.6-7.2,6.1-3.3,2.1-1.4,9.6-8.3h3.1l3.3-2.3,4.6-4.2,2.4-.9,4.8-3.2,1.3-.6L178.2,83l2,2.2-1.4,2.9-5.9,5.2-.7,1.6,6.3-.4,1.4,1.9h1.6l-1.9,3.7-.2,2.3,3.9-.8,6.5-.4,5.3-1.4h3.2l3.7,1.9,4.7-.8.8,1.2,6.3-3.1,7.5-2.4,6.3-1,5.9-2.1,8.3-4.5V86.4l3.9-3,5.8.5,5.6-2.6,7.4-2.2,4.7-3,3.6-1.4,6.5-1h3.2l1.2-1.4-2.3-2.3-2.6-1-4.1,1.7-6.3-.9,9.2-7,3.9.9,7.1-2.7,1-1.6,6.1-3.9,2.9-1.3,1.2-1.8-1.6-.6,4.3-1.9,5.1-.9,5.2-.5M188.8,214l.7,2.2-3,3-2,3.7-5.3,3.6-4-1.4,1-5.3,3.3-3.1,6.2-2.4,3.1-.3M312.7,48.1h0l-5.2.5-5.2.9h-.1l-4.3,1.9-1.1.5,1.1.4,1,.4-.8,1.2-2.7,1.2h-.1l-6,4h-.2l-.9,1.4-6.9,2.6-3.7-.9h-.4l-9.2,7-1,.7h1.2l6.4,1h.2l3.9-1.6,2.3.8,1.9,1.9-.8.9h-3l-6.4,1h-.1l-3.7,1.4h-.1l-4.6,2.9-7.4,2.2h0l-5.5,2.6-5.7-.5h-.3l-3.9,3h-.2v2.7l-8,4.3-5.8,2.1-6.2,1h-.1l-7.6,2.4h0l-5.9,2.9-.6-.8-.2-.3h-.3l-4.5.6-3.6-1.7H195l-5.3,1.4-6.4.4h-.1l-3.2.7v-1.5l1.8-3.7.4-.7h-2.1l-1.3-1.7V94h-.3l-5.5.3.3-.7,5.8-5.2h.1l1.5-2.9v-.3l-.2-.3L178.9,83l2.1-2.3,1.6-1.8-2.2,1-1.3.6H179l-4.7,3.1-2.4,1h-.1l-4.6,4.1L164,91.1h-3.1v.2l-9.6,8.2-2.1,1.3-6,3.3h-.2l-5.6,7.1-2.5,1.7h-.1l-2.3,2.6-31.1,29h-.1l-.8,1.3h0l-.4,1.7-2.3,3.7-.4.5.6.2,1.5.5-1.6,4.8-3.1,4.4h-.1l-2.5,5H90.9l-.2.3-3.1,5.8v.2h0l.3,2.6H88l1.3,2.6.3.6.5-.4,1.5-1.5.8.7,1.6,5.3v.2h.2l3,2.2h.2l3,.3h.1l3.2-.4.7,2.3.2.9.6-.7,4.3-4.8,2.4-1.8,3.3.3.8,1,.2.3h.4l3.3-1.4h.1l5.4-5,5.9-4.4,2.4.7h.4l3.2-2.4.2,2-2.3,2.5-.7.8h5.3l1.9-.7V178l.2.2,1,.8-3.4,8.7-5.9,5.5h-.1l-3,7.1-.5,1.1,1.1-.5,4.2-1.5-.7,4.5v.4h.5l1.8.5-2.6,4.7-.2.4.4.2,4.3,2.5h.5l2.9-1.7-.3,1.3v.4l.4.2,2.5,1.1.6.2v-.6l1.2-6.5,2.5-1.2h.1l2.9-1.8,3.7-.6h0l4.9-1.4h.2l4.8-3.5,1.4,1.6h.3l3.5.4-1.4,2.9v.3l.2.2,1.7,2.1.2.2h.1l4.8.9h.3l2.6-1.2,5.6.9-1.4,1.8v.4l.4,4.2v.6h.5l3.1-.8h.2v-.2l3.2-6.4,5.7-1.6h.1l8.3-3.8h.1l3.5-3,1.1,1.4.3.3.4-.2,3.9-3,6.3-1.2h.2l8.9-5.7,9-6.1h.1l6.8-7.3,6.3-7.9,5.4-6.2,3.1-.7h.3v-.2l2.4-4.5,2-4.5.2-.4-.4-.2-2.6-1.4-.5-2.1,3.5-1.5h.2v-.3l1.1-3.9V142l-.2-.2-2.5-3.7-1.8-4.4L262,129v-.3h-.2l-4-2,3.3-3.2,5.7-2.8h.1l3.2-2.7,7.6-1.9h.4v-3.3h-3.6l-3.7-1.4h-.5l-6.7,3.7-2.7-.8.5-1.7.2-.5h-.6l-3.4-.4-1-2.3,3-2.1,4.7-.6h.3l4.1-3.2,6.7-3.6,4.5-1.7,1.1,1.4-4.6,3-.3.2v.4l.3,1.7v.3h.3l2.3.7h.4l4.4-2.4,7.4-1.8h.1l5.1-3.2,6.2-2.7h.1l4.2-3.1,1.6,1h5V90.9l7.8-2.1h.2l2.3-2.2,2.2,2.1.6.6.2-.9.5-1.8,2.2-.2h.3V86l2-4.9h.1v-.2l-.3-3,4.1-1.4,5.5.5h.2l.2-.2,4.2-3.9h.1l2.6-4.2,2-1.4h.1l3.2-3.4,1.1-1.1-1.5.3-7.8,1.3h-.1l-4.3,1.5L335,66l-.5-3v-.2h-.2L330,60.4h-.2l-6.6-.7V56.7h0l-.5-2h0l-.8-1.3-.7-3v-.3h-.3l-2.8-1H318l-5.3-.6ZM189.1,213.5h-.4l-3.1.3h-.1l-6.2,2.4h-.2l-3.2,3.1v.2h-.1l-1,5.3v.4l.4.2,4,1.3h.4l5.3-3.6h.1l2-3.7,2.9-2.9.2-.2v-.3l-.7-2.2v-.4Z" fill="#fff"/><polygon points="245.1 192.4 245.3 188 249.9 182 255.6 177.1 258.2 178.8 256.4 182.6 251.1 192.2 247.4 197.7 245.1 192.4" fill="#c3ccd3"/><path d="M255.6,177.4l2.3,1.5-1.7,3.6-5.3,9.6-3.4,5-2.2-4.7.2-4.3,4.6-6,5.5-4.7m0-.6-.3.2-5.5,4.7h-.1l-4.6,6H245v.2l-.2,4.3h.1l2.1,4.8.4.8.5-.8,3.4-5,5.3-9.7,1.7-3.6.2-.4-.3-.2-2.3-1.5-.3-.2Z" fill="#fff"/><path d="M258.5,296.4l-1.7-5,2.1-3.2-3.5-2.6-2.1,2.8h-3.1l-5,4.2-1.2-2.3,2.9-5.9,4.2-2.2,3.8-2.9,2.1,2.9,4.7-2,1.3-3.1,4.5-.5v-5.2l5.6,3.1.7,5.8.7,8.1-2.8,7-2.2-7-2.8,3.2,1.9,4.7-2.2,3.6Zm-40.2-16.5,4.8-4.5,4.1-4.8,4.1-7.4.7,6.1-4.4,4-3.6,4.8-10,8.1Zm29.6-6.5,1.5-2,1.7-1.9,1.1-4.2,4.1-.7-1.1,3.6,4.9-6.4-1.2,7.3-2.5,2.4-2.2,4.2-2.4,2.4Zm15.8-8.2-1.9-.2-.8-4.3,3.8.2v-2.1l-3.8-5,6.7-.2,1.7,2.4,1.4,7.6-4.9-1.4V264l1.3,4.1-3.7,1.9Zm-17-2.8-.9-3.4,4,1.9,4.3-.3-.4,3.1-3.2,3-4.6,2.6Zm-6.8-7.6-2.8-5,5.7-.2,2.2,2.3-2.4,6.3Zm15.7-3.2-1.9-2.9-1.8,2.4-3.7-3.7-5.7,1.4-3.2-1.3.7-2.9,1.9-1.7-1.1-.9-1.1,2.4-2.9-3.7-.6-2.8.6-6.6,2.2,1.9,1.8-9.4,2.9-5.9,3.9-.3,3.5,1.5,2.8-.3-1.5,3,1.5,4.3-2.3,5.4-3.9,2.4-1.5,5,.8,4.7,2.9.4,2.9-.9,7.8,3.1-.9,3.6,1.9,1.4-1.1,3.5Z" fill="#c3ccd3"/><path d="M247.5,217.9l3.5,1.4,2.5-.2-1.4,2.7,1.5,4.3-2.2,5.3-3.9,2.3-1.6,5.2.8,4.9,3.3.5,2.8-1,7.5,3-.9,3.6,1.9,1.4-.9,3-4.7-2.8-2-3.3-1.8,2.5-3.6-3.5-5.8,1.3-2.9-1.1.6-2.7,2.1-1.8-1.6-1.3-1.1,2.4-2.6-3.5-.6-2.6.6-6.1,2.2,1.9,1.9-9.8,2.8-5.8,3.6-.2m-4.8,31.9,2,2.2-2.2,5.7-2.4-3-2.6-4.7,5.2-.2m25,4,1.6,2.3,1.3,7.2-4.9-1.5V264l1.3,3.9-3.1,1.7V265l-1.9-.2-.7-3.9,3.7.3v-2.4l-3.5-4.7,6.1-.3m-21.5,5.6,3.6,1.8,4-.3-.3,2.7-3.2,3-4.1,2.2.7-6.4-.7-3m13.5,3.3-1,6.3-2.5,2.3-2.2,4.3-2.2,2.1-3.6-4.3,1.4-1.8,1.8-2,1-4.1,3.5-.6-1.3,4.5,5.1-6.7M231.1,264l.7,5.2-4.4,4-3.6,4.8-8.6,7,3.3-4.9,4.8-4.5,4-4.9,3.8-6.7m36.6,7.8,5,2.8.7,5.7.7,8.1-2.5,6.2-2.1-6.6-3.2,3.5,1.9,4.8-2,3.3-7.5-3.4-1.6-4.7,2.1-3.3-3.9-2.9-2.1,2.9h-3l-5,4.1-.9-1.9,2.8-5.8,4.1-2.1,3.6-2.8,2.1,2.9,5-2.1,1.3-3.1,4.5-.4v-5.1m-20.1-54.4h-.1l-3.7.2h-.3v.2l-2.8,5.8h0l-1.8,9-1.5-1.3-.7-.7v1l-.6,6h0l.6,2.6v.2h.1l2.6,3.5.5.6-.6,2.4v.4h.4l3,1.2h.3l5.4-1.3,3.4,3.4.4.4.4-.5,1.4-1.9,1.6,2.6h.2l4.6,2.8.6.3.2-.6v-.3l.2.3,3.4,4.5v1.8l-3.2-.3h-.6v.6l.7,3.9v.4h.3l1.5.2v4.9l.7-.4,3.2-1.6.3-.2v-.4l-1.3-3.9v-1.4l4.2,1.2.8.3v-.8l-1.3-7.2h-.1l-1.6-2.3v-.2h-.3l-6.1.3h-.5l.7-2.2v-.3l-.3-.2-1.7-1.2.9-3.2V246h-.4l-7.5-3h-.4l-2.7.9-2.7-.4-.8-4.5,1.5-4.9,3.7-2.2h.2l2.3-5.3v-.4l-1.4-4.1,1.2-2.4.4-.9h-.9l-2.3.2-3.4-1.4ZM240,244.2h.1l.7-1.8.7.5-1.5,1.3Zm3,5.1h-.3l-5.2.2h-.9l.4.8,2.7,4.6h0l2.4,3,.5.7.4-.8,2.1-5.7v-.3l-.2-.2-1.9-2.2v-.2Zm2.5,9.2.2,1,.7,3-.7,6.3v.9l.8-.4,4.2-2.3h.1l1.1-1-.9,3.5-1.6,1.8-1.5,1.9-.2.3.2.3,3.7,4.3.3.4.4-.4,2.1-2h.1l2.2-4.2,2.4-2.2v-.2h.1l1-6.3.3-1.9-1.2,1.5-3.5,4.5.6-1.9.2-.8-.8.2-3,.5,1-.9.2-.2h0l.3-2.8v-.6h-.6l-3.9.3-3.5-1.7-.9-.5Zm-14,3.9-.8,1.3-3.8,6.7-4,4.8-4.7,4.5h-.1l-3.3,4.9-1.9,2.8,2.6-2.2,8.6-7h.1l3.6-4.8,4.3-3.9.2-.2v-.3l-.7-5.2v-1.5Zm35.6,8.6v5.4l-4.1.4h-.3v.2l-1.1,2.9-4.5,1.9-1.9-2.6-.3-.4-.4.3-3.6,2.8-4,2.1h-.3l-2.8,5.8v.4l1,1.9.3.6.5-.4,4.7-4h3.1l.2-.2,1.8-2.5,3.2,2.3-1.9,2.9v.4l1.6,4.7v.2h.2L266,300l.4.2.3-.4,2-3.2v-.5l-1.8-4.5,2.4-2.7,1.9,5.9.4,1.3.5-1.3,2.5-6.2h0v-.2l-.7-8-.7-5.8v-.2H273l-5.1-2.8-.8-.4Z" fill="#fff"/><path d="M130.3,338.3l-6-4.4-.4-3.5-2.7-4-.4-5.6-1.6-3.3.9-5.1-.8-2.7,1.1-1.6,4.1,2.4.2,3.2,2.9-1.2,2-3.1,1.3.5,2.8,3.7,2,4.2v4.6l-.7,3.2.6,6.1,1.8,1.5,1.9,5.8v2.6l-4,1.1Zm39.2-1.2-1-5,4.5,2,4.2-1.7,1.3-5.9,2.6-1.6,7.1-2.3,7.6-10.6,2.6,3.2,1.2-2.2h2.8l.9-7.6,5-5.1,3.4-5.6,2.7-.3,3.1,3.2v2.9l9.2,3.1-.7,3-4,.7.9,3.1-4.9,2.9-5.4-.7-6.7.6-2.4,7.8-2.4,2.6-3.2,9.9-5.1,2-5.6-1.3-2.7.9-3.5,3.8h-3.7l-3.9,1.9Z" fill="#c3ccd3"/><path d="M214.3,294.6l3,3.1v2.8l9.1,3.1-.6,2.7-4.2.7,1,3.2-4.6,2.7-5.3-.7-7,.7-2.4,7.9-2.4,2.6-3.2,9.8-4.9,2-5.6-1.4-2.9,1-3.4,3.8h-3.7l-3.7,1.9-3.9-3.4-.9-4.5,4.2,1.8,4.4-1.8,1.3-5.9,2.5-1.5,7.1-2.3,7.5-10.4,2.6,3.2,1.4-2.4h2.8l1-7.6,4.9-5.2,3.3-5.5,2.5-.2m-93.8,13.8,3.8,2.3v3.4l3.4-1.4,1.9-3,1.1.4,2.7,3.6,1.9,4.2v4.5l-.7,3.2.6,6.2,1.8,1.6,1.9,5.7v2.3l-3.8,1.1-4.8-4.3-5.8-4.5-.5-3.3-2.7-4.1-.4-5.5-1.5-3.4.9-5-.9-2.6,1-1.4m94-14.4h-.2l-2.5.2h-.3v.2l-3.3,5.5-4.9,5.1h-.1v.2l-.9,7.3h-2.7l-.2.3-1,1.8-2.1-2.7-.4-.5-.4.5L188,322.4l-6.9,2.2H181l-2.5,1.5h-.2v.2l-1.2,5.7-4,1.6-4-1.7-.8-.4v.9l.9,4.5h.2l3.8,3.4.3.3.3-.2,3.6-1.8h3.8l.2-.2,3.3-3.7,2.6-.8,5.4,1.2h.3l4.9-1.9h.3v-.2l3.3-9.7,2.3-2.5h.1l2.2-7.6,6.7-.7,5.2.7h.3l4.7-2.7.3-.2v-.3l-.8-2.7,3.6-.6h.3v-.3l.6-2.7v-.4h-.5l-8.7-3v-2.8h-.2l-2.9-3.1-.2-.2Zm-94.2,13.8-.2.3-1,1.4v.4l.8,2.6-.9,4.8v.2h0l1.6,3.3.3,5.4v.2h.1l2.6,3.9.5,3.3v.2h.2l5.8,4.5,4.8,4.2.2.2h.3l3.7-1h.3v-2.7h0l-1.9-5.8h-.2l-1.6-1.4-.6-6,.6-3.1h.1v-4.5h0l-1.9-4.2h-.1l-2.7-3.6H131l-1.2-.5h-.3l-.3.3-1.7,2.9-2.6,1v-2.9l-.3-.2-3.8-2.2-.4-.2Z" fill="#fff"/><polygon points="195.5 312.4 198.1 309.5 203.9 304.9 202.9 313.4 199.9 313.5 198.5 316.1 195.5 312.4" fill="#c3ccd3"/><path d="M203.6,305.5l-1,7.6h-2.8l-1.4,2.4-2.6-3.2,2.5-2.7,5.3-4.2m.6-1.2-.9.8-5.3,4.2h-.1l-2.4,2.8-.3.3.2.3L198,316l.5.5.4-.6,1.2-2.2h3v-.4l1-7.7v-1.2Z" fill="#fff"/><path d="M312.2,140.8l2.2-4.7-3.1-1.3-1.8-3.7,5.8-1.9,3.5-3.3,6.2-2.8,4.7-3.6,11.3-1.8,5.8.8,7-8.8,3.4,2.2,11.7-6.6,3.8-5.6-.5-5,2.6-3,5.9-.9,2.6,6.4-.4,3.8-5.3,4.7-.2,4.8-2.3,3.7.8,2.5-3.3,3.6-7.5,2.5-10,.5-8.8,6-3.9-2,.2-3.6-6.2.9,3.9.9.6,2-3.9,3.4-2.2-1.5-2.9,1.2-2,3.1-3.9-1.5.5-2.7,3.8-3.2,3.1.4,2.4-2-2.8.4-7,2.6-6,.4,4.7,3.2-5.5,9.2-4.3,2.5ZM372.7,86l3-3.4,5.3-.3,1.8-5.5,1.8-3.4,5.8,4.3,7.1,2.1,3.8-1.8,1.3,5.2-7.8,1.2-4.6,4.2-7.9-2.8-3.1,4.7H373Z" fill="#c3ccd3"/><path d="M384.7,73.8l5.6,4.1,7.3,2.2,3.5-1.7,1.2,4.6-7.6,1.1-4.6,4.3-7.9-2.9L379,90.2l-5.8.2-.2-4.3,2.8-3.3,5.4-.3,1.9-5.6,1.6-3.1m-4.2,17.3,2.5,6.1-.3,3.7-5.3,4.6-.2,4.9-2.4,3.8.9,2.4-3.2,3.5-7.4,2.5-10.1.5-8.8,5.9-3.6-1.8.3-3.8-10,1.5-7,2.6-6.6.3,5,3.5-5.2,9-4.1,2.4-2.5-2,2.3-4.7-3.4-1.4-1.6-3.4,5.7-1.8,3.5-3.3,6.1-2.8,4.7-3.5,11.3-1.9,5.8.9,6.9-8.8,3.4,2.2,11.8-6.7,3.9-5.7-.4-5,2.4-2.8,5.6-.9m-44.4,33.7,4,1,.5,1.6-3.6,3.2-2.2-1.5-3.1,1.2-1.9,3.1-3.5-1.3.4-2.4,3.6-3.2,3.2.5,2.6-2.2M384.5,73l-.2.5-1.7,3.1h0l-1.8,5.4-5.1.2h-.3l-2.8,3.3h-.2v.2l.2,4.3v.5h.5l5.7-.2h.3v-.2l3-4.4,7.5,2.7h.3l.2-.2,4.5-4.1,7.4-1.1h.6l-.2-.5-1.1-4.7-.2-.6-.5.3-3.4,1.7-7-2.2-5.5-4-.5-.4Zm-3.7,17.5h-.3l-5.7.9h-.3l-2.4,2.8-.2.2v.2l.4,4.9-3.7,5.4-11.5,6.5-3.1-2-.4-.2-.3.3-6.7,8.5-5.6-.8H341l-11.3,1.9h-.2l-4.7,3.5-6,2.8h-.1l-3.5,3.2-5.5,1.8h-.5l.2.6,1.6,3.4h.3l2.8,1.1-2,4.3-.2.4.3.2,2.4,1.9.3.3.3-.2,4.1-2.4h.2l5.3-8.9.2-.4-.4-.3-3.8-2.6,5.1-.3h.2l3.2-1.2-2.9,2.6h-.1v.2l-.4,2.4v.4h.4l3.5,1.4h.4l.2-.3,1.9-2.9,2.7-1.2,1.9,1.4.3.3.3-.3,3.6-3.2.3-.2v-.3l-.5-1.7v-.3h-.3l-2.5-.6,4.7-.7-.3,3.1v.4h.3l3.6,1.8.3.2.2-.2,8.7-5.8,9.9-.6h.1l7.5-2.4h.2L376,117l.2-.3v-.2l-.7-2.2,2.2-3.7h.1l.2-4.6,5.1-4.6h.2v-.2l.3-3.7h0L381,90.9l-.2-.4Zm-47.7,34.9,1.9-.3-1.7,1.4-2.3-.4,2.1-.7Z" fill="#fff"/><polygon points="458 781.1 461.2 779.1 462.4 781.3 459.6 782.4 458 781.1" fill="#c3ccd3"/><path d="M461.1,779.4l.9,1.8-2.3.9-1.3-1,2.7-1.7m.2-.7-.5.3-2.6,1.7-.6.3.5.5,1.2,1,.3.2.2-.2,2.4-.9.5-.2-.3-.5-.9-1.7-.2-.5Z" fill="#fff"/><rect x="504.8" y="467.2" width="50" height="33.56" fill="none" stroke="#ff1f2f" stroke-miterlimit="10" stroke-width="2"/></svg>