<svg height="960" viewBox="154 224 960 372"><path d="m381.56 269.83c-.52 1.7-.23 3.55.4 5.18 1.51-1.22 1.35-4.24-.4-5.18z"/><path d="m385.01 272.88c.06-.87-.24-1.58-.92-2.14.31.71.68 1.4.92 2.14z"/><path d="m390.6 278.68c-.11-.82-.45-1.53-1.02-2.14.1.83.44 1.54 1.02 2.14z"/><path d="m397.12 287.94c-.72.71-.8 1.78.41 2.03-.13-.68-.27-1.36-.41-2.03z"/><path d="m398.95 254.67c.69-.63.65-1.24-.09-1.83-.7.64-.67 1.25.09 1.83z"/><path d="m398.64 250.19c-.32.73.28 1.02.92 1.02-.27-.37-.59-.71-.92-1.02z"/><path d="m421.23 223.14c.34.03.67.06 1.01.1.01-.82-.5-1.48-1.22-1.83.01.58.08 1.15.21 1.73z"/><path d="m424.89 228.22c.2-.77.03-1.45-.51-2.03-.31.79-.15 1.47.51 2.03z"/><path d="m880.4 595.95c1.35-.82.23-2.13-.1-3.15-1.17.89-.61 2.17.1 3.15z"/><path d="m904.21 618.44c.96-.39.89-1.41.41-2.15-.14.71-.28 1.43-.41 2.15z"/><path d="m747.24 508.57c.69-1.35.49-2.81 0-4.19-1.1 1.5-.46 2.62 0 4.19z"/><path d="m755.28 512.53c.2-.21.41-.41.62-.61-.57-.41-.78-.21-.62.61z"/><path d="m784.78 517.62c.4-.46.8-.89 1.23-1.31-.8.03-1.25.51-1.23 1.31z"/><path d="m788.05 510.61c-.78 1-2.26.94-2.85 2.14 1.11-.44 2.2-1.09 2.85-2.14z"/><path d="m792.12 504.8c-.34 1.99-2.15 3.44-3.17 5.09 1.72-.99 3.06-3.1 3.17-5.09z"/><path d="m723.04 508.26c-1.58.59-1.84 1.61-1.98 3.15-.11 1.15-1.89 1.85-1.27 3.05 1.51-.37 2.71-.51 4.17.11.55-.08 1.05-.25 1.53-.52-.29-1.05-1.62-1.19-1.62-2.35-.19-.47-.42-.9-.72-1.3.06-.72.03-1.43-.11-2.14z"/><path d="m729.07 515.37c1.7-.39 5.14-2.62 5.69-4.4.23-.76 1.6-3.13-.43-3.53-1.28-.25-2.48-.17-2.03 1.15-.53-.85-1.68-.7-1.94.49-1.03-1.38-2.58.05-3.9-.34-.56-.16-2.29-2.31-2.7-1.03-.78 2.41 2.31 8.34 5.31 7.66z"/><path d="m729.55 806.83c-.24.08-.41.24-.52.48-.7.56-1.99-.5-2.74-.48 2.65-2.51-8.21-.47-8.71-.33-1.06.29-4.1 2.01-2.47 3.48 2.15 1.94 5.46-1.51 7.52.82 1.08-.3 1.9-1.1 2.79-1.73 1.43-1.01 2.18-.33 3.69-.44 1.24-.09 2.27-1.55.44-1.8z"/><path d="m931.49 686.18c-.37.32-.71.66-1.02 1.02.63-1.6-.69-2.4-.42-3.77.21-1.01 1.21-1.73 1.33-2.75.34-2.72-2.45-1.65-2.88-4.46-.19-1.29.39-2.65-.48-3.78-.74-.95-1.98-1.2-2.54-2.35-1.2-2.42-.64-5.16-2.95-7.02 0 2.84-4.65-2.54-4.89-4.17 2.21 3.69 2.37-1.71.11-2.44-.49.62-.59 1.3-.31 2.03-.93-1.9-3.04.06-2.07-3 .48-1.52.08-3.02.58-4.49.86-2.47 1.14-4.12.91-6.76-.09-.99-.77-1.64-1.65-.8-.47.45-.22 1.57-.51 2.14-1.99-1.15-2.81-3.4-4.48-4.89-1.4 1.68-.3 3.69-1.22 5.49-.9-1.74-1.16-2.34-3.17-1.53 1.22-1.42-.3-4.12-.45-5.69-.18-1.86-.24-4.29 1.06-5.8-3.78.07.23-9.81-5.28-7.83 1-1.41-.99-3.03-.33-4.54.52-1.18 1.93-.99 2.46.06-.47-.97-.4-2.1-.89-3.06-.43-.84-1.49-.32-1.72-1.25-.11-.43.01-2.05-1.01-1.63-.49.2-.09 1.1-.6 1.25-2.37.71-.93-1.91-2.14-2.36-1.47-.54-3.81-.7-3.21-2.8-.8.04-1.27.52-1.32 1.32-1.96-.59-1.54-4.72-2.23-6.22.45 1.79-3.91 1.36-3.77-1.31-1.2 2.28-2.21-.57-3.36-.47-1.25.12-2.95-1.91-3.48-2.86-.87-1.62.65-2.74 1.14-4.16.56-1.62-1.23-.66-1.12-1.93.15-1.63-2.14-2.08-1.24-4.11.74-1.67 1.73-2.9 2-4.78.26-1.69.28-3.45-.15-5.12-.57-2.24-.22-3.1.31-5.26-.81.09-1.52.39-2.15.93.78-1.32-1.01-3.31-1.61-4.37-1.19-2.08-.72-3.24.08-5.51 1.32-3.67-2.07-7.38.73-10.78-2.1-.75-.15-2.8.51-3.85-.27-.04-3.23-1.96-3.34-2.1-.85-1.21-3.46-2.74-3.68-4.02-.94-5.54-1.92.33-3.98-2.23-.34 2.31-3.67 3.97-4.87 1.33-.68-1.48.1-3.1-.41-4.61-.43-1.29-1.27-2.35-.68-3.73.48-1.15 1.61-10.7-.66-10.27.54-2.37.82-3.96-.88-5.84-1.59-1.77-.94-3.34 1.09-4.84-1.12-.57-3.64-.39-3.92-2.01-.22-1.25.05-2.55.05-3.81 0-1.19.63-1.18.22-2.5-.23-.57-.29-1.15-.19-1.75.25-1.46-1.04-2.07-1.47-3.37-.39.18-.76.38-1.11.61.36-.76.8-1.47 1.31-2.14-1.74-1.2-2.39 1.22-3.76 1.77-1.46.59-1.45 1.47-1.62 2.8-.51 4.12-3.11 7.32-2.95 11.6-.82.17-1.4-.22-1.62-1.02-.71.83-1.39 1.93-.82 3.06-.44.01-.81.19-1.1.53-.77.81-1.57 2.38-1.33 3.53.33-.32.66-.62 1-.91.21.48 2.35 2.8 2.76 2.85-.73.29-1.24.91-1.21 1.73 0-.85-.3-1.56-.92-2.14-.58 2.39-3.05 2.54-2.31 5.44.66 2.54-1.44 4.25-2.47 6.4-1.27 2.65.93 4.77-.02 7.19-.95 2.38-1.12 3.95-.94 6.58.22 3.36-1.1 5.67-2.23 8.72-1.06 2.87-1.87 5.83-2.95 8.68-1.88 4.98-5.17 9.58-7.73 14.21-1.78 3.22-8.33 5.29-11.34 3.14-.99-.7-2.01-1.27-2.86-2.14-.81-.83-1.97-.77-2.83-1.47-1.57-1.26-.26-3.81-1.99-5.06-3.25-2.33-7.1-1.14-9.74-4.48-1.53-1.95-2.55-3.67-4.78-4.9-1.75-.96-3.68-1.81-4.79-3.55-.82 1.32-2 .36-3.17.82.46-1.43-.58-2.28-1.66-2.96-1.54-.97-2.23-2.27-3.3-3.68-1.84-2.4-5.09-3.37-6.5-6.15-1.05-2.05-.35-1.61.9-2.78 1.09-1.01 1.96-2.27 2.81-3.49 2.02-2.84 3.49-5.67 5-8.82-1.68 2.79-3.86-3.03-.8-2.45-1.37-1.27.9-3.93 1.21-1.72 0-.89 1.5-3.26 1.63-.82.59-.69 1.26-1.26 2.03-1.72-.09.67-.12 1.35-.1 2.03 1.67-.75 1.78-2.19 2.14-3.77.38.22.76.46 1.11.72-.36-.81-.87-1.53-1.52-2.14 2.09-.82 3.98-3.6 4.93-5.6.27-.57.67-1.5.23-2.1-.51-.71-2.52-.98-1.6.68-1.33-.44-2.59-3.12-1.54-4.33-1.49 1.12-5.66 3.96-2.42 4.02-.45.93-1.74 2.74-3.02 2.38-.61-.16-.69-.94-.67-1.45.05-1.64-1.62-.82-.28-2.26-1.34.02-2.25 1.16-2.95 2.15-.58-.94-.35-1.75.33-2.52.71-.8 2.21-1.45.28-1.45.86-.55 2.67-1.43 1.73-2.74 0 1.76-2.05 2.1-3.36 2.43 2.28 2.15-4.77.9-3.15 3.46-2.12-.68-5.23-.22-5.6-3.46-1.45.23-2.32 1.47-3.9 1.17-1.39-.26-1.62-1.58-2.62.26.85-2.74-5.08-2.3-2.44-4.27-1.55-.52-2.65 1.37-4.17 1.31.15-1.56-1.7-1.4-3.06-1.38-1.53.01-2.06-3.92-3.36-4.82.57 1.43-1.39 1.53-2.04 2.34-.85-1.41-3.2-3.16-3.55-4.69-.68 1.18-1.44 1.08-2.04-.1.57 1.03.44 2.2-.2 3.16-.31-1.15-.52-2.38-1.53-3.16-.14.38-2.34 1.73-1.84 2.15.77.63 2.51 1.26 2.45 2.65 2.14-.97 4.93-1.38 5.59 1.52.44 1.9-1.38 4.43.2 6.1-1.5-.98-3.26.24-3.25 1.92-.2-2.37-10.42 1.68-12.11-2.23-.69 1.7-1.08.07-2.19.51-1.09.44-.46 1.48-.76 2.34-2.4-1.13-2.19 2.39-.9 3.35-1.22-.29-2.13-3.41-3.46-2.94-1.26.44-.91 3.51.2 3.96-1.04.24-1.64-1.28-2.52-.76-1.25.72-.99 1.77-1.63 2.82-.96 1.57-1.85-.17-2.26 2.01-.24 1.29.8 2.89 1.64 3.77-.92-.55-2.56 1.33-3.21 1.85-1 .8-1.62-.79-2.39.63-.83 1.54-1.12 3.6-1.73 5.25-.37 1.02-1.95.6-2.65 1.21-.79.69-1.04 2.01-1.56 2.89-1.29 2.16 2.24 3.4 3.81 2.92-.62.49-1.34.77-2.13.8.59 1.73 1.67 2.27 3.44 2.04-.91.87-2.15.31-3.08.98-1.33.95-.19 2.94.24 4-1.9.44-2.62-4.07-4.89-4.27-.04 1.3.62 3.23-1.02 3.85 1.05-4.78-8.62-6.51-7.41-1.62-1.26.53-2.15-1.29-2.95.41-.66 1.38 1.09 2.75.51 4.16-.14-.77-.51-2.73-1.74-1.83-.08.06-.13.13-.18.2.1-.63.16-1.25.24-1.78.25-1.46 1.14-2.8 1.27-4.27.11-1.33-1.12-2.41-1.93-3.29-1.36-1.47-2.11-3.38-3.49-4.82-1.08-1.14-1.27-1.93-2.83-1.98-1.84-.05-2.38-2.99-3.55-2.51-2.06.85-.25 1.36-.71 2.48-.58 1.42-2.59 1.86-3.56 2.95-.55-.69-1.28-1.53-.6-2.44-1.18.03-2.38 1.11-1.84 2.35-2.67.66.11-4.09-2.14-2.03 1.38-1.97-.84-1.04-.4.2-1.94-1.5-.92.5-.55.48.36-.13.68-.07.97.19.83 1.22-.63 1.16-1.03 1.97-.24.51-.69 2.06-.81 2.66-.19.97-1.39.93-1.43 2.04-1.68-2.54-.85-2.39-2.75-.21.9-1.27 1.52-4.07 0-4.39-.16 1.19-.07 2.41-.39 3.58-1.27-.8-1.69 1.34-2.86.1-.16 1.09-3.76 3.81-.7 3.97-.84 1.18.36 2.19.9 3.15-1.44.3-3.04-2.64-3.15-.31.19-2.28-3.14.36-3.05 1.72.58-.53 1.26-.86 2.03-1.02-.79.29-1.4.79-1.82 1.53 2.34.02 1.17 1.82 2.74 2.75-.55-.12-1.09-.26-1.62-.4-.25-.41-.51-.81-.77-1.21-.85-.59-1.68-1.39-2.79-1.44 1.57 1.48-1.39 2.39-2.37 2.84-2.12.99-1.23 3.78.02 5.1.24-.8.86-1.34 1.73-1.02-1.73.77-1.09 2.97-2.54 3.96-.26-.33-.5-.68-.72-1.02-.15 1.26-1.43 2.54.31 3.15 1.25.44 2.17-.2 3.15 1.02-1.15-.72-2.48.13-3.62-.55-1.02-.6-1.6.81-2.57.02-.77-.62-.81-1.47-2.04-1.35-.93.09-1.09 1.42-2.03 1.67.41-.86-.11-1.53-.92-1.82 2.17-.45-.42-1.51-1.82-.62.32.64 2.05 2.43.44 2.73-1.33.25-.37 1.7-1.86.53-.04.81.41 1.28 1.21 1.31-1.17 1.29 1.69 4.03 3.06 3.56-1.75 1.11-1.47 2.39-1.31 4.18-.81-.92-1.29-2.18-2.44-2.75-1.3 2 .05 5.3-1.53 7.33.33-2.9-4.99-8.21-3.05-10.89-2.76.09-.07-2.52-.92-3.66-2.06.97-2.11 3.9-3.61 4.7-1.22.65-2.65.43-1.69 2.32-1.55-1.82-4.28 2.24-4.84 3.33-1 1.9-1.96 7.08-.43 8.92 1.78 2.17-2.07 3.87-3.79 4.95-1.19.74-2.52 1.24-2.96 2.69-.28.93-.58 1.49-1.69 1.38 1.96 4.42-7.81 10.31-10.45 11.74-3.27 1.77-6.53 2.61-10.11 3.56-3.09.82-5 .3-8.11.3-2.04 0-2.54 2.01-3.86 3.11-1.17.98-2.74 1.01-4.18 1.01-3.53-.01-4.9 1.9-7.77 3.59-1.32.78-2.78 1.31-4.33 1.31-1.22 0-1.66-1.11-2.73-1.26-1.13-.15-4.14 2.31-3.69-.48-1.66 1.93-3.59 2.9-6.06 3.22-1.1.14-2.13 1.99-3 2.7-3.35 2.73-6.33 5.6-10.52 6.93-2.96.95-5.72 2.17-7.37 4.97-1.6 2.71-1.66 4.45-4.98 5.6.4-1.62-.02-3.36.6-4.94.44-1.13 1-2.27.73-3.52-2.45.78-3.35 4.24-4.34 6.27-.67 1.38-2.08 2.7-2.08 4.32 0 1.54 1.15 2.75.83 4.36-.74 3.47-2.12 5.54-4.09 8.33-1.68 2.4-3.47 5.88-3.07 8.9.26 1.92 1.24 3.68 1.24 5.65 0 .91-.32 1.57.27 2.38 1.55 2.11 1.44 4.79 2.66 7.11 1.44 2.72.47 5.14-.71 7.84-.17.41-1.57 1.76-2.07.94-.89-1.49-.35-3.31-.56-4.92-.19 1.08-.84 2.31-2.14 2.23-.11-1.56 1.3-2.65.92-4.25-.28-1.18-.92-2.56-1.85-3.37-1.97 1.84-.85 6.18.69 7.97 2.25 2.61.99 3.91-1.7 5.35-.15-.95.61-3.32-.81-1.02.11-.56.29-4.91-.21-2.14.26-1.44-.6-2.74-.39-4.17-.03 1.14-.34 2.29-1.13 3.15.21-1 .54-2.03.21-3.05.11 1.33-1.13 2.03-.84 3.47.32 1.58 1.34 2.97 2.19 4.3 2.03 3.13 3.22 7.06 3.06 10.8-.08 1.94-1 3.78-.91 5.72.08 1.69 1.51 3.06 2.12 4.59.64 1.6.59 3.08.65 4.76.05 1.61.92 3.03 1.17 4.61.6 3.81-1.16 8.95-2.18 12.64-1.07 3.89.36 8.1 1 11.92.68 4.13 1.39 7.5-.19 11.54-.72 1.86-2.49 3.87-1.81 6.13-.81-.2-1.29.19-1.31 1.01-.17-.82.16-1.62.8-2.13-2.7 1.92-1.16 5.74-2.44 8.33-1.13 2.29-3.97 5.28-6.71 5.31-3.48-2.13-5.75 6.75-3.93 8.66 2.06-2.17 4.74 1.16 5.75 2.8 1.22 2 2.58 4.51 5.54 4.02-.14.34-.27.68-.39 1.02 3.4.68 6.74.47 10.15.81.97.1 6.28.59 3.78-.5 1.95.07 4.19-.51 5.72-1.7 1.14-.88 1.42-1.73 2.9-2.29 1.02-.38 1.75-.62 2.55-1.34.73-.67 1.49-1.58 2.54-1.74 1.04-.15 1.98 1.13 2.94.56.66-.4 2.49-1.51 3.09-1.21-.7-3.74 5.16-4.99 7.75-5.4 2.04-.32 3.83-.14 5.9-.53 2.75-.53 6.05-1.34 8.84-1 .64.08 5.74.4 5.76.47.77 2.52 1.09 1.37 2.92.64 1.1-.43 8.75-1.37 7.78 1.13 1.59-.27 2.41-1.78 3.98-1.03.57.28 2.47-1.39 2.9-1.71 2.38-1.82 4.08-4.1 5.81-6.51 2.26-3.14 4.6-3.35 8.1-4.29 3.27-.87 6.77-2.91 9.79-4.45 3.7-1.87 6-3.7 10.35-3.3 3.57.33 6.75.46 10.3-.26 7.38-1.47 13.8-5.64 21.05-7.22 3.91-.86 8.62-1.05 12.62-1.01 1.59.01 3.35.69 4.89.14 1.28-.46 2.38-1.3 3.82-1.14 4.28.48 5.93 6.05 9.99 6.78 1.59.29 1.74-1.97 3.81-1.04 1.86.83 3.48 2.63 5.58 2.88.11.02 3.43-1.43 3.48-.92.09 1.02 1.14 1.53 1.23 2.51.07.74-1 1.67-1.22 2.36 1.17-.25 2.73-1.42 3.68-.05.8 1.17-.17 2.72-1.14 3.41.62-2.53-1.41.46-1.72.85-.23.29.56 2.06.71 2.39.29.65-.36 1.74 1.18 1.34 1.08-.29 1.79.71 2.77-.1-.58.8-.14 1.2.23 1.91.46.89-.1 1.76-.44 2.57-.86 2.06 1.85 3.34 1.85 5.32 0 2.12-.54 4.21-.84 6.3-.27 1.82-1.95.7-1.7-.64-.74.55-1.36 1.24-1.84 2.03 1.86-1.07 2.49 1.53 3.08 2.71.84 1.67 2.75.29 3.43 2.38.93-.88 1.05-2.24 1.93-3.16-.72.26-1.44.53-2.15.82 1.23-.96 1.62-4.11 3.77-3.67.76.15 2.93-2.73 3.5-3.34 1.58-1.64 3.25-3.39 5.44-4.2 1.51-.55 2.97-2.23 4.29-2.64.71-.22 1.4.43 2.14.19.85-.26 1.44-1.23 2.04-1.83 1.36-1.39 2.53-2.95 3.83-4.39 1.35-1.47 4-2.58 4.88-4.31.16-.33.79-3.66 1.23-3.46 1.08.48-.07 3.78-.05 4.49.02.27.27 1.88-.02 2.09-.9.66-2.23.86-2.65 2.06-.74 2.13.13 3.76-2.21 5.09-1.99 1.15-2.89 2.31-4.4 4-2.72 3.06-2.55 7.95-5.47 10.7-1.68 1.58-3.91-.39-5.63 1.12-1.03.89-2.47 2.42-2.84 3.76 2.42.08 4.71-2.17 6.9-1.96 2.31.23 2.61.62 3.94-1.55 1.21-1.99 2.44-4.07 3.81-5.94.67-.91 1.58-1.59 2.38-2.4.71-.71.75-1.74 1.67-2.29.85 3.85 1.1 7.71-.67 11.26-.67 1.33-1.48 3.05-2.82 3.84-1.49.89-3.39 1.67-4.43 3.11 2.08 2.19 6.62-1.07 9.05-.82-2.91-.94.5-.55 1.02-.4-1.03-1.61 3.31-3.18 3.96-1.84.57 1.18-1.39.89-1.5 2.07-.1.98.1 1.68-1.14 1.9.08-.71.15-1.42.2-2.13-2.53-.18-1.01 1.96-.25 3.06 1.16 1.65 1.82 3.37 1.37 5.38-.21-2.98-1.52-6.11-4.07-7.82 2.97 3.73 4.69 7.82 3.57 12.61-.71 3-3.77 4.55-4.23 7.88-.27 1.88 1.32 2.54 1.33 3.6.01 1.67.5 3.5 1.47 4.87.96 1.37 9.05 2.16 6.32 5.31.67-.14 1.52.24 2.15-.06.85-.4 1.09-1.14 2.1-1.33 1.83-.35 2.61 1.69 4.4 1.44 3.2-.44 4.9 2.5 7.6 3.87 1.56.79 1.86 2.04 3.35 1.29 1.8-.91 3.49-1.56 5.09-2.83 1.59-1.27 3.78-2.4 5.7-3.09 1.33-.48 3.25-.11 4.18-1.42-.94-.73-2.01-.17-3.05-.51 2.28-1.34 4.65-3.2 7.32-3.66-.1 1.99.75 2.97-1.02 4.48-1.08.92-2.79 2.64-4.17 1.11 1.09 1.98 1.9 2.66 3.96.92.25-.22 5.26-3.41 4.4-1.22-.61 1.53-2.24 1.57-1.98 3.44.23 1.73 1.15 1.01 2.46.72-.14 1.05-.03 2.14-.31 3.16 1.16-.07 1.75-1.39 2.72-.19.62.77.28 2.23.35 3.13 1.32-.61 2.58-2.48 2.94-3.85-.79.21-1.51.59-2.14 1.12.51-2.7-.23-2.17 2.56-2.4 2.87-.23 5.32-1.04 7.68-2.67 5.15-3.56 10.52-7.47 16.96-8.08 3.18-.32 6.39 0 9.57-.39 2.98-.35 4.16-1.88 6.53-3.11.77-.4 1.6.24 2.4-.5.51-.48.94-1.05 1.32-1.64.4-.63 1.75-2.87.29-3.19 1.55-.68 3.67-4.46 4.74-5.85 1.87-2.45 3.17-5.36 5.02-7.79 2.17-2.83 4.75-5.4 7.11-8.08.94-1.06 1.62-1.46 2.98-1.66 1.1-.16.8-1.52 1.52-2.17.16 1.73.83.81 1.32 0-1.69-.66 1.3-3.31 1.82-3.88.3-.33.88-2.3.91-2.31.91-.18.72.18 1.28-.94 1.1-2.21 3.53-2.88 4.78-4.96.61-1.01 1.51-.72 2.12-1.58.76-1.07 1.34-2.32 2.1-3.41-.64.29-.88-.01-.71-.92 2.45.27 2.17-1.22 3.35-2.62.85-.99 2.25-1.41 3.06-2.43 1.16-1.43 2.8-3.08 4.6-3.65.68-.21 4.94-1.23 2.31-1.48 1.52-.24 2.7-1.51 3.9-2.35.66-.46 1.63-.41 2.2-.99.95-.97 1.29-3.19 2-4.4 1.11-1.87 3.32-2.74 4.71-4.36 1.41-1.64 2.54-3.55 3.87-5.26 2.74-3.52 2.95-7.77 5.74-11.32 3.33-4.21 4.99-9.19 8-13.51 2.8-4.03 5.09-7.14 6.19-12.02.23-1.01-.48-1.57-.52-2.5-.03-.85.31-1.71.48-2.53.26-1.23.42-4.09-.31-5.12-1.08-1.52-1.21-2.68.34-3.91 1.43-1.13.99-2.62 1.27-4.3.36-2.21 1.03-4.76 1.79-6.86.45-1.17 2.89-2.89 1.35-4.16zm-239.57-126.96c.36-.32.6-.75.77-1.23-.06.49-.2.95-.77 1.23z"/><path d="m788.84 515.53c.2-.15.35-.27.43-.35-.18.09-.31.22-.43.35z"/><path d="m745.93 512.14c.14.34.27.67.41 1.01.83-.78.78-.9-.41-1.01z"/><path d="m850.9 501.55c.91-.49 1.19-1.31.31-2.03-.83.5-1.06 1.32-.31 2.03z"/><path d="m851.22 494.44c.4-.32.64-.72.71-1.23-1.14-.12-1.38.28-.71 1.23z"/><path d="m852.64 495.35c.29-.46.42-.97.39-1.52-1.05.21-1.16.79-.39 1.52z"/><path d="m868.91 476.63c.49-2.06-2.78-2.92-4.16-3.36 1.5.92 3.01 2.03 4.16 3.36z"/><path d="m866.37 472.86c.67.39 1.38.66 2.13.81 1.36-1.38-1.3-1.61-2.13-.81z"/><path d="m868.7 472.05c.35.37.73.7 1.12 1.02.15-.82-.38-1.09-1.12-1.02z"/><path d="m869.52 468.59c.34.11.68.21 1.02.31.17-.71-.18-.81-1.02-.31z"/><path d="m873.69 465.54c-.08-.58-.42-.91-1.02-1.02.34.34.68.68 1.02 1.02z"/><path d="m894.49 435.33c-.21-1.53 1.24-3.01.93-4.83-.36-2.08-1.56-4.03-3.07-5.5-1.39-1.34-3.22-.94-4.48-2.17-1.21-1.21-1.59-3.33-3.55-3.77-1.69-.39-1.74-2.35-3.51-2.7-1.42-.26-1.75.99-3.54-.11-2.26-1.41-3.88-3.49-6.4-4.58-2.18-.94-4.53-.61-6.79-1.2-4.58-1.21-8.4-4.23-12.56-6.35-1.5-.77-4.79-1.81-6.35-2.43l-2.39 44.46c-.61 1.37-1.53 3.33-1.85 4.96-.4 1.94 1.17 2.82 1.32 4.58l-2.03 25.83c1.28 2.3 2.64-.3 4.27.42 2.38 1.09 4.99.47 7.46.24 2.22-.2 3.9 1.63 5.88 1.47 2.1-.17 4.15-2.36 6.05-3.17 4.26-1.81 1.82-5.54-1.3-7.52-1.63-1.04-2.97-1.54-4.86-1.1-1.35.32-1.94-.19-2.01-1.62.65 1.94 1.59 1.18 3.08.82.95-.23 1.66.1 2.54.42 1.11.41 2.16-.08 3.25-.28 1.32-.23 2.72-.18 3.98-.7 1.89-.79-1.22-3.14-1.77-4.03 1.28.16 5.53 3.34 4.99.71.4.15.81.29 1.23.42-.32-2.45-1.9-4.42-2.64-6.72.62.28 6.05 7.02 6.4 2.44.79.27 1.44.74 1.94 1.41-.13-.97-.2-1.96-.21-2.94.48 1.82.81.93 1.32 0-.14.88 1.01 2.72 1.22.61.43.91 2.15 1.79 2.15.1.46 1.92-.69 2.43 2.03 2.96 1.53.29 3.03 1.29 4.5 1.48.99.13 2.31-.55 3.15.14.63.51 1.24 1.13 2 1.45 2.32.96 4.24 6.11 5.1 8.32.92 2.35.38 3.94 3.85 4.39-.96 1.04.46 3.2 1.06 4.08.74 1.07 2.14.33 2.86 1.3.64.85 1.47 2.26 1.47 3.36 0 1.44 1.71 1.95 2.03 3.25 1.21-1.15 2.5 1.39 4.43.14.77-.5 2.41.96 3.24 1.09 1.19.2 2.35-.12 3.42-.61-.11.36-.22.74-.31 1.11 2.6-.44 5.13.9 7.66 1.1 1.45.11 4.61-.06 4.76 2.05.49-.58 1.07-.69 1.72-.31-.55.54-1.19.71-1.94.51 1.22 2.92 4.27 2.09 6.5 1.41 3.34-1.03.81-2.15-1.41-2.72.18-1.43 1.2-.84 2.12-.67 1.18.21 2.55-.82 3.57-1.27-2 .69-4.63.1-6.38-.99-1.15-.72-2.79-.84-3.79-1.65-.8-.63-1.08-1.67-1.73-2.44.72-.45 3.62-.6 3.5-1.85-.11-1.14-2.97-.87-3.71-.91-3.87-.18-5.4-1.35-3.68-5.16 1.06-2.35-1.55-2.18-3.06-1.59-2.13.84-4.48 1.31-5.02-1.59-.19-.96.18-2.38-.81-2.98-.7-.42-1.25-.75-1.52-1.6-.51-1.6-.82-4.4-.67-6.08-1.66.67-3.92-1.42-4.74-2.56-1.3-1.81-3.26-3.09-4.47-4.89-1.03-1.55-4.35-8.59-.91-8.77 2.17-.11 6.44 1.53 8.11-.43 2.13-2.48-1.68-8.02-4.19-8.77-1.03-.31-2.02.27-3.05 0-.88-.22-1.19-1.01-1.94-1.42-1.53-.87-3.44-2.12-5.09-2.72-1.63-.66-7.05-1.11-7.36-3.33z"/><path d="m897.3 428.1c1.24-.51 1.46-1.85.6-2.84-1.09.56-1.9 1.95-.6 2.84z"/><path d="m909.01 433.47c-1.14.02.09 2.72.48 3.08 1.98-.11 1.06-3.11-.48-3.08z"/><path d="m918.45 441.44c1.54-1.18 1.08-4.28-1.11-4.27-2.69 0 .33 3.59 1.11 4.27z"/><path d="m918.66 397.58c-.18.34-.35.68-.52 1.02.87.24 1.05-.1.52-1.02z"/><path d="m940.06 435.97c.9 1.52-6.29 2.25-7.07 2.2-1-.06-1.51-.55-2.41-.91-1.2-.49-1.7.21-2.8.12-.97-.06-3.43.44-3.94-.34-.82-1.27-2.23 1.8-.94 3.14.92.95 1.88.67 2.97 1.14.82.36 1.1 1.2 2.04 1.33.67.89 1.81 1.26 2.23 2.35 1.31-.95 3.28-1.35 4.52.01.89.99.83 2.02 2.5 1.86 2.19-.21 4.39.26 6.56-.17 2.85-.56 4.37-3.3 6.81-3.25 2.52.05 5.9-3.48 5.54-5.98 1.43.17 8.22 1.12 7.22-2.39-.17-.6-2.53-4.75-.51-4.33 3.33.69 4.19-2.9 4.19-5.43 0-.94.26-2.01-.73-2.46-.95-.44-2.04-.88-.92-1.98-.92.36-3 2.62-3.94 1.26-1-1.43-3.61-1.37-3.36.81.24 2.07 1.38 3.83 1.05 6.03s-3.43 1.04-4.97 2.28c-1.66 1.34-1.93 3.44-3.22 5.03-.53.67-1.56.62-2.3.82-1.69.45-1.41-.23-3.01-.51-1.22-.22-2.65 2.06-3.6.74-1.26-1.73-1.2-4.5.87-5.57-1.75-1.89-3.28 3.38-2.78 4.2z"/><path d="m935.13 427.3c.34.1.68.2 1.02.29.22-.92-.12-1.02-1.02-.29z"/><path d="m937.74 386.94c-.65.58 1.55 2.3 1.97 2.51 1.11-1.03-.93-3.43-1.97-2.51z"/><path d="m938.77 482.57c-2.21 1.25.29 3.05 1.35 3.73.39-.75.48-4.76-1.35-3.73z"/><path d="m941.14 487.71c1.21-.45 3.35.02 4.26.92 2.17-2.27-.88-3.37-2.58-4.01-3.04-1.15.04 2.05-1.68 3.09z"/><path d="m945.09 402.56c1.33.2 2.92-.64 1.92-2.17-.87-1.32-4.43-2.1-4.66.15.88.8 1.46 1.84 2.74 2.02z"/><path d="m944.49 500.12c1.65-2.7-2.99-.13 0 0z"/><path d="m948.04 493.93c1.48.53 2.08-1.82 1.12-2.65-.53.3-.86.73-1.01 1.31-1.72-.61-2.37-2.63-3.87-3.56.6.93 1.19 1.92 1.33 3.04h.91c-1.31.88.93 1.65 1.52 1.86z"/><path d="m944.99 500.42c.28-.47.69-.77 1.23-.9-.8-.29-1.26.05-1.23.9z"/><path d="m949.35 474.66c.12-.72.31-1.4.54-1.91-1.09.19-1.95 1.67-.54 1.91z"/><path d="m949.58 477.84c-.32-.63-.39-1.53-.32-2.44-.41.88-.77 1.78.32 2.44z"/><path d="m949.58 474.69c-.08-.01-.16-.02-.23-.03-.04.25-.07.5-.09.75.11-.24.23-.48.32-.72z"/><path d="m950.49 406.34c.69-.12 1.37-.3 2.03-.52-.75-.44-1.55-.17-2.03.52z"/><path d="m954.98 404.45c-.31-1.07-2.48-1.78-3.28-2.58.39.8.07 1.28-.8 1.31 1 .87 2.42.77 3.42 1.66 1.21 1.1 2.42 2.21 3.7 3.23 1.41 1.12 2.71 2.56 4.31 3.4 1.2.62 2.6.79 3.67 1.66 2.08 1.69 2.8 4.58 3.96 6.89.8 1.59.05 3.26.18 4.92.13 1.61 1.27 2.77 1.94 4.17 1.26-1.03 3.53-5.86 2.87-7.41-.53-1.27-1.68-2.07-2.24-3.26-.69-1.47-.86-.93-2.28-1.43-1.49-.21-2.08-2.7-2.97-3.67-1.37-1.49-3.92-3.81-5.82-4.58-2-.81-3.09-2.95-5.1-3.76-.73-.27-1.25.53-1.56-.55z"/><path d="m964.42 500.83c.35-.27.68-.53 1.03-.8-1.02.01-2.03-.06-3.05-.21.67.34 1.35.68 2.02 1.01z"/><path d="m967.28 482.74c3.31-.13-.31-4.97-2.44-2.55 1.12.59 1.26 2.03 2.44 2.55z"/><path d="m967.59 506.94c.34.3.67.61 1.02.91-.16-.73-.09-1.08-1.02-.91z"/><path d="m971.85 512.23c.72-.19 1.37-.53 1.94-1.02-.95-.88-3.81-2.84-5.18-2.03.69.57.66 1.56 1.31 2.14.84.74 1.39-.7 1.93.91z"/><path d="m969.92 407.25c-.3.85-.1 1.56.6 2.14.49-.82.11-1.64-.6-2.14z"/><path d="m980.09 509.09c-.92-1.35-2-.07-3.15 0 .37.2.74.4 1.12.6.6-.44 1.28-.64 2.03-.6z"/><path d="m990.38 431.36c-.87 1.56-.55 3.58 0 5.19 1.46-1.26 1.55-3.95 0-5.19z"/><path d="m1000.21 445.44c-.75-.31-1.48-.32-1.85-1.15-1.56-3.44-3.6-6.68-7.38-7.93 1.02 1.12.34 2.85.25 4.15-.16 2.15 1.51 3.67 2.49 5.4.77.72 1.89 1.02 2.06 2.17.2 1.43-.04 2.89 1.07 4.02 1.61 1.65 7.32 2.12 6.71-1.04-.25-1.32-.62-2.26-1.47-3.38-.5-.67-1.07-1.91-1.88-2.24z"/><path d="m1000.15 456.58c.34.14.67.28 1.01.42.34-.1.68-.21 1.02-.31-.22-1.35-1.75-1.52-2.03-.11z"/><path d="m1004.71 453.24v2.03c.22-.68.22-1.35 0-2.03z"/><path d="m907.47 395.96c.89-.12 1.74.7 2.64.7 2.23 0 2.36-1.42 4.17-1.82-2.05-.41-4.46-1.57-6.57-1.01-1.32.34-3.65 1.76-2.28 3.35.68-.3 1.26-1.12 2.04-1.22z"/><path d="m374.74 219.57c.29-.32.46-.69.51-1.12-1.21-.19-1.38.18-.51 1.12z"/><path d="m376.07 227.3c.03-.77-.21-1.45-.72-2.03.29.66.52 1.34.72 2.03z"/><path d="m375.76 221.1h.61c-.26-.42-.57-.79-.93-1.12.11.37.21.75.32 1.12z"/><path d="m376.58 209.2c.19.67.4 1.35.61 2.03.63-.81.28-1.64-.61-2.03z"/><path d="m377.69 235.85c-.26.3-.46.64-.6 1.02 1.39-.68 1.91 1 2.32 1.93-.13-1.19-.71-2.28-1.72-2.95z"/><path d="m378.3 225.68c-.35 1.37-.62 2.77-.81 4.17 1.72-.12 1.55-3.22.81-4.17z"/><path d="m377.79 215.5c.2 1.04.63 2.07.41 3.15.52.74 2.82-3.79-.41-3.15z"/><path d="m378.91 248.67c.64-.4.94-.98.92-1.73-.39.19-.77.43-1.12.7.07.35.13.68.2 1.03z"/><path d="m380.04 227.91c.24.59.68.89 1.31.92.51-3.3-3.17-3.93-1.31-.92z"/><path d="m379.92 223.14c.28.47.55.94.82 1.42.4-.24.74-.54 1.02-.92-.82-.32-1.5-.83-2.03-1.52.06.34.13.68.19 1.02z"/><path d="m379.83 218.05c.21-.54.55-.35.1-1.12-.04.37-.07.75-.1 1.12z"/><path d="m1010.41 467.07c.04-.76 1.51-1.94.99-2.63-.25-.32-1.3-1.96-1.71-1.94-2.35.07-.3 3.93.72 4.57z"/><path d="m1008.58 467.07c0 1.07-.1 2.16.41 3.15.29-1.07.4-2.26-.41-3.15z"/><path d="m1019.67 460.14c-.77-.9-1.96-1.22-2.72-2.14-.97-1.18-.94-2.81-2.05-3.92-1.51-1.49-3.62-2.67-5.61-3.4-1.18 2.13 2.64 4.57 3.45 6.2 1.25 2.03 4.43 4.46 6.93 3.26z"/><path d="m1014.53 465.92c-2.47-.19-1.5 3.48.46 3.59.78-.73 1.06-3.47-.46-3.59z"/><path d="m1017.02 472.76c-1.98 1.41-1.51 2.14-.21 3.87-1.06-1.42 1.03-2.46.21-3.87z"/><path d="m1021.39 474.7c1.22.43 1.4-.73 1.22-1.62-.34-1.71-1.76-2.23-2.63-3.56-.48-.73-.32-3.13-1.96-1.74-.86.72-2.65 2.41-2.42 3.68 1.34.35 2.73-1.09 3.75.32.16.36.15.71-.02 1.06-.11.74 1.58 1.58 2.06 1.86z"/><path d="m1018.24 477.04c.34.13.68.26 1.02.39.24-1-.09-1.12-1.02-.39z"/><path d="m1019.35 460.56c.35.17.69.34 1.03.5.27-.98-.08-1.15-1.03-.5z"/><path d="m1021.8 460.25v1.03c1.03.2 1.03-.15 0-1.03z"/><path d="m1023.32 477.14c1.79-.53.69-1.76 1.02-3.05-1.99-.41-2.61 2.09-1.02 3.05z"/><path d="m1028.21 461.78c.34.17.68.34 1.02.5-.46-.4-.11-.76-1.02-.5z"/><path d="m1028.21 462.8c.72.2 1.44.43 2.13.7-.41-.84-1.28-1.2-2.13-.7z"/><path d="m1036.04 469.11c1.35 1.39 3.17 2.26 4.86 3.31-1.07.3-.1 1.59.85 1.97-.22-.54-.33-1.08-.33-1.65.62.4 1.21.84 1.74 1.35 1.07-2.57-2.49-6.3-4.87-6.75-1.59-.3-3.27-2.15-4.43-3.18-.63-.56-.97-1.26-1.8-1.56-.81-.31-1.62-.1-2.33-.72 1.12 2.81 3.28 6.22 6.31 7.23z"/><path d="m1034.82 481.31c.62-.3.91-.44.82-1.22-1.08-.14-1.36.26-.82 1.22z"/><path d="m1052.11 490.25c.57-1.94-2.72-4.98-4.48-5.15-1.76-.18-4.03.83-5.21-.91-.78-1.13-1.77-1.56-2.67-.12-1.38 2.2 1.92 5.45 3.93 5.89 1.85.26 3.06-.23 4.82.66.99.52 3.13 1.23 3.61-.37z"/><path d="m1041.02 511.32c.69.34 2.23.45 2.65.71 1.05.65 1 2.23 2.34 2.54 1.43-1.93-5.4-5.51-4.99-3.25z"/><path d="m1046.21 479.88c-.16.83.3 1.48 1.13 1.63.49-.91-.09-1.77-1.13-1.63z"/><path d="m1048.87 481.4c-.84-.31-1.56.09-1.83.92.58-.35 1.19-.66 1.83-.92z"/><path d="m1057.42 480.38c-.36-.78-1.2-2.35-1.98-2.77-1.21-.64.83-1.77.25-2.57-.63-.91-.85-2.41-1.8-3.07-.45-.31-2.44-1.08-2 .43.84 2.93.43 6.47 1.86 9.32 2.07 1.52 3.1 3.93 4.79 5.79.61-1.23-.54-5.83-1.12-7.13z"/><path d="m1058.65 497.15c.73 2 1.71 2.85 3.33 4.19 1.75.6 3.61.59 5.4 1.02-1.07-3.38-1.98-3.73-4.78-5.22-.91-.48-5.21-3.6-5.8-1.5.75.41 1.53.65 1.85 1.51z"/><path d="m1060.35 489.65c.67-1.7-.22-3.56-1.42-4.78.1.96.07 1.91-.08 2.86-.05.7 1.32 1.23 1.5 1.92z"/><path d="m1104.3 502.07c.34.23.69.47 1.03.7.79-1.06 3.04-.67 3.03-2.35-1.61-.44-3.28.1-4.06 1.65z"/><path d="m1114.27 512.85c.31-.14.61-.27.92-.41-.33-.85-1.06-1.21-1.83-.61.26.37.56.71.91 1.02z"/><path d="m471.38 242.56c.51-1.07.16-2.22-.61-3.05.24 1.12-.54 2.23.61 3.05z"/><path d="m472.49 242.36c0-.34 0-.68 0-1.02-.08.34-.08.68 0 1.02z"/><path d="m497.01 216.32c-.34-.3-.67-.61-1.01-.91.16.47.51.78 1.01.91z"/><path d="m322.45 222.02c0-.34 0-.67 0-1.02-.27.48-.49.33 0 1.02z"/><path d="m317.07 236.66c-.9.74-1.43 2.21-1.18 3.35.63 2.89 2.96-.17 1.99-1.93-.25-.49-.52-.96-.81-1.42z"/><path d="m320.89 216.59c.35-1.75-1.62-3.53-1.2-4.88.41-1.31 2.91-4.06.32-4.64 1.06-.83.89-2.11.11-3.05-2.58 1.99-.84 5.59-1.42 8.24-2.01 1.68.02 6.73.2 8.75-2.52-.47-3.02 7.94.31 7.63-1.48-1.04.1-1.15.1-2.33 0-1.4-.82-2.73-.35-4.14.35-1.07 1.3-2 1.08-3.21-.37-1.91.5-.63.85-2.37z"/><path d="m317.26 211.44c.11.39.29.77.51 1.11 0-.37 0-.74 0-1.11-.17 0-.33 0-.51 0z"/><path d="m320.72 258.02c1.16.33 1.39-.05.71-1.12-.47.22-.71.6-.71 1.12z"/><path d="m322.04 223.74c-.34-.2-.67-.4-1-.61.23.36.56.56 1 .61z"/><path d="m328.77 271.96c-2.91 1.06 2.64 2.19 0 0z"/><path d="m330.18 269.52c-1.45.08-.49 1.7.11 2.14-.31-.7-.35-1.41-.11-2.14z"/><path d="m332.43 279.28c-.85.32-1.04 1.3-.61 2.03.81-.42 1.21-1.21.61-2.03z"/><path d="m334.36 287.22c1.14-2.52.04-2.98 0-5.18-3.76-1.88-.72 3.97 0 5.18z"/><path d="m592.84 318.96c.78-.1 1.56-.13 2.34-.1-.76-.52-1.56-1.11-2.55-1.02.07.37.14.74.21 1.12z"/><path d="m525.7 340.42c-.55-1.41.18-3.22-1.21-4.27-.07 1.06.26 2.09.2 3.15.09.7.22 1.05 1.01 1.12z"/><path d="m565.37 304.31c-.13.34-.27.68-.41 1.02 1.04.37 1.17.04.41-1.02z"/><path d="m582.06 282.03c.61-.34 1.01-.86 1.21-1.52-.8.13-1.35.67-1.21 1.52z"/><path d="m584.6 282.64c2.19-.76 1.28-3.39-.12-1.93-.34.66-.3 1.31.12 1.93z"/><path d="m602.19 313.06c-.67-.16-1.35-.26-2.04-.31.59.62 1.27.72 2.04.31z"/><path d="m463.84 332.99c.2.7.26 1.42.22 2.14.99-.57 1.06-1.87-.22-2.14z"/><path d="m497.32 334.42c.35.28.73.28 1.11 0-.1-.37-.27-.72-.51-1.02-.2.34-.4.68-.6 1.02z"/><path d="m399.25 290.88c-.5.54-1.07.99-1.72 1.33 1.09 2.09 3.39.02 1.72-1.33z"/><path d="m403.46 304.82c.15 1.9 1.52-.28 1.28-1.53-1.23-.55-1.36.63-1.28 1.53z"/><path d="m447.06 335.94c1.17.22 1.37-.16.6-1.12-.4.26-.61.63-.6 1.12z"/><path d="m609.43 305.31c-.04-1.63-2.87-2.69-3.87-1.32-.51-1.02-2.62-3.35-3.86-2.03-.18-1.57-2.32-4.23-4.12-3.08-.84.53-2.97 2.64-3.2.44 1.12-.41 3.27-2 .98-2.96-1.22-.51-1.68.72-2.54 1.21-.9.51-1.93.05-2.93.33 1.37-.59 1.53-1.15 1.09-2.83-.42-1.6 1.2-1.17 1.34-2.34.2-1.77-2.54-2.41-2.71-3.88-.24 1.67-1.11.85-1.99-.5.38.05.74-.05 1.07-.31-.37.1-.73.2-1.09.29-1-1.55-2.01-3.8-2.06-3.81-1.44-.26-2.52 4.2-3.68 4.94-.68-1.79 1.03-3.52-.4-5.19-1.83 1.76-1.67 4.54-3.1 6.46-.65.87-1.18 2.15-1.79 2.9-.51.62-1.07.15-1.51 1.12-.79 1.71-1.07 3.61-1.92 5.29-.56 1.1-3.74 3.89-3.49 1.33-.94 1.3-3.92 3.56-.87 4.75 2.02.79-.52 2.74-1.25 3.32-.63.51-2.63-.32-2.5.55-.02-.02-.03-.05-.05-.08-.39 1.13-1.04.74-1.22 1.22-.05-.43-.1-.85-.17-1.24 0 0-.01.01-.01.01.32-.74.32-1.59-.74-1.18-3.43 1.33-4.85 4.96-8.94 5.06.02 0 .03.01.05.01-.34-.07-.76-.11-1.27-.12-.22 4.05-1.93 7.14-4.92 9.83-2.33 2.09-2.42 5.9-5.05 7.75-3.04 2.14-8.24 2.89-11.84 3.47-2.28.36-7.82 3.65-4.13 6.41-1.05-.06-1.99-.6-3.05-.61-.29 1.1.67 2.22-.31 3.15.71-.06 1.43-.13 2.14-.2-.86.85-1.61.3-1.91 1.72-.11.6-.3 1.17-.53 1.73-.33 1-.32 1.96.41 2.65-1-.59-1.78.42-1.48 1.62.54 2.08 2.7.86 3.71 2.25-1.45-.13-2.99-.27-4.01-1.43-1.12-1.28-1.89-.22-3.19-.7-.85-.31-3.13-.83-2.85-2.02.09-.4-1.31-.5-1.34-1.45.12 3.36-7.78.27-7.44-3.35-.23 1.51-1.89 2.49.06 3.61.47.65.68 2.77 1.34 3.52 1.1 1.23 2.46 2.1 4.02 3.34.61.49 1.43 2.38 2.02 2.61 1.08.43 2.62 2.32 4.78 1.3 1.79-.86 3.25-1.97 5.36-1.79 2.11.17 4.53 1.04 6.48.28.12-.05 2.67-1.46 2.78-1.67.58-1.1.68-2.34 1.35-3.28 1.35-1.9 7.39-2.7 8.16-1.04.59 1.28 3.49 2.61 5.8 2.96 2.17.33 2.85-.52 4.54-1.91 1.04-.86 2.18.54 3.36-.29 2.04-1.45 1.88-.03 3.46-.01-.4-1.96 3.76-6.22 2.62-7.49-1.98-2.18 2.45-4.97 4.09-5.53-.83-1.02-2.69-5.48.25-5.88 2.74-.36 1.84-1.39 2.38-3.77.34-1.5 1.16-.73 1.06-2.55-.06-1.08-.53-3.16-.4-4.21.16-1.32.52-2.95 1.14-4.13.48-.92 1.38-1.25 1.62-2.34 1.66.57 2.35 1.42 4.31.3.98-.55 2.91 2.41 2.97-.53 2.29 2.16 5.81 0 7.65 1.32.8.57 2.91 2.14 4.02 1.38.73-.51 0-2.18.23-2.91 2.72 2.3 4.05 1.48 7.24 1.22 1-.08 2.42.14 3.04-.88.58-.95-.22-1.89-1.23-1.26.27-1.72-3-2.32-3.6-3.74-1.53-3.6 3.41-1.88 4.7-1.78 1.84.18 7-1.68 6.94-4.03zm-44.4 10.52c.12.14.25.27.39.39-.14-.12-.27-.25-.39-.39zm.44.43c.17.13.36.24.56.35-.2-.11-.39-.22-.56-.35zm.69.41c.23.1.47.19.74.25 0 0 0 0 0-.01v.01c-.27-.06-.51-.15-.74-.25z"/><path d="m611.66 313.16c.53-1.06.44-2.22-.1-3.26.12 1.08.1 2.18.1 3.26z"/><path d="m664.75 216.11c-.2.04-.4.07-.61.1.28.26.48.22.61-.1z"/><path d="m583.27 274.51c.68-1.11.69-2.41-.41-3.26-.45 1.09-.31 2.31.41 3.26z"/><path d="m599.03 283.96c.39.28.79.52 1.22.71.14-1.12-.27-1.36-1.22-.71z"/><path d="m617.31 305.87c-1.06.76-2.8.79-1.59 2.31.63-.36 4.33-2.36 4.15-2.81-.63-1.7-1.69-.11-2.56.5z"/><path d="m622.43 293.63c.49-.59.46-1.13-.09-1.63-.24.56-.21 1.1.09 1.63z"/><path d="m626.85 297.75c.95-.51 3.39-.74 3.82.56 2.79-1.39-1.57-2.74-2.9-2.5-1.46.27-1.26 2.12-.92 1.94z"/><path d="m639 291.26c1.18-.54 1.1-1.81 1.85-2.71-1.05.09-1.68-.73-2.64-.92-1-.2-1.75 1.02-2.65 1.23.27.37.57.71.92 1.01.19 1.22 1.37 1.92 2.52 1.39z"/><path d="m637.19 296.37c-.47-.33-.98-.57-1.53-.71.29.79.8 1.02 1.53.71z"/><path d="m646.34 280.91c3.76-1.48-3.04-2.42 0 0z"/><path d="m652.85 258.74c1.76-.1 1.02-1.71.31-2.55-.99.49-1.6 1.95-.31 2.55z"/><path d="m655.3 252.23c-.79-.06-1.06.26-1.02 1.02.96-.06 1.3-.41 1.02-1.02z"/><path d="m655.71 244.7c.26-.34.53-.68.81-1.02-.95.02-.81.28-.81 1.02z"/><path d="m664.04 257.31c.23.79.83 1.41 1.63 1.63.47-1.06-.42-2.71-1.63-1.63z"/><path d="m674.51 304.11c.33.18.68.22 1.03.1-.34-.32-.68-.36-1.03-.1z"/><path d="m678.18 285.69c.32-1.1.02-2.18-.21-3.26-1.76.36-.23 2.12.21 3.26z"/><path d="m585.21 264.94c-.55.98-.35 2.11-.61 3.15 2.77-3.43 6.7-4.56 9.16-8.44.9-1.45 8.69-6.52 5.89-8.85 1.65.41.53-.73.62-1.73.13-1.22 2.09-1.39 2.94-1.5 1.46-.2 1.74-.76 1.99-2.1.33-1.86 1.69-1.4 2.9-2.19 2.55-1.66.67-3.29-.39-5.22-1.29-2.29.79-5.44-1.14-7.4-1.23 1.07.27 5.19-1.53 3.55.45.85 1.63 3.24 1.73 4.17-1.05-.58-2.26-1.21-2.65-2.45-.02 1.29.65 2.32 1.04 3.5.4 1.19-1.09 4.84-1.74 2.3-.09.79-.52 1.05-1.23 1.24-.55.15-.26 1.72-.41 2.11-.19.49-1.19-.15-1.41.31-.35.71.59 1.21 0 2.03-.27-2.4-1.28.38-1.63 1.02-.6 1.08-1.17 2.17-2 3.08-1.32 1.46-2 3.45-3.54 4.73-.61.5-1.31.27-1.92.73-.7.52-.74 1.43-1.46 1.86-2.07 1.23-3.82 3.87-4.61 6.1z"/><path d="m609.01 230.15c.38.21.75.41 1.12.61.29-1.07-.08-1.28-1.12-.61z"/><path d="m613.94 221.36c-1.15-.65-1.89-.37-3.1-1.38-.31-.3-.65-.58-1.02-.81-1.79 3.39 2.65 3.97 4.99 3.97.06-.63-.31-1.48-.87-1.78z"/><path d="m611.56 227.1c.92-.84-.01-2.21-.31-3.05-.44.1-.89.2-1.32.31.23 1.25 1.75 1.36 1.63 2.74z"/><path d="m610.44 241.95c1.38.55 1.13-1.2 2.44-1.02-.15-1.77-2.45-.12-2.44 1.02z"/><path d="m625.79 218.76c.23-1.11.9-2.04 1.12-3.15.21-1.1-.82-2.08-.82-3.19 0-2.63-1.32-4.25-3.11-6.03-1.43-1.44-8.95-2.82-10.32-1.05.22.58 2.47 2.39 3.01 2.81 2.28 1.8 1.71 4.14 3.37 6.04.74.82 5.66 9.8 6.75 4.57z"/><path d="m614.3 225.57c-.03-.72-.14-1.43-.31-2.14-.4.8-.29 1.51.31 2.14z"/><path d="m608.1 163.58c-.64 3.29.72 5.75 1.16 8.82.55 3.8-5.24-1.27-5.65-2.89-1.27.65-1.15 2.03-.7 3.16-.45 2.25 1.35 1.96 1.57 3.24.35 1.96.5 4.47 1.48 6.19.94 1.66 1.44 3.11 1.73 4.97.18 1.12 1.98 3.6 1.73 1.07 1.89.71.81 4.4 3.01 5.06 3.24.97.67-3.2.75-4.56.82.3 7.53 2.5 4.93 4.36-1 .72-1.88 1.57-2.77 2.41-1.45 1.32.03 3.94.18 5.65.87-.1 1.2-.62.82-1.43 1.83.03 2.67 1.04 2.34 2.85.6-2.11 1.93-.26 1.52.81 1.05-.17 2.58.47 3.45-.39.74-.74.94-1.86 1.78-2.5.26-.19 1.78-1.37 2.16-1.07 1.27 1.02 2.98 1.53 4.15 2.65 1.56 1.48 4.52 3.5 4.94 5.68.14.73 1.44 1.8 1.72.52-.01-.7-.21-1.34-.57-1.95-.14-.34-1.65-2.39-.85-2.13-1.62-1.02-1.2-3.21-2.35-4.58 2.2-.35 4.26 2.3 5.31 3.81 1.44 2.04 3.86 2.16 5.1 4.68.32.67-.42 1.94.54 2.15 1.04.23 1.93.97 2.89 1.43.76.37 1.44 1.44 2.31.97.64-.34 1.58-1.31 2.38-1.14-.16 1.25-2.46 1.81-1.46 3.26.18.26 2.08 2.98 2.58 1.64.78-2.09-.06-9.34-3.98-6.63-.44-.86.02-1.43-.19-2.27-.26-1.06-1.8-2.59-2.71-3.12-2.42-1.39 2.68-2.76 4.01-2.04-.23-1.5-2.65-2.1-3.88-2.21-2.08-.19-2.44-1.96-4.16-2.26-.44 1.42 2.21 3.48 0 4.27-1.62.59-2.1-3.3-2.81-4.52-1.46-2.47-7.59-4.68-7.46-.05-.25-.42-.52-.83-.8-1.22-1.37 1.27 1.42 2.07.63 2.96-1.32 1.5-4.04-.54-5.01-1.53-.87-.89-4.6-7.27-1.84-7.43-2.5-1.75-5.1-6.78-3.95-9.66.78-1.97-.21-3.77.5-5.5.88-2.14 3.74-2.29 5.19-3.86-.16.58-.33 1.16-.51 1.73 1.23-1.4.84-3.03 1.4-4.67.87-2.52 2.03-5.21 1.55-7.94-1.41.67-.77-1.29-1.23-1.94-1.27-1.79-2.75-1.85-3.52-4.33-.8-2.53-.73-4.49.32-6.89.55-1.23-1.05-4.62-2.16-2.81-.45.72-.52 2.29-1.74 2.07-.74-.14-2.32-.98-2.97-.15-.39-.85-1.21-1.45-1.97-1.93-1.54-.96-3.55-2.39-5.38-1.78-.78.26-1.64-.17-2.42-.24-.73-.06-.17.99-.85.99-1.96 0-.72 1.08-.76 2.24-.07 2.07-.72 4.62-1.02 6.72-.54 3.83 2.34 7.2 1.54 11.26z"/><path d="m628.75 205.54c-.03 2.28 3.51 3.99 3.61.73.06-1.67-3.08-2.57-3.61-.73z"/><path d="m638.69 239.41c1.34 0 3.85-1.96 3.46-3.29-.34-1.17 3.95-1.61 3.37-3.27-.76-2.21.81-5.26-2.74-2.69.88-.95-.44-2.24-1.47-2.01-.97.22-1.6 1.43-2.42.55-.94-.99-1.6-2.13-2.9-2.73-1.21-.57-2.77-.81-3.57-2.01-.54.57-.87 1.26-1.01 2.03 3.3.59 2.51 3.15 2.44 5.68-.04 1.83.26 3.14-.23 4.97-.51 1.92.6 3.74-.07 5.62 1.87.4 3.08-2.85 5.14-2.85z"/><path d="m632.71 222.02c.24-2.09.42-4.19.85-6.23.25-1.16-2.36-.43-1.36 1.25-.14 1.83-.9 3.39.51 4.98z"/><path d="m634.95 217.03c.88.13.77-.2-.32-1.01.12.33.22.67.32 1.01z"/><path d="m665.15 296.15c1.03.53 4.7 2.91 5.82 1.93.89-.79.41-2.65 2.1-2.56.17.01-.33 7.86 2.07 6.2 1.66-1.15 3.12-5.1 2.86-7.04-.36-2.71-2.43-3.84-3.48-6.03-.64-1.32 2.57-8.71 3.72-8.17.88.42 2.83 4.61 3.21 5.62.38.99.16 2.02.25 3.05.13 1.49 1.35 2.5 1.56 3.95 0-2.36 1.06-5.42-.73-7.42.59-.27 1.09-.12 1.47.24-.32-1.11 1.32-2.18 1.93-3.01 1.42-1.95.42-4.79.03-6.86-.31-1.71-2.55-1.71-1.66-3.57.52-1.07.56-3.83-1.37-2.97 3.28-2.8-2.72-3.72-2.64-5.19.04-.86 1.72-1.25 2.04-2.1.58-1.51-1.09-2.11-1.54-3.28-.21-.55.4-3.19-.62-2.66-1.29.67-1.53.19-2.23-.8-.82-1.18.01-1.87-1.8-2.42-1.99-.61-2.36-2.41-4.1-3.17-1.05 2.3.81 5.32 1.49 7.49.16.49.88 2.33-.02 2.59-1.17.34-2.79.05-3.31-1.22-.95 2.99.07 3.23-2.74 1.28-2.65-1.84-.35 5.41-2.54 5.71-1.41.2-1.68-1.5-2.98-.91-1.35.61-.97 3.08-1.4 4.23-.51 1.39-2.53.77-3.54 1.59-.59.48-1.59 1.6-2.4 1.64-.83.04 1.03-1.3.86-1.18 1.06-.7 1.28-1.09 1.01-2.43-.21-1.03-1.64-6.02-3.36-3.62-.26-.83-.77-1.89-1.83-1.83.59 2.8-2.91 1.73-3.73 3.25-.97 1.8-.15 3.44-2.38 4.18-2.26.75-5.6.09-6.67 2.96-.46 1.24-.17 2.66-.31 3.94-.19 1.68-1.07 3.38-1.77 4.9-.53 2.88 3.42 4.09 3.71.73.12-1.23.65-4.61 1.58-4.99.74-.29 1.28-4.75 2.98-3.44 1.23.94.72 2.97 1.69 4.03.27-1.79.91-.92 1.43 0 .4-1.1.06-2.63 1.44-3.16.6.74.49 1.62-.21 2.25 1.4.05 2.28 1.78 3.68 1.52-.43-.61-.95-1.45-.92-2.24.02-.45 1-.4 1.11-.81.31-1.1-.91-.84.51-1.92.87-.66 1.73.5 2.39.91 2.24 1.41 4.27 1.8 5.03 4.77.4 1.62-1.79 3.13-1.96 4.86-.18 1.73.76 4.11 1.12 5.82.61 2.63 2.9 4.2 5.15 5.36z"/><path d="m684.02 285.93c.07.23.21.45.46.68-.11-.27-.27-.5-.46-.68z"/><path d="m636.67 217.84c.86.69 1.76 1.36 2.54 2.14.96-1.33.11-2.95-1.52-2.95-.37.23-.7.51-1.02.81z"/><path d="m639.27 249.29c.05 1.89 1.54 3.79 2.59 5.28.97.69 2.36.68 3.17 1.62.68.8.32 2.08 1.13 2.8 1.11.99 2.59-.2 3.15-1.19 1.04-1.84-.87-3.1-1.36-4.71-.91-2.96.24-7.33 1.17-10.22.7-2.2 3.04-5.16-.02-6.77-1-.53-2.31-.69-3.38-.21-1.82.83-1.06 2.42-1.52 3.93-.3.97-1.26 1.29-.9 2.44.4 1.29.95 2.69.44 4.04-.77 2.02-4.52.72-4.47 2.99z"/><path d="m641.46 238.96c-1.45-.35-1.83 2.94-1.12 3.7.91-.41 3.05-3.22 1.12-3.7z"/><path d="m641.76 209.3c-1.07 1.79 3.87 4.23 4.68 5.4-1.17-1.9-2.52-4.48-4.68-5.4z"/><path d="m645.22 224.25c1.43-.98 2.5-4.83 4.24-2.82.7.81 1.47 1.57 2.09 2.45.79 1.11 2.41 1.17 3.23 2.3 1.57-3.04-2.56-4.88-3.96-6.53-.63-.74-1.59-1.56-2.33-2.15-.44-.35-2.85-1.5-3.38-1.49.38.97.07 3.54.49 4.11 1.05 1.41-.19 1.48-.29 3.02-.02.36-.05.74-.09 1.11z"/><path d="m649.49 215.2c-.31.71-.17 1.32.41 1.83.38.74.89 1.39 1.52 1.93-.2-1.37-.58-3.05-1.93-3.76z"/><path d="m655.6 232.59c-1.41.29-1.8 4.7-2.04 5.77-.73 3.25-2.77 6.03-3.44 9.28.15 2.13-.51 4.21-.72 6.31 2.91.77 2.29-6.15 3.46-7.52 1.46-1.69 3-3.07 3.25-5.44.3-2.81-.6-5.59-.51-8.4z"/><path d="m652.76 208.28c.17-.7-.18-.83-1.02-.41.34.14.68.28 1.02.41z"/><path d="m653.05 198.11c-1 2.09-.33 5.08 1.23 6.51 2.55-1.79 2.18-5.84-1.23-6.51z"/><path d="m653.77 208.69c.37.07.74.14 1.11.2-.31-.27-.69-.34-1.11-.2z"/><path d="m662.93 250.9c-.56-2.04-.64-6.06-4.29-5.06-1.28.35-5.22 4.15-3.45 5.27-.24 3.96 6.83-.55 7.74-.21z"/><path d="m661.54 216.83c-1.66.53-3.49-.95-5.03.2.8 2.17 1.73 4.02 3.56 5.49 1.02.82 4.13 4.12 5.4 3.56-.43 1.01-.38 2.35-1.64 2.75.62.51 1.14 1.12 1.52 1.83-1.09-1.19-1.71.32-2.6.84-1.37.8-3.52-1.42-4.12-2.47-1.02 1.25.91 7.28 2.44 7.93-.27-2.73 2.94.8 3.02 2.19.18 3.55-.46 6.28 3.3 7.99-.16-1.07-.72-2.05-.72-3.15.59.66 2.67.72 2.87-.42.1-.62-1.41-3.57-1.79-4.21-.87-1.46-1.13-1.26-1.27-3.21-.09-1.27.19-3.25-.92-4.18.84-.22 3.23 2.11 3.25 2.09.94-1.1 4.44.29 5.4.86-.77-.9-1.31-2.17-2.54-2.54 1.6-1.22-1.61-4.83-1.76-6.29-.15-1.53.53-2.9-.31-4.2-.54-.83 1.48-.6-.14-1.57-.88-.53-2.01-.14-1.93-1.52.11-1.78-1.44-1.85-2.72-2.12-1.37-.3-1.81-.32-3.27.15z"/><path d="m660.08 229.75c1.79.26.48-3.93-1.73-2.65.48.93.74 2.09 1.73 2.65z"/><path d="m668.42 246.53c.26.4.56.77.9 1.11.38.33.76.68 1.13 1.02-.2-.96-.67-2.58-2.03-2.13z"/><path d="m674.59 247.01c-.19-.88-.74-1.65-.89-2.52-.14-.8.4-1.44.1-2.24-2 .86-.4 2.56-1.52 3.87.8.13 1.34.66 1.12 1.52.81.57.91 1.43.21 2.14 1.52.23 1.17-1.93.98-2.77z"/><path d="m677.26 250.9c-.11.78.05 1.49.51 2.14.71-.73.21-1.69-.51-2.14z"/><path d="m679.05 250.84c1.65-.38.42-2.99-.67-3.2-.5.69-.95 3.57.67 3.2z"/><path d="m659.06 239.41c.07.37.14.74.2 1.12 1.02-.58.95-.95-.2-1.12z"/><path d="m651.01 235.04c4.67-1.94-.74-3.98 0 0z"/><path d="m441.27 242.26c-.44.65-1.05.99-1.84 1.02 1.38 1.06 1.51 2.87 2.55 4.17-.51-1.74.96-3.8-.71-5.19z"/><path d="m429.98 231.57c-.07-.37-.14-.74-.21-1.12-.21 0-.4 0-.61 0 .22.42.5.79.82 1.12z"/><path d="m432.11 238.39c.28.37.59.7.91 1.02.51-.86.2-1.2-.91-1.02z"/><path d="m183.09 260.26c-.22-.96-1.02-1.67-2.04-1.62.31.72 1.47 1.17 2.04 1.62z"/><path d="m202.12 275.01c2.63 1.87-.6-2.06-.99-2.69-1.23-2-1.26-4.3-2.27-6.36-.78.65-1.63.43-2.14-.41 2.51.2-3.17-6.87-3.48-7.88-.33-1.07-6.72-8.47-7.91-7.38 1.31.31 2.04 1.57 2.96 2.44-1.38-.81-3.93-4.31-5.6-2.14.77 1.15 2.18 1.26 3.15 2.14.18-1.26 3.49.76 4.17 1.73-.61-.46-3.97-1.25-4.89-1.22.69.96.03.98-.46 1.64-.67.91.79 2.4-.11 3.87-2.09 3.43-1.71 9.49-1.87 13.51-1.62-.47-.88-2.59-.92-3.76-1.58 2.45.56 5.9.81 8.44.02 4.54 1.71 23.09 10.06 20.36 3.8-1.24 9.46-3.85 11.47-7.47 1.66-2.99 2.4-8.26.34-11.25.01.53-1.86-3.1-2.32-3.57z"/><path d="m183.5 252.23c-.34-.27-.68-.54-1.02-.81.19.67.15.97 1.02.81z"/><path d="m672.18 483.25c2.24-1.36 5.7-2.18 8.19-3.15 4-1.55 9.75-3.04 12.56-6.65 1.61-2.08-2.73-1.66-3.65-1.39-2.52.75-4.74 1.07-7.31 1.52-2.76.46-5.31.41-8.15 1.01-1.06.23-2.51.09-3.41.82-.95.77-1.5 2.59-2.49 3.33 2.36 1.15 2.13 1.78.96 3.69.07 3.83.96 2.23 3.3.82z"/><path d="m656.21 484.9c.81-.33 2.34 2.25 3.19 1.03.2-.28.38.62 1.23.81 1.11.27.7-4.11 1.2-4.33-2.3.43-3.73 1.06-5.6 2.45z"/><path d="m1116.51 544.99c1.27-.69 1.34-2.95-.36-1.74-.77.53-1.04 2.08.36 1.74z"/><path d="m1117.32 537.45c-1.4.6-1 1.83-.61 2.95 1.23-.58 1.53-1.93.61-2.95z"/><path d="m1107.05 553.02c-.06-1.67-2.05-5.68-2.27-1.72-.09 1.8.85 3.47.2 5.25-.63 1.7.42 2.72.44 4.41 3.56.01 6.51-2.52 4.97-6.22-.46-.74-.53-1.51-.2-2.33-1.67.68-2.98 4.92-3.14.61z"/><path d="m1109.89 560.97c-.43.23-.8.53-1.12.9.34.2.68.41 1.02.62.42-.48.46-.99.1-1.52z"/><path d="m1115.09 586.69c1.87-1.31.11.76 2.13 1.12 1.79.2 2.77-2.35 1.31-3.44-1.02-.77-3.13 1.49-3.44 2.32z"/><path d="m1116.64 557.9c-.53.79-.28 1.48.77 1.33.76-.75 1.43-1.6 1.94-2.55-1.01.17-2.08.3-2.71 1.22z"/><path d="m1121.29 552.83c-.14 1.77-.59 3.5-.6 5.28 1.39-1.23 1.4-3.74.6-5.28z"/><path d="m1026.98 284.88c.03.86.38 1.57 1.02 2.14 1.86-.44.46-2.63-1.02-2.14z"/><path d="m772.18 280c.81-1.11 1.48-2.84.81-4.17-.89 1.06-1.86 2.87-.81 4.17z"/><path d="m1079.68 305.22c.34.1.68.2 1.02.31.28-.46.25-.89-.1-1.33-.37.29-.68.63-.92 1.02z"/><path d="m1104.14 346.68c.31-.14.61-.28.92-.41-.33-.84-1.06-1.2-1.84-.61.27.38.57.72.92 1.02z"/><path d="m445.94 352.93c-.8-.39-1.65-.55-2.54-.51-1.36.36.72 2.94 2.54.51z"/><path d="m578.11 1.69c.46.2.9.45 1.32.72-1.25.03-1.74-.94-2.25-1.91h-4.54c-.19.12-.34.22-.45.27.1-.09.2-.18.3-.27h-571.99v59.84c1.1.79 2.36 1.5 3.78.77.04.88.59 1.27 1.43 1.02-1.85-1.99 5.36-1.89 6.39-2.2 1.9-.57 3.82.13 5.83-.51 1.92-.6 4.01-1.34 5.88-.15-.94-2.36-2.11-.8-3.86-.71.56-3.09 3.8-1.32 4.88.41 1.45 2.32 2.12 3.19 1.86 6.12-.13 1.45 4.41 1.64 5.31 2.09 1.6.8.56 4.01 2.5 5.11-1.75 1.36.58 3.78 2.24 3.47-1.41.83.18 2.51 1.42 1.62v1.62c1.12-.61 2.6.44 2.13-1.42.54.69 1.19 1.27 1.94 1.73.17-.72.07-1.4-.3-2.03.5.73.95 1.54 1.62 2.14.22-1.41.38-1.48.5-.24v.12c.38.73.34 1.45-.09 2.15 2.32 1.07 3.86-3.42 6.2-3.15-1.3 1.01-6.45 4.42-2.05 6 1.3.47 1.38 2.45 2.47 3.25 1.37 1 3.07 1.68 4.58 2.46 1.51.79 3.23 1.62 4.97 1.7 1.42.07 1.91-1.1 3.16-1.52 1.47-.49 2.7-.79 4.22-.7 1.41.07.64-1.62 1.36-2.34 1.44 1.29-.26 2-.92 3.05-.62 1.01-.46 2.37-1.33 3.26-1 1.01-5.94 3.84-7.01 2.34-.2 1.4-2.2 1.86-3.28 1.28-.57-.3-.6-1.75-1.36-1.65-2.76.39-.37 3.52.48 4.44 3.2 3.49 7.28 6 10.02 9.98 1.84 2.67 5.52 5.59 8.63 6.6 3.08 1.01 5.98-.88 8.53-2.41 1.44-.87 2.86-1.92 4.45-2.51 1.3-.49.93-1.81 1.6-2.76 1.89-2.67.66-4.55-2.22-5.43.23-.76.83-1.23 1.64-1.01-.28-.33-.56-.67-.82-1.02 1.17-.37 2.16-.79 2.12-2.16-.03-1.03-1.03-1.14-.9-1.8-.03.15 1.34-.12 1.43-.81.78 1.38 3.7 1.89 5.08 1.53-.89 1.35-2.27-.02-3.15 1.32-1.02 1.58.63 2.56 2.03 1.93-4.13 2.99 2.01 4.55 4.68 2.55-.67 1.29-4.33 1.97-4.49 3.06-.11.74-.3 1.51-.53 2.22-.37 1.11 1.8 1.56.54 3.05 1.01-1.16 1.28-1.12.82.1 1.36-1.73 2.07 2.95 2.21 3.3 1.07 2.74-.53 5.53-1.07 8.21-.35 1.71-.29 3.36.21 5.03.2.63 1.89 2.64 1.49 3.12-.77.93.57 1.52 1.7 2.1-1.32-.36-1.36 2.47-.48 3.88.62-.6.93-1.38 1.02-2.24.28 1.06 1.06 2.47-.41 3.05.67.55.98 1.27.92 2.13-.34-.28-.68-.55-1.01-.81-.68 1.73 1.12 2.68 1.52 4.17-2.48-1.36.33 2.28.71 2.74-2.03-.79.19 3.27.58 4.49.59 1.88 1.69 3.55 2.01 5.5.34 2.09 1.48 4.07 1.48 6.19 0 2.03.52 4.05 1.14 5.97.89 2.76 2 5.6 3.7 7.99.7.99 1.71 1.27 1.67 2.17-.02.88.73 2.15 1.63 2.38-1.81.21-.4.62.06 1.5.45.86.74 1.8 1.09 2.7.4 1.01 1.07 2.59 2.3 2.46-1.64.63 1.05 2.13 1.63 2.91 1 1.34.56 3.95 2.45 4.58-1.7-.61-.24 1.81.16 2.76.52 1.25 1.05 2.45 1.54 3.73.74 1.93 1 3.8 1.46 5.85 1.29 5.77 3.88 11.32 7.62 15.93-.33.48 5.61 10.14 5.98 11.11.96 2.58 1.83 5.21 2.92 7.74.61 1.42 1.37 1.82 1.23 3.14-.06.56.81 3.08.76.48.09 1.33 1.21 1.93 1.73 3.06.6 1.3.21 2.83.72 4.17-1.47-.19-1.09-5-1.33-2.55-.04-1.03-.27-2.07-.82-2.95-.63 2.47.38 5.11 1.31 7.36.67 1.58 1.4 5.33 3.27 4.65-2.12.54 4.53 7.56 5.4 8.34 1.87 1.69 3.29 2.8 5.79 1.69 1.58-.71 3.47-1.74 4.42-3.25 1.89-2.99.09-6.68 4.03-8.62 3.02-1.49 7.69-3.29 10.49-.41-.33-.28-1.4-2.13-1.9-1.92-.73.29-1.66.38-2.4.06-2.84-1.2-.88-4.83.11-6.48.52-.85 2.14-1.94 1.56-3.04-.39-.74.13-1.53.45-2.19.63-1.26 2.11-.73 3.14-.46.49.13 3.3.57.55-.32.7.15 1.41.25 2.13.3.09-2.71-.53-5.4-.5-8.12.01-1.66 0-3.56-1.14-4.9-.37.24-.7.5-1.02.81 1.84-2.1.65-5.74 1.45-8.25 1.01-3.23 3.03-5.83 3.54-9.26.29-1.92 1.24-6.54.13-8.31-.6-.97-1.47-1.03-2.35-1.58-.69-.43-.72-2.84.19-.97-.16-2.61 1.41.56 1.74 1.22-1.09-3.83-1.86-6.95-1.92-10.89-.03-2.3-.95-4.73-1.74-6.98-.97-2.72.71-6.46 2.01-8.91.88-1.67 5.87-3.62 5.12-.18.35-1.05 1.05-2.11.6-3.26.41 1 .43 2.1 1.53 2.64-.1-1.2 1.26-3.48 1.6-4.76.31-1.17.47-2.17 1.85-2.24 3.39-.17 8.03.18 9.57-3.75.77-1.98-1.54-2.42-.81-4.15.45-1.07 1.38-2.21 2.24-2.99.89-.8 8.85-4.52 7.21-5.5 2.48-1.13 2.76-4.48 5.27-5.63 2.93-1.33 4.78-4.01 6.34-6.71 1.55-2.67 2.68-5.32 4.9-7.49 1-.96 2.59-3.67 3.62-3.97-.57-1.1-2.13 1.08-2.34 1.73-.57-1.74.93-4.19 2.63-4.78 1.66-.57 1.36 1.97.32 2.54 3.32-.47 6.49-1.97 9.46-3.45-.96-.52-2.31-1.07-2.65-2.24 2.37 3.09 3.1.11 5.05-1.43 1.63-1.29.3-1.4.82-2.76.34-.9 1.45-1.46 2.17-2.02-1.16-1.1-2.55-5.91-2.27-7.39.41-2.17 2.95-3.14 4.82-3.7 3.5-1.05 5.22-2.3 7.07-5.4 1.64-2.74-1.85-2.33-2.19-4.47.81 2.14 2.9 1.63 3.15 4.27.16 1.72.13 4.43 1.52 5.7.22-.43.29-.85.25-1.26.38.9-.17-1.72.81-.34.15.28.32.55.51.81.61.4.28-3.23.27-3.38 1.3.97.77 3.14 1.21 4.48.34-2.03-1.41-6.77.51-8.24-.53 1.04.16 2.07-.1 3.15 1.1-.9.06-1.87 1.02-2.34.05 1.61-.84 3.54-.1 5.09.7 1.46 1.54.49 1.72-.61.03.83 1.21 2.13 2.09 1.4.83-.68-1.56-3.36-1.87-4.04.42.22.82.46 1.22.71.24-.47.35-.96.39-1.47.52 1.8 2.16 3.19 2.06 4.92.76-.74 1.43-2.95 1.02-3.97.74.96.21 2.15.8 3.15 2.04-2.06.02-5.09 0-7.12.16 1.25.71 2.43 1.23 3.55.01-.03.01-.07.02-.1.02 1.55.23 2.96 1 2.95-.02-.65.02-1.29.11-1.93.49.73 1.67 1.38 2.09.18.48-1.33-.88-1.4-.31-2.5.79-1.51-1.17-3.59 1.06-4.5-.82 2.07-.55 3.83.1 5.9.45-.64.89-1.28 1.31-1.93-.32.6-.52 1.25-.6 1.93.81-.7 1.68-1.4 2.25-2.33-.21 1.6-2.26 2.26-1.74 4.07.31-.29.62-.6.92-.92-.94 1.54 1.32 2.32 1.69.41.3-1.62.78-3.01.55-4.68.38.63.48 1.31.31 2.03 2.59-.5 2.29-4.18.7-5.59-.29.32-.56.67-.8 1.02.07-1.35.68-3.22-1.23-3.25.88-1.14 1.46-2.29.4-3.56.77-.34 1.79-1.02 1.25-2-.79-1.43-2.77-2.08-4.1-2.88.51.13 1.99.66 2.81.76 1.66.21-.12-2.07-.57-2.39.58.27 1.12.2 1.63-.21-.09.37-.16.74-.2 1.12.56-.06.85-.07.99-.07-.19.43-.91.77-.72 1.39.36 1.09.94 1.44.9 2.73-.1.77.04 1.49.44 2.16.43.57 2.68 5.86 4.12 5.03.19-.33.18-.69-.04-1.06.44.78 1.25 1.21 2.13.92-.13-.41-.04-.78.25-1.1.73-.87 2.2-1.36 2.29-2.67-.24 3.14 3.34 5.44 4.27 8.24-.01-.82.38-1.82 1.03-2.34-2.52 3.39 1.99 6.89 2.43 10.17.24 1.77.31 2.85.85 4.66.51 1.71 2.25 3.58 3.21 5.1 0-.07-.01-.16-.03-.27.37.77.82 1.42 1.48 1.78 1.62.89 3.03 2.41 3.54 4.29.69-1.01.08-2.11-.1-3.15.61.91 2.04 1.94 1.86 3.18-.15 1.07-.78 1.82.59 2.41.83-1.67.71-3.58 1.42-5.29-.2.78-.2 1.55 0 2.33.13-.15.3-.26.5-.3-.32.7-.62 1.42-.9 2.14.48.02.95-.01 1.42-.1-1.06 1.97-.4 3.01.8 4.68-.45-.61-.58-1.3-.4-2.04.38.73.79 1.44 1.23 2.14-.36-1.13-.95-2.17-1.43-3.26 1.36.58 2.18-.27 3.16.94.51.65 1.8 1.75 2.74 1.3.05.73-.05 1.44-.3 2.13.8.18 1.62.29 2.44.31-1.83 1.3 1.25 2.47 1.94 3.39 1.22 1.61-.47 2.31-1.8 1.93-.58-.17-1.42-.37-1.73-.95-.42-.78-1.67-.2-1.28.37 1.45 2.08 2.95 4.63 5.41 5.64.6-1.19-.03-3.1-.82-4.07 1.71 1.21 1.29-.98 1.12-1.93.7 1.15.62 3.26.62 4.56 0 1.75 1.44 2.04 2.64 2.87-1.72.34-.05 1.09.57 2.35.41.84.78 1.76 1.42 2.47 1.51 1.66 1.2 4.75 2.12 6.78.72 1.58 2.37 5.61.85 7.04-.6.57-.27 3.74-.56 4.82-.3 1.07-2.15 10.75.14 9.83 1.58-.64 3.89-4.43 3.09-6.13.21.02.4.02.61 0-.28 2.36.41 4.95-1.11 7.02 1.41-.15 1.64-1.64 2.23-2.64-.31 1.14-.48 2.43-1.72 2.95.3.42.67.75 1.11 1.02.75-1.36 1.16-4.41 2.64-4.99-.83.44-1.66 5.03-.7 5.88 2.02 1.76 1.43-5.33 2.94-4.34-1 .77-.65 3.54.62 4.17-.08-.96.09-1.88.51-2.75-.69 3.21.64-1.63.7-1.73.28 1.05-.95 4.57.38 5.07 2.56.97 3.8-4.32 3.39-5.88 1.22 1.2 4.51-.87 2.85-2.03 1.55 1.6 3.35-.36 2.61-2.07-.54-1.24-2.28-2.71-.27-3.22-1.28 1.57.71 3.91 2.45 3.76 1.68-.14 2.53-1.95 3.19-3.25.92-1.8-.13-3.56-.1-5.29.01-.5-.35-2.69-.15-2.95.31 1.02 1.26 1.61 2 2.29.86.78.66 2.25 1.66 1.58.15 2.57 1.35 4.78 2.89 6.78.84 1.1 2.81.32 3.94.14-1.75.69-.8 3.3-.73 4.63.03.73-.34 1.55-.01 2.24.37.78 1.13 1.24 1.44 2.08 1.6 4.36 1.21 9.26 2.96 13.62.34-.21.68-.41 1.02-.61.24.34.41.71.51 1.12-2.4-1.32 1.49 5.37 1.73 6.31.25 1 .28 2.79.38 3.88.1 1.16 1.14 2.23.75 3.45 1.11-1.33.44-4.65-.1-6.1 1.16 1.56 1.25 3.62 2.1 5.33.9 1.79 2.02 3.56 2.78 5.41.72 1.76 1.43 3.74 1.75 5.61.19 1.13-.57 2.35.69 2.77-1.46.33-.82 1.43.1 1.93-.46.32-.97.53-1.53.61.28.8.99 1.24 1.84 1.02-1.92 1.07 1.54 2.85-.82 3.97 2.06-.21.06.59.32 2.03.82-.21 1.53-.74 2.03-1.42-.01.55.13 1.06.41 1.53-1.77-.01-1.17 3.24-.97 4.22.42 2.06.18 4.17-.92 5.93-.51.81.3 1.21-.76 1.86-.87.54-.4 1.29-.19 2.17.5 2.15.33 4.96 1.54 6.87.03-.05.05-.1.08-.15-1 4.71-2 9.52-2.75 14.27-.38 2.45-1.07 7.54 2.34 8.24.43-.97-.13-2.21 1.22-2.54 1.27-.32 1.74 1.04 2.14 1.93.25.55.1 1.86.9 2 1.27.24 1.17.15 2.02 1.36.57.8.37 1.15.49 2.11.13 1.05 1.47.22 2.13.86 1.01.97.85 2.74 1.55 3.9.54.91 1.79 1.22 1.67-.26 1.18.73.21 4.5 2.64 3.05-2.88 3.06 4.3 5.76 4.47 8.64 0 0 0 .01-.01.01 1.15 2.76 3.04 5.22 3.05 8.33.01 2.13-.27 7.42 1.09 9.1 1.55 1.91 2.91 4.68 1.98 7.24-.48 1.32 1.32 5.07 3.13 4.82-3.06.99-.39 1.66.11 2.89 1.02 2.54 3.84 4.28 4.96 6.79.35.8 1.16 2.54.54 3.4-.54.77-.75.96.25 1.66 1.06.73 1.64 1.92 2.95 2.27.84.23 1.55.31 2 1.16.66 1.23 2.55 3.05 3.74 3.91 1.18.85 2.88.82 3.96 1.81.67.62 1.2 1.33 1.89 1.93 2.71 2.29 7.24 3.32 8.39 7.05 1.08-.53 3.86-2.42 5.05-1.56 1.18.85.38-2.01.24-2.31.35.77 1.08 1.25 1.94 1.23-2.22 1.55 2.62 3.9 1.55-.39-.8-3.19-2.87-5.84-3.71-8.99-.71-2.66-3.69-3.84-4.99-6.04-1.68-2.84.05-6.28-.9-9.11-.64-1.89-1.01-2.05-.61-4.15.29-1.48.49-3.16.56-4.67.19-3.93-1.04-7.41-2.81-10.83-1.75-3.4-4.33-5.56-7.27-7.92-1.18-.94-1.52-2.37-2.38-3.55s-2.78-1.71-4.08-2.12c-.41-.58-1.07-1.09-1.87-1.76-1.68-1.4-2.04-3.82-3.77-5.15-1.57-1.2-3.56-.49-5.35-.54-2.43-.07-2.72-1.52-4.19-2.9-.63-.6-1.59-.37-2.24-.96-.79-.72-1.51-1.4-2.12-2.28-.51-.74-2.47-3.63-1.16-4.56 1.83-1.27 2.16 6.13 3.85 6.44-.03-2.44-1.16-4.86-1.89-7.15-.82-2.56-1-5.32-2.08-7.8-1.77 2.82-3.48-5.91-3.62-7.13-.41-3.69-2.08-3.66-4.8-2.22-.77.41-3.45.08-2.72-1.39.63-1.3-.18-2.16-.74-3.43-1.16-2.69.79-6.81-1.05-9.03 1.63.24.81-2.11 1.2-2.97 1.08-2.4 1.47-4.28 2.03-6.88.46-2.14.66-4.96 1.93-6.79.68-.98.3-2.17.9-3.15.48-.81 1.19-1.53 1.37-2.48.46-2.41-1.33-4.65-.87-7.05.43-2.26 1.2-3.63-.01-5.79-2.43-4.34 6.04-1.87 5.56-4.66.41 1.39 3.36 2.21 4.48 1.32.25 1.21-.7 2.23-.53 3.52.13.94.17 1.9.26 2.84.17 1.61-1.29 4.33 1.33 3.68 1.34-.32 2.84.39 4.12.65 1.06.21 1.96-.54 2.83-.95 1.82-.83 3.27 3.08 3.27 1.15.46 1.05 3.05 4.44 3.05 2.24.28.68.79 1.15 1.53.71-2.67 1.78 1.89 2.41 2.44 3.76-.02-.61-.05-1.22-.1-1.83 2.04.61 1.93 2.5 2.76 4 .54.99 1.57 1.67 1.6 2.9v.01.01-.01c.18-.82.72-1.23 1.53-.8-1.91.25-.28 2.1.47 2.63 1.09.76.05 2.26.36 3.31.34 1.15-.51 3.38.89 4.07.93.45 1.54-.79 2.56.06.26-.83.45-4.25 2.08-2.94.92.73 2.11 3.53 1.13 4.57-.85.89-2.16 1.17-.72 2.47 1.1.98 3.18-.05 2.79-1.56.7 1.43 3.58 1.84 4.99 2.44.45.19.77.24 1.04.21-.02.01-.04.02-.06.02.4.67 1.21 1.09 1.36.48-.72 3.41 6.9 2.82 6.91 6.81-.38-2.48-2.17.98-2.44 1.79-.4 1.21-.49 2.5-.48 3.77.02 2.57.55 5.11.48 7.68.45-.14.89-.31 1.32-.51.09.46.23.9.41 1.32-.83.15-1.51.56-2.04 1.23 1.71 1.61 4.41-.65 5.46-2 1.53-1.99 1.61-3.86 4.1-5.1 1.48-.74 4.6-1.24 5.13-3.08.2-.69 0-1.4-.41-2.12.33.41.75.73 1.28.89-.73-.66-1.4-1.42-1.94-2.25 1.46 1.51 3.01 2.8 4.16 2.17 3.35-1.83-4.11-6.83-4.56-8.46 2.08 1.59 3.39 4.07 5.89 5.09.32-.5-.46-1.53-1.43-2.56.05.04.1.1.15.13 1.41.99 1.48-.95 2.71-1.14-.82-1.61-2.9-1.41-4.17-2.45.73.03 4.39 1.04 3.91-1.01-.38-1.6-2.01.12-2.38-1.02 1.58.37 2.08-1.21 1.73-2.44-.02 0 2.26.71 1.12.71.88 1.32 1.05 1.38.52.21.31.51.55 1.05.71 1.63.14-.72.28-1.43.41-2.14.14 1.81 2.02 1.76 2.74 3.16.78-.98 2.86-1.68 3.92-2.48.79-.59 2.53-1.87 3.56-1.52.36.12 1.07-2.16 1.54-2.47 1-.66 2.19-1.15 3.34-1.49.69-.21.98-1.52 1.88-1.89.65-.41 1.27-.87 1.86-1.36 2.08-1.06 1.33-1.12 1.86-3.03.09-.31 1.45-.76 1.77-1.68.3-.87.24-1.71-.9-1.68.3-.99.84-2.04.21-3.05.4.62.59 1.29.6 2.03.51-1.23-.41-5.58-1.32-6.41.72.17 1.39.44 2.03.82-.63-1.32-2.43-3.66-.52-4.78.24.78.65 1.46 1.22 2.04.11-.85.09-3.65-.24-4.21-.83-1.38-1.32-2.43-1.75-3.98-.3-1.08-1.82-2.02.07-2.28-.66-.6-1.16-1.32-1.52-2.14 1.58 2.43-.04-1.57 0-2.95.64 2.46.59-.1.49-.58-.23-.99-.68-1.93-1.09-2.85-1.03-2.29-1.53-4.76-2.5-7.05-.72-1.68-2.18-3.29-2.59-5.1-.22-.97 1.12-.44.24-1.71-.55-.81-.87-2.29-1.57-.52-.15-2.08-8.52-7.52-5.8-9.87-1.81-.96-.43 1-1.33 1.63.95-1.04-2.47-5.58-4.16-3.56-1.26-1.89-2.99-3.19-4.9-4.37.45.14.89.31 1.33.51-.87-.94-3.33-4.05-4.89-3.15 1.19-2.47-3.41-4.73-4.86-5.9-1.99-1.59-3.19-4.76-5.73-5.19.8.05 1.51.32 2.14.82-.5-1.74.14-3.2-1.32-4.56-1.01-.95-2.16-1.78-3.3-2.57-1.19-.83-2.23-1.73-3.11-2.9-.66-.87-1.02-3.26-1.63-1.67-.15-2.31-2.83-2.88-1.45-5.39 1.22-2.22.22-3.81.45-6.17.16-1.71.71-4.27 2.43-5.13.69.88 3.86-2.59 3.97-3.36-.14.05-.28.05-.41 0 1.03-.72.77-3.42.31-4.37.39.24 2.44.26 1.87-.67-.68-1.11-1.36-1.63-.46-2.69-.54-.24-1.02-.58-1.41-1.01 1.29-.45 1.65 1.22 2.54 1.73.05-.57 1.48-2.19 2.54-1.94-1.66 1.89 1.64.88 2.23-.17.6-1.08-.69-2.57.95-2.83 1.53-.24 1.89-1.58 3.02-2.52 1.25-1.04 2.72 1.27 3.94.2.2-.11.31-.24.33-.37 0 .01.01.01.01.02.8-.44 1.21-1.26.81-2.14.58-.06 1.98 1.64 2.39.91.85-1.53-1.44-2.46-1.17-3.96.17 1.45.5.42.82-.3.82.32 1.07 1.02.51 1.73 1.23-.31 1.81 2.05 3.05 2.24-.44-.61-.6-1.3-.51-2.04.38.08.75.18 1.11.31-1.56 2.14 1.08.97 1.82 1.52.63.47.9 4.79 2.15 1.93.76 1.38 2.76-.35 3.35-1.02-.84-.39-1.21-1.18-.71-2.03.7.95 1.49 3.28 3.05 2.95-.15-.38-.32-.75-.51-1.12.8.73 3.78 1.47 1.68 2.75-1.38.83-.14 1.55-1.13 2.59-.51.53-.29 3.37.47 3.46 1.19.13.3 2.17 1.73 1.99-1.24 2.38 1.87 2.03 2.24 3.76-1.83-.94-.63.7-.72 1.73 1.69-.8 5.75.67 5.97-2.33.13-1.77-2.36-2.7-2.51-4.49.78 2.32 1.07.15.1-.19-.7-.24-1.78-.28-2.15-1.04-.65-1.33.93-2.09 1.66-2.82 1.03-1.05-.54-1.8-.02-2.97 1.32 1.03.55 2.6 2.76 1.94-.61-1.03.05-2.05.9-2.64-.37.5-.67 1.04-.9 1.62.81-1.17 2.64-1.59 3.93-1.89 1.03-.24 2.92-1.19 2.17.36.78-.31 1.29-1.06 1.53-1.83 1.5 2.14 4.84-1.34 2.54-2.24 1.32-.07 3.76 1 1.93-1.32.79.23 4.65 2.93 5.12 1.44.37-1.18-.5-2.4-.33-3.58-.1.93.45 1.35 1.33 1.02-1.25 1.16.98 3.02 1.62 2.15.05-.06.09-.13.14-.19.69 2.17 2.5 3.93 5.45 3.93 6.08 0 7.35-7.48 3.81-10.61-.37-1.95-2.34-4.42-3.29-5.05.3.16.55.16.78-.02-.11-.69-2.24-1.48-2.81-1.71 1.52.52 3.89-1.23 1.63-2.14 1.58.71 2.9-1.5 4.48-.4-1.21-.22-2.38-.03-3.05 1.11.86.71.81 1.92 1.21-.1-.41 3.14 3.25 3.93 3.45 6.85-1.36 3.53.41 8.4 5.32 8.4 5.56 0 7.09-6.28 4.59-9.74 1.02.11 1.96-1.15.26-1.74.79.55 3.13-.86 3.77-1.73-.14 1.43.95 1.31 2.12 2.11.38.26 1.24.8 1.62.16.62-1.06-1.71-2.22-1.9-3.08 1 .47 2.17.89 3.05-.1-1.31 2.54 4.57 1.72 3.05.1 1.04.6 2.9.19 3.97-.14 1.64-.5.91-2.08 1.32-3.32.93 1 .84-1.5 2.15.1-.32-1.51-1.78-1.48-2.95-1.94 1.96.29 2.87-.17 3.08-2.12.19-1.78.84-1.29 1.8-.34 1.11 1.08 1.92-2.47 2.14-2.73 1.08 0 3.15-2.15 3.25-.1.01-1.08.71-2.05.3-3.15 1.06-.24 1.37.14.91 1.12 1.29-.79.73-2.16 1.56-2.86.53-.46 1.22-.46 1.51-1.21-.83-.03-1.22-.51-1.02-1.32-1 .35-2.02.06-2.73-.71.78-.16 1.57-.12 2.34.1-1.15-1.62.75-.91 1.52-2.03.73 1.58 2.49.73 2.84-.61.56.63 1.13 1.24 1.72 1.83.55-.75 1.55-2.51.39-3.25-.94-.6-1.19-.83-.07-1.73 0 1.94 2.37.21 2.74-.92-1.65-.07-.43-2.15-1.82-2.64 1.11-1.55 2.11.27 2.34 1.32 0-2.33 1.45.31 1.88-1.52.3-1.28-1.55-1.53-2.29-1.93.74-.43 1.24-1.18 1.31-2.04 1.1.43 2 1.26 2.64 2.24.44-1.35.81-1.35 1.13 0 .6-1.86-2.15-1.92-1.61-3.7.33-1.08-.05-2.78 1-3.22-1.29-1.95-1.82-.32-3.38-.07-1.56.26-2.25-1.68-3.35-2.37 1.41.43 3.09 1.01 4.18 2.03.42-1.14.87-2.34 1.75-3.21.86-.84 2.25-.78.99-2.08-.38 1.53-1.93.85-2.03-.41 2.38.23.46-2.68-1.22-1.93.12-.77-.09-1.45-.61-2.03.84.39 1.61-.06 2.03-.82.21.83.74 1.54 1.42 2.03.27-.56.64-1.03 1.12-1.42.46 1.09-.04 2.2-1.12 2.65 3.58.9 2.66-2.15 1.43-3.87 1.12-.34 2.05-1.44 1.52-2.65 2.95.62-.64-1.91-.6-2.65.67.62 1.34 1.23 2.03 1.83-.6-1.44 1.17.77.86-1.33-.15-.98-.17-1.64.86-2.12-1.84-.98-.33-3.65.04-5.13.22-.89-.55-1.24-1.41-1.58 2.4.54 4-3.35 2.38-3.57.69-.31.73-.45 1.12-1.12 1.36.57 1.43 2.34 2.75 2.95-.48-1.55.61-1.5 1.48-2.27.95-.84-.96-2.6-1.31-3.29-.72-1.44-1.52-.48-2.7-.95-.84-.34-1.25-1.49-1.94-2.03 1.3.56 3.42 2.37 4.94 1.44 1.22-.74 0-2.23-1.07-2.16.34-.77.81-.84 1.41-.21-.19-1.36-2.15-2.6-3.46-2.33.5-.67.84-1.42 1.02-2.24.45.69.99 1.89.62 0 .19.81.76 1.35 1.62 1.12-.05-.69-.15-1.37-.31-2.03.66.55.58 1.78 1.31 2.25 1.31.86.08-2.57.07-2.59-.62-1.04.51-2.14-.79-2.85-1.17-.64-1.28.98-.7 1.57-1.12-1.02-2.32.23-2.95 1.12-.33-.28-.61-.63-.8-1.01.59-.59 1.42-.33 2.03-.81.4-.44.74-.91 1.02-1.43.81-.97 1.34-1.88 2.54-2.44-1.75-.41-4.64-.7-5.94-2.01-.76-.77-1.37-1.62-2.21-2.23h-4.1c-1.05.57-2.09 1.33-3.41 1.13z"/><path d="m770.44 417.83c-.72.46-.51.79.61 1.02-.2-.34-.41-.68-.61-1.02"/><path d="m772.58 391.28c-.92.31-1.02 1.36-.71 2.14.05-.78.29-1.48.71-2.14"/><path d="m774.21 394.53c-.76-.17-.82.17-.21 1.02.07-.34.15-.68.21-1.02"/><path d="m779.7 381.42c-1.28.28-1.08 2.82.31 2.43.81-.22-.01-2.07-.31-2.43"/><path d="m782.14 387.92c-.03.21-.06.41-.1.62.73-.05 1.44-.19 2.13-.41-.68-.06-1.35-.13-2.03-.21"/><path d="m784.9 377.75c0 1.59 2.68 3.61 3.84 1.84.83-1.25-3.21-1.78-3.84-1.84"/><path d="m786.11 389.44c-.06.34-.13.68-.2 1.02 2.62.17 4.89 1.61 7.42 2.15 1.07.23 2.22.71 3.33.41 1.25-.33 2.65-1.08 3.98-.83-1.09-1.59-3.85-1.48-5.53-1.69-2.99-.35-5.97-.74-9-1.06"/><path d="m804.93 471.84c-.1.33-.21.68-.31 1.02 2.1-.7 4.37-.39 6.54-.4 2.12-.01 3.38-1.1 5.01-2.35.72-.55 5.17-6.03 4.27-7.14-2.59-3.2-4.27-3.54-8.24-1.89-4.07 1.71-5.66 7.07-7.27 10.76"/><path d="m817.44 472.66c.34-.1.68-.21 1.03-.31-.53-1.03-.47-3.03-2.18-2.34-2.28.92-.47 2.6 1.15 2.65"/><path d="m816.94 452.12c.05.81.56 1.33 1.31 1.53-.07-.78-.54-1.36-1.31-1.53"/><path d="m740.53 382.13c.33-.8.19-1.51-.4-2.14 3.17-.81 5.81-.98 8.27-3.26 2.29-2.11 4.68-3.01 7.77-2.25 3.12.76 4.67 3.06 7.35 4.22 2.72 1.17 5.51-.39 8.04 1.58-1.93 1.44-.08 3.35.75 4.8 1.12 1.95-.15 3.58-.87 5.38-1.84 4.61.9 10.11 2.97 14.14.71-1.04-.26-3.37.91-4.14 1.65-1.08 1.44 3.77 1.46 4.23.03.93.34 1.15.97 1.77.9.88.48 2.08 1.29 2.98 1.55 1.75 4.75 2.68 6.54.82 1.31-1.36 2.65-2.55 3.99-3.87 1.41-1.39 1.67-3.23 3.55-4.42 1.68-1.06 1.2-5.01 3.34-5.02 2.53-.02 3.76.23 6.14-1.02 1.7-.89 1.79-1.48 1.02-3.07-.59-1.22 3.15-2.95 3.9-3.36 1.89-1 3.65-1.7 5.64-.67 2.62 1.35 5.74 2.29 8.08 4.06 1.97 1.48 4.21 2.3 6.4 3.41 1.5.76 4.44 3.07 6.2 2.46 2.22-.78 3.16.91 5.42.88 2.39-.03 3.58 2.44 5.95 2.11l-2.29 43.77c-.24 2.36-2.04 4.06-1.94 6.57.03 1.04 1.39 1.59 1.39 2.24 0 1.58-.27 3.2-.39 4.77-.51 7.42-1.07 14.88-1.77 22.28-3.05-1.53-3.68-5.02-5.99-7.22-1.15-1.09-5.51-3.86-3.46-5.78-1.33 1.04-3.71.6-5.3 1.23-1.36.54-3.87.66-3.15-1.55-.67.83-2.41 2.39-3.56 2.4-1.75.02.29-2.98.47-3.41.59-1.39 2.53-4.49 1.11-5.24-1.27-.68-1.63-2.35-2.6-3.32 1.66-1.43 3.87 1.08 5.19-1.12-2.3 2.29-5.3-1.32-6.91-2.74 2.12-2.45 4.56.41 6.71.5-1.87-.73-3.47-2.03-5.19-3.05 2-.36.28-.97-.38-1.67-.94-.98-1.86-2.15-2.24-3.47-.49-1.72-2.07-4.91.18-5.76-2.22.82-2.35-1.58-.31-1.94-.76 0-2.65 1.21-3.26.31-.71-1.06.72-2.47.2-3.66-.65 2.61-2.58-1.55-3.43-1.92-1.45-.63-1.54-.99-2.65-1.5-.85-.39-2.92-.97-3.44-1.83-.7-1.19-5.08-1.29-6.44-2.11-2.13-1.3-4.6-2.71-6.99-3.47-2.3-.74-5.7-.06-7.7-1.05-1.8-.88-4.19-2.11-4.94-4.1-.7-1.85 2.25-1.56 3.26-1.73-1.23-.37-2.78-1-3.76.24-1.11 1.4-1.84-.75-2.85-1.06-.02 2.09-3.27.55-1.73-.9-2.23.02-3.09.04-3.66-2.66-.1.78-.53 1.43-1.16.62-.9-1.15-.19-1.85-.29-3.05-.19-2.18 1.98-3.41 2.07-5.61-.54 1.15-2.45 1.55-2.45 2.98 0 1.27.11 3.26-1.72 3.14 1.59.72.33 1.54-.19 2.43-.36.32-.7.66-1.02 1.02-.05.68-.09 1.36-.11 2.04-.5 1.44-3.44 2.97-4.97 2.54-1.35-.38-2.15-3.55-2.19-4.73-.03-.8 1.03-.88 1.58-1.13 1.45-.68-.78-2.49-.41-3.69-1.75 1.05-3.93-4.6-6.37-4.69-3.81-.16-1.76-2.77.97-3.05 2.85-.29 4.91 2.53 6.87-.77 1.48-2.48 5.99-3.26 4.83.77.31-.69.54-1.4.7-2.13.41 1.95 2.65-.46 2.56 1.62.31-1.7.89-.75 1.32.11.41-.89.48-2.04-.32-2.75.7.15 1.39.08 2.05-.2-.59-.7-.56-1.38.1-2.03-2.18 1.62-.5-1.16-.1-1.62-2.33.2-3.59 1.68-6.1 1.29-1.56-.24-3.64 1.23-4.98.74-1.66-.61-2.36.52-3.66-.77-.45-.45-1.73.38-2.16.4-1.44.09-2.58-1.22-3.66-1.97.27-.34.54-.68.82-1.02-1.15.2-2.19-1.14-1.77-2.23.16-.41.7-.96.62-1.43-.2-1.21-2.07.75-.79-1.42-1.04.2-1.3.22-1.22-.92-1.47 2.13-4.32-1.59-5.6-1.53 1.22 1.6-1.69 1.36-2.44.84-2.07-1.39 1.95-4.04 2.33-5.47"/><path d="m362.84 340.83c.45.31 2.05.48 1.8-.6-.12-.52-1.88-1.6-2.3-2.02-.52-.53-1.15-1.01-1.95-.84.41-1.13-1.14-1.98-1.93-2.35-.41-.18-.76-1.03-1.31-.57-1.02.84-1 1.7.02 2.58 1.7 1.48 4.7 1.5 5.67 3.8"/><path d="m610.54 433.09c-.48 1.72.44 3.29.19 4.99 1.58-.73 2.49 2.3 4.26.98 1.21-.9 1.23-1.07 2.79-.89 1.46.17 2.44-1.51 3.85-.41-.13-2.39-2.03-4.45-1.15-6.9 1.06-2.99 1.64-4.94 1.27-8.22-.31-2.74.3-4.9.55-7.57.11-1.22-.01-2.43.12-3.65.22-2.05-.7-2.05-1.21-3.78-.98-3.37 4.85-6.13 7.41-5.33 2.31.73 1.59 5.88.38 7.23-3.41 3.79 2.36 8.1 5.62 9.85 1.38.74-2.09 5.93-.68 8.05.75 1.14 3.26 1.72 4.54 1.9 1.58.23 1.18-2.32 1.35-3.23.4-2.03 3.27-1.66 4.7-2.24.85-.35 4.29 1.41 2.3-1.07 1.55 2.62 3.63-2.69.92-3.46-.49 2.49-1.15-.94-2.45-.92.27-.38.54-.75.82-1.12-1.12-.04-2.51-1.51-3.15-2.33-1.05-1.34.32-2.44-.62-3.77.51.13 1.02.23 1.53.31-1.18-.71-.85-2.43.62-2.35-.27-.52-.63-.98-1.07-1.37-.81-.89-.22-1.84-.77-2.81-.46-.81-1.52-.87-2.03-1.62-.58-.85-.76-2.22-1.24-3.17-.72-1.43-1.31-2.83-2.83-3.57-1.23-.6-1.82-3.19-3.46-2.42.07-.88.1-1.76.1-2.64 1.72 1.45 3.08 2.79 4.82.38 1.51-2.09 3.09-2.12 5.22-3.31 2.93-1.63 5.08-8.5 8.92-8.38 1.09.04 1.29 3.2 2.56 1.87.76-.8 2.2-2.84 1.43-3.97-1.28-1.89-6.26-1.3-7.79-.04.83.09 1.54.43 2.13 1.02-2 .07-7.76-1.33-8.46 1.25-.47 1.74-5.7 1.67-5.37-.75-1.74 1.07-3.55 2.84-4.43 4.71-.95 2.02-1.39 3.22-3.74 2.71-1.54-.33-2.99-.74-3.41-2.48-.21-.87-.29-1.76-.78-2.54-.88-1.45-1.48-.27-2.47-.99-3.16-2.29-3.3-9.44-1.94-12.62.79-1.81 2.09-3.86 3.89-4.82 1.49-.8 5.13.52 6.69 1.08 1.1.4 3.21-.53 4.19-.98 2.03-.94 2.6.51 4.57.8 2.19.33 5.11-.86 7.46-.8 2.81.07 4.61.23 6.85 1.86 2.79 2.01 11.48.65 13.75-2.01 1.56-1.82 2.11-3.87 3.99-5.56 2.03-1.82 1.93-4.9 4.11-6.53-.77-.49-1.2-1.34-.92-2.24-.8.2-1.92-.37-2.59.21-1.02.86-.95 2.54-2.35 2.96-2.12.65-.77 1.3-1.77 2.63-.58.76-1.99.47-2.4 1.51-1.02 2.62-5.03 3.09-7.26 2.61-1.89-.4-4.12-.84-6.07-.75-1.09.05-2.14 1.27-3.03.9-2.81-1.14-4.8-1.68-7.82-1.99-1.55-.16-2.45-.61-4.1-.45-1.88.19-2.44-2.37-3.39-2.35-1.23.02-5.79-2.23-6.05.33-.35 3.48-3.51 6.79-6.06 3.14-.24 1.14-.62 2.01-1.5 2.78-1.19 1.06-.95 2.68-2.11 3.62-2.22 1.78.67 4.89-1.59 6.51-.19-.8-.76-1.34-1.62-1.11.56 2.16 2.23 1.63 1.54 4.12-.62 2.27 1.45 4.35.8 6.67-.47-.87-.67-1.86-1.43-2.54-1.27 3.44-3.98 5.24-4.17 9.15-.08 1.74.07 3.61-.05 5.31-.15 1.99-2.01 3.29-2.15 5.43-.18 2.83-4.8 4.13-4.08 6.49.41 1.33 1.48.49.33 2.38-.99 1.64.31 5.16.97 6.84.92-1.03 3.28-1.41 4.57-1.48 2.81-.15.59 2.57 1.5 4.2 1.51 2.71 1.15 5.04.67 8.15-.35 2.61-1 6.6-2.72 8.6"/><path d="m638.61 431.97c-3.29 1.14-.34 4.82-.17 4.66.89-.81.8-3.74.17-4.66"/><path d="m639.53 375.62c-.54-1.02-1.99-1.06-2.03.31.73.27 1.41.17 2.03-.31"/><path d="m641.06 374.5c-.66-.92-1.46-.9-2.14 0 .67.46 1.46.45 2.14 0"/><path d="m644.52 436.35c.42-.52 1.46-1.64 1.08-2.41-.7-1.4.71-2.03 1.09-3.24.2-.65 1.06-5.16-.76-4.19-.9.48-2.08 1.11-2.86 1.76-1.46 1.21.74 2.76-.29 4.06-.4.51-1.45 2.23-1.11 2.89.55 1.06 2.34.75 2.33-.51.16.56.32 1.1.52 1.64"/><path d="m650.82 423.74c-2.61.04-3.57 5.67-3.69 7.68-.12 2.07-.94 2.98-1.7 4.87-.95 2.35.52 1.73 1.83 3.11.63-.86.7-2.02 1.37-2.85s1.91-.38 2.55-1.17c.92-1.15-.98-3.15-2.09-1.98.31-1.24.24-2.54.59-3.77.23-.81 1.73-3.5 2.07-1.12 1.13-1.89-1.05-2.98-.93-4.77"/><path d="m653.77 389.95c-.04-.72.02-1.44.19-2.13 3.89 2.01 2.91-5.66-.19-.92-1.01-1.5 1.02-1.93-1.04-2.56-.7-.22-1.53-.31-2.18.12-1.5.97-1.15 3.46-.75 4.88 1.14-.59 1.79-1.73 2.33-2.84 1.12.81.05 3.34 1.64 3.45"/><path d="m650.73 418.54c-1.17.49-1.03 2.61.11 3.05 1.7.67 2.68-2.69-.11-3.05"/><path d="m654.68 384.57c-.33.43-.54.33-.21 1.02.08-.34.15-.68.21-1.02"/><path d="m655.18 390.57c-.45.18-.68.52-.71 1.02.25-.34.48-.68.71-1.02"/><path d="m655.3 434.1c.1.73.01 1.01.92 1.02-.31-.34-.61-.67-.92-1.02"/><path d="m657.02 436.75c.08.58.42.88 1.02.92-.34-.31-.68-.62-1.02-.92"/><path d="m659.87 441.95c-.73.73-.49 1.07.71 1.02-.24-.34-.47-.68-.71-1.02"/><path d="m666.49 390.17c-1.78 2.59-.36 4.85 2.74 3.86.49-.31 1-.58 1.53-.82.59.12 1.19.18 1.78.17 1.13-.56 3.09-.11 3.61-1.59-.81.11-1.35-.32-1.52-1.11-1.32 1.85-6.18-1.21-8.14-.51"/><path d="m677.17 336.25c-1.05-.24-1.15.1-.31 1.02.1-.34.21-.68.31-1.02"/><path d="m679.3 328.93c.61-1.28-1.19-5.34-2.76-3.56 1.67.45 1.11 2.86 2.76 3.56"/><path d="m677.17 391.69c-1.46 1.53 2.28 1.61 3.02 1.62 1.98.03 4.91.34 6.44-1.21-3.13-.46-6.43.7-9.46-.41"/><path d="m682.96 394.03c-2.18.47-.19 5.44.92 6.21.45-.79-.41-5.41-.92-6.21"/><path d="m690.08 416.71c1.5-.74 4.77-1.23 5.72-2.66 1.2-1.8.54-3.12-1.34-3.54 1.49-1.69-1.75-2.72-2.87-3-2.1-.52-3.98.14-6.06.36-2.55.28-3.09 1.54-1.94 4 1.21 2.59 4.13 3.58 6.49 4.84"/><path d="m690.28 323.54c.28-.81-.02-1.63-.7-2.14.19.72.43 1.43.7 2.14"/><path d="m690.69 321.2c1.11-1.15 1.38-2.95 1.17-4.47-.11-.78-.8-3.11-1.52-1.25-.5 1.3 1 2.32.51 3.3-.45.91-1.36 1.58-.16 2.42"/><path d="m697.1 373.17c-1.27-.54-2.29 2.32-1.43 3.05 1.49 1.27 1.63-2.28 1.43-3.05"/><path d="m697.1 377.36c-1.23.64-.6 2.55.82 2.13-.15-.76-.43-1.47-.82-2.13"/><path d="m698.12 359.44c-.3.49-.12.67.32 1.11-.11-.37-.22-.73-.32-1.11"/><path d="m700.26 373.68c-.34.45-.68.89-1.02 1.33-.35-.33-.69-.67-1.02-1.02-.94 2.83.44 1.79 1.33 3.76.19.44-1.11 2.31.28 1.97.76-.18 1.57-.61 1.85.38.32 1.15 4.38-.77.98-1.71-1.39-.38-1.71-1.18-.96-2.38.46-.75-1.03-1.92-1.44-2.33"/><path d="m698.83 365.35c-.26.48-.46.35 0 1.02 0-.35 0-.69 0-1.02"/><path d="m699.33 387.41c-1.57 1.22-.75 3.42 1.12 3.67.79.11 1.48-.51 2.27-.51.84 0 1.69.26 2.55.31 2.9.17.05-2.62-.81-3.05-1.91-.96-3.25-1.89-5.13-.42"/><path d="m699.24 360.86c-.24-.03-.47-.07-.71-.1.18.4.42.78.71 1.11 0-.33 0-.67 0-1.01"/><path d="m701.88 369.82c.08 1.26-.41 2.57.48 3.68.86 1.06 1.77 1.57 2.28 2.92.55 1.47 3.28 4.65 4.57 3.87-3.68-3.76-4.1-8.32-4.83-13.16-.32-2.1-.23-3.83 2.39-2.5 2.22 1.14 5.45 1.82 7.93 2.05-1.56-.77-1.58-2.66-2.85-3.66-1.27-1.01-4.84-.84-3.29-3.43 1.03-1.73 3.77-1.78 4.28-3.94.35-1.45-.68-3.89-.06-4.96-2.6-.66-5.45 1.92-6.51 4.07 2.43.11.05 1.38-.62 1.65-1.48.58-.83 2.17-1.53 3.25-.72 1.12-2.24-.03-2.7-.77-.81-1.33.87-2.19 1.77-2.78 1.86-1.23 3.08-5 2.06-7.14-.44-.92-1.98-1.25-1.6-2.48.36-1.18 1.96-1.91 1.51-3.31-2.48.02-3.62 3.16-4.21 5.1-.63 2.05-2.27 5.69-1.9 7.72.19 1 .61 2.04 1.18 2.88.23.41.54.7.96.88-.68.84-.92 1.89-.82 2.95.14 1.39.62 2.19 1.45 3.22.82 1.04.24 2.73.06 3.89"/><path d="m700.57 384.26c-.37.27-.75.55-1.12.82.76.1 1.47-.04 2.14-.42-.35-.13-.68-.26-1.02-.4"/><path d="m699.94 409.79c-.61.85-.34 1.19.81 1.02-.26-.34-.54-.68-.81-1.02"/><path d="m701.47 408.47c-.25.37-.34.78-.3 1.22.38 0 .76-.06 1.11-.2-.23-.36-.51-.71-.81-1.02"/><path d="m704.13 405.52c-.33.53-.66 1.04-1.02 1.53.8-.17 1.2-.71 1.02-1.53"/><path d="m726 412.34c2.27 1.31 4.6 2.22 6.68 3.85 2.42 1.89 2.77-.94 2.37-2.83-.25-1.16-1.81-1.54-2.03-2.65-.24-1.14-.24-2.42-1.37-3.09-1.04-.62-1.44-1.44-2.8-1.17-1.37.26-2.69.07-3.8-.81-1.09-.86-2.48-1.52-3.9-1.47-1.41.04-2.07 1.19-3.32 1.47-1.1.24-1.53-.34-2.11-1.02-.22-.25-3.67.18-4.17.15-4.76-.35-9.77 3.02-7.82 8.3.03-1.07 1.52-5.44 3.05-5.09-.48 1.44 2.06 3.73 3.29 3.96.5.09 6.22-4.66 4.85-1 .9-.19 6.17 1.92 6.47.1.24-1.58 4.33-.28 4.61 1.3"/><path d="m704.73 413.76c-.81.39-1.42 1.19-1.23 2.14 1.21-.16 2.03-1.08 3.17-1.41-1.08 1.82 1.46.07 1.22-1.64-1.15.07-1.95 1.16-3.16.91"/><path d="m706.36 341.85c.31-.47.53-.32.1-1.02-.04.33-.07.68-.1 1.02"/><path d="m707.98 345.2c3.82-.86 5.24-4.11 2.96-7.53-.45 1.1-1.69 1.38-2.44 2.2-1.31 1.42-1.34 3.71-.52 5.33"/><path d="m709.2 412.85c-.3.38-.33.79-.1 1.23.43-.2.81-.48 1.13-.82-.34-.14-.68-.28-1.03-.41"/><path d="m710.74 412.54c-.38 1.06.46 1.96 1.53 1.43-.13-.8-.7-1.39-1.53-1.43"/><path d="m719.79 369.82c.53.91 1.33 1.66 2.33 2.03-.7-.72-1.41-1.56-2.33-2.03"/><path d="m726.6 394.53c.69.24 1.41.4 2.13.51.78-.02 1.2-.73 2.03-.6-.82-1.13.89-1.68.01-3.39-.94-1.84-5 1.2-6.62 1.45.26 1.15 1.28 1.99 2.45 2.03"/><path d="m725.49 383.85c-.42.21-.8.48-1.13.82.97.54 1.35.27 1.13-.82"/><path d="m728.03 369.92c.17.34.33.68.51 1.02.14-.85-.13-.58-.51-1.02"/><path d="m734.64 375.21c4.25 1.2 0-2.89-.92-3.86 1.2-.17 2.01 1.12 2.65 1.9 1.2 1.44 1.53.19 2.69.78 2.22 1.1 2.41-2.06.8-2.94-1.52-.83-9.44-2.02-9.61.97 2.02-1.36.91.84-.32.41.98 1.25 3.19.39 2.76 2.64.12-.77.68-1.35 1.43-1.52.21.53.38 1.07.52 1.62"/><path d="m731.69 380c-.36 1.92 4.79 1.23 4.27-.73-1.1 1.22-2.92.3-4.27.73"/><path d="m733.73 375c-.61.25-1.08.66-1.43 1.21.88.55 2.86-.6 1.43-1.21"/><path d="m736.58 380.8c-3.86.64-2.35 3.34-.25 5.41 1.21 1.2 3.62-4.76.25-5.41"/><path d="m739.12 382.03c-.32.46-.64.26-.41 1.02.13-.34.28-.68.41-1.02"/><path d="m739.73 419.67c.17.63.15.89.92 1.02-.31-.34-.61-.68-.92-1.02"/><path d="m741.04 418.34c-.88-.13-.78.21.31 1.02-.1-.34-.2-.68-.31-1.02"/><path d="m761.6 420.08c-.41 1.41 2.38 1.7 3.05 2.43-.79-1.11-2.26-1.33-3.05-2.43"/><path d="m651.94 492.08c.56.42.48.86 1.33.51.28 1.51-2.51 1.99-2.76 3.97 1.22-.37 2.45-.05 3.68-.28 1.6-.31 2.8-2.02 4.43-2.07 2.61-.07 3.51-.82 5.25-2.76 1.13-1.25 3.01-2.83 3.48-4.42.72-2.38-.73-.46 1.36-1.16 0 0 .35.06.76-1.07-.45-.06-.55-1.34-.54-2.36 2.31-3.05-1.01-3.58-.99-3.71-4.21 1.69-.93 2.6-5.88 3.56-1.24.24-.28 3.74-1.15 4.3-.87.55-1.1-1.32-1.71-.51-.6.8-2.65-2.05-3.09-1.07-.43.97-3.81 5.99-4.17 7.07"/><path d="m605.35 469.3c-.71.28-.95.79-.72 1.53.95-.09 1.19-.75.72-1.53"/><path d="m457.54 449.78c-.44.19-.81.46-1.11.81.98.55 1.35.27 1.11-.81"/><path d="m473.62 443.96c-.9-.7-5.43-1.53-6.31-.7-.11-2.88-2.79.89-3.15 1.83-.37.96-.42 5.58-2.44 3.76-.35 1.51-1.29 2.73-1.84 4.17-.6-1.43-1.9-1.04-2.93-.4 3.28 1.59 7.15-.31 10.1 1.74.92.64 2.24.69 3.25 1.17 1.61.77-.65 1.95-.88 3.07-.65 3.01 8.01 2.48 9.61 2.77 3.1.56 5.66 2.81 8.74 3.61.98.25 2.31.58 3.27.09 1.02-.53.78-1.43 2.26-1.47 3.75-.1 7.54.78 11.03 1.94 4.32 1.44 8.48 3.75 12.91 4.76 1.84.42 4.47.04 6.11.84 1.69.83 3.15.07 5 .25 3.79.37 8.01 2.72 11.49.34 2.82-1.95 6.1 1.6 8.54 2.86.82.42 5.85.73 5.75 1.31-.19 1.06 1.39 1.69 2.25 1.27.63-.31-1.05-2.43-1.24-2.73-1.71-2.62.36-5.23.62-7.94.15-1.7-1.53-2.01-2.76-2.4-2.1-.66-2.76.26-4.72.06-1.86-.18-4.39 1.17-5.99.38-1.02-.51-3.95-1.49-4.43-2.61-.4-.96 1.38-5.5-.97-3.5.46-1.51-.84-2.97-.72-4.48-1.37.7-3.21.21-4.68.36-.58-.07-1.05-.32-1.42-.77-1.02-.89-2.07-.23-3.15-.81-.57-.3-1.52-2.67-2.51-1.48-.98 1.18-2.95.97-3.7-.36-1.79-3.15-3.89-3.52-5.36.39-.49 1.31-1.36 4.3-3.36 3.64-1.12-.36-1.35-.96-2.6-.87-1.02.07-2.08.33-3.1.11-1.98-.44-2.83-.33-4.75-.21-1.11.07-2.9-1.4-3.89-.86-4.02 2.19-4.89-3.45-6.42-5.61-1.41-1.98-1.15-.14-2.43-.14-1.5 0-2.8-2.17-4.35-1.4-1.48.74-2.49-1.2-3.4-1.96-1.49-1.25-2.62-.74-4.27-1.72-.31 1.42-1.73 3.38-3.16 1.7"/><path d="m495.18 463.82c.1 1.08 1.4.98 2.13 1.02-.65-.48-1.35-.81-2.13-1.02"/><path d="m540.04 454.15c-1.02-.17-3.68 1.89-2.45 2.9 1.15.96 3.91 1.79 4.08.15 1.66 1.97 3.8.83 5.78.12.81-.29 1.7-.53 2.56-.33-.18-1.37 1.34-1.33 2.23-1.62-.35-2.04-3.09-1.56-4.51-1.36-2.54.35-5.2-.53-7.69.14"/><path d="m538.1 439.91c-.81.13-.97.71-.7 1.41.96-.01 1.18-.65.7-1.41"/><path d="m554.79 456.19c.1.75-.04 1.1.93 1.11-.3-.39-.6-.76-.93-1.11"/><path d="m555.71 468.79c-1.33 2.51 2.02 3.73 3.75 4.55 1.08.52 1.95 1.04 2.68 2.01 1.33 1.75-.33 1.28-.42 2.55-.05.82 3.28-2.95 3.43-3 1.38-.49 4.84-1.86 3.11-3.68-1.25-1.32-3.74-3.18-5.61-2.15-2.15 1.17-4.83 1.21-6.94-.28"/><path d="m556.82 457.09c.29.26.63.26 1.02 0-.34 0-.68 0-1.02 0"/><path d="m565.37 453.43c-.85.46-1.05 1.24-.31 1.94.78-.97 2.08-1.11 3.16-.61-.47-1.22-1.74-1.25-2.85-1.33"/><path d="m567.09 477.55c.32-.55.32-1.09 0-1.64-.4.24-.74.55-1.02.92.35.24.69.48 1.02.72"/><path d="m575.64 470.32c-1.47.73-3.28 2.1-3.1 3.98.15 1.48-.37 3.9-2.28 2.34-1.58 2.44 6.6 1.75 6.91 2.14-.67-1.49 1.47-4.35 2.19-5.56 1.1-1.85-2.3-3.44-3.72-2.9"/><path d="m591.92 478.96c2.19-1.13 4.35-1.49 5.6-3.85.46.78-.6 2.4.2 2.82.86.45 1.46.12 2.27-.2 1.01-.4 1.83.19 2.82.33-.51-.67-1.18-1.05-2.02-1.13 1.94-1.18 4.73 1.03 5.28-2.13-1.76 2.18-1.54-1.86-1.97-2.71-1.03-2.06-3.18.05-3.12 1.59-.3-1.53-1.48-4.14-3.22-2.2-1.32 1.46-2.43-1.41-3.1-2.16-.98-1.09-5.04-.26-3.87 1.56 1.44 2.23 3.31 2.76 5.51 4.02-.69.93-2.55 1.43-3.61 1.67-1.83.4-2.04-1.28-2.81-2.43-1.79-2.69-7.4-1.73-9.27.39-.89 1.02.03 2.62-.79 3.66-1.11 1.4.88 2.52 2 2.82.7.19 1.29.22 1.89-.24 1.1-.86 1.07-.29 2.51-.35 2.02-.09 3.67-2.12 5.7-1.46"/><path d="m588.36 472.47c.72-.87 1.12-1.92 1.73-2.85-2.13-.98-1.95 1.53-1.73 2.85"/><path d="m602.5 486.49c.96 2.53 3.31 2.45 5.6 2.7 2.7.3 4.85 2.8 6.47 4.74 3.05 3.63 10.07.34 6.4-3.72-1.15-1.27-2.01-2.32-3.69-2.33.07 0-2.65-3.26-3-3.57-.25-.23-4.77-.15-4.99-.02-2.1 1.36-5.02-.78-6.79 2.2"/><path d="m609.01 472.96c-.57.95-1.27 2.06-.31 3.06.03-1.4 2.81-2.08.31-3.06"/><path d="m610.74 474.99c.29.81.18 1.55-.3 2.25 1.37.33 1.13-1.23 1.42-2.04-.38-.07-.75-.14-1.12-.21"/><path d="m614.5 477.65c1.09-.58 3.18.07 4.45-.07 1.16-.14 2.93.12 4.08.36 1.25.26 1.92 1.66 3.36 1 1-.45 3.37.43 2.98-1.51 3.16 1.33 4.51.46 7.56-.65 2.03-.74 9.16.27 8.11-3.82 1.41.27 1.24-1.48 2.54-1.52-.58-1.68-2.37-4.19-2.85-.92.64-.4 1.32-.47 2.04-.21-1.42 1.63-3.94 1.74-5.02 3.73-1.29 2.41-3.47.81-4.83-.46-1.29-1.2-2.88.78-4.26.24-.73-.29-.67.29-1.13.72-.72.67-2.1-.51-2.64-.9-1.77-1.27-4.56-2.06-6.64-2.56-3.29-.77-4.34.48-7.07 1.85-1.37.68-2.26.67-2.42 2.57-.09 1 .29 3.92 1.74 2.15"/><path d="m622.14 440.62c-1.75.58-.9 7.03-.51 8.33.36-2.78.98-5.51.51-8.33"/><path d="m623.05 455.68c-.32.5-.32 1.02 0 1.52.39-.21.73-.48 1.02-.82-.35-.23-.69-.46-1.02-.7"/><path d="m624.78 458.73c.28.88 1.52.42 2.03.2-.69.04-1.36-.02-2.03-.2"/><path d="m629.26 499.52c.36.15.69.08 1.01-.21-.33.07-.67.14-1.01.21"/><path d="m631.39 498.8c-.07.17-.15.34-.21.51.81.31 2.02.08 2.67-.48.32-.27.41-.58.23-.96-.68-1.31-1.87.5-2.69.93"/><path d="m643.29 501.45c-.44.66-.47 1.34-.1 2.03 1.73-.98 4.33-2.68 6.2-3.16-.35-.65-.66-1.33-.92-2.03-1.93.89-3.02 2.39-5.18 3.16"/><path d="m646.14 473.99c.09.3.2.6.3.9.42-.75 1-1.36 1.74-1.82-.83-.03-1.51.28-2.04.92"/><path d="m648.27 471.14c-.47.39-.7.9-.7 1.52.86-.11 2.84.28 3.16-.92.39-1.5-1.76-1-2.46-.6"/><path d="m650 494.02c-.72.46-1.19 1.28-1.22 2.14 1.33.17 1.6-1.17 1.22-2.14"/><path d="m651.64 471.04c.28.31.51.65.71 1.02-.8.32-2.05.9-2.33 1.81-.47 1.6 2.54.39 3.14.83-.21-1.92 2.73-3.46 4.27-3.76-1.98-2.18-3 .65-4.38 1.31.68-1.47-.36-1.38-1.41-1.21"/><path d="m657.84 471.84c-.44.41-.64.93-.61 1.52.87-.2 1.65.25 2.03 1.02.82-.86 2.52-2.94 1.42-4.17-.55 1.14-1.76 1.32-2.84 1.63"/><path d="m663.32 469.3c-.6.66-1.4 2.35.51 1.33-1.06.47-1.98 1.43-2.03 2.64 2.51-.24 5.39-.04 7.74-1.09 1.48-.67.98-2.23-.48-2.49-.87-.15-1.63.21-2.5.14-1.09-.11-2.12-.68-3.24-.53"/><path d="m675.94 469.51c-.8-.08-1.38 1.27-1.52 1.82.75-.34 1.32-1.01 1.52-1.82"/><path d="m677.47 467.89c2.13-1.78 4.19-1.37 6.71-.94 1.34.24 2.69-2.36 4.38-2.33-2.21-2.73-3.36-1.75-6.55-.51-.9.35-1.51-.46-2.27-.14-1.38.59-2.08 2.56-2.27 3.92"/><path d="m695.48 461.67c-.44.54-.65 1.15-.62 1.84.91-.31 1.34-1.03.62-1.84"/><path d="m697.61 469.71c-.25 1.2.09 1.27 1.02.21-.34-.07-.68-.14-1.02-.21"/><path d="m699.04 468.9c-.45 1.77 2.91 2.37 3.25.4-1.11.2-2.2-.09-3.25-.4"/><path d="m702.39 470.22c.03.3.08.61.11.92.39-.26.72-.56 1.01-.92-.38 0-.75 0-1.12 0"/><path d="m708.8 456.29c-.45.27-.69.68-.7 1.22 1.1.12 1.34-.28.7-1.22"/><path d="m710.43 470.02c.32.69.86 1 1.62.92-.16-.86-.8-1.24-1.62-.92"/><path d="m719.07 465.23c-.91.79-.43 2.73.89 2.7 2.52-.04 1.37-2.96-.89-2.7"/><path d="m730.87 471.96c1.66-.56 3.18-1.61 4.57-2.66-1.75.67-3.49.51-4.57 2.66"/><path d="m732.7 461.57c-.18.88.16.91 1.02.1-.34-.03-.68-.07-1.02-.1"/><path d="m734.53 460.55c-.17.28-.33.55-.5.82.82.28 1.36-.1 1.53-.91-.35.03-.69.06-1.03.09"/><path d="m741.35 456.89c-1.66.1-6.4 5.73-4.77 7.22-3.29-1.52-1 6.75.67 2.93.74-1.69 2.58-2.52 3.48-4.13.75-1.33-.14-4.34 1.55-4.91-.26-.41-.57-.77-.93-1.11"/><path d="m742.47 456.89c.55.9 1.76.66 2.45 1.43 0-1.39-1.41-1.51-2.45-1.43"/><path d="m754.16 439.29c-.26-.32-.59-.42-1.02-.3.44.74-.27 3.01.71 3.31 1.54.47.59-2.46.31-3.01"/><path d="m754.98 438.08c-.89-.18-.93.16-.1 1.02.04-.35.07-.69.1-1.02"/><path d="m754.98 443.26c1.83-1.36 3.64-6.17 4.27-8.34-1.53.55-1.37 2.05-1.9 3.3-.73 1.76-1.82 3.13-2.37 5.04"/><path d="m768.72 445.3c-.29 1.26-.52 2.96.51 3.97-2.05-.11-2.72 6.01.65 4.4 4.4-2.1 1.55-6.34-1.16-8.37"/><path d="m774.72 450.48c-.73.46-.82 1.42-.51 2.15.54-.63.7-1.35.51-2.15"/><path d="m774.72 448.76c-.95.56-.81.89.4 1.02-.14-.35-.26-.69-.4-1.02"/><path d="m776.14 448.96c1.2-3.69-.86-1.2 0 0"/><path d="m427.03 436.96c.29-1.38-1.69-2.96-2.74-1.62.98.47 1.4 2.13 2.74 1.62"/><path d="m350.32 299.02c1.54.48.74-1.47-.7-1.02.23.34.47.68.7 1.02"/><path d="m374.44 305.63c-.9.52-2.06 1.31-3.17 1-1.07-.3-1.36-1.26-2.56-1.29-2.01-.05-3.76.99-5.82.79-2.43-.24-4.03-1.03-5.62-2.86-1.18-1.36-4.46-3.26-6.27-1.99-6.65 4.65 9.47 17.69 12.02 21.1.98 1.3 2.29 1.35 3.77 1.62 2.46.45 3.24 3.19 4.36 4.99.86 1.39 2.6 4.86 4.08 5.49 2.58 1.09 1.58 3.59 2.29 5.89.67 2.17 2.91 1.63 4.57 2.78 1.06.73 2.09 1.52 3.14 2.27 1.29.93 2.58 1.88 3.69 3.02 1.56 1.6.07 1.77.54 3.56.56 2.13 1.49 4.18 2.07 6.34.62 2.29 2.25 4.67 2.09 7.08-.17 2.54 1.79.98 2.76 2.11 1.58 1.87 3.9 1.43 4.33 4.49.56 3.97 5.8 6.55 6.69 10.72.12.6-.86.67-.39 1.31.64.87 1.2 1.79 1.69 2.76 1.1 2.19 3.39 5.06 3.48 7.54.08 2.4.02 3.92 1.5 6.01 1.11 1.57 2.82 2.67 3.75 4.35 1.12 2.02 1.7 4.05 3.47 5.64 1.75 1.59 4.21 2.65 5.28 4.87 1.06 2.19.88 3.48 2.9 5.15 2.05 1.69 3.88 3.62 5.85 5.41 1.7 1.55 3.36 3.01 5.4 4.08 2.04 1.06 2.31 1.85 3.32 3.67.53.96 1.23 1.87 1.91 2.73.58.62 1.21 1.19 1.89 1.7.41.38-.09.79.44 1.16.38.27 3.75 4.68 3.77 2.34.01-1.36-1.29-2.42-1.43-3.76-.19-1.9 2.78.55 3.14.87 2.53 2.24 5.01 2.25 4.71-2.01 1.58 1.36 2.64 4.14 4.89 4.57 1.34.26 1.3-3.8 1.33-4.49.12-2.64.52-5.27.71-7.92.11-1.4 1.02-3.4.39-4.75-.48-1.04-.82-1.64-.49-2.76.41-1.36 1.51-3.19 1.34-4.65-.14-1.08-1.34-1.12-1.07-2.58.24-1.27 1.02-2.38 1.65-3.46.69-1.18 1.23-1.68.97-3.15-.25-1.39-1.4-.81-2.18-1.64-1.07-1.11-2.77-4.84-2.14-6.3-1.23-.2-7.14-1.75-7.62-.51-.18-.37-.36-.74-.51-1.11-1.29 1.6-1.46 3.86-3.36 4.98.56-.83 3.15-3.65.61-3.66 1.37-.56 3.01-1.76 2.78-3.45-.17-1.27-1.51-.83-2.29-1.3-.81-.49-1.26-2.58-1.44-3.39-.54-2.39-1.11-4.65-1.41-7.1-.18-1.5-4.59-1.66-5.88-1.36-1.02.24-2.96-1.77-3.7-2.39-1.25-1.04-.75-3.23-1.28-4.7.56.68 1.41.81 2.13.29-.29-1.17-1.42-1.32-2.45-1.41.83-.06 1.44-.64 1.64-1.43-.69-.04-1.37.03-2.04.2 1.2-.35 1.91-1.41 2.79-2.2.68-.61 2.44-.43 2.85-1.12.68-1.13-1.81-3.6-2.46-4.32-1.81-2.03-3.14-1.86-5.22-.38-1.61 1.14-5.69 4.04-7.43 1.73 3.6 2.06 10.54-4.32 3.97-5.81-1.04-.23-2.13.22-3.15-.19-1.16-.47-1.65-1.79-2.59-2.53-1.93-1.53-.85-4.68-2.96-6.3-.78-.6-1.59-1.53-2.43-2.01-.9-.51-2.09-.07-3.08-.59-1.61-.84-1.48-3.34-2.52-4.71-.51-.68-4.15-4.23-4.94-2.11-.6 1.57 1.32 3.59 1.52 5.12-.66-.67-.85-1.58-1.4-2.33-.89-1.25-2.51-1.43-3.59-2.44-1.78-1.68-1.96-4.36-3.66-6.1-.48.66-.59 1.37-.3 2.13-.29-.51-2.05-3.97-1.43-1.21-1.14-1.32.56-2.95-1.17-4.08-1.57-1.02-2.78-2.81-4.33-3.96-1.77-1.32-3.21-3.44-5.26-4.34-.74-.32-1.52-.49-2.24-.82-1.26-.57-1.07-1.5-1.88-2.37-1.07-1.12-2.96-1.2-4.04-2.24-1.36-1.31.44-3.59-1-4.77-1.74-1.43-2.08-1.44-2.85-3.68-.66-1.95-3.9-4.48-5.42-5.83"/><path d="m378 362.28c2.11 2.26 2.84-4.03 1.91-5.31-1.11-1.5-2.87-4.33-4.61-5.1-1.29-.56-2.03 1.26-3.4.44.22 1.9 1.9 3.3 2.71 4.93.5 1.01 1.67 1.36 2.27 2.3.53.86.63 1.89 1.12 2.74"/><path d="m374.03 344.8c-.02-1.02-.77-2.7-2.03-1.73.76.46 1.44 1.05 2.03 1.73"/><path d="m386.75 375.62c.27-.91-.08-1.79-.82-2.34-.57.76-.98 1.93-1.19 2.85-.3 1.23 2.41 1.27 2.01-.51"/><path d="m384.91 369.82c.53 1.51 1.33 2.89 2.13 4.27.35-1.13-.54-4.45-2.13-4.27"/><path d="m387.46 349.98c.15-.8-.19-.8-1.02 0z"/><path d="m390.09 368.71c-.27-1.35-2.4-1.13-3.14-.41.94.63 2.08.69 3.14.41"/><path d="m393.26 391.89c4.22-.59-2.36-8.82-2.25-10.78-.69.38-1.87.19-2.36.88-.71.99-1.16 2.9-.41 3.96 1.43 2.01 2.26 5.35 5.02 5.94"/><path d="m401.09 398.91c-.26-1.09-1.65-4.93-3.15-3.9-1.65 1.13 2.4 3.45 3.15 3.9"/><path d="m402.52 403.81c.32 1.2 1.72.64 2.15-.12.64-1.15-1.45-2.87-2.27-3.34-.43 1.16.33 2.27.12 3.46"/><path d="m407.29 410.61c.04-.77-.68-1.36-.54-2.12.18-.99.76-.75.47-1.73-.22-.72-1.1-2.94-2.18-2.52-1.64.6 1.47 5.72 2.25 6.37"/><path d="m421.94 346.12c-.42-2.01-3.23-2.63-3.95-.46-.4 1.21.38 2.93 1.7 3.2 1.62.33 1.67-1.81 2.25-2.74"/><path d="m429.47 351.41c-1.51-.65-3.26-.55-4.69-1.42-.28 1.49.98 2.16 2.22 2.39 1.22.23 1.88 1.35 2.77 2.08 0-1.03.09-2.07-.3-3.05"/><path d="m429.67 355.17c-.62-1.05-1.54-2.24-2.84-2.44-.34 1.85-.15 5.18 2.23 5.59.38-1.02.19-2.14.61-3.15"/><path d="m435.87 360.26c-.71-1.34-2.08-2.25-3.5-2.66-.79-.23-1.52-1.37-2.03-1.47-.6-.11-1.13 3.27-.41 3.75 1.67 1.12 4.08-.03 5.73 1.4.08-.34.14-.68.21-1.02"/><path d="m437.1 359.44c-.43-1.74-5.97-5.11-5.2-2.03 2.12-.95 3.04 2.72 5.2 2.03"/><path d="m438.53 362.7c-.15-.73-.59-1.14-1.33-1.23-.52.76-.42 1.44.3 2.03.37-.22.71-.49 1.03-.8"/><path d="m439.94 357.31c-.28-.41-.66-.72-1.11-.91-.13.85.29 1.19 1.11.91"/><path d="m440.76 360.86c-.25-.8-.87-1.33-1.74-1.02.03.85.54 1.58 1.23 2.03.17-.33.34-.67.51-1.01"/><path d="m443.11 373.17c-.74-.51-3.5-.22-2.38 1.1.68.82 2.25-.32 2.38-1.1"/><path d="m445.44 358.52c.3-1.06-.08-1.27-1.11-.61.36.21.74.41 1.11.61"/><path d="m447.67 355.98c-.74-1.69-2.14.23-2.14 1.24 0 1.21 2.29-.08 2.14-1.24"/><path d="m447.98 360.16c.56-1.02.28-1.35-.82-1.02.27.34.55.68.82 1.02"/><path d="m453.27 357.31c-1.45-3.56-5.53-.21-3.83.41 1.13.42 1.64-.67 2 1.21.36 1.89 1.86-.84 1.83-1.62"/><path d="m449.1 361.28c-.02-.39-.11-.77-.3-1.12.1.37.2.74.3 1.12"/><path d="m451.34 374.09c-.49.38-1.44.58-2.03.77-1.13.37.77 2.6.9 3.19.07-1.01.6-1.34 1.43-.7.27-1.21 1.15-2.41-.3-3.26"/><path d="m450.74 367.89c-.58.64-.35 1.01.7 1.11-.23-.37-.47-.74-.7-1.11"/><path d="m451.73 369.82c.15.72-1.12 3.4.4 3.2.86-.11 1.38-.58 2.24-.14.88.45 1.61 1.15 2.66.6-.53-.85-4.29-3.75-5.3-3.66"/><path d="m452.76 360.46c-.36-.02-.69.05-1.02.21.33-.07.68-.14 1.02-.21"/><path d="m452.15 367.28c-.46 1 1.02 1.79 1.64 2.14-.52-.74-1.07-1.45-1.64-2.14"/><path d="m460.6 390.87c1.19 1.64-1.83 2.38-2.44 3.47 1.25 1.01 2.2 1.84 3.88 1.22 1.13-.41 3 .55 3.33 1.71.29 1.02 1.07 2.25 1.24 3.16.39 2.08-.84 2.94 1.53 4.24 1.01.56 5.61 4.09 6.72 3.09 1.09-1-.58-1.46-.92-2.29-.52-1.3 1.08-3.67 2.35-3.92-1.61-.97-3.82-.5-5.3-1.72-1.36-1.13-1.84-3.92-1.69-5.59.09-.99-.58-4.18-1.24-5-1.86-2.29-4.28.35-2.56 2.44-.76.11-4.76-5.42-4.9-.81"/><path d="m476.16 405.33c-.3.1-.61.19-.91.29.21.84.84 1.21 1.62.72-.19-.36-.43-.7-.71-1.01"/><path d="m483.29 404.41c-.47.17-.88.43-1.23.8.79.38 1.25.08 1.23-.8"/><path d="m485.82 401.15c-1.35 1.37-1.66 3.72-1.52 5.53.15 1.93 3 2.94 2.53.89.84.05 2.09 2.38 2.92 1.56 1.14-1.12 2.3-3.39 2.11-5.04-.27-2.43-4.09-3.34-6.04-2.94"/><path d="m489.08 322.82c.88.14 1.68.64 2.23 1.33-.83-.52-1.37-.09-1.42.81 2.52.36 3.24-2.17 2.26-4.08-1.75-3.4-3.91-.7-3.07 1.94"/><path d="m496.4 390.87c.43.04.84-.03 1.23-.19-.43-.04-.84.02-1.23.19"/><path d="m499.55 389.05c-.57-.45-1.15-.45-1.73 0 .24.4.55.74.92 1.02.31-.31.58-.65.81-1.02"/><path d="m508.2 382.54c-1.59-2.26-4.84 1.29-2.84 3.26.95-.96 3.48-1.4 2.84-3.26"/><path d="m577.98 410c-3.68-1.54-2.5 7.82-1.73 9.05.97-1.6 2.02-1.11 1.87-3.3-.1-1.72-.81-4.1-.14-5.75"/><path d="m579.61 411.53c-1.15.21-1.05 1.43-.31 2.03.17-.66.27-1.34.31-2.03"/><path d="m590.49 329.13c-.21.93.12 1.02 1.03.3-.35-.1-.69-.2-1.03-.3"/><path d="m591.72 327.91c-.44.98.5 1.84 1.31 2.14.07-.92.1-2.47-1.31-2.14"/><path d="m592.02 319.77c-.03.88.54 1.46 1.42 1.02-.1-.82-.61-1.22-1.42-1.02"/><path d="m592.43 374.4c-.32.29-.45.66-.4 1.11.13-.37.26-.74.4-1.11"/><path d="m594.16 326.18c.03.74.41 1.21 1.11 1.43.03-.75-.42-1.23-1.11-1.43"/><path d="m603.01 341.54c.07.73.42 1.3 1.02 1.73-.31-.59-.65-1.17-1.02-1.73"/><path d="m498.94 359.24c1.32-.88.42-1.81.7-3 .37-1.55 2.62-1.65 2.86-3.41-.48.77-1.05 1.44-1.73 2.03-1.24-1.82.3-3.62 1.47-4.97.76-.88.99-1.71 1.39-2.77.51-1.37 2.28-1.7 3.25-2.63-.19 1.26-1.85 2.8.05 3.55.27.11.95 3.08 1.48 3.66 1.56 1.7 4.35 3.03 5.35 5.2.39.83 2.12 1.56 2.95 1.99 1.56.81 3.75-.79 5.1-1.38 2.67-1.19 5.21.38 8.06.11 1.14-.11 2.17-.99 3.17-1.52 1.5-.81 1.07-2.76 2.22-3.99 1.18-1.29 7.19-2.6 8.12-.62.88 1.87 6.38 3.66 8.13 2.58 1.52-.94 1.85-2.43 3.9-1.73 1.01.35 1.81-.47 2.69-.83.72-.28 1.56.64 2.29.61-.4-1.96 3.76-6.22 2.62-7.48-1.98-2.18 2.44-4.97 4.09-5.54-.97-1.2-2.78-5.59.23-5.95 3.79-.46.95-2.8 3.12-4.87.83-.8-.24-4.07-.11-5.44.12-1.27.44-2.88 1.02-4.03.5-.99 1.51-1.46 1.76-2.6 1.99.74 2.5 1.14 4.62.23.73-.32 2.51 2.38 2.69-.43 1.39 1.33 3.99 1 5.71.84 2.21-.2 3.55 2.2 5.69 2.01-.64.45-1.35.72-2.14.81.39.33 4.21 3.52 1.62 2.24.53.37 1.89.62 2.15 1.23.27.62.25 1.23 1 1.51-1.21 1.57-3.2.59-3.75-1.02.25.69.35 1.4.29 2.14-1.1-.68-3.02-.61-4.16-.1 1.45.57 2.2 2.05 3.77 2.44-.4.8-.58 2.56-1.94 1.94 1 1.3 2.48 1.84 3.97 2.33-1.23 1.42 1.16 1.55-.81 1.83.68.03 1.33.2 1.94.51-2.02.55.51 1.7 1.28 2.65.88 1.08 1.65 2.26 2.38 3.45.91 1.5-1 4.44-2.75 4.38 1.15.4.58 1.53 1.47 2.28 1.28 1.07 2.56 2.16 3.9 3.16 1.08.8 1.71 2.17 2.97 2.63 1.69.6 2.87 2.32 3.98 3.64.48.55 1.7.12.84 1.45-1.05 1.65-2.78.84-4.24 1.57-2.42 1.23-5.28-2.15-7.19-2.92.88 1.29 1.58 2.92-.48 3.03-1.87.1-2.46 2.96-2.94 4.36-1.27 3.74-1.89 8.03-1.66 11.94.53-.62 1.22-.96 2.03-1.02-.26.84-1.61 1.84-.61 2.23-.96.6-.96 1.44 0 2.03-1.32.38-2.79 1.95-3.15.09-.41 2.63-5.29 8.16-6 2.86-1.02 1.86.71 3.31-1.38 4.76-.97.67-.49 1.72-1.16 2.56-.78.98-2.23.95-2.95 2.03 3.19-1.21 2.14 3.24.6 4.38.79.78 2.4-.3 3.07.51.65.78-.65 3.8-1.14 4.48-.56-.65-1.24-.82-2.03-.51 2.01 1.74-.62 7.28-2.03 4.47-.39 1.24.65 2.3 1.32 3.16-2.79.51-1.93 4.77-4.3 5.72-2.57 1.05-5.18 2.78-7.81 3.95-.69.3-6.14 3.99-5.91 1.92.14-1.26-.01-2.65.05-3.94.09-1.84-1.1-3.36-.65-5.22-2.07 2.02-3.48 1.26-2.03-1.52-.94 1.58-3.01 2.6-2.54-.19-.22 1.48-4.15 4.94-5.3 2.65-.39-.79.7-1.4-.06-2.24-1.4-1.53-2.88 1.25-3.3-.83.46 2.35-2.57-1.83-2.85-2.85.02 2.14-2.27 4.51-4.09 5.43-1.89.96-3.53-1.75-5.36-.43-.66.48-3.23 4.16-3.72 1.77-.6-2.92.38-5.52-1.17-8.39-1.22 3.15-1.65 1.69-3.97 1.62-.98-.03-1.78.82-2.54 1.3-1.45.91-2.4.1-3.85-.17.48-.52.98-.99 1.53-1.43-1.18.18-1.57 1.7-2.86 1.52.54-3.09-2.58-1.38-3.86-.4-1.48-1.85-.29-4.92-.95-7.05-.45-1.45-.18-2.98-.44-4.47-.23-1.24-2.18-2.25-2.05-3.33.03-.26 1.1-1.57 1.23-1.96.46-1.36.7-2.54-.13-3.79-.57-.86-.69-1.78-1.18-2.6-.6-1-1.86-1.37-1.79-2.75-.3.35-.6.69-.92 1.02-1.08-2.09-2.23-.17-3.69-1.06-.84-.5-.31-1.44.06-2 .37-.57 1.73.08 2.21.11-.81-.45-1.27-1.52-2.15-1.74-.65-.16-1.5-.05-1.92-.7-.6-.92-.95-4.68.92-3.55-.49-1.31-1.3-2.9.31-3.05-1.35-1.8-3.16-3.36-3.64-5.64-.21-.94-1.09-4.03-.24-4.84"/><path d="m588.16 326.79c.03-.24.07-.48.1-.71 1.09.15 2.1.6 3.05 1.12-1.07.19-2.14-.06-3.15-.41"/><path d="m592.84 318.96c1.23-.16 2.85-.4 2.54 1.43-1.18.24-1.77-.82-2.54-1.43"/><path d="m769.83 443.57c.07.84.42 1.55 1.02 2.14-.28-.49.21-3.44.43-4.11.55-1.71-1.25-.82-.73-2.31 1.39.69 2.28-1.58 2.86-2.4 1-1.41 2.31 1.61 2.29 2.39-.05 2.01-.18 4.16-.29 6.17-.18 3.15-2.53 1.7-4.14.57 2.06 2.47-5.4-2.68-1.44-2.45"/><path d="m772.28 446.72c.43.29 1.75 2.01.88 2.42-1.42.67-2.38-2.06-.88-2.42"/></svg>