<svg id="map" width="100%" height="960px" viewBox="154 224 960 372">
<g id="map-surrounds">
  <path d="M381.56,269.83c-0.52,1.7-0.23,3.55,0.4,5.18C383.47,273.79,383.31,270.77,381.56,269.83z" style="transition-delay: 300ms;"></path>
  <path d="M880.4,595.95c1.35-0.82,0.23-2.13-0.1-3.15C879.13,593.69,879.69,594.97,880.4,595.95z" style="transition-delay: 380ms;"></path>
  <path d="M747.24,508.57c0.69-1.35,0.49-2.81,0-4.19C746.14,505.88,746.78,507,747.24,508.57z" style="transition-delay: 400ms;"></path>
  <path d="M788.05,510.61c-0.78,1-2.26,0.94-2.85,2.14C786.31,512.31,787.4,511.66,788.05,510.61z" style="transition-delay: 430ms;"></path>
  <path d="M792.12,504.8c-0.34,1.99-2.15,3.44-3.17,5.09C790.67,508.9,792.01,506.79,792.12,504.8z" style="transition-delay: 440ms;"></path>
  <path d="M723.04,508.26c-1.58,0.59-1.84,1.61-1.98,3.15c-0.11,1.15-1.89,1.85-1.27,3.05c1.51-0.37,2.71-0.51,4.17,0.11 c0.55-0.08,1.05-0.25,1.53-0.52c-0.29-1.05-1.62-1.19-1.62-2.35c-0.19-0.47-0.42-0.9-0.72-1.3 C723.21,509.68,723.18,508.97,723.04,508.26z" style="transition-delay: 450ms;"></path>
  <path d="M729.07,515.37c1.7-0.39,5.14-2.62,5.69-4.4c0.23-0.76,1.6-3.13-0.43-3.53c-1.28-0.25-2.48-0.17-2.03,1.15 c-0.53-0.85-1.68-0.7-1.94,0.49c-1.03-1.38-2.58,0.05-3.9-0.34c-0.56-0.16-2.29-2.31-2.7-1.03 C722.98,510.12,726.07,516.05,729.07,515.37z" style="transition-delay: 460ms;"></path>
  <path d="M729.55,806.83c-0.24,0.08-0.41,0.24-0.52,0.48c-0.7,0.56-1.99-0.5-2.74-0.48c2.65-2.51-8.21-0.47-8.71-0.33 c-1.06,0.29-4.1,2.01-2.47,3.48c2.15,1.94,5.46-1.51,7.52,0.82c1.08-0.3,1.9-1.1,2.79-1.73c1.43-1.01,2.18-0.33,3.69-0.44 C730.35,808.54,731.38,807.08,729.55,806.83z" style="transition-delay: 470ms;"></path>
  <path d="M931.49,686.18c-0.37,0.32-0.71,0.66-1.02,1.02c0.63-1.6-0.69-2.4-0.42-3.77c0.21-1.01,1.21-1.73,1.33-2.75 c0.34-2.72-2.45-1.65-2.88-4.46c-0.19-1.29,0.39-2.65-0.48-3.78c-0.74-0.95-1.98-1.2-2.54-2.35c-1.2-2.42-0.64-5.16-2.95-7.02 c0,2.84-4.65-2.54-4.89-4.17c2.21,3.69,2.37-1.71,0.11-2.44c-0.49,0.62-0.59,1.3-0.31,2.03c-0.93-1.9-3.04,0.06-2.07-3 c0.48-1.52,0.08-3.02,0.58-4.49c0.86-2.47,1.14-4.12,0.91-6.76c-0.09-0.99-0.77-1.64-1.65-0.8c-0.47,0.45-0.22,1.57-0.51,2.14 c-1.99-1.15-2.81-3.4-4.48-4.89c-1.4,1.68-0.3,3.69-1.22,5.49c-0.9-1.74-1.16-2.34-3.17-1.53c1.22-1.42-0.3-4.12-0.45-5.69 c-0.18-1.86-0.24-4.29,1.06-5.8c-3.78,0.07,0.23-9.81-5.28-7.83c1-1.41-0.99-3.03-0.33-4.54c0.52-1.18,1.93-0.99,2.46,0.06 c-0.47-0.97-0.4-2.1-0.89-3.06c-0.43-0.84-1.49-0.32-1.72-1.25c-0.11-0.43,0.01-2.05-1.01-1.63c-0.49,0.2-0.09,1.1-0.6,1.25 c-2.37,0.71-0.93-1.91-2.14-2.36c-1.47-0.54-3.81-0.7-3.21-2.8c-0.8,0.04-1.27,0.52-1.32,1.32c-1.96-0.59-1.54-4.72-2.23-6.22 c0.45,1.79-3.91,1.36-3.77-1.31c-1.2,2.28-2.21-0.57-3.36-0.47c-1.25,0.12-2.95-1.91-3.48-2.86c-0.87-1.62,0.65-2.74,1.14-4.16 c0.56-1.62-1.23-0.66-1.12-1.93c0.15-1.63-2.14-2.08-1.24-4.11c0.74-1.67,1.73-2.9,2-4.78c0.26-1.69,0.28-3.45-0.15-5.12 c-0.57-2.24-0.22-3.1,0.31-5.26c-0.81,0.09-1.52,0.39-2.15,0.93c0.78-1.32-1.01-3.31-1.61-4.37c-1.19-2.08-0.72-3.24,0.08-5.51 c1.32-3.67-2.07-7.38,0.73-10.78c-2.1-0.75-0.15-2.8,0.51-3.85c-0.27-0.04-3.23-1.96-3.34-2.1c-0.85-1.21-3.46-2.74-3.68-4.02 c-0.94-5.54-1.92,0.33-3.98-2.23c-0.34,2.31-3.67,3.97-4.87,1.33c-0.68-1.48,0.1-3.1-0.41-4.61c-0.43-1.29-1.27-2.35-0.68-3.73 c0.48-1.15,1.61-10.7-0.66-10.27c0.54-2.37,0.82-3.96-0.88-5.84c-1.59-1.77-0.94-3.34,1.09-4.84c-1.12-0.57-3.64-0.39-3.92-2.01 c-0.22-1.25,0.05-2.55,0.05-3.81c0-1.19,0.63-1.18,0.22-2.5c-0.23-0.57-0.29-1.15-0.19-1.75c0.25-1.46-1.04-2.07-1.47-3.37 c-0.39,0.18-0.76,0.38-1.11,0.61c0.36-0.76,0.8-1.47,1.31-2.14c-1.74-1.2-2.39,1.22-3.76,1.77c-1.46,0.59-1.45,1.47-1.62,2.8 c-0.51,4.12-3.11,7.32-2.95,11.6c-0.82,0.17-1.4-0.22-1.62-1.02c-0.71,0.83-1.39,1.93-0.82,3.06c-0.44,0.01-0.81,0.19-1.1,0.53 c-0.77,0.81-1.57,2.38-1.33,3.53c0.33-0.32,0.66-0.62,1-0.91c0.21,0.48,2.35,2.8,2.76,2.85c-0.73,0.29-1.24,0.91-1.21,1.73 c0-0.85-0.3-1.56-0.92-2.14c-0.58,2.39-3.05,2.54-2.31,5.44c0.66,2.54-1.44,4.25-2.47,6.4c-1.27,2.65,0.93,4.77-0.02,7.19 c-0.95,2.38-1.12,3.95-0.94,6.58c0.22,3.36-1.1,5.67-2.23,8.72c-1.06,2.87-1.87,5.83-2.95,8.68c-1.88,4.98-5.17,9.58-7.73,14.21 c-1.78,3.22-8.33,5.29-11.34,3.14c-0.99-0.7-2.01-1.27-2.86-2.14c-0.81-0.83-1.97-0.77-2.83-1.47c-1.57-1.26-0.26-3.81-1.99-5.06 c-3.25-2.33-7.1-1.14-9.74-4.48c-1.53-1.95-2.55-3.67-4.78-4.9c-1.75-0.96-3.68-1.81-4.79-3.55c-0.82,1.32-2,0.36-3.17,0.82 c0.46-1.43-0.58-2.28-1.66-2.96c-1.54-0.97-2.23-2.27-3.3-3.68c-1.84-2.4-5.09-3.37-6.5-6.15c-1.05-2.05-0.35-1.61,0.9-2.78 c1.09-1.01,1.96-2.27,2.81-3.49c2.02-2.84,3.49-5.67,5-8.82c-1.68,2.79-3.86-3.03-0.8-2.45c-1.37-1.27,0.9-3.93,1.21-1.72 c0-0.89,1.5-3.26,1.63-0.82c0.59-0.69,1.26-1.26,2.03-1.72c-0.09,0.67-0.12,1.35-0.1,2.03c1.67-0.75,1.78-2.19,2.14-3.77 c0.38,0.22,0.76,0.46,1.11,0.72c-0.36-0.81-0.87-1.53-1.52-2.14c2.09-0.82,3.98-3.6,4.93-5.6c0.27-0.57,0.67-1.5,0.23-2.1 c-0.51-0.71-2.52-0.98-1.6,0.68c-1.33-0.44-2.59-3.12-1.54-4.33c-1.49,1.12-5.66,3.96-2.42,4.02c-0.45,0.93-1.74,2.74-3.02,2.38 c-0.61-0.16-0.69-0.94-0.67-1.45c0.05-1.64-1.62-0.82-0.28-2.26c-1.34,0.02-2.25,1.16-2.95,2.15c-0.58-0.94-0.35-1.75,0.33-2.52 c0.71-0.8,2.21-1.45,0.28-1.45c0.86-0.55,2.67-1.43,1.73-2.74c0,1.76-2.05,2.1-3.36,2.43c2.28,2.15-4.77,0.9-3.15,3.46 c-2.12-0.68-5.23-0.22-5.6-3.46c-1.45,0.23-2.32,1.47-3.9,1.17c-1.39-0.26-1.62-1.58-2.62,0.26c0.85-2.74-5.08-2.3-2.44-4.27 c-1.55-0.52-2.65,1.37-4.17,1.31c0.15-1.56-1.7-1.4-3.06-1.38c-1.53,0.01-2.06-3.92-3.36-4.82c0.57,1.43-1.39,1.53-2.04,2.34 c-0.85-1.41-3.2-3.16-3.55-4.69c-0.68,1.18-1.44,1.08-2.04-0.1c0.57,1.03,0.44,2.2-0.2,3.16c-0.31-1.15-0.52-2.38-1.53-3.16 c-0.14,0.38-2.34,1.73-1.84,2.15c0.77,0.63,2.51,1.26,2.45,2.65c2.14-0.97,4.93-1.38,5.59,1.52c0.44,1.9-1.38,4.43,0.2,6.1 c-1.5-0.98-3.26,0.24-3.25,1.92c-0.2-2.37-10.42,1.68-12.11-2.23c-0.69,1.7-1.08,0.07-2.19,0.51c-1.09,0.44-0.46,1.48-0.76,2.34 c-2.4-1.13-2.19,2.39-0.9,3.35c-1.22-0.29-2.13-3.41-3.46-2.94c-1.26,0.44-0.91,3.51,0.2,3.96c-1.04,0.24-1.64-1.28-2.52-0.76 c-1.25,0.72-0.99,1.77-1.63,2.82c-0.96,1.57-1.85-0.17-2.26,2.01c-0.24,1.29,0.8,2.89,1.64,3.77c-0.92-0.55-2.56,1.33-3.21,1.85 c-1,0.8-1.62-0.79-2.39,0.63c-0.83,1.54-1.12,3.6-1.73,5.25c-0.37,1.02-1.95,0.6-2.65,1.21c-0.79,0.69-1.04,2.01-1.56,2.89 c-1.29,2.16,2.24,3.4,3.81,2.92c-0.62,0.49-1.34,0.77-2.13,0.8c0.59,1.73,1.67,2.27,3.44,2.04c-0.91,0.87-2.15,0.31-3.08,0.98 c-1.33,0.95-0.19,2.94,0.24,4c-1.9,0.44-2.62-4.07-4.89-4.27c-0.04,1.3,0.62,3.23-1.02,3.85c1.05-4.78-8.62-6.51-7.41-1.62 c-1.26,0.53-2.15-1.29-2.95,0.41c-0.66,1.38,1.09,2.75,0.51,4.16c-0.14-0.77-0.51-2.73-1.74-1.83c-0.08,0.06-0.13,0.13-0.18,0.2 c0.1-0.63,0.16-1.25,0.24-1.78c0.25-1.46,1.14-2.8,1.27-4.27c0.11-1.33-1.12-2.41-1.93-3.29c-1.36-1.47-2.11-3.38-3.49-4.82 c-1.08-1.14-1.27-1.93-2.83-1.98c-1.84-0.05-2.38-2.99-3.55-2.51c-2.06,0.85-0.25,1.36-0.71,2.48c-0.58,1.42-2.59,1.86-3.56,2.95 c-0.55-0.69-1.28-1.53-0.6-2.44c-1.18,0.03-2.38,1.11-1.84,2.35c-2.67,0.66,0.11-4.09-2.14-2.03c1.38-1.97-0.84-1.04-0.4,0.2 c-1.94-1.5-0.92,0.5-0.55,0.48c0.36-0.13,0.68-0.07,0.97,0.19c0.83,1.22-0.63,1.16-1.03,1.97c-0.24,0.51-0.69,2.06-0.81,2.66 c-0.19,0.97-1.39,0.93-1.43,2.04c-1.68-2.54-0.85-2.39-2.75-0.21c0.9-1.27,1.52-4.07,0-4.39c-0.16,1.19-0.07,2.41-0.39,3.58 c-1.27-0.8-1.69,1.34-2.86,0.1c-0.16,1.09-3.76,3.81-0.7,3.97c-0.84,1.18,0.36,2.19,0.9,3.15c-1.44,0.3-3.04-2.64-3.15-0.31 c0.19-2.28-3.14,0.36-3.05,1.72c0.58-0.53,1.26-0.86,2.03-1.02c-0.79,0.29-1.4,0.79-1.82,1.53c2.34,0.02,1.17,1.82,2.74,2.75 c-0.55-0.12-1.09-0.26-1.62-0.4c-0.25-0.41-0.51-0.81-0.77-1.21c-0.85-0.59-1.68-1.39-2.79-1.44c1.57,1.48-1.39,2.39-2.37,2.84 c-2.12,0.99-1.23,3.78,0.02,5.1c0.24-0.8,0.86-1.34,1.73-1.02c-1.73,0.77-1.09,2.97-2.54,3.96c-0.26-0.33-0.5-0.68-0.72-1.02 c-0.15,1.26-1.43,2.54,0.31,3.15c1.25,0.44,2.17-0.2,3.15,1.02c-1.15-0.72-2.48,0.13-3.62-0.55c-1.02-0.6-1.6,0.81-2.57,0.02 c-0.77-0.62-0.81-1.47-2.04-1.35c-0.93,0.09-1.09,1.42-2.03,1.67c0.41-0.86-0.11-1.53-0.92-1.82c2.17-0.45-0.42-1.51-1.82-0.62 c0.32,0.64,2.05,2.43,0.44,2.73c-1.33,0.25-0.37,1.7-1.86,0.53c-0.04,0.81,0.41,1.28,1.21,1.31c-1.17,1.29,1.69,4.03,3.06,3.56 c-1.75,1.11-1.47,2.39-1.31,4.18c-0.81-0.92-1.29-2.18-2.44-2.75c-1.3,2,0.05,5.3-1.53,7.33c0.33-2.9-4.99-8.21-3.05-10.89 c-2.76,0.09-0.07-2.52-0.92-3.66c-2.06,0.97-2.11,3.9-3.61,4.7c-1.22,0.65-2.65,0.43-1.69,2.32c-1.55-1.82-4.28,2.24-4.84,3.33 c-1,1.9-1.96,7.08-0.43,8.92c1.78,2.17-2.07,3.87-3.79,4.95c-1.19,0.74-2.52,1.24-2.96,2.69c-0.28,0.93-0.58,1.49-1.69,1.38 c1.96,4.42-7.81,10.31-10.45,11.74c-3.27,1.77-6.53,2.61-10.11,3.56c-3.09,0.82-5,0.3-8.11,0.3c-2.04,0-2.54,2.01-3.86,3.11 c-1.17,0.98-2.74,1.01-4.18,1.01c-3.53-0.01-4.9,1.9-7.77,3.59c-1.32,0.78-2.78,1.31-4.33,1.31c-1.22,0-1.66-1.11-2.73-1.26 c-1.13-0.15-4.14,2.31-3.69-0.48c-1.66,1.93-3.59,2.9-6.06,3.22c-1.1,0.14-2.13,1.99-3,2.7c-3.35,2.73-6.33,5.6-10.52,6.93 c-2.96,0.95-5.72,2.17-7.37,4.97c-1.6,2.71-1.66,4.45-4.98,5.6c0.4-1.62-0.02-3.36,0.6-4.94c0.44-1.13,1-2.27,0.73-3.52 c-2.45,0.78-3.35,4.24-4.34,6.27c-0.67,1.38-2.08,2.7-2.08,4.32c0,1.54,1.15,2.75,0.83,4.36c-0.74,3.47-2.12,5.54-4.09,8.33 c-1.68,2.4-3.47,5.88-3.07,8.9c0.26,1.92,1.24,3.68,1.24,5.65c0,0.91-0.32,1.57,0.27,2.38c1.55,2.11,1.44,4.79,2.66,7.11 c1.44,2.72,0.47,5.14-0.71,7.84c-0.17,0.41-1.57,1.76-2.07,0.94c-0.89-1.49-0.35-3.31-0.56-4.92c-0.19,1.08-0.84,2.31-2.14,2.23 c-0.11-1.56,1.3-2.65,0.92-4.25c-0.28-1.18-0.92-2.56-1.85-3.37c-1.97,1.84-0.85,6.18,0.69,7.97c2.25,2.61,0.99,3.91-1.7,5.35 c-0.15-0.95,0.61-3.32-0.81-1.02c0.11-0.56,0.29-4.91-0.21-2.14c0.26-1.44-0.6-2.74-0.39-4.17c-0.03,1.14-0.34,2.29-1.13,3.15 c0.21-1,0.54-2.03,0.21-3.05c0.11,1.33-1.13,2.03-0.84,3.47c0.32,1.58,1.34,2.97,2.19,4.3c2.03,3.13,3.22,7.06,3.06,10.8 c-0.08,1.94-1,3.78-0.91,5.72c0.08,1.69,1.51,3.06,2.12,4.59c0.64,1.6,0.59,3.08,0.65,4.76c0.05,1.61,0.92,3.03,1.17,4.61 c0.6,3.81-1.16,8.95-2.18,12.64c-1.07,3.89,0.36,8.1,1,11.92c0.68,4.13,1.39,7.5-0.19,11.54c-0.72,1.86-2.49,3.87-1.81,6.13 c-0.81-0.2-1.29,0.19-1.31,1.01c-0.17-0.82,0.16-1.62,0.8-2.13c-2.7,1.92-1.16,5.74-2.44,8.33c-1.13,2.29-3.97,5.28-6.71,5.31 c-3.48-2.13-5.75,6.75-3.93,8.66c2.06-2.17,4.74,1.16,5.75,2.8c1.22,2,2.58,4.51,5.54,4.02c-0.14,0.34-0.27,0.68-0.39,1.02 c3.4,0.68,6.74,0.47,10.15,0.81c0.97,0.1,6.28,0.59,3.78-0.5c1.95,0.07,4.19-0.51,5.72-1.7c1.14-0.88,1.42-1.73,2.9-2.29 c1.02-0.38,1.75-0.62,2.55-1.34c0.73-0.67,1.49-1.58,2.54-1.74c1.04-0.15,1.98,1.13,2.94,0.56c0.66-0.4,2.49-1.51,3.09-1.21 c-0.7-3.74,5.16-4.99,7.75-5.4c2.04-0.32,3.83-0.14,5.9-0.53c2.75-0.53,6.05-1.34,8.84-1c0.64,0.08,5.74,0.4,5.76,0.47 c0.77,2.52,1.09,1.37,2.92,0.64c1.1-0.43,8.75-1.37,7.78,1.13c1.59-0.27,2.41-1.78,3.98-1.03c0.57,0.28,2.47-1.39,2.9-1.71 c2.38-1.82,4.08-4.1,5.81-6.51c2.26-3.14,4.6-3.35,8.1-4.29c3.27-0.87,6.77-2.91,9.79-4.45c3.7-1.87,6-3.7,10.35-3.3 c3.57,0.33,6.75,0.46,10.3-0.26c7.38-1.47,13.8-5.64,21.05-7.22c3.91-0.86,8.62-1.05,12.62-1.01c1.59,0.01,3.35,0.69,4.89,0.14 c1.28-0.46,2.38-1.3,3.82-1.14c4.28,0.48,5.93,6.05,9.99,6.78c1.59,0.29,1.74-1.97,3.81-1.04c1.86,0.83,3.48,2.63,5.58,2.88 c0.11,0.02,3.43-1.43,3.48-0.92c0.09,1.02,1.14,1.53,1.23,2.51c0.07,0.74-1,1.67-1.22,2.36c1.17-0.25,2.73-1.42,3.68-0.05 c0.8,1.17-0.17,2.72-1.14,3.41c0.62-2.53-1.41,0.46-1.72,0.85c-0.23,0.29,0.56,2.06,0.71,2.39c0.29,0.65-0.36,1.74,1.18,1.34 c1.08-0.29,1.79,0.71,2.77-0.1c-0.58,0.8-0.14,1.2,0.23,1.91c0.46,0.89-0.1,1.76-0.44,2.57c-0.86,2.06,1.85,3.34,1.85,5.32 c0,2.12-0.54,4.21-0.84,6.3c-0.27,1.82-1.95,0.7-1.7-0.64c-0.74,0.55-1.36,1.24-1.84,2.03c1.86-1.07,2.49,1.53,3.08,2.71 c0.84,1.67,2.75,0.29,3.43,2.38c0.93-0.88,1.05-2.24,1.93-3.16c-0.72,0.26-1.44,0.53-2.15,0.82c1.23-0.96,1.62-4.11,3.77-3.67 c0.76,0.15,2.93-2.73,3.5-3.34c1.58-1.64,3.25-3.39,5.44-4.2c1.51-0.55,2.97-2.23,4.29-2.64c0.71-0.22,1.4,0.43,2.14,0.19 c0.85-0.26,1.44-1.23,2.04-1.83c1.36-1.39,2.53-2.95,3.83-4.39c1.35-1.47,4-2.58,4.88-4.31c0.16-0.33,0.79-3.66,1.23-3.46 c1.08,0.48-0.07,3.78-0.05,4.49c0.02,0.27,0.27,1.88-0.02,2.09c-0.9,0.66-2.23,0.86-2.65,2.06c-0.74,2.13,0.13,3.76-2.21,5.09 c-1.99,1.15-2.89,2.31-4.4,4c-2.72,3.06-2.55,7.95-5.47,10.7c-1.68,1.58-3.91-0.39-5.63,1.12c-1.03,0.89-2.47,2.42-2.84,3.76 c2.42,0.08,4.71-2.17,6.9-1.96c2.31,0.23,2.61,0.62,3.94-1.55c1.21-1.99,2.44-4.07,3.81-5.94c0.67-0.91,1.58-1.59,2.38-2.4 c0.71-0.71,0.75-1.74,1.67-2.29c0.85,3.85,1.1,7.71-0.67,11.26c-0.67,1.33-1.48,3.05-2.82,3.84c-1.49,0.89-3.39,1.67-4.43,3.11 c2.08,2.19,6.62-1.07,9.05-0.82c-2.91-0.94,0.5-0.55,1.02-0.4c-1.03-1.61,3.31-3.18,3.96-1.84c0.57,1.18-1.39,0.89-1.5,2.07 c-0.1,0.98,0.1,1.68-1.14,1.9c0.08-0.71,0.15-1.42,0.2-2.13c-2.53-0.18-1.01,1.96-0.25,3.06c1.16,1.65,1.82,3.37,1.37,5.38 c-0.21-2.98-1.52-6.11-4.07-7.82c2.97,3.73,4.69,7.82,3.57,12.61c-0.71,3-3.77,4.55-4.23,7.88c-0.27,1.88,1.32,2.54,1.33,3.6 c0.01,1.67,0.5,3.5,1.47,4.87c0.96,1.37,9.05,2.16,6.32,5.31c0.67-0.14,1.52,0.24,2.15-0.06c0.85-0.4,1.09-1.14,2.1-1.33 c1.83-0.35,2.61,1.69,4.4,1.44c3.2-0.44,4.9,2.5,7.6,3.87c1.56,0.79,1.86,2.04,3.35,1.29c1.8-0.91,3.49-1.56,5.09-2.83 c1.59-1.27,3.78-2.4,5.7-3.09c1.33-0.48,3.25-0.11,4.18-1.42c-0.94-0.73-2.01-0.17-3.05-0.51c2.28-1.34,4.65-3.2,7.32-3.66 c-0.1,1.99,0.75,2.97-1.02,4.48c-1.08,0.92-2.79,2.64-4.17,1.11c1.09,1.98,1.9,2.66,3.96,0.92c0.25-0.22,5.26-3.41,4.4-1.22 c-0.61,1.53-2.24,1.57-1.98,3.44c0.23,1.73,1.15,1.01,2.46,0.72c-0.14,1.05-0.03,2.14-0.31,3.16c1.16-0.07,1.75-1.39,2.72-0.19 c0.62,0.77,0.28,2.23,0.35,3.13c1.32-0.61,2.58-2.48,2.94-3.85c-0.79,0.21-1.51,0.59-2.14,1.12c0.51-2.7-0.23-2.17,2.56-2.4 c2.87-0.23,5.32-1.04,7.68-2.67c5.15-3.56,10.52-7.47,16.96-8.08c3.18-0.32,6.39,0,9.57-0.39c2.98-0.35,4.16-1.88,6.53-3.11 c0.77-0.4,1.6,0.24,2.4-0.5c0.51-0.48,0.94-1.05,1.32-1.64c0.4-0.63,1.75-2.87,0.29-3.19c1.55-0.68,3.67-4.46,4.74-5.85 c1.87-2.45,3.17-5.36,5.02-7.79c2.17-2.83,4.75-5.4,7.11-8.08c0.94-1.06,1.62-1.46,2.98-1.66c1.1-0.16,0.8-1.52,1.52-2.17 c0.16,1.73,0.83,0.81,1.32,0c-1.69-0.66,1.3-3.31,1.82-3.88c0.3-0.33,0.88-2.3,0.91-2.31c0.91-0.18,0.72,0.18,1.28-0.94 c1.1-2.21,3.53-2.88,4.78-4.96c0.61-1.01,1.51-0.72,2.12-1.58c0.76-1.07,1.34-2.32,2.1-3.41c-0.64,0.29-0.88-0.01-0.71-0.92 c2.45,0.27,2.17-1.22,3.35-2.62c0.85-0.99,2.25-1.41,3.06-2.43c1.16-1.43,2.8-3.08,4.6-3.65c0.68-0.21,4.94-1.23,2.31-1.48 c1.52-0.24,2.7-1.51,3.9-2.35c0.66-0.46,1.63-0.41,2.2-0.99c0.95-0.97,1.29-3.19,2-4.4c1.11-1.87,3.32-2.74,4.71-4.36 c1.41-1.64,2.54-3.55,3.87-5.26c2.74-3.52,2.95-7.77,5.74-11.32c3.33-4.21,4.99-9.19,8-13.51c2.8-4.03,5.09-7.14,6.19-12.02 c0.23-1.01-0.48-1.57-0.52-2.5c-0.03-0.85,0.31-1.71,0.48-2.53c0.26-1.23,0.42-4.09-0.31-5.12c-1.08-1.52-1.21-2.68,0.34-3.91 c1.43-1.13,0.99-2.62,1.27-4.3c0.36-2.21,1.03-4.76,1.79-6.86C930.59,689.17,933.03,687.45,931.49,686.18z M691.92,559.22 c0.36-0.32,0.6-0.75,0.77-1.23C692.63,558.48,692.49,558.94,691.92,559.22z" style="transition-delay: 960ms;"></path>
  <path d="M868.91,476.63c0.49-2.06-2.78-2.92-4.16-3.36C866.25,474.19,867.76,475.3,868.91,476.63z" style="transition-delay: 540ms;"></path>
  <path d="M894.49,435.33c-0.21-1.53,1.24-3.01,0.93-4.83c-0.36-2.08-1.56-4.03-3.07-5.5c-1.39-1.34-3.22-0.94-4.48-2.17 c-1.21-1.21-1.59-3.33-3.55-3.77c-1.69-0.39-1.74-2.35-3.51-2.7c-1.42-0.26-1.75,0.99-3.54-0.11c-2.26-1.41-3.88-3.49-6.4-4.58 c-2.18-0.94-4.53-0.61-6.79-1.2c-4.58-1.21-8.4-4.23-12.56-6.35c-1.5-0.77-4.79-1.81-6.35-2.43l-2.39,44.46 c-0.61,1.37-1.53,3.33-1.85,4.96c-0.4,1.94,1.17,2.82,1.32,4.58l-2.03,25.83c1.28,2.3,2.64-0.3,4.27,0.42 c2.38,1.09,4.99,0.47,7.46,0.24c2.22-0.2,3.9,1.63,5.88,1.47c2.1-0.17,4.15-2.36,6.05-3.17c4.26-1.81,1.82-5.54-1.3-7.52 c-1.63-1.04-2.97-1.54-4.86-1.1c-1.35,0.32-1.94-0.19-2.01-1.62c0.65,1.94,1.59,1.18,3.08,0.82c0.95-0.23,1.66,0.1,2.54,0.42 c1.11,0.41,2.16-0.08,3.25-0.28c1.32-0.23,2.72-0.18,3.98-0.7c1.89-0.79-1.22-3.14-1.77-4.03c1.28,0.16,5.53,3.34,4.99,0.71 c0.4,0.15,0.81,0.29,1.23,0.42c-0.32-2.45-1.9-4.42-2.64-6.72c0.62,0.28,6.05,7.02,6.4,2.44c0.79,0.27,1.44,0.74,1.94,1.41 c-0.13-0.97-0.2-1.96-0.21-2.94c0.48,1.82,0.81,0.93,1.32,0c-0.14,0.88,1.01,2.72,1.22,0.61c0.43,0.91,2.15,1.79,2.15,0.1 c0.46,1.92-0.69,2.43,2.03,2.96c1.53,0.29,3.03,1.29,4.5,1.48c0.99,0.13,2.31-0.55,3.15,0.14c0.63,0.51,1.24,1.13,2,1.45 c2.32,0.96,4.24,6.11,5.1,8.32c0.92,2.35,0.38,3.94,3.85,4.39c-0.96,1.04,0.46,3.2,1.06,4.08c0.74,1.07,2.14,0.33,2.86,1.3 c0.64,0.85,1.47,2.26,1.47,3.36c0,1.44,1.71,1.95,2.03,3.25c1.21-1.15,2.5,1.39,4.43,0.14c0.77-0.5,2.41,0.96,3.24,1.09 c1.19,0.2,2.35-0.12,3.42-0.61c-0.11,0.36-0.22,0.74-0.31,1.11c2.6-0.44,5.13,0.9,7.66,1.1c1.45,0.11,4.61-0.06,4.76,2.05 c0.49-0.58,1.07-0.69,1.72-0.31c-0.55,0.54-1.19,0.71-1.94,0.51c1.22,2.92,4.27,2.09,6.5,1.41c3.34-1.03,0.81-2.15-1.41-2.72 c0.18-1.43,1.2-0.84,2.12-0.67c1.18,0.21,2.55-0.82,3.57-1.27c-2,0.69-4.63,0.1-6.38-0.99c-1.15-0.72-2.79-0.84-3.79-1.65 c-0.8-0.63-1.08-1.67-1.73-2.44c0.72-0.45,3.62-0.6,3.5-1.85c-0.11-1.14-2.97-0.87-3.71-0.91c-3.87-0.18-5.4-1.35-3.68-5.16 c1.06-2.35-1.55-2.18-3.06-1.59c-2.13,0.84-4.48,1.31-5.02-1.59c-0.19-0.96,0.18-2.38-0.81-2.98c-0.7-0.42-1.25-0.75-1.52-1.6 c-0.51-1.6-0.82-4.4-0.67-6.08c-1.66,0.67-3.92-1.42-4.74-2.56c-1.3-1.81-3.26-3.09-4.47-4.89c-1.03-1.55-4.35-8.59-0.91-8.77 c2.17-0.11,6.44,1.53,8.11-0.43c2.13-2.48-1.68-8.02-4.19-8.77c-1.03-0.31-2.02,0.27-3.05,0c-0.88-0.22-1.19-1.01-1.94-1.42 c-1.53-0.87-3.44-2.12-5.09-2.72C900.22,438,894.8,437.55,894.49,435.33z" style="transition-delay: 590ms;"></path>
  <path d="M897.3,428.1c1.24-0.51,1.46-1.85,0.6-2.84C896.81,425.82,896,427.21,897.3,428.1z" style="transition-delay: 600ms;"></path>
  <path d="M909.01,433.47c-1.14,0.02,0.09,2.72,0.48,3.08C911.47,436.44,910.55,433.44,909.01,433.47z" style="transition-delay: 610ms;"></path>
  <path d="M918.45,441.44c1.54-1.18,1.08-4.28-1.11-4.27C914.65,437.17,917.67,440.76,918.45,441.44z" style="transition-delay: 620ms;"></path>
  <path d="M940.06,435.97c0.9,1.52-6.29,2.25-7.07,2.2c-1-0.06-1.51-0.55-2.41-0.91c-1.2-0.49-1.7,0.21-2.8,0.12 c-0.97-0.06-3.43,0.44-3.94-0.34c-0.82-1.27-2.23,1.8-0.94,3.14c0.92,0.95,1.88,0.67,2.97,1.14c0.82,0.36,1.1,1.2,2.04,1.33 c0.67,0.89,1.81,1.26,2.23,2.35c1.31-0.95,3.28-1.35,4.52,0.01c0.89,0.99,0.83,2.02,2.5,1.86c2.19-0.21,4.39,0.26,6.56-0.17 c2.85-0.56,4.37-3.3,6.81-3.25c2.52,0.05,5.9-3.48,5.54-5.98c1.43,0.17,8.22,1.12,7.22-2.39c-0.17-0.6-2.53-4.75-0.51-4.33 c3.33,0.69,4.19-2.9,4.19-5.43c0-0.94,0.26-2.01-0.73-2.46c-0.95-0.44-2.04-0.88-0.92-1.98c-0.92,0.36-3,2.62-3.94,1.26 c-1-1.43-3.61-1.37-3.36,0.81c0.24,2.07,1.38,3.83,1.05,6.03c-0.33,2.2-3.43,1.04-4.97,2.28c-1.66,1.34-1.93,3.44-3.22,5.03 c-0.53,0.67-1.56,0.62-2.3,0.82c-1.69,0.45-1.41-0.23-3.01-0.51c-1.22-0.22-2.65,2.06-3.6,0.74c-1.26-1.73-1.2-4.5,0.87-5.57 C941.09,429.88,939.56,435.15,940.06,435.97z" style="transition-delay: 640ms;"></path>
  <path d="M937.74,386.94c-0.65,0.58,1.55,2.3,1.97,2.51C940.82,388.42,938.78,386.02,937.74,386.94z" style="transition-delay: 660ms;"></path>
  <path d="M938.77,482.57c-2.21,1.25,0.29,3.05,1.35,3.73C940.51,485.55,940.6,481.54,938.77,482.57z" style="transition-delay: 670ms;"></path>
  <path d="M941.14,487.71c1.21-0.45,3.35,0.02,4.26,0.92c2.17-2.27-0.88-3.37-2.58-4.01 C939.78,483.47,942.86,486.67,941.14,487.71z" style="transition-delay: 680ms;"></path>
  <path d="M945.09,402.56c1.33,0.2,2.92-0.64,1.92-2.17c-0.87-1.32-4.43-2.1-4.66,0.15 C943.23,401.34,943.81,402.38,945.09,402.56z" style="transition-delay: 690ms;"></path>
  <path d="M948.04,493.93c1.48,0.53,2.08-1.82,1.12-2.65c-0.53,0.3-0.86,0.73-1.01,1.31c-1.72-0.61-2.37-2.63-3.87-3.56 c0.6,0.93,1.19,1.92,1.33,3.04c0.31,0,0.6,0,0.91,0C945.21,492.95,947.45,493.72,948.04,493.93z" style="transition-delay: 710ms;"></path>
  <path d="M954.98,404.45c-0.31-1.07-2.48-1.78-3.28-2.58c0.39,0.8,0.07,1.28-0.8,1.31c1,0.87,2.42,0.77,3.42,1.66 c1.21,1.1,2.42,2.21,3.7,3.23c1.41,1.12,2.71,2.56,4.31,3.4c1.2,0.62,2.6,0.79,3.67,1.66c2.08,1.69,2.8,4.58,3.96,6.89 c0.8,1.59,0.05,3.26,0.18,4.92c0.13,1.61,1.27,2.77,1.94,4.17c1.26-1.03,3.53-5.86,2.87-7.41c-0.53-1.27-1.68-2.07-2.24-3.26 c-0.69-1.47-0.86-0.93-2.28-1.43c-1.49-0.21-2.08-2.7-2.97-3.67c-1.37-1.49-3.92-3.81-5.82-4.58c-2-0.81-3.09-2.95-5.1-3.76 C955.81,404.73,955.29,405.53,954.98,404.45z" style="transition-delay: 770ms;"></path>
  <path d="M967.28,482.74c3.31-0.13-0.31-4.97-2.44-2.55C965.96,480.78,966.1,482.22,967.28,482.74z" style="transition-delay: 790ms;"></path>
  <path d="M971.85,512.23c0.72-0.19,1.37-0.53,1.94-1.02c-0.95-0.88-3.81-2.84-5.18-2.03c0.69,0.57,0.66,1.56,1.31,2.14 C970.76,512.06,971.31,510.62,971.85,512.23z" style="transition-delay: 810ms;"></path>
  <path d="M990.38,431.36c-0.87,1.56-0.55,3.58,0,5.19C991.84,435.29,991.93,432.6,990.38,431.36z" style="transition-delay: 840ms;"></path>
  <path d="M1000.21,445.44c-0.75-0.31-1.48-0.32-1.85-1.15c-1.56-3.44-3.6-6.68-7.38-7.93c1.02,1.12,0.34,2.85,0.25,4.15 c-0.16,2.15,1.51,3.67,2.49,5.4c0.77,0.72,1.89,1.02,2.06,2.17c0.2,1.43-0.04,2.89,1.07,4.02c1.61,1.65,7.32,2.12,6.71-1.04 c-0.25-1.32-0.62-2.26-1.47-3.38C1001.59,447.01,1001.02,445.77,1000.21,445.44z" style="transition-delay: 850ms;"></path>
  <path d="M907.47,395.96c0.89-0.12,1.74,0.7,2.64,0.7c2.23,0,2.36-1.42,4.17-1.82c-2.05-0.41-4.46-1.57-6.57-1.01 c-1.32,0.34-3.65,1.76-2.28,3.35C906.11,396.88,906.69,396.06,907.47,395.96z" style="transition-delay: 880ms;"></path>
  <path d="M377.69,235.85c-0.26,0.3-0.46,0.64-0.6,1.02c1.39-0.68,1.91,1,2.32,1.93 C379.28,237.61,378.7,236.52,377.69,235.85z" style="transition-delay: 930ms;"></path>
  <path d="M378.3,225.68c-0.35,1.37-0.62,2.77-0.81,4.17C379.21,229.73,379.04,226.63,378.3,225.68z" style="transition-delay: 940ms;"></path>
  <path d="M377.79,215.5c0.2,1.04,0.63,2.07,0.41,3.15C378.72,219.39,381.02,214.86,377.79,215.5z" style="transition-delay: 950ms;"></path>
  <path d="M380.04,227.91c0.24,0.59,0.68,0.89,1.31,0.92C381.86,225.53,378.18,224.9,380.04,227.91z" style="transition-delay: 970ms;"></path>
  <path d="M379.92,223.14c0.28,0.47,0.55,0.94,0.82,1.42c0.4-0.24,0.74-0.54,1.02-0.92c-0.82-0.32-1.5-0.83-2.03-1.52 C379.79,222.46,379.86,222.8,379.92,223.14z" style="transition-delay: 980ms;"></path>
  <path d="M1010.41,467.07c0.04-0.76,1.51-1.94,0.99-2.63c-0.25-0.32-1.3-1.96-1.71-1.94 C1007.34,462.57,1009.39,466.43,1010.41,467.07z" style="transition-delay: 1000ms;"></path>
  <path d="M1019.67,460.14c-0.77-0.9-1.96-1.22-2.72-2.14c-0.97-1.18-0.94-2.81-2.05-3.92c-1.51-1.49-3.62-2.67-5.61-3.4 c-1.18,2.13,2.64,4.57,3.45,6.2C1013.99,458.91,1017.17,461.34,1019.67,460.14z" style="transition-delay: 1020ms;"></path>
  <path d="M1014.53,465.92c-2.47-0.19-1.5,3.48,0.46,3.59C1015.77,468.78,1016.05,466.04,1014.53,465.92z" style="transition-delay: 1030ms;"></path>
  <path d="M1017.02,472.76c-1.98,1.41-1.51,2.14-0.21,3.87C1015.75,475.21,1017.84,474.17,1017.02,472.76z" style="transition-delay: 1040ms;"></path>
  <path d="M1021.39,474.7c1.22,0.43,1.4-0.73,1.22-1.62c-0.34-1.71-1.76-2.23-2.63-3.56c-0.48-0.73-0.32-3.13-1.96-1.74 c-0.86,0.72-2.65,2.41-2.42,3.68c1.34,0.35,2.73-1.09,3.75,0.32c0.16,0.36,0.15,0.71-0.02,1.06 C1019.22,473.58,1020.91,474.42,1021.39,474.7z" style="transition-delay: 1050ms;"></path>
  <path d="M1023.32,477.14c1.79-0.53,0.69-1.76,1.02-3.05C1022.35,473.68,1021.73,476.18,1023.32,477.14z" style="transition-delay: 1090ms;"></path>
  <path d="M1036.04,469.11c1.35,1.39,3.17,2.26,4.86,3.31c-1.07,0.3-0.1,1.59,0.85,1.97c-0.22-0.54-0.33-1.08-0.33-1.65 c0.62,0.4,1.21,0.84,1.74,1.35c1.07-2.57-2.49-6.3-4.87-6.75c-1.59-0.3-3.27-2.15-4.43-3.18c-0.63-0.56-0.97-1.26-1.8-1.56 c-0.81-0.31-1.62-0.1-2.33-0.72C1030.85,464.69,1033.01,468.1,1036.04,469.11z" style="transition-delay: 1120ms;"></path>
  <path d="M1052.11,490.25c0.57-1.94-2.72-4.98-4.48-5.15c-1.76-0.18-4.03,0.83-5.21-0.91 c-0.78-1.13-1.77-1.56-2.67-0.12c-1.38,2.2,1.92,5.45,3.93,5.89c1.85,0.26,3.06-0.23,4.82,0.66 C1049.49,491.14,1051.63,491.85,1052.11,490.25z" style="transition-delay: 1140ms;"></path>
  <path d="M1041.02,511.32c0.69,0.34,2.23,0.45,2.65,0.71c1.05,0.65,1,2.23,2.34,2.54 C1047.44,512.64,1040.61,509.06,1041.02,511.32z" style="transition-delay: 1150ms;"></path>
  <path d="M1057.42,480.38c-0.36-0.78-1.2-2.35-1.98-2.77c-1.21-0.64,0.83-1.77,0.25-2.57c-0.63-0.91-0.85-2.41-1.8-3.07 c-0.45-0.31-2.44-1.08-2,0.43c0.84,2.93,0.43,6.47,1.86,9.32c2.07,1.52,3.1,3.93,4.79,5.79 C1059.15,486.28,1058,481.68,1057.42,480.38z" style="transition-delay: 1180ms;"></path>
  <path d="M1058.65,497.15c0.73,2,1.71,2.85,3.33,4.19c1.75,0.6,3.61,0.59,5.4,1.02c-1.07-3.38-1.98-3.73-4.78-5.22 c-0.91-0.48-5.21-3.6-5.8-1.5C1057.55,496.05,1058.33,496.29,1058.65,497.15z" style="transition-delay: 1190ms;"></path>
  <path d="M1060.35,489.65c0.67-1.7-0.22-3.56-1.42-4.78c0.1,0.96,0.07,1.91-0.08,2.86 C1058.8,488.43,1060.17,488.96,1060.35,489.65z" style="transition-delay: 1200ms;"></path>
  <path d="M1104.3,502.07c0.34,0.23,0.69,0.47,1.03,0.7c0.79-1.06,3.04-0.67,3.03-2.35 C1106.75,499.98,1105.08,500.52,1104.3,502.07z" style="transition-delay: 1210ms;"></path>
  <path d="M317.07,236.66c-0.9,0.74-1.43,2.21-1.18,3.35c0.63,2.89,2.96-0.17,1.99-1.93 C317.63,237.59,317.36,237.12,317.07,236.66z" style="transition-delay: 1270ms;"></path>
  <path d="M320.89,216.59c0.35-1.75-1.62-3.53-1.2-4.88c0.41-1.31,2.91-4.06,0.32-4.64c1.06-0.83,0.89-2.11,0.11-3.05 c-2.58,1.99-0.84,5.59-1.42,8.24c-2.01,1.68,0.02,6.73,0.2,8.75c-2.52-0.47-3.02,7.94,0.31,7.63c-1.48-1.04,0.1-1.15,0.1-2.33 c0-1.4-0.82-2.73-0.35-4.14c0.35-1.07,1.3-2,1.08-3.21C319.67,217.05,320.54,218.33,320.89,216.59z" style="transition-delay: 1280ms;"></path>
  <path d="M334.36,287.22c1.14-2.52,0.04-2.98,0-5.18C330.6,280.16,333.64,286.01,334.36,287.22z" style="transition-delay: 1350ms;"></path>
  <path d="M525.7,340.42c-0.55-1.41,0.18-3.22-1.21-4.27c-0.07,1.06,0.26,2.09,0.2,3.15 C524.78,340,524.91,340.35,525.7,340.42z" style="transition-delay: 1370ms;"></path>
  <path d="M399.25,290.88c-0.5,0.54-1.07,0.99-1.72,1.33C398.62,294.3,400.92,292.23,399.25,290.88z" style="transition-delay: 1440ms;"></path>
  <path d="M609.43,305.31c-0.04-1.63-2.87-2.69-3.87-1.32c-0.51-1.02-2.62-3.35-3.86-2.03 c-0.18-1.57-2.32-4.23-4.12-3.08c-0.84,0.53-2.97,2.64-3.2,0.44c1.12-0.41,3.27-2,0.98-2.96c-1.22-0.51-1.68,0.72-2.54,1.21 c-0.9,0.51-1.93,0.05-2.93,0.33c1.37-0.59,1.53-1.15,1.09-2.83c-0.42-1.6,1.2-1.17,1.34-2.34c0.2-1.77-2.54-2.41-2.71-3.88 c-0.24,1.67-1.11,0.85-1.99-0.5c0.38,0.05,0.74-0.05,1.07-0.31c-0.37,0.1-0.73,0.2-1.09,0.29c-1-1.55-2.01-3.8-2.06-3.81 c-1.44-0.26-2.52,4.2-3.68,4.94c-0.68-1.79,1.03-3.52-0.4-5.19c-1.83,1.76-1.67,4.54-3.1,6.46c-0.65,0.87-1.18,2.15-1.79,2.9 c-0.51,0.62-1.07,0.15-1.51,1.12c-0.79,1.71-1.07,3.61-1.92,5.29c-0.56,1.1-3.74,3.89-3.49,1.33c-0.94,1.3-3.92,3.56-0.87,4.75 c2.02,0.79-0.52,2.74-1.25,3.32c-0.63,0.51-2.63-0.32-2.5,0.55c-0.02-0.02-0.03-0.05-0.05-0.08c-0.39,1.13-1.04,0.74-1.22,1.22 c-0.05-0.43-0.1-0.85-0.17-1.24c0,0-0.01,0.01-0.01,0.01c0.32-0.74,0.32-1.59-0.74-1.18c-3.43,1.33-4.85,4.96-8.94,5.06 c0.02,0,0.03,0.01,0.05,0.01c-0.34-0.07-0.76-0.11-1.27-0.12c-0.22,4.05-1.93,7.14-4.92,9.83c-2.33,2.09-2.42,5.9-5.05,7.75 c-3.04,2.14-8.24,2.89-11.84,3.47c-2.28,0.36-7.82,3.65-4.13,6.41c-1.05-0.06-1.99-0.6-3.05-0.61c-0.29,1.1,0.67,2.22-0.31,3.15 c0.71-0.06,1.43-0.13,2.14-0.2c-0.86,0.85-1.61,0.3-1.91,1.72c-0.11,0.6-0.3,1.17-0.53,1.73c-0.33,1-0.32,1.96,0.41,2.65 c-1-0.59-1.78,0.42-1.48,1.62c0.54,2.08,2.7,0.86,3.71,2.25c-1.45-0.13-2.99-0.27-4.01-1.43c-1.12-1.28-1.89-0.22-3.19-0.7 c-0.85-0.31-3.13-0.83-2.85-2.02c0.09-0.4-1.31-0.5-1.34-1.45c0.12,3.36-7.78,0.27-7.44-3.35c-0.23,1.51-1.89,2.49,0.06,3.61 c0.47,0.65,0.68,2.77,1.34,3.52c1.1,1.23,2.46,2.1,4.02,3.34c0.61,0.49,1.43,2.38,2.02,2.61c1.08,0.43,2.62,2.32,4.78,1.3 c1.79-0.86,3.25-1.97,5.36-1.79c2.11,0.17,4.53,1.04,6.48,0.28c0.12-0.05,2.67-1.46,2.78-1.67c0.58-1.1,0.68-2.34,1.35-3.28 c1.35-1.9,7.39-2.7,8.16-1.04c0.59,1.28,3.49,2.61,5.8,2.96c2.17,0.33,2.85-0.52,4.54-1.91c1.04-0.86,2.18,0.54,3.36-0.29 c2.04-1.45,1.88-0.03,3.46-0.01c-0.4-1.96,3.76-6.22,2.62-7.49c-1.98-2.18,2.45-4.97,4.09-5.53c-0.83-1.02-2.69-5.48,0.25-5.88 c2.74-0.36,1.84-1.39,2.38-3.77c0.34-1.5,1.16-0.73,1.06-2.55c-0.06-1.08-0.53-3.16-0.4-4.21c0.16-1.32,0.52-2.95,1.14-4.13 c0.48-0.92,1.38-1.25,1.62-2.34c1.66,0.57,2.35,1.42,4.31,0.3c0.98-0.55,2.91,2.41,2.97-0.53c2.29,2.16,5.81,0,7.65,1.32 c0.8,0.57,2.91,2.14,4.02,1.38c0.73-0.51,0-2.18,0.23-2.91c2.72,2.3,4.05,1.48,7.24,1.22c1-0.08,2.42,0.14,3.04-0.88 c0.58-0.95-0.22-1.89-1.23-1.26c0.27-1.72-3-2.32-3.6-3.74c-1.53-3.6,3.41-1.88,4.7-1.78 C604.33,309.52,609.49,307.66,609.43,305.31z M565.03,315.83c0.12,0.14,0.25,0.27,0.39,0.39 C565.28,316.1,565.15,315.97,565.03,315.83z M565.47,316.26c0.17,0.13,0.36,0.24,0.56,0.35 C565.83,316.5,565.64,316.39,565.47,316.26z M566.16,316.67c0.23,0.1,0.47,0.19,0.74,0.25c0,0,0,0,0-0.01c0,0,0,0.01,0,0.01 C566.63,316.86,566.39,316.77,566.16,316.67z" style="transition-delay: 1470ms;"></path>
  <path d="M617.31,305.87c-1.06,0.76-2.8,0.79-1.59,2.31c0.63-0.36,4.33-2.36,4.15-2.81 C619.24,303.67,618.18,305.26,617.31,305.87z" style="transition-delay: 1520ms;"></path>
  <path d="M626.85,297.75c0.95-0.51,3.39-0.74,3.82,0.56c2.79-1.39-1.57-2.74-2.9-2.5 C626.31,296.08,626.51,297.93,626.85,297.75z" style="transition-delay: 1540ms;"></path>
  <path d="M639,291.26c1.18-0.54,1.1-1.81,1.85-2.71c-1.05,0.09-1.68-0.73-2.64-0.92c-1-0.2-1.75,1.02-2.65,1.23 c0.27,0.37,0.57,0.71,0.92,1.01C636.67,291.09,637.85,291.79,639,291.26z" style="transition-delay: 1550ms;"></path>
  <path d="M678.18,285.69c0.32-1.1,0.02-2.18-0.21-3.26C676.21,282.79,677.74,284.55,678.18,285.69z" style="transition-delay: 1630ms;"></path>
  <path d="M585.21,264.94c-0.55,0.98-0.35,2.11-0.61,3.15c2.77-3.43,6.7-4.56,9.16-8.44c0.9-1.45,8.69-6.52,5.89-8.85 c1.65,0.41,0.53-0.73,0.62-1.73c0.13-1.22,2.09-1.39,2.94-1.5c1.46-0.2,1.74-0.76,1.99-2.1c0.33-1.86,1.69-1.4,2.9-2.19 c2.55-1.66,0.67-3.29-0.39-5.22c-1.29-2.29,0.79-5.44-1.14-7.4c-1.23,1.07,0.27,5.19-1.53,3.55c0.45,0.85,1.63,3.24,1.73,4.17 c-1.05-0.58-2.26-1.21-2.65-2.45c-0.02,1.29,0.65,2.32,1.04,3.5c0.4,1.19-1.09,4.84-1.74,2.3c-0.09,0.79-0.52,1.05-1.23,1.24 c-0.55,0.15-0.26,1.72-0.41,2.11c-0.19,0.49-1.19-0.15-1.41,0.31c-0.35,0.71,0.59,1.21,0,2.03c-0.27-2.4-1.28,0.38-1.63,1.02 c-0.6,1.08-1.17,2.17-2,3.08c-1.32,1.46-2,3.45-3.54,4.73c-0.61,0.5-1.31,0.27-1.92,0.73c-0.7,0.52-0.74,1.43-1.46,1.86 C587.75,260.07,586,262.71,585.21,264.94z" style="transition-delay: 1640ms;"></path>
  <path d="M613.94,221.36c-1.15-0.65-1.89-0.37-3.1-1.38c-0.31-0.3-0.65-0.58-1.02-0.81c-1.79,3.39,2.65,3.97,4.99,3.97 C614.87,222.51,614.5,221.66,613.94,221.36z" style="transition-delay: 1660ms;"></path>
  <path d="M611.56,227.1c0.92-0.84-0.01-2.21-0.31-3.05c-0.44,0.1-0.89,0.2-1.32,0.31 C610.16,225.61,611.68,225.72,611.56,227.1z" style="transition-delay: 1670ms;"></path>
  <path d="M625.79,218.76c0.23-1.11,0.9-2.04,1.12-3.15c0.21-1.1-0.82-2.08-0.82-3.19c0-2.63-1.32-4.25-3.11-6.03 c-1.43-1.44-8.95-2.82-10.32-1.05c0.22,0.58,2.47,2.39,3.01,2.81c2.28,1.8,1.71,4.14,3.37,6.04 C619.78,215.01,624.7,223.99,625.79,218.76z" style="transition-delay: 1690ms;"></path>
  <path d="M608.1,163.58c-0.64,3.29,0.72,5.75,1.16,8.82c0.55,3.8-5.24-1.27-5.65-2.89c-1.27,0.65-1.15,2.03-0.7,3.16 c-0.45,2.25,1.35,1.96,1.57,3.24c0.35,1.96,0.5,4.47,1.48,6.19c0.94,1.66,1.44,3.11,1.73,4.97c0.18,1.12,1.98,3.6,1.73,1.07 c1.89,0.71,0.81,4.4,3.01,5.06c3.24,0.97,0.67-3.2,0.75-4.56c0.82,0.3,7.53,2.5,4.93,4.36c-1,0.72-1.88,1.57-2.77,2.41 c-1.45,1.32,0.03,3.94,0.18,5.65c0.87-0.1,1.2-0.62,0.82-1.43c1.83,0.03,2.67,1.04,2.34,2.85c0.6-2.11,1.93-0.26,1.52,0.81 c1.05-0.17,2.58,0.47,3.45-0.39c0.74-0.74,0.94-1.86,1.78-2.5c0.26-0.19,1.78-1.37,2.16-1.07c1.27,1.02,2.98,1.53,4.15,2.65 c1.56,1.48,4.52,3.5,4.94,5.68c0.14,0.73,1.44,1.8,1.72,0.52c-0.01-0.7-0.21-1.34-0.57-1.95c-0.14-0.34-1.65-2.39-0.85-2.13 c-1.62-1.02-1.2-3.21-2.35-4.58c2.2-0.35,4.26,2.3,5.31,3.81c1.44,2.04,3.86,2.16,5.1,4.68c0.32,0.67-0.42,1.94,0.54,2.15 c1.04,0.23,1.93,0.97,2.89,1.43c0.76,0.37,1.44,1.44,2.31,0.97c0.64-0.34,1.58-1.31,2.38-1.14c-0.16,1.25-2.46,1.81-1.46,3.26 c0.18,0.26,2.08,2.98,2.58,1.64c0.78-2.09-0.06-9.34-3.98-6.63c-0.44-0.86,0.02-1.43-0.19-2.27c-0.26-1.06-1.8-2.59-2.71-3.12 c-2.42-1.39,2.68-2.76,4.01-2.04c-0.23-1.5-2.65-2.1-3.88-2.21c-2.08-0.19-2.44-1.96-4.16-2.26c-0.44,1.42,2.21,3.48,0,4.27 c-1.62,0.59-2.1-3.3-2.81-4.52c-1.46-2.47-7.59-4.68-7.46-0.05c-0.25-0.42-0.52-0.83-0.8-1.22c-1.37,1.27,1.42,2.07,0.63,2.96 c-1.32,1.5-4.04-0.54-5.01-1.53c-0.87-0.89-4.6-7.27-1.84-7.43c-2.5-1.75-5.1-6.78-3.95-9.66c0.78-1.97-0.21-3.77,0.5-5.5 c0.88-2.14,3.74-2.29,5.19-3.86c-0.16,0.58-0.33,1.16-0.51,1.73c1.23-1.4,0.84-3.03,1.4-4.67c0.87-2.52,2.03-5.21,1.55-7.94 c-1.41,0.67-0.77-1.29-1.23-1.94c-1.27-1.79-2.75-1.85-3.52-4.33c-0.8-2.53-0.73-4.49,0.32-6.89c0.55-1.23-1.05-4.62-2.16-2.81 c-0.45,0.72-0.52,2.29-1.74,2.07c-0.74-0.14-2.32-0.98-2.97-0.15c-0.39-0.85-1.21-1.45-1.97-1.93c-1.54-0.96-3.55-2.39-5.38-1.78 c-0.78,0.26-1.64-0.17-2.42-0.24c-0.73-0.06-0.17,0.99-0.85,0.99c-1.96,0-0.72,1.08-0.76,2.24c-0.07,2.07-0.72,4.62-1.02,6.72 C606.02,156.15,608.9,159.52,608.1,163.58z" style="transition-delay: 1710ms;"></path>
  <path d="M628.75,205.54c-0.03,2.28,3.51,3.99,3.61,0.73C632.42,204.6,629.28,203.7,628.75,205.54z" style="transition-delay: 1720ms;"></path>
  <path d="M638.69,239.41c1.34,0,3.85-1.96,3.46-3.29c-0.34-1.17,3.95-1.61,3.37-3.27c-0.76-2.21,0.81-5.26-2.74-2.69 c0.88-0.95-0.44-2.24-1.47-2.01c-0.97,0.22-1.6,1.43-2.42,0.55c-0.94-0.99-1.6-2.13-2.9-2.73c-1.21-0.57-2.77-0.81-3.57-2.01 c-0.54,0.57-0.87,1.26-1.01,2.03c3.3,0.59,2.51,3.15,2.44,5.68c-0.04,1.83,0.26,3.14-0.23,4.97c-0.51,1.92,0.6,3.74-0.07,5.62 C635.42,242.66,636.63,239.41,638.69,239.41z" style="transition-delay: 1730ms;"></path>
  <path d="M632.71,222.02c0.24-2.09,0.42-4.19,0.85-6.23c0.25-1.16-2.36-0.43-1.36,1.25 C632.06,218.87,631.3,220.43,632.71,222.02z" style="transition-delay: 1740ms;"></path>
  <path d="M665.15,296.15c1.03,0.53,4.7,2.91,5.82,1.93c0.89-0.79,0.41-2.65,2.1-2.56c0.17,0.01-0.33,7.86,2.07,6.2 c1.66-1.15,3.12-5.1,2.86-7.04c-0.36-2.71-2.43-3.84-3.48-6.03c-0.64-1.32,2.57-8.71,3.72-8.17c0.88,0.42,2.83,4.61,3.21,5.62 c0.38,0.99,0.16,2.02,0.25,3.05c0.13,1.49,1.35,2.5,1.56,3.95c0-2.36,1.06-5.42-0.73-7.42c0.59-0.27,1.09-0.12,1.47,0.24 c-0.32-1.11,1.32-2.18,1.93-3.01c1.42-1.95,0.42-4.79,0.03-6.86c-0.31-1.71-2.55-1.71-1.66-3.57c0.52-1.07,0.56-3.83-1.37-2.97 c3.28-2.8-2.72-3.72-2.64-5.19c0.04-0.86,1.72-1.25,2.04-2.1c0.58-1.51-1.09-2.11-1.54-3.28c-0.21-0.55,0.4-3.19-0.62-2.66 c-1.29,0.67-1.53,0.19-2.23-0.8c-0.82-1.18,0.01-1.87-1.8-2.42c-1.99-0.61-2.36-2.41-4.1-3.17c-1.05,2.3,0.81,5.32,1.49,7.49 c0.16,0.49,0.88,2.33-0.02,2.59c-1.17,0.34-2.79,0.05-3.31-1.22c-0.95,2.99,0.07,3.23-2.74,1.28c-2.65-1.84-0.35,5.41-2.54,5.71 c-1.41,0.2-1.68-1.5-2.98-0.91c-1.35,0.61-0.97,3.08-1.4,4.23c-0.51,1.39-2.53,0.77-3.54,1.59c-0.59,0.48-1.59,1.6-2.4,1.64 c-0.83,0.04,1.03-1.3,0.86-1.18c1.06-0.7,1.28-1.09,1.01-2.43c-0.21-1.03-1.64-6.02-3.36-3.62c-0.26-0.83-0.77-1.89-1.83-1.83 c0.59,2.8-2.91,1.73-3.73,3.25c-0.97,1.8-0.15,3.44-2.38,4.18c-2.26,0.75-5.6,0.09-6.67,2.96c-0.46,1.24-0.17,2.66-0.31,3.94 c-0.19,1.68-1.07,3.38-1.77,4.9c-0.53,2.88,3.42,4.09,3.71,0.73c0.12-1.23,0.65-4.61,1.58-4.99c0.74-0.29,1.28-4.75,2.98-3.44 c1.23,0.94,0.72,2.97,1.69,4.03c0.27-1.79,0.91-0.92,1.43,0c0.4-1.1,0.06-2.63,1.44-3.16c0.6,0.74,0.49,1.62-0.21,2.25 c1.4,0.05,2.28,1.78,3.68,1.52c-0.43-0.61-0.95-1.45-0.92-2.24c0.02-0.45,1-0.4,1.11-0.81c0.31-1.1-0.91-0.84,0.51-1.92 c0.87-0.66,1.73,0.5,2.39,0.91c2.24,1.41,4.27,1.8,5.03,4.77c0.4,1.62-1.79,3.13-1.96,4.86c-0.18,1.73,0.76,4.11,1.12,5.82 C660.61,293.42,662.9,294.99,665.15,296.15z" style="transition-delay: 1760ms;"></path>
  <path d="M636.67,217.84c0.86,0.69,1.76,1.36,2.54,2.14c0.96-1.33,0.11-2.95-1.52-2.95 C637.32,217.26,636.99,217.54,636.67,217.84z" style="transition-delay: 1780ms;"></path>
  <path d="M639.27,249.29c0.05,1.89,1.54,3.79,2.59,5.28c0.97,0.69,2.36,0.68,3.17,1.62c0.68,0.8,0.32,2.08,1.13,2.8 c1.11,0.99,2.59-0.2,3.15-1.19c1.04-1.84-0.87-3.1-1.36-4.71c-0.91-2.96,0.24-7.33,1.17-10.22c0.7-2.2,3.04-5.16-0.02-6.77 c-1-0.53-2.31-0.69-3.38-0.21c-1.82,0.83-1.06,2.42-1.52,3.93c-0.3,0.97-1.26,1.29-0.9,2.44c0.4,1.29,0.95,2.69,0.44,4.04 C642.97,248.32,639.22,247.02,639.27,249.29z" style="transition-delay: 1790ms;"></path>
  <path d="M641.46,238.96c-1.45-0.35-1.83,2.94-1.12,3.7C641.25,242.25,643.39,239.44,641.46,238.96z" style="transition-delay: 1800ms;"></path>
  <path d="M641.76,209.3c-1.07,1.79,3.87,4.23,4.68,5.4C645.27,212.8,643.92,210.22,641.76,209.3z" style="transition-delay: 1810ms;"></path>
  <path d="M645.22,224.25c1.43-0.98,2.5-4.83,4.24-2.82c0.7,0.81,1.47,1.57,2.09,2.45c0.79,1.11,2.41,1.17,3.23,2.3 c1.57-3.04-2.56-4.88-3.96-6.53c-0.63-0.74-1.59-1.56-2.33-2.15c-0.44-0.35-2.85-1.5-3.38-1.49c0.38,0.97,0.07,3.54,0.49,4.11 c1.05,1.41-0.19,1.48-0.29,3.02C645.29,223.5,645.26,223.88,645.22,224.25z" style="transition-delay: 1820ms;"></path>
  <path d="M649.49,215.2c-0.31,0.71-0.17,1.32,0.41,1.83c0.38,0.74,0.89,1.39,1.52,1.93 C651.22,217.59,650.84,215.91,649.49,215.2z" style="transition-delay: 1830ms;"></path>
  <path d="M655.6,232.59c-1.41,0.29-1.8,4.7-2.04,5.77c-0.73,3.25-2.77,6.03-3.44,9.28c0.15,2.13-0.51,4.21-0.72,6.31 c2.91,0.77,2.29-6.15,3.46-7.52c1.46-1.69,3-3.07,3.25-5.44C656.41,238.18,655.51,235.4,655.6,232.59z" style="transition-delay: 1840ms;"></path>
  <path d="M653.05,198.11c-1,2.09-0.33,5.08,1.23,6.51C656.83,202.83,656.46,198.78,653.05,198.11z" style="transition-delay: 1860ms;"></path>
  <path d="M662.93,250.9c-0.56-2.04-0.64-6.06-4.29-5.06c-1.28,0.35-5.22,4.15-3.45,5.27 C654.95,255.07,662.02,250.56,662.93,250.9z" style="transition-delay: 1880ms;"></path>
  <path d="M661.54,216.83c-1.66,0.53-3.49-0.95-5.03,0.2c0.8,2.17,1.73,4.02,3.56,5.49c1.02,0.82,4.13,4.12,5.4,3.56 c-0.43,1.01-0.38,2.35-1.64,2.75c0.62,0.51,1.14,1.12,1.52,1.83c-1.09-1.19-1.71,0.32-2.6,0.84c-1.37,0.8-3.52-1.42-4.12-2.47 c-1.02,1.25,0.91,7.28,2.44,7.93c-0.27-2.73,2.94,0.8,3.02,2.19c0.18,3.55-0.46,6.28,3.3,7.99c-0.16-1.07-0.72-2.05-0.72-3.15 c0.59,0.66,2.67,0.72,2.87-0.42c0.1-0.62-1.41-3.57-1.79-4.21c-0.87-1.46-1.13-1.26-1.27-3.21c-0.09-1.27,0.19-3.25-0.92-4.18 c0.84-0.22,3.23,2.11,3.25,2.09c0.94-1.1,4.44,0.29,5.4,0.86c-0.77-0.9-1.31-2.17-2.54-2.54c1.6-1.22-1.61-4.83-1.76-6.29 c-0.15-1.53,0.53-2.9-0.31-4.2c-0.54-0.83,1.48-0.6-0.14-1.57c-0.88-0.53-2.01-0.14-1.93-1.52c0.11-1.78-1.44-1.85-2.72-2.12 C663.44,216.38,663,216.36,661.54,216.83z" style="transition-delay: 1890ms;"></path>
  <path d="M660.08,229.75c1.79,0.26,0.48-3.93-1.73-2.65C658.83,228.03,659.09,229.19,660.08,229.75z" style="transition-delay: 1900ms;"></path>
  <path d="M674.59,247.01c-0.19-0.88-0.74-1.65-0.89-2.52c-0.14-0.8,0.4-1.44,0.1-2.24c-2,0.86-0.4,2.56-1.52,3.87 c0.8,0.13,1.34,0.66,1.12,1.52c0.81,0.57,0.91,1.43,0.21,2.14C675.13,250.01,674.78,247.85,674.59,247.01z" style="transition-delay: 1920ms;"></path>
  <path d="M679.05,250.84c1.65-0.38,0.42-2.99-0.67-3.2C677.88,248.33,677.43,251.21,679.05,250.84z" style="transition-delay: 1940ms;"></path>
  <path d="M441.27,242.26c-0.44,0.65-1.05,0.99-1.84,1.02c1.38,1.06,1.51,2.87,2.55,4.17 C441.47,245.71,442.94,243.65,441.27,242.26z" style="transition-delay: 1970ms;"></path>
  <path d="M202.12,275.01c2.63,1.87-0.6-2.06-0.99-2.69c-1.23-2-1.26-4.3-2.27-6.36c-0.78,0.65-1.63,0.43-2.14-0.41 c2.51,0.2-3.17-6.87-3.48-7.88c-0.33-1.07-6.72-8.47-7.91-7.38c1.31,0.31,2.04,1.57,2.96,2.44c-1.38-0.81-3.93-4.31-5.6-2.14 c0.77,1.15,2.18,1.26,3.15,2.14c0.18-1.26,3.49,0.76,4.17,1.73c-0.61-0.46-3.97-1.25-4.89-1.22c0.69,0.96,0.03,0.98-0.46,1.64 c-0.67,0.91,0.79,2.4-0.11,3.87c-2.09,3.43-1.71,9.49-1.87,13.51c-1.62-0.47-0.88-2.59-0.92-3.76c-1.58,2.45,0.56,5.9,0.81,8.44 c0.02,4.54,1.71,23.09,10.06,20.36c3.8-1.24,9.46-3.85,11.47-7.47c1.66-2.99,2.4-8.26,0.34-11.25 C204.45,279.11,202.58,275.48,202.12,275.01z" style="transition-delay: 2010ms;"></path>
  <path d="M672.18,483.25c2.24-1.36,5.7-2.18,8.19-3.15c4-1.55,9.75-3.04,12.56-6.65c1.61-2.08-2.73-1.66-3.65-1.39 c-2.52,0.75-4.74,1.07-7.31,1.52c-2.76,0.46-5.31,0.41-8.15,1.01c-1.06,0.23-2.51,0.09-3.41,0.82c-0.95,0.77-1.5,2.59-2.49,3.33 c2.36,1.15,2.13,1.78,0.96,3.69C668.95,486.26,669.84,484.66,672.18,483.25z" style="transition-delay: 2030ms;"></path>
  <path d="M656.21,484.9c0.81-0.33,2.34,2.25,3.19,1.03c0.2-0.28,0.38,0.62,1.23,0.81c1.11,0.27,0.7-4.11,1.2-4.33 c-2.3,0.43-3.73,1.06-5.6,2.45L656.21,484.9z" style="transition-delay: 2040ms;"></path>
  <path d="M1117.32,537.45c-1.4,0.6-1,1.83-0.61,2.95C1117.94,539.82,1118.24,538.47,1117.32,537.45z" style="transition-delay: 2060ms;"></path>
  <path d="M1107.05,553.02c-0.06-1.67-2.05-5.68-2.27-1.72c-0.09,1.8,0.85,3.47,0.2,5.25c-0.63,1.7,0.42,2.72,0.44,4.41 c3.56,0.01,6.51-2.52,4.97-6.22c-0.46-0.74-0.53-1.51-0.2-2.33C1108.52,553.09,1107.21,557.33,1107.05,553.02z" style="transition-delay: 2070ms;"></path>
  <path d="M1115.09,586.69c1.87-1.31,0.11,0.76,2.13,1.12c1.79,0.2,2.77-2.35,1.31-3.44 C1117.51,583.6,1115.4,585.86,1115.09,586.69z" style="transition-delay: 2090ms;"></path>
  <path d="M1116.64,557.9c-0.53,0.79-0.28,1.48,0.77,1.33c0.76-0.75,1.43-1.6,1.94-2.55 C1118.34,556.85,1117.27,556.98,1116.64,557.9z" style="transition-delay: 2100ms;"></path>
  <path d="M1121.29,552.83c-0.14,1.77-0.59,3.5-0.6,5.28C1122.08,556.88,1122.09,554.37,1121.29,552.83z" style="transition-delay: 2110ms;"></path>
  <path d="M772.18,280c0.81-1.11,1.48-2.84,0.81-4.17C772.1,276.89,771.13,278.7,772.18,280z" style="transition-delay: 2130ms;"></path>
  <path d="M445.94,352.93c-0.8-0.39-1.65-0.55-2.54-0.51C442.04,352.78,444.12,355.36,445.94,352.93z" style="transition-delay: 2160ms;"></path>
  <path d="M578.11,1.69c0.46,0.2,0.9,0.45,1.32,0.72c-1.25,0.03-1.74-0.94-2.25-1.91h-4.54 c-0.19,0.12-0.34,0.22-0.45,0.27c0.1-0.09,0.2-0.18,0.3-0.27H0.5v59.84c1.1,0.79,2.36,1.5,3.78,0.77c0.04,0.88,0.59,1.27,1.43,1.02 c-1.85-1.99,5.36-1.89,6.39-2.2c1.9-0.57,3.82,0.13,5.83-0.51c1.92-0.6,4.01-1.34,5.88-0.15c-0.94-2.36-2.11-0.8-3.86-0.71 c0.56-3.09,3.8-1.32,4.88,0.41c1.45,2.32,2.12,3.19,1.86,6.12c-0.13,1.45,4.41,1.64,5.31,2.09c1.6,0.8,0.56,4.01,2.5,5.11 c-1.75,1.36,0.58,3.78,2.24,3.47c-1.41,0.83,0.18,2.51,1.42,1.62c0,0.54,0,1.08,0,1.62c1.12-0.61,2.6,0.44,2.13-1.42 c0.54,0.69,1.19,1.27,1.94,1.73c0.17-0.72,0.07-1.4-0.3-2.03c0.5,0.73,0.95,1.54,1.62,2.14c0.22-1.41,0.38-1.48,0.5-0.24 c0,0.04,0,0.08,0,0.12c0.38,0.73,0.34,1.45-0.09,2.15c2.32,1.07,3.86-3.42,6.2-3.15c-1.3,1.01-6.45,4.42-2.05,6 c1.3,0.47,1.38,2.45,2.47,3.25c1.37,1,3.07,1.68,4.58,2.46c1.51,0.79,3.23,1.62,4.97,1.7c1.42,0.07,1.91-1.1,3.16-1.52 c1.47-0.49,2.7-0.79,4.22-0.7c1.41,0.07,0.64-1.62,1.36-2.34c1.44,1.29-0.26,2-0.92,3.05c-0.62,1.01-0.46,2.37-1.33,3.26 c-1,1.01-5.94,3.84-7.01,2.34c-0.2,1.4-2.2,1.86-3.28,1.28c-0.57-0.3-0.6-1.75-1.36-1.65c-2.76,0.39-0.37,3.52,0.48,4.44 c3.2,3.49,7.28,6,10.02,9.98c1.84,2.67,5.52,5.59,8.63,6.6c3.08,1.01,5.98-0.88,8.53-2.41c1.44-0.87,2.86-1.92,4.45-2.51 c1.3-0.49,0.93-1.81,1.6-2.76c1.89-2.67,0.66-4.55-2.22-5.43c0.23-0.76,0.83-1.23,1.64-1.01c-0.28-0.33-0.56-0.67-0.82-1.02 c1.17-0.37,2.16-0.79,2.12-2.16c-0.03-1.03-1.03-1.14-0.9-1.8c-0.03,0.15,1.34-0.12,1.43-0.81c0.78,1.38,3.7,1.89,5.08,1.53 c-0.89,1.35-2.27-0.02-3.15,1.32c-1.02,1.58,0.63,2.56,2.03,1.93c-4.13,2.99,2.01,4.55,4.68,2.55c-0.67,1.29-4.33,1.97-4.49,3.06 c-0.11,0.74-0.3,1.51-0.53,2.22c-0.37,1.11,1.8,1.56,0.54,3.05c1.01-1.16,1.28-1.12,0.82,0.1c1.36-1.73,2.07,2.95,2.21,3.3 c1.07,2.74-0.53,5.53-1.07,8.21c-0.35,1.71-0.29,3.36,0.21,5.03c0.2,0.63,1.89,2.64,1.49,3.12c-0.77,0.93,0.57,1.52,1.7,2.1 c-1.32-0.36-1.36,2.47-0.48,3.88c0.62-0.6,0.93-1.38,1.02-2.24c0.28,1.06,1.06,2.47-0.41,3.05c0.67,0.55,0.98,1.27,0.92,2.13 c-0.34-0.28-0.68-0.55-1.01-0.81c-0.68,1.73,1.12,2.68,1.52,4.17c-2.48-1.36,0.33,2.28,0.71,2.74c-2.03-0.79,0.19,3.27,0.58,4.49 c0.59,1.88,1.69,3.55,2.01,5.5c0.34,2.09,1.48,4.07,1.48,6.19c0,2.03,0.52,4.05,1.14,5.97c0.89,2.76,2,5.6,3.7,7.99 c0.7,0.99,1.71,1.27,1.67,2.17c-0.02,0.88,0.73,2.15,1.63,2.38c-1.81,0.21-0.4,0.62,0.06,1.5c0.45,0.86,0.74,1.8,1.09,2.7 c0.4,1.01,1.07,2.59,2.3,2.46c-1.64,0.63,1.05,2.13,1.63,2.91c1,1.34,0.56,3.95,2.45,4.58c-1.7-0.61-0.24,1.81,0.16,2.76 c0.52,1.25,1.05,2.45,1.54,3.73c0.74,1.93,1,3.8,1.46,5.85c1.29,5.77,3.88,11.32,7.62,15.93c-0.33,0.48,5.61,10.14,5.98,11.11 c0.96,2.58,1.83,5.21,2.92,7.74c0.61,1.42,1.37,1.82,1.23,3.14c-0.06,0.56,0.81,3.08,0.76,0.48c0.09,1.33,1.21,1.93,1.73,3.06 c0.6,1.3,0.21,2.83,0.72,4.17c-1.47-0.19-1.09-5-1.33-2.55c-0.04-1.03-0.27-2.07-0.82-2.95c-0.63,2.47,0.38,5.11,1.31,7.36 c0.67,1.58,1.4,5.33,3.27,4.65c-2.12,0.54,4.53,7.56,5.4,8.34c1.87,1.69,3.29,2.8,5.79,1.69c1.58-0.71,3.47-1.74,4.42-3.25 c1.89-2.99,0.09-6.68,4.03-8.62c3.02-1.49,7.69-3.29,10.49-0.41c-0.33-0.28-1.4-2.13-1.9-1.92c-0.73,0.29-1.66,0.38-2.4,0.06 c-2.84-1.2-0.88-4.83,0.11-6.48c0.52-0.85,2.14-1.94,1.56-3.04c-0.39-0.74,0.13-1.53,0.45-2.19c0.63-1.26,2.11-0.73,3.14-0.46 c0.49,0.13,3.3,0.57,0.55-0.32c0.7,0.15,1.41,0.25,2.13,0.3c0.09-2.71-0.53-5.4-0.5-8.12c0.01-1.66,0-3.56-1.14-4.9 c-0.37,0.24-0.7,0.5-1.02,0.81c1.84-2.1,0.65-5.74,1.45-8.25c1.01-3.23,3.03-5.83,3.54-9.26c0.29-1.92,1.24-6.54,0.13-8.31 c-0.6-0.97-1.47-1.03-2.35-1.58c-0.69-0.43-0.72-2.84,0.19-0.97c-0.16-2.61,1.41,0.56,1.74,1.22c-1.09-3.83-1.86-6.95-1.92-10.89 c-0.03-2.3-0.95-4.73-1.74-6.98c-0.97-2.72,0.71-6.46,2.01-8.91c0.88-1.67,5.87-3.62,5.12-0.18c0.35-1.05,1.05-2.11,0.6-3.26 c0.41,1,0.43,2.1,1.53,2.64c-0.1-1.2,1.26-3.48,1.6-4.76c0.31-1.17,0.47-2.17,1.85-2.24c3.39-0.17,8.03,0.18,9.57-3.75 c0.77-1.98-1.54-2.42-0.81-4.15c0.45-1.07,1.38-2.21,2.24-2.99c0.89-0.8,8.85-4.52,7.21-5.5c2.48-1.13,2.76-4.48,5.27-5.63 c2.93-1.33,4.78-4.01,6.34-6.71c1.55-2.67,2.68-5.32,4.9-7.49c1-0.96,2.59-3.67,3.62-3.97c-0.57-1.1-2.13,1.08-2.34,1.73 c-0.57-1.74,0.93-4.19,2.63-4.78c1.66-0.57,1.36,1.97,0.32,2.54c3.32-0.47,6.49-1.97,9.46-3.45c-0.96-0.52-2.31-1.07-2.65-2.24 c2.37,3.09,3.1,0.11,5.05-1.43c1.63-1.29,0.3-1.4,0.82-2.76c0.34-0.9,1.45-1.46,2.17-2.02c-1.16-1.1-2.55-5.91-2.27-7.39 c0.41-2.17,2.95-3.14,4.82-3.7c3.5-1.05,5.22-2.3,7.07-5.4c1.64-2.74-1.85-2.33-2.19-4.47c0.81,2.14,2.9,1.63,3.15,4.27 c0.16,1.72,0.13,4.43,1.52,5.7c0.22-0.43,0.29-0.85,0.25-1.26c0.38,0.9-0.17-1.72,0.81-0.34c0.15,0.28,0.32,0.55,0.51,0.81 c0.61,0.4,0.28-3.23,0.27-3.38c1.3,0.97,0.77,3.14,1.21,4.48c0.34-2.03-1.41-6.77,0.51-8.24c-0.53,1.04,0.16,2.07-0.1,3.15 c1.1-0.9,0.06-1.87,1.02-2.34c0.05,1.61-0.84,3.54-0.1,5.09c0.7,1.46,1.54,0.49,1.72-0.61c0.03,0.83,1.21,2.13,2.09,1.4 c0.83-0.68-1.56-3.36-1.87-4.04c0.42,0.22,0.82,0.46,1.22,0.71c0.24-0.47,0.35-0.96,0.39-1.47c0.52,1.8,2.16,3.19,2.06,4.92 c0.76-0.74,1.43-2.95,1.02-3.97c0.74,0.96,0.21,2.15,0.8,3.15c2.04-2.06,0.02-5.09,0-7.12c0.16,1.25,0.71,2.43,1.23,3.55 c0.01-0.03,0.01-0.07,0.02-0.1c0.02,1.55,0.23,2.96,1,2.95c-0.02-0.65,0.02-1.29,0.11-1.93c0.49,0.73,1.67,1.38,2.09,0.18 c0.48-1.33-0.88-1.4-0.31-2.5c0.79-1.51-1.17-3.59,1.06-4.5c-0.82,2.07-0.55,3.83,0.1,5.9c0.45-0.64,0.89-1.28,1.31-1.93 c-0.32,0.6-0.52,1.25-0.6,1.93c0.81-0.7,1.68-1.4,2.25-2.33c-0.21,1.6-2.26,2.26-1.74,4.07c0.31-0.29,0.62-0.6,0.92-0.92 c-0.94,1.54,1.32,2.32,1.69,0.41c0.3-1.62,0.78-3.01,0.55-4.68c0.38,0.63,0.48,1.31,0.31,2.03c2.59-0.5,2.29-4.18,0.7-5.59 c-0.29,0.32-0.56,0.67-0.8,1.02c0.07-1.35,0.68-3.22-1.23-3.25c0.88-1.14,1.46-2.29,0.4-3.56c0.77-0.34,1.79-1.02,1.25-2 c-0.79-1.43-2.77-2.08-4.1-2.88c0.51,0.13,1.99,0.66,2.81,0.76c1.66,0.21-0.12-2.07-0.57-2.39c0.58,0.27,1.12,0.2,1.63-0.21 c-0.09,0.37-0.16,0.74-0.2,1.12c0.56-0.06,0.85-0.07,0.99-0.07c-0.19,0.43-0.91,0.77-0.72,1.39c0.36,1.09,0.94,1.44,0.9,2.73 c-0.1,0.77,0.04,1.49,0.44,2.16c0.43,0.57,2.68,5.86,4.12,5.03c0.19-0.33,0.18-0.69-0.04-1.06c0.44,0.78,1.25,1.21,2.13,0.92 c-0.13-0.41-0.04-0.78,0.25-1.1c0.73-0.87,2.2-1.36,2.29-2.67c-0.24,3.14,3.34,5.44,4.27,8.24c-0.01-0.82,0.38-1.82,1.03-2.34 c-2.52,3.39,1.99,6.89,2.43,10.17c0.24,1.77,0.31,2.85,0.85,4.66c0.51,1.71,2.25,3.58,3.21,5.1c0-0.07-0.01-0.16-0.03-0.27 c0.37,0.77,0.82,1.42,1.48,1.78c1.62,0.89,3.03,2.41,3.54,4.29c0.69-1.01,0.08-2.11-0.1-3.15c0.61,0.91,2.04,1.94,1.86,3.18 c-0.15,1.07-0.78,1.82,0.59,2.41c0.83-1.67,0.71-3.58,1.42-5.29c-0.2,0.78-0.2,1.55,0,2.33c0.13-0.15,0.3-0.26,0.5-0.3 c-0.32,0.7-0.62,1.42-0.9,2.14c0.48,0.02,0.95-0.01,1.42-0.1c-1.06,1.97-0.4,3.01,0.8,4.68c-0.45-0.61-0.58-1.3-0.4-2.04 c0.38,0.73,0.79,1.44,1.23,2.14c-0.36-1.13-0.95-2.17-1.43-3.26c1.36,0.58,2.18-0.27,3.16,0.94c0.51,0.65,1.8,1.75,2.74,1.3 c0.05,0.73-0.05,1.44-0.3,2.13c0.8,0.18,1.62,0.29,2.44,0.31c-1.83,1.3,1.25,2.47,1.94,3.39c1.22,1.61-0.47,2.31-1.8,1.93 c-0.58-0.17-1.42-0.37-1.73-0.95c-0.42-0.78-1.67-0.2-1.28,0.37c1.45,2.08,2.95,4.63,5.41,5.64c0.6-1.19-0.03-3.1-0.82-4.07 c1.71,1.21,1.29-0.98,1.12-1.93c0.7,1.15,0.62,3.26,0.62,4.56c0,1.75,1.44,2.04,2.64,2.87c-1.72,0.34-0.05,1.09,0.57,2.35 c0.41,0.84,0.78,1.76,1.42,2.47c1.51,1.66,1.2,4.75,2.12,6.78c0.72,1.58,2.37,5.61,0.85,7.04c-0.6,0.57-0.27,3.74-0.56,4.82 c-0.3,1.07-2.15,10.75,0.14,9.83c1.58-0.64,3.89-4.43,3.09-6.13c0.21,0.02,0.4,0.02,0.61,0c-0.28,2.36,0.41,4.95-1.11,7.02 c1.41-0.15,1.64-1.64,2.23-2.64c-0.31,1.14-0.48,2.43-1.72,2.95c0.3,0.42,0.67,0.75,1.11,1.02c0.75-1.36,1.16-4.41,2.64-4.99 c-0.83,0.44-1.66,5.03-0.7,5.88c2.02,1.76,1.43-5.33,2.94-4.34c-1,0.77-0.65,3.54,0.62,4.17c-0.08-0.96,0.09-1.88,0.51-2.75 c-0.69,3.21,0.64-1.63,0.7-1.73c0.28,1.05-0.95,4.57,0.38,5.07c2.56,0.97,3.8-4.32,3.39-5.88c1.22,1.2,4.51-0.87,2.85-2.03 c1.55,1.6,3.35-0.36,2.61-2.07c-0.54-1.24-2.28-2.71-0.27-3.22c-1.28,1.57,0.71,3.91,2.45,3.76c1.68-0.14,2.53-1.95,3.19-3.25 c0.92-1.8-0.13-3.56-0.1-5.29c0.01-0.5-0.35-2.69-0.15-2.95c0.31,1.02,1.26,1.61,2,2.29c0.86,0.78,0.66,2.25,1.66,1.58 c0.15,2.57,1.35,4.78,2.89,6.78c0.84,1.1,2.81,0.32,3.94,0.14c-1.75,0.69-0.8,3.3-0.73,4.63c0.03,0.73-0.34,1.55-0.01,2.24 c0.37,0.78,1.13,1.24,1.44,2.08c1.6,4.36,1.21,9.26,2.96,13.62c0.34-0.21,0.68-0.41,1.02-0.61c0.24,0.34,0.41,0.71,0.51,1.12 c-2.4-1.32,1.49,5.37,1.73,6.31c0.25,1,0.28,2.79,0.38,3.88c0.1,1.16,1.14,2.23,0.75,3.45c1.11-1.33,0.44-4.65-0.1-6.1 c1.16,1.56,1.25,3.62,2.1,5.33c0.9,1.79,2.02,3.56,2.78,5.41c0.72,1.76,1.43,3.74,1.75,5.61c0.19,1.13-0.57,2.35,0.69,2.77 c-1.46,0.33-0.82,1.43,0.1,1.93c-0.46,0.32-0.97,0.53-1.53,0.61c0.28,0.8,0.99,1.24,1.84,1.02c-1.92,1.07,1.54,2.85-0.82,3.97 c2.06-0.21,0.06,0.59,0.32,2.03c0.82-0.21,1.53-0.74,2.03-1.42c-0.01,0.55,0.13,1.06,0.41,1.53c-1.77-0.01-1.17,3.24-0.97,4.22 c0.42,2.06,0.18,4.17-0.92,5.93c-0.51,0.81,0.3,1.21-0.76,1.86c-0.87,0.54-0.4,1.29-0.19,2.17c0.5,2.15,0.33,4.96,1.54,6.87 c0.03-0.05,0.05-0.1,0.08-0.15c-1,4.71-2,9.52-2.75,14.27c-0.38,2.45-1.07,7.54,2.34,8.24c0.43-0.97-0.13-2.21,1.22-2.54 c1.27-0.32,1.74,1.04,2.14,1.93c0.25,0.55,0.1,1.86,0.9,2c1.27,0.24,1.17,0.15,2.02,1.36c0.57,0.8,0.37,1.15,0.49,2.11 c0.13,1.05,1.47,0.22,2.13,0.86c1.01,0.97,0.85,2.74,1.55,3.9c0.54,0.91,1.79,1.22,1.67-0.26c1.18,0.73,0.21,4.5,2.64,3.05 c-2.88,3.06,4.3,5.76,4.47,8.64c0,0,0,0.01-0.01,0.01c1.15,2.76,3.04,5.22,3.05,8.33c0.01,2.13-0.27,7.42,1.09,9.1 c1.55,1.91,2.91,4.68,1.98,7.24c-0.48,1.32,1.32,5.07,3.13,4.82c-3.06,0.99-0.39,1.66,0.11,2.89c1.02,2.54,3.84,4.28,4.96,6.79 c0.35,0.8,1.16,2.54,0.54,3.4c-0.54,0.77-0.75,0.96,0.25,1.66c1.06,0.73,1.64,1.92,2.95,2.27c0.84,0.23,1.55,0.31,2,1.16 c0.66,1.23,2.55,3.05,3.74,3.91c1.18,0.85,2.88,0.82,3.96,1.81c0.67,0.62,1.2,1.33,1.89,1.93c2.71,2.29,7.24,3.32,8.39,7.05 c1.08-0.53,3.86-2.42,5.05-1.56c1.18,0.85,0.38-2.01,0.24-2.31c0.35,0.77,1.08,1.25,1.94,1.23c-2.22,1.55,2.62,3.9,1.55-0.39 c-0.8-3.19-2.87-5.84-3.71-8.99c-0.71-2.66-3.69-3.84-4.99-6.04c-1.68-2.84,0.05-6.28-0.9-9.11c-0.64-1.89-1.01-2.05-0.61-4.15 c0.29-1.48,0.49-3.16,0.56-4.67c0.19-3.93-1.04-7.41-2.81-10.83c-1.75-3.4-4.33-5.56-7.27-7.92c-1.18-0.94-1.52-2.37-2.38-3.55 c-0.86-1.18-2.78-1.71-4.08-2.12c-0.41-0.58-1.07-1.09-1.87-1.76c-1.68-1.4-2.04-3.82-3.77-5.15c-1.57-1.2-3.56-0.49-5.35-0.54 c-2.43-0.07-2.72-1.52-4.19-2.9c-0.63-0.6-1.59-0.37-2.24-0.96c-0.79-0.72-1.51-1.4-2.12-2.28c-0.51-0.74-2.47-3.63-1.16-4.56 c1.83-1.27,2.16,6.13,3.85,6.44c-0.03-2.44-1.16-4.86-1.89-7.15c-0.82-2.56-1-5.32-2.08-7.8c-1.77,2.82-3.48-5.91-3.62-7.13 c-0.41-3.69-2.08-3.66-4.8-2.22c-0.77,0.41-3.45,0.08-2.72-1.39c0.63-1.3-0.18-2.16-0.74-3.43c-1.16-2.69,0.79-6.81-1.05-9.03 c1.63,0.24,0.81-2.11,1.2-2.97c1.08-2.4,1.47-4.28,2.03-6.88c0.46-2.14,0.66-4.96,1.93-6.79c0.68-0.98,0.3-2.17,0.9-3.15 c0.48-0.81,1.19-1.53,1.37-2.48c0.46-2.41-1.33-4.65-0.87-7.05c0.43-2.26,1.2-3.63-0.01-5.79c-2.43-4.34,6.04-1.87,5.56-4.66 c0.41,1.39,3.36,2.21,4.48,1.32c0.25,1.21-0.7,2.23-0.53,3.52c0.13,0.94,0.17,1.9,0.26,2.84c0.17,1.61-1.29,4.33,1.33,3.68 c1.34-0.32,2.84,0.39,4.12,0.65c1.06,0.21,1.96-0.54,2.83-0.95c1.82-0.83,3.27,3.08,3.27,1.15c0.46,1.05,3.05,4.44,3.05,2.24 c0.28,0.68,0.79,1.15,1.53,0.71c-2.67,1.78,1.89,2.41,2.44,3.76c-0.02-0.61-0.05-1.22-0.1-1.83c2.04,0.61,1.93,2.5,2.76,4 c0.54,0.99,1.57,1.67,1.6,2.9c0,0,0,0.01,0,0.01c0,0,0,0,0,0c0,0,0,0.01,0,0.01c0,0,0-0.01,0-0.01c0.18-0.82,0.72-1.23,1.53-0.8 c-1.91,0.25-0.28,2.1,0.47,2.63c1.09,0.76,0.05,2.26,0.36,3.31c0.34,1.15-0.51,3.38,0.89,4.07c0.93,0.45,1.54-0.79,2.56,0.06 c0.26-0.83,0.45-4.25,2.08-2.94c0.92,0.73,2.11,3.53,1.13,4.57c-0.85,0.89-2.16,1.17-0.72,2.47c1.1,0.98,3.18-0.05,2.79-1.56 c0.7,1.43,3.58,1.84,4.99,2.44c0.45,0.19,0.77,0.24,1.04,0.21c-0.02,0.01-0.04,0.02-0.06,0.02c0.4,0.67,1.21,1.09,1.36,0.48 c-0.72,3.41,6.9,2.82,6.91,6.81c-0.38-2.48-2.17,0.98-2.44,1.79c-0.4,1.21-0.49,2.5-0.48,3.77c0.02,2.57,0.55,5.11,0.48,7.68 c0.45-0.14,0.89-0.31,1.32-0.51c0.09,0.46,0.23,0.9,0.41,1.32c-0.83,0.15-1.51,0.56-2.04,1.23c1.71,1.61,4.41-0.65,5.46-2 c1.53-1.99,1.61-3.86,4.1-5.1c1.48-0.74,4.6-1.24,5.13-3.08c0.2-0.69,0-1.4-0.41-2.12c0.33,0.41,0.75,0.73,1.28,0.89 c-0.73-0.66-1.4-1.42-1.94-2.25c1.46,1.51,3.01,2.8,4.16,2.17c3.35-1.83-4.11-6.83-4.56-8.46c2.08,1.59,3.39,4.07,5.89,5.09 c0.32-0.5-0.46-1.53-1.43-2.56c0.05,0.04,0.1,0.1,0.15,0.13c1.41,0.99,1.48-0.95,2.71-1.14c-0.82-1.61-2.9-1.41-4.17-2.45 c0.73,0.03,4.39,1.04,3.91-1.01c-0.38-1.6-2.01,0.12-2.38-1.02c1.58,0.37,2.08-1.21,1.73-2.44c-0.02,0,2.26,0.71,1.12,0.71 c0.88,1.32,1.05,1.38,0.52,0.21c0.31,0.51,0.55,1.05,0.71,1.63c0.14-0.72,0.28-1.43,0.41-2.14c0.14,1.81,2.02,1.76,2.74,3.16 c0.78-0.98,2.86-1.68,3.92-2.48c0.79-0.59,2.53-1.87,3.56-1.52c0.36,0.12,1.07-2.16,1.54-2.47c1-0.66,2.19-1.15,3.34-1.49 c0.69-0.21,0.98-1.52,1.88-1.89c0.65-0.41,1.27-0.87,1.86-1.36c2.08-1.06,1.33-1.12,1.86-3.03c0.09-0.31,1.45-0.76,1.77-1.68 c0.3-0.87,0.24-1.71-0.9-1.68c0.3-0.99,0.84-2.04,0.21-3.05c0.4,0.62,0.59,1.29,0.6,2.03c0.51-1.23-0.41-5.58-1.32-6.41 c0.72,0.17,1.39,0.44,2.03,0.82c-0.63-1.32-2.43-3.66-0.52-4.78c0.24,0.78,0.65,1.46,1.22,2.04c0.11-0.85,0.09-3.65-0.24-4.21 c-0.83-1.38-1.32-2.43-1.75-3.98c-0.3-1.08-1.82-2.02,0.07-2.28c-0.66-0.6-1.16-1.32-1.52-2.14c1.58,2.43-0.04-1.57,0-2.95 c0.64,2.46,0.59-0.1,0.49-0.58c-0.23-0.99-0.68-1.93-1.09-2.85c-1.03-2.29-1.53-4.76-2.5-7.05c-0.72-1.68-2.18-3.29-2.59-5.1 c-0.22-0.97,1.12-0.44,0.24-1.71c-0.55-0.81-0.87-2.29-1.57-0.52c-0.15-2.08-8.52-7.52-5.8-9.87c-1.81-0.96-0.43,1-1.33,1.63 c0.95-1.04-2.47-5.58-4.16-3.56c-1.26-1.89-2.99-3.19-4.9-4.37c0.45,0.14,0.89,0.31,1.33,0.51c-0.87-0.94-3.33-4.05-4.89-3.15 c1.19-2.47-3.41-4.73-4.86-5.9c-1.99-1.59-3.19-4.76-5.73-5.19c0.8,0.05,1.51,0.32,2.14,0.82c-0.5-1.74,0.14-3.2-1.32-4.56 c-1.01-0.95-2.16-1.78-3.3-2.57c-1.19-0.83-2.23-1.73-3.11-2.9c-0.66-0.87-1.02-3.26-1.63-1.67c-0.15-2.31-2.83-2.88-1.45-5.39 c1.22-2.22,0.22-3.81,0.45-6.17c0.16-1.71,0.71-4.27,2.43-5.13c0.69,0.88,3.86-2.59,3.97-3.36c-0.14,0.05-0.28,0.05-0.41,0 c1.03-0.72,0.77-3.42,0.31-4.37c0.39,0.24,2.44,0.26,1.87-0.67c-0.68-1.11-1.36-1.63-0.46-2.69c-0.54-0.24-1.02-0.58-1.41-1.01 c1.29-0.45,1.65,1.22,2.54,1.73c0.05-0.57,1.48-2.19,2.54-1.94c-1.66,1.89,1.64,0.88,2.23-0.17c0.6-1.08-0.69-2.57,0.95-2.83 c1.53-0.24,1.89-1.58,3.02-2.52c1.25-1.04,2.72,1.27,3.94,0.2c0.2-0.11,0.31-0.24,0.33-0.37c0,0.01,0.01,0.01,0.01,0.02 c0.8-0.44,1.21-1.26,0.81-2.14c0.58-0.06,1.98,1.64,2.39,0.91c0.85-1.53-1.44-2.46-1.17-3.96c0.17,1.45,0.5,0.42,0.82-0.3 c0.82,0.32,1.07,1.02,0.51,1.73c1.23-0.31,1.81,2.05,3.05,2.24c-0.44-0.61-0.6-1.3-0.51-2.04c0.38,0.08,0.75,0.18,1.11,0.31 c-1.56,2.14,1.08,0.97,1.82,1.52c0.63,0.47,0.9,4.79,2.15,1.93c0.76,1.38,2.76-0.35,3.35-1.02c-0.84-0.39-1.21-1.18-0.71-2.03 c0.7,0.95,1.49,3.28,3.05,2.95c-0.15-0.38-0.32-0.75-0.51-1.12c0.8,0.73,3.78,1.47,1.68,2.75c-1.38,0.83-0.14,1.55-1.13,2.59 c-0.51,0.53-0.29,3.37,0.47,3.46c1.19,0.13,0.3,2.17,1.73,1.99c-1.24,2.38,1.87,2.03,2.24,3.76c-1.83-0.94-0.63,0.7-0.72,1.73 c1.69-0.8,5.75,0.67,5.97-2.33c0.13-1.77-2.36-2.7-2.51-4.49c0.78,2.32,1.07,0.15,0.1-0.19c-0.7-0.24-1.78-0.28-2.15-1.04 c-0.65-1.33,0.93-2.09,1.66-2.82c1.03-1.05-0.54-1.8-0.02-2.97c1.32,1.03,0.55,2.6,2.76,1.94c-0.61-1.03,0.05-2.05,0.9-2.64 c-0.37,0.5-0.67,1.04-0.9,1.62c0.81-1.17,2.64-1.59,3.93-1.89c1.03-0.24,2.92-1.19,2.17,0.36c0.78-0.31,1.29-1.06,1.53-1.83 c1.5,2.14,4.84-1.34,2.54-2.24c1.32-0.07,3.76,1,1.93-1.32c0.79,0.23,4.65,2.93,5.12,1.44c0.37-1.18-0.5-2.4-0.33-3.58 c-0.1,0.93,0.45,1.35,1.33,1.02c-1.25,1.16,0.98,3.02,1.62,2.15c0.05-0.06,0.09-0.13,0.14-0.19c0.69,2.17,2.5,3.93,5.45,3.93 c6.08,0,7.35-7.48,3.81-10.61c-0.37-1.95-2.34-4.42-3.29-5.05c0.3,0.16,0.55,0.16,0.78-0.02c-0.11-0.69-2.24-1.48-2.81-1.71 c1.52,0.52,3.89-1.23,1.63-2.14c1.58,0.71,2.9-1.5,4.48-0.4c-1.21-0.22-2.38-0.03-3.05,1.11c0.86,0.71,0.81,1.92,1.21-0.1 c-0.41,3.14,3.25,3.93,3.45,6.85c-1.36,3.53,0.41,8.4,5.32,8.4c5.56,0,7.09-6.28,4.59-9.74c1.02,0.11,1.96-1.15,0.26-1.74 c0.79,0.55,3.13-0.86,3.77-1.73c-0.14,1.43,0.95,1.31,2.12,2.11c0.38,0.26,1.24,0.8,1.62,0.16c0.62-1.06-1.71-2.22-1.9-3.08 c1,0.47,2.17,0.89,3.05-0.1c-1.31,2.54,4.57,1.72,3.05,0.1c1.04,0.6,2.9,0.19,3.97-0.14c1.64-0.5,0.91-2.08,1.32-3.32 c0.93,1,0.84-1.5,2.15,0.1c-0.32-1.51-1.78-1.48-2.95-1.94c1.96,0.29,2.87-0.17,3.08-2.12c0.19-1.78,0.84-1.29,1.8-0.34 c1.11,1.08,1.92-2.47,2.14-2.73c1.08,0,3.15-2.15,3.25-0.1c0.01-1.08,0.71-2.05,0.3-3.15c1.06-0.24,1.37,0.14,0.91,1.12 c1.29-0.79,0.73-2.16,1.56-2.86c0.53-0.46,1.22-0.46,1.51-1.21c-0.83-0.03-1.22-0.51-1.02-1.32c-1,0.35-2.02,0.06-2.73-0.71 c0.78-0.16,1.57-0.12,2.34,0.1c-1.15-1.62,0.75-0.91,1.52-2.03c0.73,1.58,2.49,0.73,2.84-0.61c0.56,0.63,1.13,1.24,1.72,1.83 c0.55-0.75,1.55-2.51,0.39-3.25c-0.94-0.6-1.19-0.83-0.07-1.73c0,1.94,2.37,0.21,2.74-0.92c-1.65-0.07-0.43-2.15-1.82-2.64 c1.11-1.55,2.11,0.27,2.34,1.32c0-2.33,1.45,0.31,1.88-1.52c0.3-1.28-1.55-1.53-2.29-1.93c0.74-0.43,1.24-1.18,1.31-2.04 c1.1,0.43,2,1.26,2.64,2.24c0.44-1.35,0.81-1.35,1.13,0c0.6-1.86-2.15-1.92-1.61-3.7c0.33-1.08-0.05-2.78,1-3.22 c-1.29-1.95-1.82-0.32-3.38-0.07c-1.56,0.26-2.25-1.68-3.35-2.37c1.41,0.43,3.09,1.01,4.18,2.03c0.42-1.14,0.87-2.34,1.75-3.21 c0.86-0.84,2.25-0.78,0.99-2.08c-0.38,1.53-1.93,0.85-2.03-0.41c2.38,0.23,0.46-2.68-1.22-1.93c0.12-0.77-0.09-1.45-0.61-2.03 c0.84,0.39,1.61-0.06,2.03-0.82c0.21,0.83,0.74,1.54,1.42,2.03c0.27-0.56,0.64-1.03,1.12-1.42c0.46,1.09-0.04,2.2-1.12,2.65 c3.58,0.9,2.66-2.15,1.43-3.87c1.12-0.34,2.05-1.44,1.52-2.65c2.95,0.62-0.64-1.91-0.6-2.65c0.67,0.62,1.34,1.23,2.03,1.83 c-0.6-1.44,1.17,0.77,0.86-1.33c-0.15-0.98-0.17-1.64,0.86-2.12c-1.84-0.98-0.33-3.65,0.04-5.13c0.22-0.89-0.55-1.24-1.41-1.58 c2.4,0.54,4-3.35,2.38-3.57c0.69-0.31,0.73-0.45,1.12-1.12c1.36,0.57,1.43,2.34,2.75,2.95c-0.48-1.55,0.61-1.5,1.48-2.27 c0.95-0.84-0.96-2.6-1.31-3.29c-0.72-1.44-1.52-0.48-2.7-0.95c-0.84-0.34-1.25-1.49-1.94-2.03c1.3,0.56,3.42,2.37,4.94,1.44 c1.22-0.74,0-2.23-1.07-2.16c0.34-0.77,0.81-0.84,1.41-0.21c-0.19-1.36-2.15-2.6-3.46-2.33c0.5-0.67,0.84-1.42,1.02-2.24 c0.45,0.69,0.99,1.89,0.62,0c0.19,0.81,0.76,1.35,1.62,1.12c-0.05-0.69-0.15-1.37-0.31-2.03c0.66,0.55,0.58,1.78,1.31,2.25 c1.31,0.86,0.08-2.57,0.07-2.59c-0.62-1.04,0.51-2.14-0.79-2.85c-1.17-0.64-1.28,0.98-0.7,1.57c-1.12-1.02-2.32,0.23-2.95,1.12 c-0.33-0.28-0.61-0.63-0.8-1.01c0.59-0.59,1.42-0.33,2.03-0.81c0.4-0.44,0.74-0.91,1.02-1.43c0.81-0.97,1.34-1.88,2.54-2.44 c-1.75-0.41-4.64-0.7-5.94-2.01c-0.76-0.77-1.37-1.62-2.21-2.23h-4.1C580.47,1.13,579.43,1.89,578.11,1.69z" style="transition-delay: 2170ms;"></path>
</g>
<g id="map-indonesia">
  <path d="M772.58,391.28c-0.92,0.31-1.02,1.36-0.71,2.14C771.92,392.64,772.16,391.94,772.58,391.28" style="transition-delay: 10ms;"></path>
  <path d="M779.7,381.42c-1.28,0.28-1.08,2.82,0.31,2.43C780.82,383.63,780,381.78,779.7,381.42" style="transition-delay: 30ms;"></path>
  <path d="M782.14,387.92c-0.03,0.21-0.06,0.41-0.1,0.62c0.73-0.05,1.44-0.19,2.13-0.41 C783.49,388.07,782.82,388,782.14,387.92" style="transition-delay: 40ms;"></path>
  <path d="M784.9,377.75c0,1.59,2.68,3.61,3.84,1.84C789.57,378.34,785.53,377.81,784.9,377.75" style="transition-delay: 50ms;"></path>
  <path d="M786.11,389.44c-0.06,0.34-0.13,0.68-0.2,1.02c2.62,0.17,4.89,1.61,7.42,2.15 c1.07,0.23,2.22,0.71,3.33,0.41c1.25-0.33,2.65-1.08,3.98-0.83c-1.09-1.59-3.85-1.48-5.53-1.69 C792.12,390.15,789.14,389.76,786.11,389.44" style="transition-delay: 60ms;"></path>
  <path d="M804.93,471.84c-0.1,0.33-0.21,0.68-0.31,1.02c2.1-0.7,4.37-0.39,6.54-0.4 c2.12-0.01,3.38-1.1,5.01-2.35c0.72-0.55,5.17-6.03,4.27-7.14c-2.59-3.2-4.27-3.54-8.24-1.89 C808.13,462.79,806.54,468.15,804.93,471.84" style="transition-delay: 70ms;"></path>
  <path d="M817.44,472.66c0.34-0.1,0.68-0.21,1.03-0.31c-0.53-1.03-0.47-3.03-2.18-2.34 C814.01,470.93,815.82,472.61,817.44,472.66" style="transition-delay: 80ms;"></path>
  <path d="M816.94,452.12c0.05,0.81,0.56,1.33,1.31,1.53C818.18,452.87,817.71,452.29,816.94,452.12" style="transition-delay: 90ms;"></path>
  <path d="M740.53,382.13c0.33-0.8,0.19-1.51-0.4-2.14c3.17-0.81,5.81-0.98,8.27-3.26 c2.29-2.11,4.68-3.01,7.77-2.25c3.12,0.76,4.67,3.06,7.35,4.22c2.72,1.17,5.51-0.39,8.04,1.58c-1.93,1.44-0.08,3.35,0.75,4.8 c1.12,1.95-0.15,3.58-0.87,5.38c-1.84,4.61,0.9,10.11,2.97,14.14c0.71-1.04-0.26-3.37,0.91-4.14c1.65-1.08,1.44,3.77,1.46,4.23 c0.03,0.93,0.34,1.15,0.97,1.77c0.9,0.88,0.48,2.08,1.29,2.98c1.55,1.75,4.75,2.68,6.54,0.82c1.31-1.36,2.65-2.55,3.99-3.87 c1.41-1.39,1.67-3.23,3.55-4.42c1.68-1.06,1.2-5.01,3.34-5.02c2.53-0.02,3.76,0.23,6.14-1.02c1.7-0.89,1.79-1.48,1.02-3.07 c-0.59-1.22,3.15-2.95,3.9-3.36c1.89-1,3.65-1.7,5.64-0.67c2.62,1.35,5.74,2.29,8.08,4.06c1.97,1.48,4.21,2.3,6.4,3.41 c1.5,0.76,4.44,3.07,6.2,2.46c2.22-0.78,3.16,0.91,5.42,0.88c2.39-0.03,3.58,2.44,5.95,2.11l-2.29,43.77 c-0.24,2.36-2.04,4.06-1.94,6.57c0.03,1.04,1.39,1.59,1.39,2.24c0,1.58-0.27,3.2-0.39,4.77c-0.51,7.42-1.07,14.88-1.77,22.28 c-3.05-1.53-3.68-5.02-5.99-7.22c-1.15-1.09-5.51-3.86-3.46-5.78c-1.33,1.04-3.71,0.6-5.3,1.23c-1.36,0.54-3.87,0.66-3.15-1.55 c-0.67,0.83-2.41,2.39-3.56,2.4c-1.75,0.02,0.29-2.98,0.47-3.41c0.59-1.39,2.53-4.49,1.11-5.24c-1.27-0.68-1.63-2.35-2.6-3.32 c1.66-1.43,3.87,1.08,5.19-1.12c-2.3,2.29-5.3-1.32-6.91-2.74c2.12-2.45,4.56,0.41,6.71,0.5c-1.87-0.73-3.47-2.03-5.19-3.05 c2-0.36,0.28-0.97-0.38-1.67c-0.94-0.98-1.86-2.15-2.24-3.47c-0.49-1.72-2.07-4.91,0.18-5.76c-2.22,0.82-2.35-1.58-0.31-1.94 c-0.76,0-2.65,1.21-3.26,0.31c-0.71-1.06,0.72-2.47,0.2-3.66c-0.65,2.61-2.58-1.55-3.43-1.92c-1.45-0.63-1.54-0.99-2.65-1.5 c-0.85-0.39-2.92-0.97-3.44-1.83c-0.7-1.19-5.08-1.29-6.44-2.11c-2.13-1.3-4.6-2.71-6.99-3.47c-2.3-0.74-5.7-0.06-7.7-1.05 c-1.8-0.88-4.19-2.11-4.94-4.1c-0.7-1.85,2.25-1.56,3.26-1.73c-1.23-0.37-2.78-1-3.76,0.24c-1.11,1.4-1.84-0.75-2.85-1.06 c-0.02,2.09-3.27,0.55-1.73-0.9c-2.23,0.02-3.09,0.04-3.66-2.66c-0.1,0.78-0.53,1.43-1.16,0.62c-0.9-1.15-0.19-1.85-0.29-3.05 c-0.19-2.18,1.98-3.41,2.07-5.61c-0.54,1.15-2.45,1.55-2.45,2.98c0,1.27,0.11,3.26-1.72,3.14c1.59,0.72,0.33,1.54-0.19,2.43 c-0.36,0.32-0.7,0.66-1.02,1.02c-0.05,0.68-0.09,1.36-0.11,2.04c-0.5,1.44-3.44,2.97-4.97,2.54c-1.35-0.38-2.15-3.55-2.19-4.73 c-0.03-0.8,1.03-0.88,1.58-1.13c1.45-0.68-0.78-2.49-0.41-3.69c-1.75,1.05-3.93-4.6-6.37-4.69c-3.81-0.16-1.76-2.77,0.97-3.05 c2.85-0.29,4.91,2.53,6.87-0.77c1.48-2.48,5.99-3.26,4.83,0.77c0.31-0.69,0.54-1.4,0.7-2.13c0.41,1.95,2.65-0.46,2.56,1.62 c0.31-1.7,0.89-0.75,1.32,0.11c0.41-0.89,0.48-2.04-0.32-2.75c0.7,0.15,1.39,0.08,2.05-0.2c-0.59-0.7-0.56-1.38,0.1-2.03 c-2.18,1.62-0.5-1.16-0.1-1.62c-2.33,0.2-3.59,1.68-6.1,1.29c-1.56-0.24-3.64,1.23-4.98,0.74c-1.66-0.61-2.36,0.52-3.66-0.77 c-0.45-0.45-1.73,0.38-2.16,0.4c-1.44,0.09-2.58-1.22-3.66-1.97c0.27-0.34,0.54-0.68,0.82-1.02c-1.15,0.2-2.19-1.14-1.77-2.23 c0.16-0.41,0.7-0.96,0.62-1.43c-0.2-1.21-2.07,0.75-0.79-1.42c-1.04,0.2-1.3,0.22-1.22-0.92c-1.47,2.13-4.32-1.59-5.6-1.53 c1.22,1.6-1.69,1.36-2.44,0.84C736.13,386.21,740.15,383.56,740.53,382.13" style="transition-delay: 100ms;"></path>
  <path d="M362.84,340.83c0.45,0.31,2.05,0.48,1.8-0.6c-0.12-0.52-1.88-1.6-2.3-2.02 c-0.52-0.53-1.15-1.01-1.95-0.84c0.41-1.13-1.14-1.98-1.93-2.35c-0.41-0.18-0.76-1.03-1.31-0.57c-1.02,0.84-1,1.7,0.02,2.58 C358.87,338.51,361.87,338.53,362.84,340.83" style="transition-delay: 110ms;"></path>
  <path d="M610.54,433.09c-0.48,1.72,0.44,3.29,0.19,4.99c1.58-0.73,2.49,2.3,4.26,0.98 c1.21-0.9,1.23-1.07,2.79-0.89c1.46,0.17,2.44-1.51,3.85-0.41c-0.13-2.39-2.03-4.45-1.15-6.9c1.06-2.99,1.64-4.94,1.27-8.22 c-0.31-2.74,0.3-4.9,0.55-7.57c0.11-1.22-0.01-2.43,0.12-3.65c0.22-2.05-0.7-2.05-1.21-3.78c-0.98-3.37,4.85-6.13,7.41-5.33 c2.31,0.73,1.59,5.88,0.38,7.23c-3.41,3.79,2.36,8.1,5.62,9.85c1.38,0.74-2.09,5.93-0.68,8.05c0.75,1.14,3.26,1.72,4.54,1.9 c1.58,0.23,1.18-2.32,1.35-3.23c0.4-2.03,3.27-1.66,4.7-2.24c0.85-0.35,4.29,1.41,2.3-1.07c1.55,2.62,3.63-2.69,0.92-3.46 c-0.49,2.49-1.15-0.94-2.45-0.92c0.27-0.38,0.54-0.75,0.82-1.12c-1.12-0.04-2.51-1.51-3.15-2.33c-1.05-1.34,0.32-2.44-0.62-3.77 c0.51,0.13,1.02,0.23,1.53,0.31c-1.18-0.71-0.85-2.43,0.62-2.35c-0.27-0.52-0.63-0.98-1.07-1.37c-0.81-0.89-0.22-1.84-0.77-2.81 c-0.46-0.81-1.52-0.87-2.03-1.62c-0.58-0.85-0.76-2.22-1.24-3.17c-0.72-1.43-1.31-2.83-2.83-3.57c-1.23-0.6-1.82-3.19-3.46-2.42 c0.07-0.88,0.1-1.76,0.1-2.64c1.72,1.45,3.08,2.79,4.82,0.38c1.51-2.09,3.09-2.12,5.22-3.31c2.93-1.63,5.08-8.5,8.92-8.38 c1.09,0.04,1.29,3.2,2.56,1.87c0.76-0.8,2.2-2.84,1.43-3.97c-1.28-1.89-6.26-1.3-7.79-0.04c0.83,0.09,1.54,0.43,2.13,1.02 c-2,0.07-7.76-1.33-8.46,1.25c-0.47,1.74-5.7,1.67-5.37-0.75c-1.74,1.07-3.55,2.84-4.43,4.71c-0.95,2.02-1.39,3.22-3.74,2.71 c-1.54-0.33-2.99-0.74-3.41-2.48c-0.21-0.87-0.29-1.76-0.78-2.54c-0.88-1.45-1.48-0.27-2.47-0.99c-3.16-2.29-3.3-9.44-1.94-12.62 c0.79-1.81,2.09-3.86,3.89-4.82c1.49-0.8,5.13,0.52,6.69,1.08c1.1,0.4,3.21-0.53,4.19-0.98c2.03-0.94,2.6,0.51,4.57,0.8 c2.19,0.33,5.11-0.86,7.46-0.8c2.81,0.07,4.61,0.23,6.85,1.86c2.79,2.01,11.48,0.65,13.75-2.01c1.56-1.82,2.11-3.87,3.99-5.56 c2.03-1.82,1.93-4.9,4.11-6.53c-0.77-0.49-1.2-1.34-0.92-2.24c-0.8,0.2-1.92-0.37-2.59,0.21c-1.02,0.86-0.95,2.54-2.35,2.96 c-2.12,0.65-0.77,1.3-1.77,2.63c-0.58,0.76-1.99,0.47-2.4,1.51c-1.02,2.62-5.03,3.09-7.26,2.61c-1.89-0.4-4.12-0.84-6.07-0.75 c-1.09,0.05-2.14,1.27-3.03,0.9c-2.81-1.14-4.8-1.68-7.82-1.99c-1.55-0.16-2.45-0.61-4.1-0.45c-1.88,0.19-2.44-2.37-3.39-2.35 c-1.23,0.02-5.79-2.23-6.05,0.33c-0.35,3.48-3.51,6.79-6.06,3.14c-0.24,1.14-0.62,2.01-1.5,2.78c-1.19,1.06-0.95,2.68-2.11,3.62 c-2.22,1.78,0.67,4.89-1.59,6.51c-0.19-0.8-0.76-1.34-1.62-1.11c0.56,2.16,2.23,1.63,1.54,4.12c-0.62,2.27,1.45,4.35,0.8,6.67 c-0.47-0.87-0.67-1.86-1.43-2.54c-1.27,3.44-3.98,5.24-4.17,9.15c-0.08,1.74,0.07,3.61-0.05,5.31c-0.15,1.99-2.01,3.29-2.15,5.43 c-0.18,2.83-4.8,4.13-4.08,6.49c0.41,1.33,1.48,0.49,0.33,2.38c-0.99,1.64,0.31,5.16,0.97,6.84c0.92-1.03,3.28-1.41,4.57-1.48 c2.81-0.15,0.59,2.57,1.5,4.2c1.51,2.71,1.15,5.04,0.67,8.15C612.91,427.1,612.26,431.09,610.54,433.09" style="transition-delay: 120ms;"></path>
  <path d="M638.61,431.97c-3.29,1.14-0.34,4.82-0.17,4.66C639.33,435.82,639.24,432.89,638.61,431.97" style="transition-delay: 130ms;"></path>
  <path d="M639.53,375.62c-0.54-1.02-1.99-1.06-2.03,0.31C638.23,376.2,638.91,376.1,639.53,375.62" style="transition-delay: 140ms;"></path>
  <path d="M641.06,374.5c-0.66-0.92-1.46-0.9-2.14,0C639.59,374.96,640.38,374.95,641.06,374.5" style="transition-delay: 150ms;"></path>
  <path d="M644.52,436.35c0.42-0.52,1.46-1.64,1.08-2.41c-0.7-1.4,0.71-2.03,1.09-3.24 c0.2-0.65,1.06-5.16-0.76-4.19c-0.9,0.48-2.08,1.11-2.86,1.76c-1.46,1.21,0.74,2.76-0.29,4.06c-0.4,0.51-1.45,2.23-1.11,2.89 c0.55,1.06,2.34,0.75,2.33-0.51C644.16,435.27,644.32,435.81,644.52,436.35" style="transition-delay: 160ms;"></path>
  <path d="M650.82,423.74c-2.61,0.04-3.57,5.67-3.69,7.68c-0.12,2.07-0.94,2.98-1.7,4.87 c-0.95,2.35,0.52,1.73,1.83,3.11c0.63-0.86,0.7-2.02,1.37-2.85c0.67-0.83,1.91-0.38,2.55-1.17c0.92-1.15-0.98-3.15-2.09-1.98 c0.31-1.24,0.24-2.54,0.59-3.77c0.23-0.81,1.73-3.5,2.07-1.12C652.88,426.62,650.7,425.53,650.82,423.74" style="transition-delay: 170ms;"></path>
  <path d="M653.77,389.95c-0.04-0.72,0.02-1.44,0.19-2.13c3.89,2.01,2.91-5.66-0.19-0.92 c-1.01-1.5,1.02-1.93-1.04-2.56c-0.7-0.22-1.53-0.31-2.18,0.12c-1.5,0.97-1.15,3.46-0.75,4.88c1.14-0.59,1.79-1.73,2.33-2.84 C653.25,387.31,652.18,389.84,653.77,389.95" style="transition-delay: 180ms;"></path>
  <path d="M650.73,418.54c-1.17,0.49-1.03,2.61,0.11,3.05C652.54,422.26,653.52,418.9,650.73,418.54" style="transition-delay: 190ms;"></path>
  <path d="M666.49,390.17c-1.78,2.59-0.36,4.85,2.74,3.86c0.49-0.31,1-0.58,1.53-0.82 c0.59,0.12,1.19,0.18,1.78,0.17c1.13-0.56,3.09-0.11,3.61-1.59c-0.81,0.11-1.35-0.32-1.52-1.11 C673.31,392.53,668.45,389.47,666.49,390.17" style="transition-delay: 250ms;"></path>
  <path d="M679.3,328.93c0.61-1.28-1.19-5.34-2.76-3.56C678.21,325.82,677.65,328.23,679.3,328.93" style="transition-delay: 270ms;"></path>
  <path d="M677.17,391.69c-1.46,1.53,2.28,1.61,3.02,1.62c1.98,0.03,4.91,0.34,6.44-1.21 C683.5,391.64,680.2,392.8,677.17,391.69" style="transition-delay: 280ms;"></path>
  <path d="M682.96,394.03c-2.18,0.47-0.19,5.44,0.92,6.21C684.33,399.45,683.47,394.83,682.96,394.03" style="transition-delay: 290ms;"></path>
  <path d="M690.08,416.71c1.5-0.74,4.77-1.23,5.72-2.66c1.2-1.8,0.54-3.12-1.34-3.54 c1.49-1.69-1.75-2.72-2.87-3c-2.1-0.52-3.98,0.14-6.06,0.36c-2.55,0.28-3.09,1.54-1.94,4 C684.8,414.46,687.72,415.45,690.08,416.71" style="transition-delay: 300ms;"></path>
  <path d="M690.28,323.54c0.28-0.81-0.02-1.63-0.7-2.14C689.77,322.12,690.01,322.83,690.28,323.54" style="transition-delay: 310ms;"></path>
  <path d="M690.69,321.2c1.11-1.15,1.38-2.95,1.17-4.47c-0.11-0.78-0.8-3.11-1.52-1.25 c-0.5,1.3,1,2.32,0.51,3.3C690.4,319.69,689.49,320.36,690.69,321.2" style="transition-delay: 320ms;"></path>
  <path d="M697.1,373.17c-1.27-0.54-2.29,2.32-1.43,3.05C697.16,377.49,697.3,373.94,697.1,373.17" style="transition-delay: 330ms;"></path>
  <path d="M697.1,377.36c-1.23,0.64-0.6,2.55,0.82,2.13C697.77,378.73,697.49,378.02,697.1,377.36" style="transition-delay: 340ms;"></path>
  <path d="M700.26,373.68c-0.34,0.45-0.68,0.89-1.02,1.33c-0.35-0.33-0.69-0.67-1.02-1.02 c-0.94,2.83,0.44,1.79,1.33,3.76c0.19,0.44-1.11,2.31,0.28,1.97c0.76-0.18,1.57-0.61,1.85,0.38c0.32,1.15,4.38-0.77,0.98-1.71 c-1.39-0.38-1.71-1.18-0.96-2.38C702.16,375.26,700.67,374.09,700.26,373.68" style="transition-delay: 360ms;"></path>
  <path d="M699.33,387.41c-1.57,1.22-0.75,3.42,1.12,3.67c0.79,0.11,1.48-0.51,2.27-0.51 c0.84,0,1.69,0.26,2.55,0.31c2.9,0.17,0.05-2.62-0.81-3.05C702.55,386.87,701.21,385.94,699.33,387.41" style="transition-delay: 380ms;"></path>
  <path d="M701.88,369.82c0.08,1.26-0.41,2.57,0.48,3.68c0.86,1.06,1.77,1.57,2.28,2.92 c0.55,1.47,3.28,4.65,4.57,3.87c-3.68-3.76-4.1-8.32-4.83-13.16c-0.32-2.1-0.23-3.83,2.39-2.5c2.22,1.14,5.45,1.82,7.93,2.05 c-1.56-0.77-1.58-2.66-2.85-3.66c-1.27-1.01-4.84-0.84-3.29-3.43c1.03-1.73,3.77-1.78,4.28-3.94c0.35-1.45-0.68-3.89-0.06-4.96 c-2.6-0.66-5.45,1.92-6.51,4.07c2.43,0.11,0.05,1.38-0.62,1.65c-1.48,0.58-0.83,2.17-1.53,3.25c-0.72,1.12-2.24-0.03-2.7-0.77 c-0.81-1.33,0.87-2.19,1.77-2.78c1.86-1.23,3.08-5,2.06-7.14c-0.44-0.92-1.98-1.25-1.6-2.48c0.36-1.18,1.96-1.91,1.51-3.31 c-2.48,0.02-3.62,3.16-4.21,5.1c-0.63,2.05-2.27,5.69-1.9,7.72c0.19,1,0.61,2.04,1.18,2.88c0.23,0.41,0.54,0.7,0.96,0.88 c-0.68,0.84-0.92,1.89-0.82,2.95c0.14,1.39,0.62,2.19,1.45,3.22C702.64,366.97,702.06,368.66,701.88,369.82" style="transition-delay: 400ms;"></path>
  <path d="M700.57,384.26c-0.37,0.27-0.75,0.55-1.12,0.82c0.76,0.1,1.47-0.04,2.14-0.42 C701.24,384.53,700.91,384.4,700.57,384.26" style="transition-delay: 410ms;"></path>
  <path d="M701.47,408.47c-0.25,0.37-0.34,0.78-0.3,1.22c0.38,0,0.76-0.06,1.11-0.2 C702.05,409.13,701.77,408.78,701.47,408.47" style="transition-delay: 430ms;"></path>
  <path d="M704.13,405.52c-0.33,0.53-0.66,1.04-1.02,1.53C703.91,406.88,704.31,406.34,704.13,405.52" style="transition-delay: 440ms;"></path>
  <path d="M726,412.34c2.27,1.31,4.6,2.22,6.68,3.85c2.42,1.89,2.77-0.94,2.37-2.83 c-0.25-1.16-1.81-1.54-2.03-2.65c-0.24-1.14-0.24-2.42-1.37-3.09c-1.04-0.62-1.44-1.44-2.8-1.17c-1.37,0.26-2.69,0.07-3.8-0.81 c-1.09-0.86-2.48-1.52-3.9-1.47c-1.41,0.04-2.07,1.19-3.32,1.47c-1.1,0.24-1.53-0.34-2.11-1.02c-0.22-0.25-3.67,0.18-4.17,0.15 c-4.76-0.35-9.77,3.02-7.82,8.3c0.03-1.07,1.52-5.44,3.05-5.09c-0.48,1.44,2.06,3.73,3.29,3.96c0.5,0.09,6.22-4.66,4.85-1 c0.9-0.19,6.17,1.92,6.47,0.1C721.63,409.46,725.72,410.76,726,412.34" style="transition-delay: 450ms;"></path>
  <path d="M704.73,413.76c-0.81,0.39-1.42,1.19-1.23,2.14c1.21-0.16,2.03-1.08,3.17-1.41 c-1.08,1.82,1.46,0.07,1.22-1.64C706.74,412.92,705.94,414.01,704.73,413.76" style="transition-delay: 460ms;"></path>
  <path d="M707.98,345.2c3.82-0.86,5.24-4.11,2.96-7.53c-0.45,1.1-1.69,1.38-2.44,2.2 C707.19,341.29,707.16,343.58,707.98,345.2" style="transition-delay: 480ms;"></path>
  <path d="M709.2,412.85c-0.3,0.38-0.33,0.79-0.1,1.23c0.43-0.2,0.81-0.48,1.13-0.82 C709.89,413.12,709.55,412.98,709.2,412.85" style="transition-delay: 490ms;"></path>
  <path d="M710.74,412.54c-0.38,1.06,0.46,1.96,1.53,1.43C712.14,413.17,711.57,412.58,710.74,412.54" style="transition-delay: 500ms;"></path>
  <path d="M719.79,369.82c0.53,0.91,1.33,1.66,2.33,2.03C721.42,371.13,720.71,370.29,719.79,369.82" style="transition-delay: 510ms;"></path>
  <path d="M726.6,394.53c0.69,0.24,1.41,0.4,2.13,0.51c0.78-0.02,1.2-0.73,2.03-0.6 c-0.82-1.13,0.89-1.68,0.01-3.39c-0.94-1.84-5,1.2-6.62,1.45C724.41,393.65,725.43,394.49,726.6,394.53" style="transition-delay: 520ms;"></path>
  <path d="M725.49,383.85c-0.42,0.21-0.8,0.48-1.13,0.82C725.33,385.21,725.71,384.94,725.49,383.85" style="transition-delay: 530ms;"></path>
  <path d="M734.64,375.21c4.25,1.2,0-2.89-0.92-3.86c1.2-0.17,2.01,1.12,2.65,1.9 c1.2,1.44,1.53,0.19,2.69,0.78c2.22,1.1,2.41-2.06,0.8-2.94c-1.52-0.83-9.44-2.02-9.61,0.97c2.02-1.36,0.91,0.84-0.32,0.41 c0.98,1.25,3.19,0.39,2.76,2.64c0.12-0.77,0.68-1.35,1.43-1.52C734.33,374.12,734.5,374.66,734.64,375.21" style="transition-delay: 550ms;"></path>
  <path d="M731.69,380c-0.36,1.92,4.79,1.23,4.27-0.73C734.86,380.49,733.04,379.57,731.69,380" style="transition-delay: 560ms;"></path>
  <path d="M733.73,375c-0.61,0.25-1.08,0.66-1.43,1.21C733.18,376.76,735.16,375.61,733.73,375" style="transition-delay: 570ms;"></path>
  <path d="M736.58,380.8c-3.86,0.64-2.35,3.34-0.25,5.41C737.54,387.41,739.95,381.45,736.58,380.8" style="transition-delay: 580ms;"></path>
  <path d="M761.6,420.08c-0.41,1.41,2.38,1.7,3.05,2.43C763.86,421.4,762.39,421.18,761.6,420.08" style="transition-delay: 620ms;"></path>
  <path d="M651.94,492.08c0.56,0.42,0.48,0.86,1.33,0.51c0.28,1.51-2.51,1.99-2.76,3.97 c1.22-0.37,2.45-0.05,3.68-0.28c1.6-0.31,2.8-2.02,4.43-2.07c2.61-0.07,3.51-0.82,5.25-2.76c1.13-1.25,3.01-2.83,3.48-4.42 c0.72-2.38-0.73-0.46,1.36-1.16c0,0,0.35,0.06,0.76-1.07c-0.45-0.06-0.55-1.34-0.54-2.36c2.31-3.05-1.01-3.58-0.99-3.71 c-4.21,1.69-0.93,2.6-5.88,3.56c-1.24,0.24-0.28,3.74-1.15,4.3c-0.87,0.55-1.1-1.32-1.71-0.51c-0.6,0.8-2.65-2.05-3.09-1.07 C655.68,485.98,652.3,491,651.94,492.08" style="transition-delay: 630ms;"></path>
  <path d="M605.35,469.3c-0.71,0.28-0.95,0.79-0.72,1.53C605.58,470.74,605.82,470.08,605.35,469.3" style="transition-delay: 640ms;"></path>
  <path d="M457.54,449.78c-0.44,0.19-0.81,0.46-1.11,0.81C457.41,451.14,457.78,450.86,457.54,449.78" style="transition-delay: 650ms;"></path>
  <path d="M473.62,443.96c-0.9-0.7-5.43-1.53-6.31-0.7c-0.11-2.88-2.79,0.89-3.15,1.83 c-0.37,0.96-0.42,5.58-2.44,3.76c-0.35,1.51-1.29,2.73-1.84,4.17c-0.6-1.43-1.9-1.04-2.93-0.4c3.28,1.59,7.15-0.31,10.1,1.74 c0.92,0.64,2.24,0.69,3.25,1.17c1.61,0.77-0.65,1.95-0.88,3.07c-0.65,3.01,8.01,2.48,9.61,2.77c3.1,0.56,5.66,2.81,8.74,3.61 c0.98,0.25,2.31,0.58,3.27,0.09c1.02-0.53,0.78-1.43,2.26-1.47c3.75-0.1,7.54,0.78,11.03,1.94c4.32,1.44,8.48,3.75,12.91,4.76 c1.84,0.42,4.47,0.04,6.11,0.84c1.69,0.83,3.15,0.07,5,0.25c3.79,0.37,8.01,2.72,11.49,0.34c2.82-1.95,6.1,1.6,8.54,2.86 c0.82,0.42,5.85,0.73,5.75,1.31c-0.19,1.06,1.39,1.69,2.25,1.27c0.63-0.31-1.05-2.43-1.24-2.73c-1.71-2.62,0.36-5.23,0.62-7.94 c0.15-1.7-1.53-2.01-2.76-2.4c-2.1-0.66-2.76,0.26-4.72,0.06c-1.86-0.18-4.39,1.17-5.99,0.38c-1.02-0.51-3.95-1.49-4.43-2.61 c-0.4-0.96,1.38-5.5-0.97-3.5c0.46-1.51-0.84-2.97-0.72-4.48c-1.37,0.7-3.21,0.21-4.68,0.36c-0.58-0.07-1.05-0.32-1.42-0.77 c-1.02-0.89-2.07-0.23-3.15-0.81c-0.57-0.3-1.52-2.67-2.51-1.48c-0.98,1.18-2.95,0.97-3.7-0.36c-1.79-3.15-3.89-3.52-5.36,0.39 c-0.49,1.31-1.36,4.3-3.36,3.64c-1.12-0.36-1.35-0.96-2.6-0.87c-1.02,0.07-2.08,0.33-3.1,0.11c-1.98-0.44-2.83-0.33-4.75-0.21 c-1.11,0.07-2.9-1.4-3.89-0.86c-4.02,2.19-4.89-3.45-6.42-5.61c-1.41-1.98-1.15-0.14-2.43-0.14c-1.5,0-2.8-2.17-4.35-1.4 c-1.48,0.74-2.49-1.2-3.4-1.96c-1.49-1.25-2.62-0.74-4.27-1.72C476.47,443.68,475.05,445.64,473.62,443.96" style="transition-delay: 660ms;"></path>
  <path d="M495.18,463.82c0.1,1.08,1.4,0.98,2.13,1.02C496.66,464.36,495.96,464.03,495.18,463.82" style="transition-delay: 670ms;"></path>
  <path d="M540.04,454.15c-1.02-0.17-3.68,1.89-2.45,2.9c1.15,0.96,3.91,1.79,4.08,0.15 c1.66,1.97,3.8,0.83,5.78,0.12c0.81-0.29,1.7-0.53,2.56-0.33c-0.18-1.37,1.34-1.33,2.23-1.62c-0.35-2.04-3.09-1.56-4.51-1.36 C545.19,454.36,542.53,453.48,540.04,454.15" style="transition-delay: 680ms;"></path>
  <path d="M538.1,439.91c-0.81,0.13-0.97,0.71-0.7,1.41C538.36,441.31,538.58,440.67,538.1,439.91" style="transition-delay: 690ms;"></path>
  <path d="M555.71,468.79c-1.33,2.51,2.02,3.73,3.75,4.55c1.08,0.52,1.95,1.04,2.68,2.01 c1.33,1.75-0.33,1.28-0.42,2.55c-0.05,0.82,3.28-2.95,3.43-3c1.38-0.49,4.84-1.86,3.11-3.68c-1.25-1.32-3.74-3.18-5.61-2.15 C560.5,470.24,557.82,470.28,555.71,468.79" style="transition-delay: 710ms;"></path>
  <path d="M565.37,453.43c-0.85,0.46-1.05,1.24-0.31,1.94c0.78-0.97,2.08-1.11,3.16-0.61 C567.75,453.54,566.48,453.51,565.37,453.43" style="transition-delay: 730ms;"></path>
  <path d="M567.09,477.55c0.32-0.55,0.32-1.09,0-1.64c-0.4,0.24-0.74,0.55-1.02,0.92 C566.42,477.07,566.76,477.31,567.09,477.55" style="transition-delay: 740ms;"></path>
  <path d="M575.64,470.32c-1.47,0.73-3.28,2.1-3.1,3.98c0.15,1.48-0.37,3.9-2.28,2.34 c-1.58,2.44,6.6,1.75,6.91,2.14c-0.67-1.49,1.47-4.35,2.19-5.56C580.46,471.37,577.06,469.78,575.64,470.32" style="transition-delay: 750ms;"></path>
  <path d="M591.92,478.96c2.19-1.13,4.35-1.49,5.6-3.85c0.46,0.78-0.6,2.4,0.2,2.82 c0.86,0.45,1.46,0.12,2.27-0.2c1.01-0.4,1.83,0.19,2.82,0.33c-0.51-0.67-1.18-1.05-2.02-1.13c1.94-1.18,4.73,1.03,5.28-2.13 c-1.76,2.18-1.54-1.86-1.97-2.71c-1.03-2.06-3.18,0.05-3.12,1.59c-0.3-1.53-1.48-4.14-3.22-2.2c-1.32,1.46-2.43-1.41-3.1-2.16 c-0.98-1.09-5.04-0.26-3.87,1.56c1.44,2.23,3.31,2.76,5.51,4.02c-0.69,0.93-2.55,1.43-3.61,1.67c-1.83,0.4-2.04-1.28-2.81-2.43 c-1.79-2.69-7.4-1.73-9.27,0.39c-0.89,1.02,0.03,2.62-0.79,3.66c-1.11,1.4,0.88,2.52,2,2.82c0.7,0.19,1.29,0.22,1.89-0.24 c1.1-0.86,1.07-0.29,2.51-0.35C588.24,480.33,589.89,478.3,591.92,478.96" style="transition-delay: 760ms;"></path>
  <path d="M588.36,472.47c0.72-0.87,1.12-1.92,1.73-2.85C587.96,468.64,588.14,471.15,588.36,472.47" style="transition-delay: 770ms;"></path>
  <path d="M602.5,486.49c0.96,2.53,3.31,2.45,5.6,2.7c2.7,0.3,4.85,2.8,6.47,4.74 c3.05,3.63,10.07,0.34,6.4-3.72c-1.15-1.27-2.01-2.32-3.69-2.33c0.07,0-2.65-3.26-3-3.57c-0.25-0.23-4.77-0.15-4.99-0.02 C607.19,485.65,604.27,483.51,602.5,486.49" style="transition-delay: 780ms;"></path>
  <path d="M609.01,472.96c-0.57,0.95-1.27,2.06-0.31,3.06C608.73,474.62,611.51,473.94,609.01,472.96" style="transition-delay: 790ms;"></path>
  <path d="M610.74,474.99c0.29,0.81,0.18,1.55-0.3,2.25c1.37,0.33,1.13-1.23,1.42-2.04 C611.48,475.13,611.11,475.06,610.74,474.99" style="transition-delay: 800ms;"></path>
  <path d="M614.5,477.65c1.09-0.58,3.18,0.07,4.45-0.07c1.16-0.14,2.93,0.12,4.08,0.36 c1.25,0.26,1.92,1.66,3.36,1c1-0.45,3.37,0.43,2.98-1.51c3.16,1.33,4.51,0.46,7.56-0.65c2.03-0.74,9.16,0.27,8.11-3.82 c1.41,0.27,1.24-1.48,2.54-1.52c-0.58-1.68-2.37-4.19-2.85-0.92c0.64-0.4,1.32-0.47,2.04-0.21c-1.42,1.63-3.94,1.74-5.02,3.73 c-1.29,2.41-3.47,0.81-4.83-0.46c-1.29-1.2-2.88,0.78-4.26,0.24c-0.73-0.29-0.67,0.29-1.13,0.72c-0.72,0.67-2.1-0.51-2.64-0.9 c-1.77-1.27-4.56-2.06-6.64-2.56c-3.29-0.77-4.34,0.48-7.07,1.85c-1.37,0.68-2.26,0.67-2.42,2.57 C612.67,476.5,613.05,479.42,614.5,477.65" style="transition-delay: 810ms;"></path>
  <path d="M622.14,440.62c-1.75,0.58-0.9,7.03-0.51,8.33C621.99,446.17,622.61,443.44,622.14,440.62" style="transition-delay: 820ms;"></path>
  <path d="M623.05,455.68c-0.32,0.5-0.32,1.02,0,1.52c0.39-0.21,0.73-0.48,1.02-0.82 C623.72,456.15,623.38,455.92,623.05,455.68" style="transition-delay: 830ms;"></path>
  <path d="M624.78,458.73c0.28,0.88,1.52,0.42,2.03,0.2C626.12,458.97,625.45,458.91,624.78,458.73" style="transition-delay: 840ms;"></path>
  <path d="M631.39,498.8c-0.07,0.17-0.15,0.34-0.21,0.51c0.81,0.31,2.02,0.08,2.67-0.48 c0.32-0.27,0.41-0.58,0.23-0.96C633.4,496.56,632.21,498.37,631.39,498.8" style="transition-delay: 860ms;"></path>
  <path d="M643.29,501.45c-0.44,0.66-0.47,1.34-0.1,2.03c1.73-0.98,4.33-2.68,6.2-3.16 c-0.35-0.65-0.66-1.33-0.92-2.03C646.54,499.18,645.45,500.68,643.29,501.45" style="transition-delay: 870ms;"></path>
  <path d="M646.14,473.99c0.09,0.3,0.2,0.6,0.3,0.9c0.42-0.75,1-1.36,1.74-1.82 C647.35,473.04,646.67,473.35,646.14,473.99" style="transition-delay: 880ms;"></path>
  <path d="M648.27,471.14c-0.47,0.39-0.7,0.9-0.7,1.52c0.86-0.11,2.84,0.28,3.16-0.92 C651.12,470.24,648.97,470.74,648.27,471.14" style="transition-delay: 890ms;"></path>
  <path d="M650,494.02c-0.72,0.46-1.19,1.28-1.22,2.14C650.11,496.33,650.38,494.99,650,494.02" style="transition-delay: 900ms;"></path>
  <path d="M651.64,471.04c0.28,0.31,0.51,0.65,0.71,1.02c-0.8,0.32-2.05,0.9-2.33,1.81 c-0.47,1.6,2.54,0.39,3.14,0.83c-0.21-1.92,2.73-3.46,4.27-3.76c-1.98-2.18-3,0.65-4.38,1.31 C653.73,470.78,652.69,470.87,651.64,471.04" style="transition-delay: 910ms;"></path>
  <path d="M657.84,471.84c-0.44,0.41-0.64,0.93-0.61,1.52c0.87-0.2,1.65,0.25,2.03,1.02 c0.82-0.86,2.52-2.94,1.42-4.17C660.13,471.35,658.92,471.53,657.84,471.84" style="transition-delay: 920ms;"></path>
  <path d="M663.32,469.3c-0.6,0.66-1.4,2.35,0.51,1.33c-1.06,0.47-1.98,1.43-2.03,2.64 c2.51-0.24,5.39-0.04,7.74-1.09c1.48-0.67,0.98-2.23-0.48-2.49c-0.87-0.15-1.63,0.21-2.5,0.14 C665.47,469.72,664.44,469.15,663.32,469.3" style="transition-delay: 930ms;"></path>
  <path d="M675.94,469.51c-0.8-0.08-1.38,1.27-1.52,1.82C675.17,470.99,675.74,470.32,675.94,469.51" style="transition-delay: 940ms;"></path>
  <path d="M677.47,467.89c2.13-1.78,4.19-1.37,6.71-0.94c1.34,0.24,2.69-2.36,4.38-2.33 c-2.21-2.73-3.36-1.75-6.55-0.51c-0.9,0.35-1.51-0.46-2.27-0.14C678.36,464.56,677.66,466.53,677.47,467.89" style="transition-delay: 950ms;"></path>
  <path d="M695.48,461.67c-0.44,0.54-0.65,1.15-0.62,1.84C695.77,463.2,696.2,462.48,695.48,461.67" style="transition-delay: 960ms;"></path>
  <path d="M699.04,468.9c-0.45,1.77,2.91,2.37,3.25,0.4C701.18,469.5,700.09,469.21,699.04,468.9" style="transition-delay: 980ms;"></path>
  <path d="M708.8,456.29c-0.45,0.27-0.69,0.68-0.7,1.22C709.2,457.63,709.44,457.23,708.8,456.29" style="transition-delay: 1000ms;"></path>
  <path d="M710.43,470.02c0.32,0.69,0.86,1,1.62,0.92C711.89,470.08,711.25,469.7,710.43,470.02" style="transition-delay: 1010ms;"></path>
  <path d="M719.07,465.23c-0.91,0.79-0.43,2.73,0.89,2.7C722.48,467.89,721.33,464.97,719.07,465.23" style="transition-delay: 1020ms;"></path>
  <path d="M730.87,471.96c1.66-0.56,3.18-1.61,4.57-2.66C733.69,469.97,731.95,469.81,730.87,471.96" style="transition-delay: 1030ms;"></path>
  <path d="M734.53,460.55c-0.17,0.28-0.33,0.55-0.5,0.82c0.82,0.28,1.36-0.1,1.53-0.91 C735.21,460.49,734.87,460.52,734.53,460.55" style="transition-delay: 1050ms;"></path>
  <path d="M741.35,456.89c-1.66,0.1-6.4,5.73-4.77,7.22c-3.29-1.52-1,6.75,0.67,2.93 c0.74-1.69,2.58-2.52,3.48-4.13c0.75-1.33-0.14-4.34,1.55-4.91C742.02,457.59,741.71,457.23,741.35,456.89" style="transition-delay: 1060ms;"></path>
  <path d="M742.47,456.89c0.55,0.9,1.76,0.66,2.45,1.43C744.92,456.93,743.51,456.81,742.47,456.89" style="transition-delay: 1070ms;"></path>
  <path d="M754.16,439.29c-0.26-0.32-0.59-0.42-1.02-0.3c0.44,0.74-0.27,3.01,0.71,3.31 C755.39,442.77,754.44,439.84,754.16,439.29" style="transition-delay: 1080ms;"></path>
  <path d="M754.98,443.26c1.83-1.36,3.64-6.17,4.27-8.34c-1.53,0.55-1.37,2.05-1.9,3.3 C756.62,439.98,755.53,441.35,754.98,443.26" style="transition-delay: 1100ms;"></path>
  <path d="M768.72,445.3c-0.29,1.26-0.52,2.96,0.51,3.97c-2.05-0.11-2.72,6.01,0.65,4.4 C774.28,451.57,771.43,447.33,768.72,445.3" style="transition-delay: 1110ms;"></path>
  <path d="M774.72,450.48c-0.73,0.46-0.82,1.42-0.51,2.15C774.75,452,774.91,451.28,774.72,450.48" style="transition-delay: 1120ms;"></path>
  <path d="M776.14,448.96C777.34,445.27,775.28,447.76,776.14,448.96" style="transition-delay: 1140ms;"></path>
  <path d="M427.03,436.96c0.29-1.38-1.69-2.96-2.74-1.62C425.27,435.81,425.69,437.47,427.03,436.96" style="transition-delay: 1150ms;"></path>
  <path d="M350.32,299.02c1.54,0.48,0.74-1.47-0.7-1.02C349.85,298.34,350.09,298.68,350.32,299.02" style="transition-delay: 1160ms;"></path>
  <path d="M374.44,305.63c-0.9,0.52-2.06,1.31-3.17,1c-1.07-0.3-1.36-1.26-2.56-1.29 c-2.01-0.05-3.76,0.99-5.82,0.79c-2.43-0.24-4.03-1.03-5.62-2.86c-1.18-1.36-4.46-3.26-6.27-1.99 c-6.65,4.65,9.47,17.69,12.02,21.1c0.98,1.3,2.29,1.35,3.77,1.62c2.46,0.45,3.24,3.19,4.36,4.99c0.86,1.39,2.6,4.86,4.08,5.49 c2.58,1.09,1.58,3.59,2.29,5.89c0.67,2.17,2.91,1.63,4.57,2.78c1.06,0.73,2.09,1.52,3.14,2.27c1.29,0.93,2.58,1.88,3.69,3.02 c1.56,1.6,0.07,1.77,0.54,3.56c0.56,2.13,1.49,4.18,2.07,6.34c0.62,2.29,2.25,4.67,2.09,7.08c-0.17,2.54,1.79,0.98,2.76,2.11 c1.58,1.87,3.9,1.43,4.33,4.49c0.56,3.97,5.8,6.55,6.69,10.72c0.12,0.6-0.86,0.67-0.39,1.31c0.64,0.87,1.2,1.79,1.69,2.76 c1.1,2.19,3.39,5.06,3.48,7.54c0.08,2.4,0.02,3.92,1.5,6.01c1.11,1.57,2.82,2.67,3.75,4.35c1.12,2.02,1.7,4.05,3.47,5.64 c1.75,1.59,4.21,2.65,5.28,4.87c1.06,2.19,0.88,3.48,2.9,5.15c2.05,1.69,3.88,3.62,5.85,5.41c1.7,1.55,3.36,3.01,5.4,4.08 c2.04,1.06,2.31,1.85,3.32,3.67c0.53,0.96,1.23,1.87,1.91,2.73c0.58,0.62,1.21,1.19,1.89,1.7c0.41,0.38-0.09,0.79,0.44,1.16 c0.38,0.27,3.75,4.68,3.77,2.34c0.01-1.36-1.29-2.42-1.43-3.76c-0.19-1.9,2.78,0.55,3.14,0.87c2.53,2.24,5.01,2.25,4.71-2.01 c1.58,1.36,2.64,4.14,4.89,4.57c1.34,0.26,1.3-3.8,1.33-4.49c0.12-2.64,0.52-5.27,0.71-7.92c0.11-1.4,1.02-3.4,0.39-4.75 c-0.48-1.04-0.82-1.64-0.49-2.76c0.41-1.36,1.51-3.19,1.34-4.65c-0.14-1.08-1.34-1.12-1.07-2.58c0.24-1.27,1.02-2.38,1.65-3.46 c0.69-1.18,1.23-1.68,0.97-3.15c-0.25-1.39-1.4-0.81-2.18-1.64c-1.07-1.11-2.77-4.84-2.14-6.3c-1.23-0.2-7.14-1.75-7.62-0.51 c-0.18-0.37-0.36-0.74-0.51-1.11c-1.29,1.6-1.46,3.86-3.36,4.98c0.56-0.83,3.15-3.65,0.61-3.66c1.37-0.56,3.01-1.76,2.78-3.45 c-0.17-1.27-1.51-0.83-2.29-1.3c-0.81-0.49-1.26-2.58-1.44-3.39c-0.54-2.39-1.11-4.65-1.41-7.1c-0.18-1.5-4.59-1.66-5.88-1.36 c-1.02,0.24-2.96-1.77-3.7-2.39c-1.25-1.04-0.75-3.23-1.28-4.7c0.56,0.68,1.41,0.81,2.13,0.29c-0.29-1.17-1.42-1.32-2.45-1.41 c0.83-0.06,1.44-0.64,1.64-1.43c-0.69-0.04-1.37,0.03-2.04,0.2c1.2-0.35,1.91-1.41,2.79-2.2c0.68-0.61,2.44-0.43,2.85-1.12 c0.68-1.13-1.81-3.6-2.46-4.32c-1.81-2.03-3.14-1.86-5.22-0.38c-1.61,1.14-5.69,4.04-7.43,1.73c3.6,2.06,10.54-4.32,3.97-5.81 c-1.04-0.23-2.13,0.22-3.15-0.19c-1.16-0.47-1.65-1.79-2.59-2.53c-1.93-1.53-0.85-4.68-2.96-6.3c-0.78-0.6-1.59-1.53-2.43-2.01 c-0.9-0.51-2.09-0.07-3.08-0.59c-1.61-0.84-1.48-3.34-2.52-4.71c-0.51-0.68-4.15-4.23-4.94-2.11c-0.6,1.57,1.32,3.59,1.52,5.12 c-0.66-0.67-0.85-1.58-1.4-2.33c-0.89-1.25-2.51-1.43-3.59-2.44c-1.78-1.68-1.96-4.36-3.66-6.1c-0.48,0.66-0.59,1.37-0.3,2.13 c-0.29-0.51-2.05-3.97-1.43-1.21c-1.14-1.32,0.56-2.95-1.17-4.08c-1.57-1.02-2.78-2.81-4.33-3.96c-1.77-1.32-3.21-3.44-5.26-4.34 c-0.74-0.32-1.52-0.49-2.24-0.82c-1.26-0.57-1.07-1.5-1.88-2.37c-1.07-1.12-2.96-1.2-4.04-2.24c-1.36-1.31,0.44-3.59-1-4.77 c-1.74-1.43-2.08-1.44-2.85-3.68C379.2,309.51,375.96,306.98,374.44,305.63" style="transition-delay: 1170ms;"></path>
  <path d="M378,362.28c2.11,2.26,2.84-4.03,1.91-5.31c-1.11-1.5-2.87-4.33-4.61-5.1 c-1.29-0.56-2.03,1.26-3.4,0.44c0.22,1.9,1.9,3.3,2.71,4.93c0.5,1.01,1.67,1.36,2.27,2.3C377.41,360.4,377.51,361.43,378,362.28" style="transition-delay: 1180ms;"></path>
  <path d="M374.03,344.8c-0.02-1.02-0.77-2.7-2.03-1.73C372.76,343.53,373.44,344.12,374.03,344.8" style="transition-delay: 1190ms;"></path>
  <path d="M386.75,375.62c0.27-0.91-0.08-1.79-0.82-2.34c-0.57,0.76-0.98,1.93-1.19,2.85 C384.44,377.36,387.15,377.4,386.75,375.62" style="transition-delay: 1200ms;"></path>
  <path d="M384.91,369.82c0.53,1.51,1.33,2.89,2.13,4.27C387.39,372.96,386.5,369.64,384.91,369.82" style="transition-delay: 1210ms;"></path>
  <path d="M390.09,368.71c-0.27-1.35-2.4-1.13-3.14-0.41C387.89,368.93,389.03,368.99,390.09,368.71" style="transition-delay: 1230ms;"></path>
  <path d="M393.26,391.89c4.22-0.59-2.36-8.82-2.25-10.78c-0.69,0.38-1.87,0.19-2.36,0.88 c-0.71,0.99-1.16,2.9-0.41,3.96C389.67,387.96,390.5,391.3,393.26,391.89" style="transition-delay: 1240ms;"></path>
  <path d="M401.09,398.91c-0.26-1.09-1.65-4.93-3.15-3.9C396.29,396.14,400.34,398.46,401.09,398.91" style="transition-delay: 1250ms;"></path>
  <path d="M402.52,403.81c0.32,1.2,1.72,0.64,2.15-0.12c0.64-1.15-1.45-2.87-2.27-3.34 C401.97,401.51,402.73,402.62,402.52,403.81" style="transition-delay: 1260ms;"></path>
  <path d="M407.29,410.61c0.04-0.77-0.68-1.36-0.54-2.12c0.18-0.99,0.76-0.75,0.47-1.73 c-0.22-0.72-1.1-2.94-2.18-2.52C403.4,404.84,406.51,409.96,407.29,410.61" style="transition-delay: 1270ms;"></path>
  <path d="M421.94,346.12c-0.42-2.01-3.23-2.63-3.95-0.46c-0.4,1.21,0.38,2.93,1.7,3.2 C421.31,349.19,421.36,347.05,421.94,346.12" style="transition-delay: 1280ms;"></path>
  <path d="M429.47,351.41c-1.51-0.65-3.26-0.55-4.69-1.42c-0.28,1.49,0.98,2.16,2.22,2.39 c1.22,0.23,1.88,1.35,2.77,2.08C429.77,353.43,429.86,352.39,429.47,351.41" style="transition-delay: 1290ms;"></path>
  <path d="M429.67,355.17c-0.62-1.05-1.54-2.24-2.84-2.44c-0.34,1.85-0.15,5.18,2.23,5.59 C429.44,357.3,429.25,356.18,429.67,355.17" style="transition-delay: 1300ms;"></path>
  <path d="M435.87,360.26c-0.71-1.34-2.08-2.25-3.5-2.66c-0.79-0.23-1.52-1.37-2.03-1.47 c-0.6-0.11-1.13,3.27-0.41,3.75c1.67,1.12,4.08-0.03,5.73,1.4C435.74,360.94,435.8,360.6,435.87,360.26" style="transition-delay: 1310ms;"></path>
  <path d="M437.1,359.44c-0.43-1.74-5.97-5.11-5.2-2.03C434.02,356.46,434.94,360.13,437.1,359.44" style="transition-delay: 1320ms;"></path>
  <path d="M438.53,362.7c-0.15-0.73-0.59-1.14-1.33-1.23c-0.52,0.76-0.42,1.44,0.3,2.03 C437.87,363.28,438.21,363.01,438.53,362.7" style="transition-delay: 1330ms;"></path>
  <path d="M440.76,360.86c-0.25-0.8-0.87-1.33-1.74-1.02c0.03,0.85,0.54,1.58,1.23,2.03 C440.42,361.54,440.59,361.2,440.76,360.86" style="transition-delay: 1350ms;"></path>
  <path d="M443.11,373.17c-0.74-0.51-3.5-0.22-2.38,1.1C441.41,375.09,442.98,373.95,443.11,373.17" style="transition-delay: 1360ms;"></path>
  <path d="M447.67,355.98c-0.74-1.69-2.14,0.23-2.14,1.24C445.53,358.43,447.82,357.14,447.67,355.98" style="transition-delay: 1380ms;"></path>
  <path d="M447.98,360.16c0.56-1.02,0.28-1.35-0.82-1.02C447.43,359.48,447.71,359.82,447.98,360.16" style="transition-delay: 1390ms;"></path>
  <path d="M453.27,357.31c-1.45-3.56-5.53-0.21-3.83,0.41c1.13,0.42,1.64-0.67,2,1.21 C451.8,360.82,453.3,358.09,453.27,357.31" style="transition-delay: 1400ms;"></path>
  <path d="M451.34,374.09c-0.49,0.38-1.44,0.58-2.03,0.77c-1.13,0.37,0.77,2.6,0.9,3.19 c0.07-1.01,0.6-1.34,1.43-0.7C451.91,376.14,452.79,374.94,451.34,374.09" style="transition-delay: 1420ms;"></path>
  <path d="M451.73,369.82c0.15,0.72-1.12,3.4,0.4,3.2c0.86-0.11,1.38-0.58,2.24-0.14 c0.88,0.45,1.61,1.15,2.66,0.6C456.5,372.63,452.74,369.73,451.73,369.82" style="transition-delay: 1440ms;"></path>
  <path d="M452.15,367.28c-0.46,1,1.02,1.79,1.64,2.14C453.27,368.68,452.72,367.97,452.15,367.28" style="transition-delay: 1460ms;"></path>
  <path d="M460.6,390.87c1.19,1.64-1.83,2.38-2.44,3.47c1.25,1.01,2.2,1.84,3.88,1.22 c1.13-0.41,3,0.55,3.33,1.71c0.29,1.02,1.07,2.25,1.24,3.16c0.39,2.08-0.84,2.94,1.53,4.24c1.01,0.56,5.61,4.09,6.72,3.09 c1.09-1-0.58-1.46-0.92-2.29c-0.52-1.3,1.08-3.67,2.35-3.92c-1.61-0.97-3.82-0.5-5.3-1.72c-1.36-1.13-1.84-3.92-1.69-5.59 c0.09-0.99-0.58-4.18-1.24-5c-1.86-2.29-4.28,0.35-2.56,2.44C464.74,391.79,460.74,386.26,460.6,390.87" style="transition-delay: 1470ms;"></path>
  <path d="M476.16,405.33c-0.3,0.1-0.61,0.19-0.91,0.29c0.21,0.84,0.84,1.21,1.62,0.72 C476.68,405.98,476.44,405.64,476.16,405.33" style="transition-delay: 1480ms;"></path>
  <path d="M485.82,401.15c-1.35,1.37-1.66,3.72-1.52,5.53c0.15,1.93,3,2.94,2.53,0.89 c0.84,0.05,2.09,2.38,2.92,1.56c1.14-1.12,2.3-3.39,2.11-5.04C491.59,401.66,487.77,400.75,485.82,401.15" style="transition-delay: 1500ms;"></path>
  <path d="M489.08,322.82c0.88,0.14,1.68,0.64,2.23,1.33c-0.83-0.52-1.37-0.09-1.42,0.81 c2.52,0.36,3.24-2.17,2.26-4.08C490.4,317.48,488.24,320.18,489.08,322.82" style="transition-delay: 1510ms;"></path>
  <path d="M499.55,389.05c-0.57-0.45-1.15-0.45-1.73,0c0.24,0.4,0.55,0.74,0.92,1.02 C499.05,389.76,499.32,389.42,499.55,389.05" style="transition-delay: 1530ms;"></path>
  <path d="M508.2,382.54c-1.59-2.26-4.84,1.29-2.84,3.26C506.31,384.84,508.84,384.4,508.2,382.54" style="transition-delay: 1540ms;"></path>
  <path d="M577.98,410c-3.68-1.54-2.5,7.82-1.73,9.05c0.97-1.6,2.02-1.11,1.87-3.3 C578.02,414.03,577.31,411.65,577.98,410" style="transition-delay: 1550ms;"></path>
  <path d="M579.61,411.53c-1.15,0.21-1.05,1.43-0.31,2.03C579.47,412.9,579.57,412.22,579.61,411.53" style="transition-delay: 1560ms;"></path>
  <path d="M591.72,327.91c-0.44,0.98,0.5,1.84,1.31,2.14C593.1,329.13,593.13,327.58,591.72,327.91" style="transition-delay: 1580ms;"></path>
  <path d="M592.02,319.77c-0.03,0.88,0.54,1.46,1.42,1.02C593.34,319.97,592.83,319.57,592.02,319.77" style="transition-delay: 1590ms;"></path>
  <path d="M594.16,326.18c0.03,0.74,0.41,1.21,1.11,1.43C595.3,326.86,594.85,326.38,594.16,326.18" style="transition-delay: 1610ms;"></path>
  <path d="M603.01,341.54c0.07,0.73,0.42,1.3,1.02,1.73C603.72,342.68,603.38,342.1,603.01,341.54" style="transition-delay: 1620ms;"></path>
  <path d="M498.94,359.24c1.32-0.88,0.42-1.81,0.7-3c0.37-1.55,2.62-1.65,2.86-3.41 c-0.48,0.77-1.05,1.44-1.73,2.03c-1.24-1.82,0.3-3.62,1.47-4.97c0.76-0.88,0.99-1.71,1.39-2.77c0.51-1.37,2.28-1.7,3.25-2.63 c-0.19,1.26-1.85,2.8,0.05,3.55c0.27,0.11,0.95,3.08,1.48,3.66c1.56,1.7,4.35,3.03,5.35,5.2c0.39,0.83,2.12,1.56,2.95,1.99 c1.56,0.81,3.75-0.79,5.1-1.38c2.67-1.19,5.21,0.38,8.06,0.11c1.14-0.11,2.17-0.99,3.17-1.52c1.5-0.81,1.07-2.76,2.22-3.99 c1.18-1.29,7.19-2.6,8.12-0.62c0.88,1.87,6.38,3.66,8.13,2.58c1.52-0.94,1.85-2.43,3.9-1.73c1.01,0.35,1.81-0.47,2.69-0.83 c0.72-0.28,1.56,0.64,2.29,0.61c-0.4-1.96,3.76-6.22,2.62-7.48c-1.98-2.18,2.44-4.97,4.09-5.54c-0.97-1.2-2.78-5.59,0.23-5.95 c3.79-0.46,0.95-2.8,3.12-4.87c0.83-0.8-0.24-4.07-0.11-5.44c0.12-1.27,0.44-2.88,1.02-4.03c0.5-0.99,1.51-1.46,1.76-2.6 c1.99,0.74,2.5,1.14,4.62,0.23c0.73-0.32,2.51,2.38,2.69-0.43c1.39,1.33,3.99,1,5.71,0.84c2.21-0.2,3.55,2.2,5.69,2.01 c-0.64,0.45-1.35,0.72-2.14,0.81c0.39,0.33,4.21,3.52,1.62,2.24c0.53,0.37,1.89,0.62,2.15,1.23c0.27,0.62,0.25,1.23,1,1.51 c-1.21,1.57-3.2,0.59-3.75-1.02c0.25,0.69,0.35,1.4,0.29,2.14c-1.1-0.68-3.02-0.61-4.16-0.1c1.45,0.57,2.2,2.05,3.77,2.44 c-0.4,0.8-0.58,2.56-1.94,1.94c1,1.3,2.48,1.84,3.97,2.33c-1.23,1.42,1.16,1.55-0.81,1.83c0.68,0.03,1.33,0.2,1.94,0.51 c-2.02,0.55,0.51,1.7,1.28,2.65c0.88,1.08,1.65,2.26,2.38,3.45c0.91,1.5-1,4.44-2.75,4.38c1.15,0.4,0.58,1.53,1.47,2.28 c1.28,1.07,2.56,2.16,3.9,3.16c1.08,0.8,1.71,2.17,2.97,2.63c1.69,0.6,2.87,2.32,3.98,3.64c0.48,0.55,1.7,0.12,0.84,1.45 c-1.05,1.65-2.78,0.84-4.24,1.57c-2.42,1.23-5.28-2.15-7.19-2.92c0.88,1.29,1.58,2.92-0.48,3.03c-1.87,0.1-2.46,2.96-2.94,4.36 c-1.27,3.74-1.89,8.03-1.66,11.94c0.53-0.62,1.22-0.96,2.03-1.02c-0.26,0.84-1.61,1.84-0.61,2.23c-0.96,0.6-0.96,1.44,0,2.03 c-1.32,0.38-2.79,1.95-3.15,0.09c-0.41,2.63-5.29,8.16-6,2.86c-1.02,1.86,0.71,3.31-1.38,4.76c-0.97,0.67-0.49,1.72-1.16,2.56 c-0.78,0.98-2.23,0.95-2.95,2.03c3.19-1.21,2.14,3.24,0.6,4.38c0.79,0.78,2.4-0.3,3.07,0.51c0.65,0.78-0.65,3.8-1.14,4.48 c-0.56-0.65-1.24-0.82-2.03-0.51c2.01,1.74-0.62,7.28-2.03,4.47c-0.39,1.24,0.65,2.3,1.32,3.16c-2.79,0.51-1.93,4.77-4.3,5.72 c-2.57,1.05-5.18,2.78-7.81,3.95c-0.69,0.3-6.14,3.99-5.91,1.92c0.14-1.26-0.01-2.65,0.05-3.94c0.09-1.84-1.1-3.36-0.65-5.22 c-2.07,2.02-3.48,1.26-2.03-1.52c-0.94,1.58-3.01,2.6-2.54-0.19c-0.22,1.48-4.15,4.94-5.3,2.65c-0.39-0.79,0.7-1.4-0.06-2.24 c-1.4-1.53-2.88,1.25-3.3-0.83c0.46,2.35-2.57-1.83-2.85-2.85c0.02,2.14-2.27,4.51-4.09,5.43c-1.89,0.96-3.53-1.75-5.36-0.43 c-0.66,0.48-3.23,4.16-3.72,1.77c-0.6-2.92,0.38-5.52-1.17-8.39c-1.22,3.15-1.65,1.69-3.97,1.62c-0.98-0.03-1.78,0.82-2.54,1.3 c-1.45,0.91-2.4,0.1-3.85-0.17c0.48-0.52,0.98-0.99,1.53-1.43c-1.18,0.18-1.57,1.7-2.86,1.52c0.54-3.09-2.58-1.38-3.86-0.4 c-1.48-1.85-0.29-4.92-0.95-7.05c-0.45-1.45-0.18-2.98-0.44-4.47c-0.23-1.24-2.18-2.25-2.05-3.33c0.03-0.26,1.1-1.57,1.23-1.96 c0.46-1.36,0.7-2.54-0.13-3.79c-0.57-0.86-0.69-1.78-1.18-2.6c-0.6-1-1.86-1.37-1.79-2.75c-0.3,0.35-0.6,0.69-0.92,1.02 c-1.08-2.09-2.23-0.17-3.69-1.06c-0.84-0.5-0.31-1.44,0.06-2c0.37-0.57,1.73,0.08,2.21,0.11c-0.81-0.45-1.27-1.52-2.15-1.74 c-0.65-0.16-1.5-0.05-1.92-0.7c-0.6-0.92-0.95-4.68,0.92-3.55c-0.49-1.31-1.3-2.9,0.31-3.05c-1.35-1.8-3.16-3.36-3.64-5.64 C498.97,363.14,498.09,360.05,498.94,359.24" style="transition-delay: 1630ms;"></path>
  <path d="M588.16,326.79c0.03-0.24,0.07-0.48,0.1-0.71c1.09,0.15,2.1,0.6,3.05,1.12 C590.24,327.39,589.17,327.14,588.16,326.79" style="transition-delay: 1640ms;"></path>
  <path d="M592.84,318.96c1.23-0.16,2.85-0.4,2.54,1.43C594.2,320.63,593.61,319.57,592.84,318.96" style="transition-delay: 1650ms;"></path>
  <path d="M769.83,443.57c0.07,0.84,0.42,1.55,1.02,2.14c-0.28-0.49,0.21-3.44,0.43-4.11 c0.55-1.71-1.25-0.82-0.73-2.31c1.39,0.69,2.28-1.58,2.86-2.4c1-1.41,2.31,1.61,2.29,2.39c-0.05,2.01-0.18,4.16-0.29,6.17 c-0.18,3.15-2.53,1.7-4.14,0.57C773.33,448.49,765.87,443.34,769.83,443.57" style="transition-delay: 1660ms;"></path>
  <path d="M772.28,446.72c0.43,0.29,1.75,2.01,0.88,2.42C771.74,449.81,770.78,447.08,772.28,446.72" style="transition-delay: 1670ms;"></path>
</g>
</svg>
