<svg xmlns="http://www.w3.org/2000/svg" width="520" viewBox="0 0 481 321">
    <style>
    text {
      font-family: Sans, sans-serif;
      font-weight: 400;
      letter-spacing: 0.02em;
    }
  </style>
  <g>
    <line x1="300" y1="264.7" x2="300" y2="20.5" fill="none" stroke="#d9d9d9" stroke-dasharray="1"/>
    <line x1="269.4" y1="300.5" x2="269.4" y2="20.5" fill="none" stroke="#d9d9d9" stroke-dasharray="1"/>
    <line x1="238.9" y1="264.7" x2="238.9" y2="20.5" fill="none" stroke="#d9d9d9" stroke-dasharray="1"/>
    <line x1="177.7" y1="264.7" x2="177.7" y2="20.5" fill="none" stroke="#d9d9d9" stroke-dasharray="1"/>
    <line x1="147.1" y1="300.5" x2="147.1" y2="20.5" fill="none" stroke="#d9d9d9" stroke-dasharray="1"/>
    <line x1="116.5" y1="264.7" x2="116.5" y2="20.5" fill="none" stroke="#d9d9d9" stroke-dasharray="1"/>
    <line x1="86" y1="300.5" x2="86" y2="20.5" fill="none" stroke="#d9d9d9" stroke-dasharray="1"/>
    <line x1="361.2" y1="264.7" x2="361.2" y2="20.5" fill="none" stroke="#d9d9d9" stroke-dasharray="1"/>
    <line x1="391.8" y1="300.5" x2="391.8" y2="20.5" fill="none" stroke="#d9d9d9" stroke-dasharray="1"/>
    <line x1="208.3" y1="300.5" x2="208.3" y2="20.5" fill="none" stroke="#d9d9d9" stroke-dasharray="1"/>
    <line x1="330.6" y1="300.5" x2="330.6" y2="20.5" fill="none" stroke="#d9d9d9" stroke-dasharray="1"/>
    <line x1="300" y1="280.7" x2="300" y2="300.5" fill="none" stroke="#d9d9d9" stroke-dasharray="1"/>
    <line x1="238.9" y1="280.7" x2="238.9" y2="300.5" fill="none" stroke="#d9d9d9" stroke-dasharray="1"/>
    <line x1="177.7" y1="280.7" x2="177.7" y2="300.5" fill="none" stroke="#d9d9d9" stroke-dasharray="1"/>
    <line x1="116.5" y1="280.7" x2="116.5" y2="300.5" fill="none" stroke="#d9d9d9" stroke-dasharray="1"/>
    <line x1="361.2" y1="280.7" x2="361.2" y2="300.5" fill="none" stroke="#d9d9d9" stroke-dasharray="1"/>
    <line x1="59.3" y1="32.2" x2="417" y2="32.2" fill="none" stroke="#d9d9d9" stroke-dasharray="1"/>
    <line x1="59.3" y1="70" x2="417" y2="70" fill="none" stroke="#d9d9d9" stroke-dasharray="1"/>
    <line x1="59.3" y1="106.6" x2="417" y2="106.6" fill="none" stroke="#d9d9d9" stroke-dasharray="1"/>
    <line x1="59.3" y1="143.3" x2="417" y2="143.3" fill="none" stroke="#d9d9d9" stroke-dasharray="1"/>
    <line x1="59.3" y1="179.9" x2="417" y2="179.9" fill="none" stroke="#d9d9d9" stroke-dasharray="1"/>
    <line x1="59.3" y1="217.8" x2="417" y2="217.8" fill="none" stroke="#d9d9d9" stroke-dasharray="1"/>
    <line x1="59.3" y1="291" x2="417" y2="291" fill="none" stroke="#d9d9d9" stroke-dasharray="1"/>
    <line x1="59.3" y1="254.4" x2="417" y2="254.4" fill="none" stroke="#ccc"/>
  </g>
  <g>
    <text transform="translate(167.6 275.2)" font-size="9" fill="#595959">1940</text>
    <text transform="translate(106.4 275.2)" font-size="9" fill="#595959">1920</text>
    <text transform="translate(351 275.2)" font-size="9" fill="#595959">2000</text>
    <text transform="translate(289.9 275.2)" font-size="9" fill="#595959">1980</text>
    <text transform="translate(228.8 275.2)" font-size="9" fill="#595959">1960</text>
  </g>
  <text transform="matrix(0, 1, -1, 0, 452, 160)" text-anchor="middle" font-size="14" fill="#595959">Net overseas migration (thousands)</text>
  <polyline points="60.4 226.6 63.6 225.4 66.7 225.4 69.8 225.4 73 225.4 76.1 224.3 78.4 224.3 81.6 223.1 84.7 223.1 87.8 221.9 91 220.7 94.1 219.5 97.2 218.3 100.4 218.3 102.7 217.2 105.8 218.3 109 218.3 112.1 217.2 115.2 216 118.4 214.8 121.5 213.6 123.9 213.6 127 212.4 130.1 211.3 133.2 210.1 136.4 210.1 139.5 208.9 142.6 207.7 145.8 207.7 148.1 206.5 151.2 206.5 154.4 205.3 157.5 205.3 160.6 205.3 163.8 204.2 166.9 204.2 170 204.2 172.4 203 175.5 203 178.6 201.8 181.8 201.8 184.9 201.8 188 200.6 191.2 200.6 194.3 199.4 196.7 199.4 199.8 198.3 202.9 197.1 206 195.9 209.2 193.5 212.3 192.3 215.4 191.2 218.6 188.8 220.9 187.6 224 186.4 227.2 185.3 230.3 182.9 233.4 181.7 236.6 180.5 239.7 178.2 242.8 177 245.2 174.6 248.3 173.4 251.4 172.3 254.6 169.9 257.7 168.7 260.8 167.5 264 165.2 267.1 164 269.5 161.6 272.6 158.1 275.7 155.7 278.8 154.5 282 153.3 285.1 152.2 288.2 151 290.6 149.8 293.7 148.6 296.8 147.4 300 146.2 303.1 143.9 306.2 142.7 309.4 140.3 312.5 139.2 314.9 138 318 135.6 321.1 134.4 324.2 132.1 327.4 129.7 330.5 128.5 333.6 126.2 336.8 125 339.1 123.8 342.3 122.6 345.4 121.4 348.5 119.1 351.6 117.9 354.8 116.7 357.9 115.5 361 113.2 363.4 112 366.5 110.8 369.6 108.4 372.8 107.2 375.9 104.9 379 103.7 382.2 100.1 385.3 97.8 387.7 94.2 390.8 91.9 393.9 89.5 397 84.8 400.2 82.4 403.3 80.1 406.4 76.5 409.6 74.1 411.9 70.6 415.1 68.2" fill="none" stroke="#002b45" stroke-miterlimit="10"/>
  <polyline points="133.2 224.9 136.4 223.3 139.5 218.6 142.6 234.4 145.8 247.1 148.1 262.9 151.2 264.5 154.4 258.2 157.5 256.6 160.6 255 163.8 253.4 166.9 253.4 170 251.8 172.4 248.7 175.5 245.5 178.6 247.1 181.8 251.8 184.9 248.7 188 253.4 191.2 256.6 194.3 258.2 196.7 264.5 199.8 245.5 202.9 218.6 206 144.1 209.2 140.9 212.3 172.6 215.4 182.1 218.6 223.3 220.9 204.3 224 183.7 227.2 178.9 230.3 198 233.4 207.5 236.6 193.2 239.7 186.9 242.8 205.9 245.2 207.5 248.3 198 251.4 177.4 254.6 172.6 257.7 183.7 260.8 183.7 264 163.1 267.1 150.4 269.5 152 272.6 177.4 275.7 213.8 278.8 204.3 282 190 285.1 245.5 288.2 229.6 290.6 204.3 293.7 220.1 296.8 204.3 300 180.5 303.1 163.1 306.2 178.9 309.4 213.8 312.5 210.6 314.9 188.4 318 172.6 321.1 153.6 324.2 126.7 327.4 158.3 330.5 182.1 333.6 194.8 336.8 217 339.1 229.6 342.3 213.8 345.4 175.8 348.5 182.1 351.6 201.1 354.8 188.4 357.9 177.4 361 172.6 363.4 153.6 366.5 172.6 369.6 172.6 372.8 175.8 375.9 153.6 379 120.3 382.2 74.4 385.3 20.5 387.7 31.6 390.8 109.2 393.9 120.3 397 82.3 400.2 83.9 403.3 115.6 406.4 118.7 409.6 101.3 411.9 58.5 415.1 79.1" fill="none" stroke="#30b3ff" stroke-miterlimit="10"/>
  <text transform="translate(50.2 257.9)" font-size="9" fill="#595959">0</text>
  <text transform="translate(49.9 221.3)" font-size="9" fill="#595959" >5</text>
  <text transform="translate(44.3 184.7)" font-size="9" fill="#595959" >10</text>
  <text transform="translate(44.3 146.8)" font-size="9" fill="#595959" >15</text>
  <text transform="translate(44.1 110.2)" font-size="9" fill="#595959" >20</text>
  <text transform="translate(44.1 73.6)" font-size="9" fill="#595959" >25</text>
  <text transform="translate(44.1 35.7)" font-size="9" fill="#595959" >30</text>
  <text transform="translate(421 221.3)" font-size="9" fill="#595959" >50</text>
  <text transform="translate(421 257.6)" font-size="9" fill="#595959" >0</text>
  <text transform="translate(421 184.7)" font-size="9" fill="#595959" >100</text>
  <text transform="translate(421 294.6)" font-size="9" fill="#595959" >-50</text>
  <text transform="translate(421 146.8)" font-size="9" fill="#595959" >150</text>
  <text transform="translate(421 110.2)" font-size="9" fill="#595959" >200</text>
  <text transform="translate(421 73.6)"  font-size="9" fill="#595959" >250</text>
  <text transform="translate(421 35.7)"  font-size="9" fill="#595959" >300</text>
  <text transform="matrix(0, -1, 1, 0, 28, 160)" font-size="14" text-anchor="middle" fill="#595959">Population (millions)</text>
  <rect x="96" y="42.2" width="163.5" height="91.11" fill="#fff"/>
  <text transform="translate(109.4 66.2)" font-size="14" fill="#002b45" class="txt-bold">Australia’s Population<tspan x="0" y="16">and Migration</tspan></text>
  <line x1="109.4" y1="104.6" x2="118.4" y2="104.6" fill="none" stroke="#002b45" stroke-miterlimit="10"/>
  <text transform="translate(123.9 107.6)" font-size="9" fill="#595959" >Population</text>
  <line x1="109.4" y1="118.6" x2="118.4" y2="118.6" fill="none" stroke="#30b3ff" stroke-miterlimit="10"/>
  <text transform="translate(123.9 121.6)" font-size="9" fill="#595959" >Net overseas migration</text>
</svg>
