<svg xmlns="http://www.w3.org/2000/svg" xmlns:xlink="http://www.w3.org/1999/xlink" width="960" height="480" viewBox="0 60 960 320"
  class="bg-img bg-img-abs">
  <defs>
    <linearGradient id="a" y1="240" x2="200" y2="240" gradientUnits="userSpaceOnUse">
      <stop offset="0" stop-color="#e9eaef"/>
      <stop offset="1" stop-color="#e9eaef" stop-opacity="0"/>
    </linearGradient>
    <linearGradient id="b" x1="760" x2="960" gradientTransform="matrix(1, 0, 0, -1, 0, 480)" xlink:href="#a"/>
  </defs>
  <title>cptpp</title>
  <g style="isolation: isolate">
    <g>
      <rect width="960" height="480" fill="#e9eaef"/>
      <g>
        <g style="mix-blend-mode: multiply">
          <path d="M329.3,363.2l2.9,1.1,3.9-1.1.7.5v3l-.6.6v2.5l-1.7-.2-.9,1.5-2-.2-1.2-1.7-.6-2.6-1.1-1.7Zm-33.6-73.9,1.4-.3.5.8-1.2.8Zm29.2,1.3v.9l.8,1.3.7,3.5,1.6-.3,1.9,1.7.3,3.5,1.7,2.9-.3,1.6,1.3,2.1,2,.6,1.1,1.1,1.6.7.2,1.1,1.2,1.3,1,2.8.9-.2,1.7.9.3,2.2,2.4,1.9,2.9,4.3v3l1.1,2.7v1.6l-1.3,4.3-.2,2.2-1.1,2.6-1.5,1.2-1.2,1.8v.9l-1,1.5v1.3l-1.5,2.2-.6,4.5-1.4.8h-2.8l-1.2.6-2.7,2.8-4.1-2.4-2.6,1.6-2.2-1-2.8-.2-2.4-1.3-1.5-2,.3-1.3-.9-1.7-1-.9-2-.2.7-2.2-1-1.6-.9,2.6-.7-.6.3-2-.6-1.4-1.9,1.1-1.8,2.3-2-4.2-1.2-.4v-1.6l-1-.7-2.5-.9-1.2.2-2.5-1.3-5.1.5-3.8,1.5h-3.3l-3.6,1.8-1.7,2.3-3.4.4-1.8-.5-3.6.4-.9,1-4.3,2-2.6-.3-3.5-1.9.4-1.6,1.2-1.2V339l-1.5-2.9-.3-2.9-1.9-3.7v-1.1l-2-3.2h2.3v-.8l-1.9-3.8.9-2.5-.2-1.9.6-1.7.9,1.2,1.2-1.7,4.3-2.7,1.6.2,3.2-1.1.8-.7,1.1.2,3.3-1.1,2.9-3.9-.2-1.6,1.9-2.1,1.4,2.3.7-1.2-.9-1,2.2-.9V299l1.5-1,.3-.8,2.3-1.7.8.4.9-1,.9.4,2.1,2,2.9.4-.2-1.3,1.1-2,1.9-2.7,1.3-.5h2.7l.7-1.7,5.4,1.6,1.9-.7h1.4l1.3,1-.9,1.5-1.6.8.2,1.1-1.4,2.3.3.6L310,300l2.2.8,1.3,1.2,1.7.4.6,1,1.8.9,1.9-.7,1.3-3.2.5-2.4-.4-3,.5-3.1,1.2-3.6h1.2l.4,2Z" fill="#e9eaef"/>
        </g>
        <polygon points="259.4 251.3 258.4 253.3 257.2 252 259.4 251.3" fill="#e9eaef" style="mix-blend-mode: multiply"/>
        <g style="mix-blend-mode: multiply">
          <path d="M687.3,147.6l-.9-.3,1.4-2.2.8,1.7Zm-14,2.2-1.6-1.5v-4l-1.2-.8-2.2-.4-1.7,2.2-.7,2.4-.9,1.4-1.9,1.2h-7.5l2.7-1.2.9-1.7,2.4-1.6,2-.5,1.7-.9,2.5-2.7,2.4-1.7,5.3-2.1,3.7.3.6,2.1-2.3,1.2,1.4.9-.3,1.9.6,2.4,4.3,1.7,1.8-.6,1.6,1.8-5.1,1.8h-1.3l-3.3,3.2-1.6-.9v-1.6l2.8-2.1v-1.5l-2.3,1.2ZM533.4,133.6l4.1,1,1.9,2.7,1.5.6,1.2,1.9h-2.7l-4.2-2.6-.7-1.4-2.4-.6-.7-2.3Zm167.1-2.8-3.1,4.7,2.9.2-.8,1.1,2,1,1.2-.8,2,.6-.8,1.9.8,1.4-.6,1.3,2.9.7-1.3,2.6-2.3-.8.7-1.3h-2.3l-1,1.4-1.3-.5,2.3-1.4-2.3-.7-2.2.7-3.5-.4-1.9.4-.6-1,1.8-1.6.9-2.6,3.7-6.3Zm-179.8-8.1,2.3.4-.7,2.4-1.7-.2ZM638.6,92.6l-2.4,2.7-2-.8,1.2-1.7Zm-6.8-8.5.8-.8,5.9,3.1.9,1.8,3.2,1.4-1.5,1.1-6.2-2.1-2.1,2.5-2.3.8-1.9-3.5.8-6.1Zm21.5-12,1.3.4-.4,3.3-3.6.6-1-1.8,1.4-2.3Zm-50.6-5.5L607,70l-1.5,1.3h-2.8l-4.4-1.3-.2-1.1ZM526.9,117v-.7l-4-1.6-3.8-6.1-3.5-3-1.3-1.7-1.9.6-.6,1.6-2.5-.3-3.6-3-4.3-.7V66.6l4.3.6,5.8,2.6,2.3-1.8,4.7-.2,7-3.1,3.6,1,3.4-1.6,4.5,3.7,2.2-2.6,2.8,2.6,1.5-1.9h2.8l8.4,3.1,8.1,1.2L561.5,74l6.3.6,5.6-1.2,6.8,4.3-2-3.7-.7-3.1,4.9-1.2,4.3,3.6,2-.4,4.4,1.7,2.6-.6h4.8l.4-2,2-.7,3.9,3L612,71l-2.4-.7.3-2.9-4-1.5-1-1.2.2-4.9,4.2-3.1,3.7,2.9v2.1l2.5,2.3-1.4,2.5,3.7,1.7,1.7,4,1.9-3.8,3.1,1.7-.4,4.2,2.1,2.4,1.7-1.3,2.7-7V65.8l6.2.7,3.3,2.4v1.8l-2.5,1.4,2.6,3.4-.5,1.6-5.4,3.2-3.8-1.2-4.6,5,1,.5-2.6,3.5-3.6.6-2.7,1.6.2,1.9-3.2.8-4.3,4.9-1.7,3.7-.5,4.6,1.4,1.4,2.3-.2,2,4.9,4.3.3,4.1,1.3,2.9,2.6,4,1.3,1.8,1.1,5.8.5.8,1.1-.2,5.6,1.5,2.4,4.4,3.5,3-3.4-1.4-4.4.3-1.1-1.6-2.2,4.1-1.8,2.9-2.8.3-2.6-1.5-3.8-3.1-2.1,2.7-3.9-1.9-3.7,1.5-2.5-1.5-2.4,1.9-1.3,6.1,1.4,2.3-1,4.9,3.1.6,1.6,4.5,1.1L667,103l.7,4h1.9l2.3,2.2,3.8-1.8,2.7-5h1l3.8,5.5,2.2,2.8-.6,1.3,1.9,1.5-.4,2.1,3.1,2.9,6.5,3,.6,2.3,1.6.3,1.4,1.3.3,3.8-3,2.1-3.5.5-3.7,3.2-3.7.4-2.4-.6-8.8.4-2,2.5-2.2.5-1.5,1.1-4.1,5-1.3,1-1.3.4-2.7,1.3-4,3.5h-.7l-3.4,2.6-.8,1.3h-4.4l-1.1.4.4,1.9-8.6,3.1-1-.8,1.4-1.8,1-2.7-1-5.1-2.5-1.3-1.2-2.1-1.7-1.1-8.2-4.1-2.1.8-4.1-.5-1.1.4-3.6-1.7-1.5.3-3.4-1.4H579.7l-8.4-.2-8.5.2-9.5-.2-9.5.2-1.4-1.4-2.5-.9-1.4-2-3.2-.4-3-1.9-.5-1.9-1-1.2.6-2.3-5.3-2.6-.2-2.2,1.5-3ZM563,54.1l3.3-1.8,4.3,1.5,5.9.7,1.5-3.7,5.2,1.5,3.4,6.2,1,3.5,6.8,2.7-2.9,1.2.9,3.3-2.4.9-5.1-.4-3.6-2.2-1.7,1.7-3.7,1.1-9.1,1.2L565,68.6l-6.6-1-1.5-2.8,5.9-.9,1.9-1.6-8.9.3L554,61.1l.4-2-1.7-2.4,3.9-4,6.1-2Zm21.5-1.4-4-2.6,5.7-.2Zm59.9-3.3,5.4.7,1.9,3-7.2.3-3-2.6ZM628,61l4.1-.4.4-2.1-2.9-1.8,2.5-1.1-1.9-1.7.3-2,6.6-2.9,2.9.5,2.6,3.9L641,54.8l6.6.7,2.9-2,3.8,1.1,2.3,1.9-1,1.6,7.2.7,2.3,2.8,5.3,1.6-2.1,1.3,4.9,1.3L670,66.9l1.4,1.4v3l4,2.2,3.7.5,1.4,2,4.8,1.2,1.4,1.4L681.8,85l-2.8-.6-2-3.2-3-2.1-1.4,3.7,1.7,2.3,1.8.3,2.9,3.3.3,2.8-1.2,2-8-3.7-.8.5,6.5,4.9v1.2l-5.8-1.3-2.4-1.8L663.1,92l-4.6-4.8-2.5-.9-5.4,1.6-3.1-1.6,2.2-3,3.4.8,5.2-1.1-1.9-2.6,3.2-2,1.5-2.4-3.3-4.9-8.9-5.2-9.2-1.2-3.7.5h-6.2l-1.7-1.4-3.1.5L622.7,63,620,56.9l1.8-5,3.1-2.6,6.5-.6-3.5,4.1,1.3,4.9,2.4,1.8ZM596.7,48.1l2,.9h5.1l-1.1,3.2,2.3,2.3-.3,2.8-3.7.8-1.1,1.5-4.5-3.1-4.9-3.2,3.7.2,1.9-1.8-2.9-1.7Zm15.9-1,6.6,1.6-4.4,4.8-2.6-.3-1.6,3.4h-2.7l-1.1-7.3,2.2-1.9Zm-61.8.2,5.2-.6,4.8,3.7L555.1,53l-5.3,2.8-1,3-5.2,1.8-2.7-2.5-4.2-1.2,4.7-8-2-2.7,6.7-.9Zm61-4.2L609.5,45l-4.8-2.1,4.5-2.6Zm-9.7-6.8v6.3l-6.1.5-5.3-2.3,1.8-4.5,7.2-1.2Zm-24.6,2,6.2.6-.5,3.5-2.8,1.2-4-.3-8.7,2.6-5.8-2-6.1-2,4.7-5.5,6.7,1.2,3.3,2.8,5.1.5Zm32.6-4.1,5.8,1,5.8,5.4,5.8.4,10.3-1.7,5.2,1.2-.3,4.7-3.6.4h-12l-6.7-.3-4.7-.9-.7-5.1-2.4-2.6-4.8.6L604,35Zm-49.5-2.3-.9,3.1-11,3.4h-4.6l3.9-3.2,4.3-3.1Zm11.8-3.7.6,2.9-4,.9-3-2.8ZM605.6,26l2.3,2.9-4.2.3-3-2.8Zm-16.8-4,8.9,3.9,1.1,3.4-8.6-2.2L584.3,22Zm26.9-9.7,4.7,3.4,5.1.7,2.8,7-5.4,4.4h-6.2l-3.3-1.3-5.2-4.4-3.9-4.4,3.5-4.7ZM667.8,1.6l14,1.5,5.1,2.8-4.4,2.4-3.9,2.3-7.5,3.6-6.6,3.6-1.2,1.9L652.4,22l3.9,3-3.4,3.6-5,.4-1.6,3,1,3.7-8.1.6-7.9.8L621,36.2l.2-1.6,6.2-1.7-2.9-2.8,3-5.4,4.1-.7-3.2-4.8-.5-4.1-5.7-1.2-6-4.7,8-2.2L633,5l9.7-1.9,10.5-1.6Z" fill="#e9eaef"/>
        </g>
        <g style="mix-blend-mode: multiply">
          <path d="M667.2,405.3l3.1.3.8,1.6-3.2-.3Zm2.6-7.3v7l-7.4-.7,4.3-1.7-.2-2.1-.9-1.1,2.3-1.9Zm-13.7-10.7v2.5l-2.4-.8,1.9-3.1Zm1.8-13.9v2l-.8.6-1.3-2Zm-.1-3-1.3-.2.7-4.2,1.2.3v2.9Zm15.4-53.7.3.5-.8,2.5-2.7,1.5v2.1l.4,1.6-.4,1,.6,1.2-1.2.4-.8,1.9-1.1,1.2-.9,2.3.4,2.1-1.6,2.6v1.1l1.3,4.4.4,2.5h-.5l-.9,2.7.2,2-1.6,1.2-.2,3.4.7,2.2-1.3,1.1-1.2,4.6.4,4h-.7l-.2,2.6.8.3v3.4l1.4.2-.3,2.3-.9.9v3l-.4,1.8-1.4,1.7.4,1.3-1.9,3.2-.8,2.6.9,1.9,1.8-.2-.2,2.6,1.1,1.4h4.6l3.5,1.1-1.9-.4-3.6,1.7-.5,3.2-.6.3-4.1-2-2.3-1.9.3-4.1-2.1-.8v-1.8l1.1-2.6-.9-5.8,1.2-1.5-.4-1.1-1.7-.5v-2.2l2.3-.4,1.6-2.2,1.7-1.5-1.4-.8,1.1-3.6v-1.7l.6-.8-.8-1.4-2,.7-.6-2.2,1.7-4.8-.9-4.1.9-1.3,1.5-4.4.9-1.2.5-2.5.9-1.3-.3-1.5.8-1.8-.7-4.2.9-2.9-.4-1.9.8-1.3,1.2-5.1-.2-1.3.6-1.6-.2-.9.4-3-.5-.5.8-2,.4-2.9-.3-1.6.2-2.2-.7-3.5,1.3-.6.8-1.5,1,1.4.3,2.3,1.1.9-.7,2.5,1.4,2.2.9,3.8Z" fill="#e9eaef"/>
        </g>
        <g style="mix-blend-mode: multiply">
          <path d="M296.9,181.5h1.4l.5,1.8-.5.7-.9,3.1-2.4-.5-.3-1.3,1.1-1.4-1.9-.2-.7-1.4,2.6-1.7Zm7.5-1.7.8,1.1-1.2,1.5-1.2-.7-.9.4-1,1.6-.9-.4-.5-1.5,1.5-1.6,1.6.2Zm16-19.2.5,2.1,1.3,2.4-.2,1.4-1.1,2.3-1.3,1.1.2,2.6-1,2.1.6,1.2-1.2,1.6-1.1-.4-2.9.6-.9,1.3-2.1-.3-1.3-.9-1.9,3.9h-1.1l-1.5-3.2-4.7,1.4-1.5,1.1-.9-.6-1.9.2v-.8l2.2-1.1,2.1-2h2.9l2.7-.7,1.3.7.8-1.7,1.5-1.6h1l2.8-1.2,2.6-2.5,1.4-3.4-.3-3.3,2.8-.8Zm6-7.7,2.3.5,1.3,2.1-3.7,1.2-1.3,2.2-3.2-1.7-2,.7-2.6-.9,1.5-1.1,1.9-.4,1.1-4.4.3-2.3Z" fill="#e9eaef"/>
        </g>
        <polygon points="624 219.2 622 220.8 617.7 220.8 617.7 222.2 619.1 224.3 619 225 616 225 614.9 227 614.8 228.6 610.9 225 608.6 224.1 607.3 225.2 605.6 225.9 602 225.2 599.7 223.9 597.5 223.4 594.8 222.3 592.3 220.4 588.8 219.6 587.7 218.4 585.2 217.2 583.7 214.8 584.5 213.9 584.7 211.9 583.7 210.7 583.3 209.1 577.7 203.4 576.2 201.9 575.2 201.8 575.2 199.5 572.3 197.5 572.3 196.2 570.5 195.5 568.5 193.2 566.2 188.7 566.4 187.7 564.3 186.6 562.8 186.3 562.1 187.8 562.7 190.4 566.8 194.8 567.1 196.1 568.8 198.4 569.8 199 572.3 205.3 573.4 205.3 574.8 207 573.9 208.4 573.3 208.2 572.7 206.8 568.7 203.7 568.8 202.1 568 200.3 565.1 199 563.1 197.8 563.9 196.7 564.1 194.7 562 192.4 560.3 191.4 559.4 188.7 558 186.8 558.1 186 556.9 184.3 562.5 183.8 562.2 184.3 571.1 187.4 577.6 187.4 577.6 186.2 581.8 186.2 585.4 189.3 586.2 191.5 589.2 193.3 590.7 191.4 593 191.3 595.1 192.8 596.1 195 597.9 197 598.8 199.7 600.8 200.6 603.4 200.9 602.2 204.8 601.8 209.4 603.4 214 605 215.9 606.3 218.4 608.8 219.1 609.5 220 615.4 218.7 615.8 219.2 618.3 217.1 618.9 215.7 619.2 213.1 620.4 212.4 623.6 211.7 627.4 212.1 627.5 213.1 625.4 216.4 626.1 216.6 625 219.7 624 219.2" fill="#e9eaef" style="mix-blend-mode: multiply"/>
        <g style="mix-blend-mode: multiply">
          <path d="M224.7,247.7l2.2.5.2,1.4,2.2-1.4,2.4,1.9.7,1.3v4.5l.9.8,1,2-.2.8-1.9-.4-4.8-3.1v-.9l-1.4-1.6-.8-4.2Zm40.7,5.3-1.2-.4h-2.8l-.5.3-.5,2.7-.8.4v1l-1.4,2.3-2,.5-1.7-.8h-1.1l-1.6,1.3h-1.6l-1.1.3-2.2-1.6v-1l1,.8,2.2.3,1.4-3,3.1-.7,2.3-2.7.3-.7,1.2,1.3,1-2,1.3-.5.4-1,2.3-3.4h.9l1.2,1.2v1.3h1.2l2.4,1,.3.5-2.5,1,.9.9Z" fill="#e9eaef"/>
        </g>
        <g style="mix-blend-mode: multiply">
          <path d="M394.5,364.6l2-1,.8,2.3-3.3,3.9-.9,1.6-2.7,1.7-1.4,4.5-2.4,2h-3l-1.7-1.2h-2.2l-.5-1.2,1.5-2.3,2.8-2.6,1.1-.3,4.4-3,1.2-1.3.6-1.9,1.3-1,.2-1.3,1.1-1.3Zm.5-17.2,2.4.9,1.1,2.8v1.4l2.5.3.3,1.3,2.7,1.5,1.9-1.2,1.3.4-.5,2-1,1.6-1.9.5v1.3l-2.6,4.2-1.6,1.1-1.6-.9,1.5-2.8-.6-.9-2.5-1.2-.4-.9,1.9-.9.6-2.2v-2.9h-.8l-3.2-4.6Z" fill="#e9eaef"/>
        </g>
        <polygon points="667.5 288.3 669.6 292 668.9 292.9 668.7 294.7 669.2 296 668 297.6 668.5 298.4 667.9 299.3 668.8 301.8 667.4 303.1 667.7 303.8 666.9 305.3 665.6 305.9 663.5 304.3 663.3 303.6 660.8 301.9 657.9 300.7 654.7 298.8 652 295.8 652.2 294.3 650.7 291.6 649.9 290.9 649.6 289.7 648.8 289.1 646.2 282.8 643.1 278.2 640.6 276.8 641.3 275.8 640.2 273.6 640.3 272.8 642.5 270.6 642.5 272.5 644.4 273.3 645.5 274.3 646.4 273.2 647.2 270.7 648.2 269.6 650.6 268.9 652.5 267.7 654.4 264.9 654.3 262.9 655.4 263.2 656.7 265 658.1 265.6 659.2 268 661 268.4 662.4 267.7 663.3 268.1 664.5 267.8 666.4 268.9 664.9 271.5 665.8 271.6 666.7 272.6 664.7 272.4 662.3 273.2 659.8 274.7 659 276.9 659.3 277.8 657.8 278.8 657.9 280.8 658.3 282.2 659.6 283.7 659.2 284.7 661.1 284.9 661.5 286.1 663.6 286 665 284.9 665.1 288.4 667.5 288.3" fill="#e9eaef" style="mix-blend-mode: multiply"/>
        <polygon points="234.7 238.4 237.7 237 238.4 235.2 239.4 235.4 242 233.6 242.1 231.3 241.5 229.7 241.9 228.3 242.2 227.1 240 224.1 239 222.2 236.3 219.3 236.4 218.8 233.5 217.3 233.8 216.3 235.1 216.5 235.9 215.5 235.1 214.1 233.9 213.2 232.8 213.9 231.7 213.4 229.4 209.8 230.2 208.8 231.4 209.6 232.1 208.8 233.5 209.4 235.6 208.4 236.7 207.4 239.7 209.3 239.9 210.6 241.5 211.6 243 211.9 241.6 212.4 240.1 213.7 239.6 214.8 238.4 215.7 237.5 218 238.1 219.2 239.6 220.5 240.1 221.9 242.6 224.4 243.1 224.4 245 226.6 246.1 230.3 245.8 235.3 245.3 236.2 243.1 237.7 240.1 238.7 239.6 240.4 237.2 241.5 236.4 242.6 235.6 242.2 235.7 240.3 236.3 239.6 234.7 238.4" fill="#e9eaef" style="mix-blend-mode: multiply"/>
        <polygon points="669.8 398 669.7 405 674.7 405.6 677.4 405.1 672.4 402.1 669.8 398" fill="#fff"/>
        <polygon points="710.1 265.1 709.5 264.2 708.8 266 710.1 265.1" fill="#fff"/>
        <polygon points="711.2 265.1 711.9 266.9 713.6 266.9 714.9 266.4 716.5 264.7 716.9 263.4 714 263.2 712.5 262.9 711.6 263.3 711.2 265.1" fill="#fff"/>
        <polygon points="746.8 274.6 742.9 274.1 739.9 271.4 736.5 269.4 732.5 269.4 728.9 268.2 726.3 268.6 725.6 266.8 724.7 266.2 719.2 264.2 717.7 264.3 716.1 266.1 712.2 267.4 711.5 266.8 711 264.9 708.6 266.4 708.4 265.9 710.1 262.9 711.2 262.3 713.4 260 713 258.7 711.8 258.2 710.3 253.2 709.3 253.3 708.7 252.2 706.4 250 704.1 249.3 703.5 250.2 703.7 249.2 701.1 248.7 699.2 249.2 696.7 248.9 696.3 249.8 696.3 248.3 694.6 246.9 693.2 246.8 693.4 245.7 692.6 244.7 689.8 242.7 688 242.7 688 240.9 685 239.4 684.5 239.9 683.3 238.4 680.8 237.8 677.9 239.2 676.2 238.8 675.3 237.9 670.9 238.2 670.3 236.6 669.3 236 666.4 235.8 663.1 237.1 663.3 238.8 664.2 240.1 664.1 240.9 662.5 241.4 661.6 239.8 662.8 237.7 662 235.8 663.5 234.9 663.6 233.8 662.6 233.6 661.3 234.9 658.9 236.3 657.1 236.2 656.2 237 655.2 236.8 653.9 237.9 653.3 238.9 653.5 240.6 650.5 242.6 649.5 242.5 648.3 241.5 645.4 240.4 644.3 240.3 640.5 242.2 638.4 241.9 637.4 240.3 635.2 238.3 634.8 237.2 634.4 235 635.1 233.7 635 231.5 635.9 229.3 635.9 227.6 634.6 227 633.4 225.6 629.8 225.1 628.5 225.7 624.1 225.8 622.6 225.4 624 223.7 624.5 220.1 624 219.2 622 220.8 617.7 220.8 617.7 222.2 619.1 224.3 619 225 616 225 614.9 227 614.8 228.6 617.3 230.1 618.6 230.1 619.9 230.6 623.5 231.8 625.1 231.3 626.2 232.3 627.4 234.1 629.9 236.9 629.7 238.4 630.2 239.6 631.4 240.3 632.6 240.4 634.8 241.6 634.6 242.6 635.7 242.9 636.6 243.9 637.1 243.3 639.3 243.7 639.8 244.7 640.9 244.7 641.2 245.7 643.3 245.2 642.2 243.8 645.4 241.7 646.9 243 647 243.9 648.2 245.8 649.5 247.4 649.2 248.3 649.7 249.3 649.6 252 649.2 253.3 649.9 253.7 648.8 256 646.5 257.3 646 259.3 645.9 259.9 643.2 260.8 643.2 262.4 642.2 263.6 642.1 264.7 641.2 265.2 641.6 267.5 642.2 268.8 643.3 268.2 644 268.7 643.5 269.9 642.5 270.6 642.5 272.5 644.4 273.3 645.5 274.3 646.4 273.2 647.2 270.7 648.2 269.6 650.6 268.9 652.5 267.7 654.4 264.9 654.3 262.9 655.4 263.2 656.7 265 658.1 265.6 659.2 268 661 268.4 662.4 267.7 663.3 268.1 664.5 267.8 666.4 268.9 664.9 271.5 665.8 271.6 666.7 272.6 664.7 272.4 662.3 273.2 659.8 274.7 659 276.9 659.3 277.8 657.8 278.8 657.9 280.8 658.3 282.2 659.6 283.7 659.2 284.7 661.1 284.9 661.5 286.1 663.6 286 665 284.9 665.1 288.4 667.5 288.3 669.6 292 668.9 292.9 668.7 294.7 669.2 296 668 297.6 668.5 298.4 667.9 299.3 668.8 301.8 667.4 303.1 667.7 303.8 668.7 305.1 669 307.5 670.1 308.4 669.4 310.9 670.8 313.1 671.7 316.9 673.1 316.7 673.5 317.2 672.7 319.7 670 321.2 669.9 323.3 670.3 324.9 669.9 325.9 670.5 327.1 669.3 327.5 668.5 329.4 667.4 330.6 666.5 332.9 666.9 335 665.3 337.6 665.2 338.7 666.5 343.1 666.9 345.6 666.4 345.7 665.5 348.4 665.7 350.4 664.1 351.6 663.9 355 664.6 357.2 663.3 358.3 662.1 362.9 662.5 366.9 661.8 367 661.6 369.6 662.4 369.9 662.3 373.3 663.7 373.5 663.4 375.8 662.5 376.7 662.6 379.7 662.2 381.5 660.8 383.2 661.2 384.5 659.3 387.7 658.5 390.3 659.4 392.2 661.2 392 661 394.6 662.1 396 666.7 396 670.2 397.1 668.8 394.6 668.3 392.7 668.8 391.4 671.5 389.8 672.5 386.7 676.3 383.7 675.9 381.2 674 380.9 672.2 379 672.1 378.1 673.7 375.8 675.5 375 676.7 375.1 677.4 373.6 677.6 371 678.6 369.9 678.3 368.4 679.4 368 681.3 368.8 681.4 367.4 679.6 367.8 678.1 366.5 678.1 363.3 681.1 364.2 684.3 363.5 684.2 362 685 359.4 686.2 358.3 690.2 357.9 694.1 356.8 695.6 355.8 697.6 352.5 697.5 351.3 696.2 350.6 696.1 348.1 693.8 346.8 693.2 345.7 693.5 342.7 694 341 693.6 344.7 694.9 346.3 696.4 346.1 698.9 347.4 699.9 347 701.7 347.4 704.3 346 705.3 344.3 706.7 343.1 708.2 340.2 708.5 338.2 709.8 337.3 710.7 335.3 711.5 336.5 714.2 332.3 715.9 331.1 716.5 328 716.2 326.3 716.9 322.8 720.4 320.2 722.5 319.1 723.7 319.1 725.6 317.3 727.4 317 731.6 317 731.8 316.1 734.1 314.5 734 313.5 734.6 312.1 735.5 311.2 736.9 308.8 737 306.6 737.6 305 738.3 304.3 738.4 302.1 739 299.9 738.5 294.5 739.4 292.2 740.5 292.8 743.5 288 744.8 287.2 747.2 284.2 748.1 282.3 748.5 279.9 747.4 275.7 746.8 274.6" fill="#fff"/>
        <polygon points="248.8 218.6 249 217.5 250 216.4 249.8 215.6 246.1 215.8 244.6 217.2 244.7 219.1 246.6 219.8 248.8 218.6" fill="#fff"/>
        <polygon points="654.7 215.8 656.7 215.4 655.2 214 653.5 213.7 653.3 212.9 651.1 212.4 646.3 209.8 645 209.7 643.1 208.4 639 207.8 635.8 208.3 633.9 209.1 632.8 210.6 632.9 211.2 636.9 209 638.9 209 639.1 210.2 642.2 210.6 645.2 211.8 646.5 211.9 646.8 213 648 213.8 650.1 214.5 648.6 215.9 652 215.6 654.7 215.8" fill="#fff"/>
        <polygon points="70.7 177 68.4 176.8 67.9 177.3 67.8 178.7 69.2 178.6 70.8 177.6 70.7 177" fill="#fff"/>
        <polygon points="21 117.4 20.1 116.2 17.6 117.9 18.8 119.3 21 117.4" fill="#fff"/>
        <polygon points="666.7 216.4 664.3 215.8 662.4 216.2 660.5 215.8 660.1 219.3 657.1 218.8 657.5 220.3 658.7 219.7 661.8 219.8 662.5 220.3 663.4 221.1 664.2 219.7 666.2 219.7 667.1 219.3 669.8 219.6 669.6 218.2 668 217.7 666.7 216.4" fill="#fff"/>
        <polygon points="407.4 302.4 409.2 302.2 410.6 300.6 410.6 300.6 407.3 301.9 407.4 302.4" fill="#fff"/>
        <polygon points="405 303.7 404.2 304.9 405.9 305.7 407.4 305.2 406.6 303.5 405 303.7" fill="#fff"/>
        <polygon points="692.5 393.8 690.6 396.4 692 396.5 694.9 395.1 694.6 394.1 692.5 393.8" fill="#fff"/>
        <polygon points="13.7 156.6 12 157.3 12 159.5 13.1 160.5 13.9 158.5 13.7 156.6" fill="#fff"/>
        <polygon points="48.2 176.8 47.2 176.4 49.4 178 51.6 176.9 48.2 176.8" fill="#fff"/>
        <polygon points="764.5 63.4 770.3 62.5 770.3 61.4 765 61.4 764.5 63.4" fill="#fff"/>
        <polygon points="708.2 67.3 706.7 65.5 702 64.3 701.7 66.4 704.8 68.3 708.2 67.3" fill="#fff"/>
        <polygon points="767.2 63.2 764.3 63.5 763 63.2 764.5 61 767.3 61.2 769.7 59.9 772.7 60.4 775.2 63.4 779.4 63 777.6 56.2 777.4 51.2 781.7 50.1 784.6 46.5 781.8 41.8 784.4 41.8 782.7 37.5 778.6 35.7 780.7 34.3 786.4 34.7 786.8 32.7 778.9 29.7 780.7 25.9 785.3 22.5 782.6 18.3 789.9 17.4 795.8 13.2 802.9 10.4 796.3 8.5 789.4 10.6 782.9 9.9 779.2 4.3 774.4 2.1 769.1 0 759.8 -1.5 741.7 -1.2 733.4 1.2 721.3 2.1 725.7 4.3 725.8 8.3 718.8 6.5 711.2 4.7 699.6 6.2 688.8 7.9 682.9 11.9 674.5 15.6 678.6 18.4 676 23 672.7 23 661 26.2 660.1 27.9 668.5 31.4 663.9 33.5 669.7 35.7 668 36.9 674 38.7 681.9 36.9 693.3 40 693.1 41.4 697.3 44.8 697.5 46.8 702.1 52.8 699.9 55.8 700.1 58.6 706.2 60.3 709.9 60.5 709.6 63.4 704.1 61.8 703.8 63.5 707.7 64.8 711.9 65.5 710.5 71 707.1 70.5 704 76.8 706 78 704.7 80.6 707.9 84.4 709.6 90.1 712.3 93.1 712.3 94.4 716.9 99.6 724.1 101.6 723.9 102.4 727.2 103.8 729.1 102.9 731.5 96.6 731.6 93.6 735.1 89.8 734.6 88 735.9 87 736.5 82.9 744.9 81.9 750.1 78.4 752.4 74.8 754.7 73.4 757.7 73.1 768.1 70.6 772.7 67.6 777.6 64.7 767.2 63.2" fill="#fff"/>
        <polygon points="272.3 261.5 278.2 261.6 279.4 262 281.3 261.6 282.4 260.4 283.1 259.3 282.5 258.8 280.1 260.7 277.6 260.7 273.1 259.7 272.2 260.8 271.6 260.4 270.3 262.9 270.3 264.3 269.8 264.8 268.9 268.5 268.1 269.1 268.6 270.9 269.8 271 270.1 272.1 269.5 275.1 270.3 276 271.9 275.5 271.6 274.6 271.9 271.3 271.6 269.8 272.5 268.9 273.3 268.9 273.1 271 274.7 272.4 274.6 273.8 277.6 272.9 277.6 272.3 276.3 271.3 276.3 269.5 274.1 267.2 276.3 266.3 278.3 264 275.6 264.8 274.6 264.6 273.4 266 272.5 265.9 271.2 264.2 271.4 262.1 272.3 261.5" fill="#fff"/>
        <polygon points="285 270.7 286.6 271.6 287.8 271.2 286.9 269.9 285 270.1 285 270.7" fill="#fff"/>
        <polygon points="314.6 279.9 312.9 280.5 312.1 282.3 314.1 282 315.1 280.4 314.6 279.9" fill="#fff"/>
        <polygon points="290.1 259.4 289 260.7 289.6 258.8 288.8 258.4 288.2 260.1 289.4 261.7 291.2 260.1 290.1 259.4" fill="#fff"/>
        <polygon points="304.2 277.1 305.3 277.2 305.3 276 304.3 276 304.2 277.1" fill="#fff"/>
        <polygon points="238.2 269.1 239.6 269.8 240.3 268.7 239.2 268.4 238.5 266.6 237.1 266.4 236.4 267.3 237.9 267.8 238.2 269.1" fill="#fff"/>
        <polygon points="242.2 268.7 242.2 270.2 243.5 269.7 243.2 268.7 242.2 268.7" fill="#fff"/>
        <polygon points="257.2 280.5 254.7 280.6 253.6 278.9 249.4 277.9 248.9 278.8 244.8 278.6 243.8 277.4 241.5 276.7 240.3 276.9 238.5 276.5 237.1 278.5 239.6 279.2 239.6 279.9 241.4 280.1 242.8 280.8 246 280.7 251.2 282.1 254 282.3 255.3 282 257.4 282.8 258.1 282.7 257.9 280.8 257.2 280.5" fill="#fff"/>
        <polygon points="238.1 270.6 238.5 270.1 237.4 268.5 235.9 268.2 235 267.1 234.6 265.1 232.8 264.6 232.4 263.2 233.3 262.6 232.5 261.6 230.2 260.9 229.3 259.5 227.9 258.8 226.9 257.5 225.8 257.7 223.8 255.3 220.5 253.2 220.4 252.4 218.5 250.5 216.2 250.6 214.5 249.7 213.3 249.7 213.9 251.6 216.4 253.9 217.2 254.2 218.8 256.1 219.1 257.2 221.1 258.3 222.4 261.9 223.5 262.5 225.2 264.6 226.5 267.9 228.2 270.3 229.4 271.1 230.3 272.4 233.3 274.5 235.1 276.5 236.8 275.6 237.9 275.9 238.1 270.6" fill="#fff"/>
        <polygon points="264.3 282.2 263.5 282.8 264.1 284 268.5 283 268.6 282.2 266.9 282.1 264.3 282.2" fill="#fff"/>
        <polygon points="270 285.5 271.9 286.7 272.8 285.9 271 284.6 270 285.5" fill="#fff"/>
        <polygon points="265.2 262.2 265.7 261 266.5 260.5 267.5 260.8 268.6 260.4 265.9 258 266.5 257.5 265.4 255.6 265.4 253 264.2 252.6 261.4 252.6 260.9 252.9 260.4 255.6 259.6 256 259.6 257 258.2 259.3 256.1 259.8 254.5 259 253.4 259.1 251.8 260.4 250.2 260.3 249.1 260.6 246.9 259 246.9 258 245.5 259.3 245.2 261.9 245.8 262.7 246 264.7 247.6 265.5 248.3 269.5 251.9 269.7 251.9 270.9 254.6 270.1 256.1 270.7 257.2 270.4 258.2 270.8 258.6 272.4 261.6 271.1 262.2 270 262.9 266.1 265.4 264.4 265.2 262.2" fill="#fff"/>
        <polygon points="274.3 282.7 272.4 281.9 271.5 282 271.2 283.2 273.3 283.5 277.4 282.8 275.6 282.4 274.3 282.7" fill="#fff"/>
        <polygon points="293.7 269.4 290.1 269.4 290.7 270.7 291.4 270.3 293 270.7 293.9 270.4 296.1 271.7 295.6 270 293.7 269.4" fill="#fff"/>
        <polygon points="806 130.5 806.2 130.5 806.2 128.3 805.3 129 806 130.5" fill="#fff"/>
        <polygon points="806.2 122.2 806 125 806.2 125.1 806.2 122.2 806.2 122.2" fill="#fff"/>
        <polygon points="797.9 84.5 793.3 80.4 791 79.4 788.6 81.3 786.9 80.6 780.7 82.9 779.7 81.2 776.7 84.9 778.4 86.9 778.3 88.4 782.5 90.4 786 91 795.6 87.1 797.9 84.5" fill="#fff"/>
        <polygon points="11.3 166.6 14 166.7 14.5 162.8 14.2 161.9 13.5 161.1 11.7 162 11.3 166.6" fill="#fff"/>
        <polygon points="23.6 169.9 21.4 169.3 20.6 170.3 25.5 173 26.9 173.4 26.8 171.3 28 169.2 23.6 169.9" fill="#fff"/>
        <polygon points="647.2 219.8 649.8 221 651.8 220 649.7 219.3 647.5 219.3 647.2 219.8" fill="#fff"/>
        <polygon points="179.5 240.8 177.9 239.8 178.1 240.6 177.5 243.9 177.5 246.8 178.4 248.7 179.5 248.7 181.9 247.5 182.2 245.7 181.1 243 179.5 240.8" fill="#fff"/>
        <polygon points="802.9 194.9 799.3 196 797.9 199 795.8 200.4 794.8 204 792.7 206.4 791.4 209.2 790.1 210.9 789.9 212.1 789.8 213.6 790.2 212.9 791.7 215 791 217.1 791.7 217.9 792.2 220.6 791 224.5 791 225.5 789.6 227.7 790.9 230.9 790.4 232.1 790.6 233.8 792.7 235.2 793.6 234.8 793.6 236.5 794.4 237.1 794.9 237.1 795.9 238.8 797.6 239.7 798.6 241.6 799.5 244.4 800.4 245.5 802.7 246.6 805.6 248.5 806.2 249.1 806.2 191.2 805.1 193.1 802.9 194.9" fill="#fff"/>
        <polygon points="107.9 293.3 107 291.8 106.3 290.9 105.3 291.9 105.3 293.8 103.4 295.4 102.9 296.3 101.1 298.5 99.1 299.6 95.1 300.8 95.1 301.9 94.1 303.6 94.2 305.7 95.2 308.5 95 310 93.7 312.7 92.9 313.2 92.3 315.4 93.4 318.5 93.3 320.5 94.3 322.2 97 323.5 101 322.2 101.7 321 103.2 315.7 106.6 305.9 106.7 303.2 107.7 301.7 107.2 299.1 109.2 298.8 107.9 293.3" fill="#fff"/>
        <polygon points="373.9 310.5 374.4 311.9 376.5 313.7 379.8 315.7 380.4 315.4 376.1 311.7 373.9 310.5" fill="#fff"/>
        <polygon points="23.5 28.5 24.3 31.5 31.4 35.3 35.1 29.3 39.6 23.1 35.4 22.2 30.8 18.9 26.2 19.6 16.9 19.4 19.6 25.5 23.5 28.5" fill="#fff"/>
        <polygon points="42 25.8 40.3 30.9 44.2 32.3 49.7 30 45.5 28.8 42 25.8" fill="#fff"/>
        <polygon points="47.9 22.5 54.7 19.2 54.2 17.6 40.3 17 34.4 18.1 38 20.9 47.9 22.5" fill="#fff"/>
        <polygon points="278.9 242.4 277.8 243.7 275.9 244.5 278.8 245.4 279.1 244.5 280.2 244.8 280.4 247.8 283.1 249.2 284.2 248.2 283.4 247.1 284.5 245.6 285.4 246.7 286.3 245.8 285.7 242.1 285 240.9 283.8 241.6 282.3 241.8 281.9 242.7 280.8 243.5 278.9 242.4" fill="#fff"/>
        <polygon points="268.1 239.6 269.2 239.2 269.3 238 264.8 242.4 264.7 243 267.4 241.1 268.1 239.6" fill="#fff"/>
        <polygon points="271.1 227.9 273.1 228.2 272.4 229.9 274.1 230.8 275 230 277.2 231.3 278.3 231.2 279.8 231.6 279.5 230.1 276.8 229.1 275.2 229.8 274.2 226.6 274.9 225.1 275.9 224.7 276.8 222.5 276 221.4 275.5 219.7 273.6 218.9 272.4 219.2 271.8 221.3 271.9 224.6 270.4 225 271.1 227.9" fill="#fff"/>
        <polygon points="275.8 235.5 275.6 238.3 277.4 237.4 278.3 235.7 276.8 235.6 275.8 235.5" fill="#fff"/>
        <polygon points="272.6 231.1 271.9 231 273.6 234.1 274.6 233.2 274 231.4 272.6 231.1" fill="#fff"/>
        <polygon points="283.8 235.7 283.9 234.2 283.2 233.4 280.9 233.3 281.3 234.3 282.6 235.4 283.8 235.7" fill="#fff"/>
        <polygon points="278.5 237 277.5 238.2 277.6 239.1 276.5 239.6 276.9 240.6 278.2 241.6 278.7 240.9 278.3 239.7 279.3 237.5 278.5 237" fill="#fff"/>
        <polygon points="344.7 273.8 343 275.3 341.2 275.6 336.9 275.6 337.1 276.2 339.9 277.3 341.8 277.3 343.4 276.7 344.2 275.7 345.8 275.2 346.4 272.8 345.2 272.7 344.7 273.8" fill="#fff"/>
        <polygon points="339.1 284.9 339 283.9 337.5 283.8 336.4 281.6 334.2 279.9 334.1 278.4 335.6 278.3 335.7 277.6 334.8 276.6 330.9 275.3 330.9 274 327.9 271.6 326.9 271.6 325.7 270.7 319.8 268.8 317 268.2 312.6 266.1 310.9 266.9 310.2 267.8 309.1 268 307 270.5 306.1 270.5 305.1 269.5 305.1 268.7 304 268.1 304.2 265.8 303.8 264.7 299.8 263.5 297.2 264.7 296.5 266 298.7 266.4 299.6 267.9 303.4 267.7 302.6 268.6 301.6 268.4 300.5 269.2 301.1 272.3 301.8 272.2 302.7 270.5 303.5 271.6 305.1 271.9 306.3 273.1 308.2 273.3 310.8 274.1 313 275.4 313 276 314.9 278.7 315.4 280.4 314.9 281.8 317.4 281.6 319.8 284 322.7 284.1 323.6 284.5 325.5 283.2 324 282.2 325.9 281.8 328 280.4 331.5 281.5 333.1 283.8 335.5 286.2 340.2 286.9 341.5 287.6 342.3 286.6 340.6 286.1 339.1 284.9" fill="#fff"/>
        <polygon points="351.7 276.3 352.9 277.4 353 278.1 354.7 278.3 352.7 275.8 351.7 276.3" fill="#fff"/>
        <polygon points="676 220.4 675.6 219.3 673.2 219.2 673.2 220.4 676 220.4" fill="#fff"/>
        <polygon points="413.3 58.5 410.6 58.7 410.6 61.1 415.1 60.9 413.3 58.5" fill="#fff"/>
        <polygon points="340.4 44.2 341 42.2 333.3 41.4 336.3 44 340.4 44.2" fill="#fff"/>
        <polygon points="326.9 43 329.7 40.5 321 37.8 317.6 39.3 314.9 37.6 311.7 38.9 310.5 41.9 316 44.7 326.9 43" fill="#fff"/>
        <polygon points="127.9 45.6 132.4 43.8 134.5 41.8 141.7 39.5 149.4 37.4 152 35.7 148.9 33.6 145 35.6 138.3 37.4 128.7 39.3 124.3 41.4 120.9 45.7 117.9 49.9 124.3 50.7 127.9 45.6" fill="#fff"/>
        <polygon points="224.1 29 236.8 26.2 231.1 22.4 228.2 21.8 225.3 25.2 222.8 28.5 224.1 29" fill="#fff"/>
        <polygon points="116 61.6 118.8 62.4 125.9 62.2 123.1 60.6 120.4 56.9 120.6 54.7 123 51.4 120.5 50.9 115.6 51.4 112.3 58.9 115.9 58.7 116 61.6" fill="#fff"/>
        <polygon points="212.7 17.6 217.8 17.2 219.5 14.7 216.4 12.6 209 12.8 204.7 16.5 210.2 18.3 212.7 17.6" fill="#fff"/>
        <polygon points="212.7 17.9 208.3 21 212.3 23.1 220.7 24.7 224.6 19.6 219 17.6 212.7 17.9" fill="#fff"/>
        <polygon points="108.7 68.6 106.3 67.2 104.2 68.2 105 70.4 108.7 68.6" fill="#fff"/>
        <polygon points="78.6 144.6 80.6 144.2 79.1 144.3 78.6 144.6" fill="#fff"/>
        <polygon points="326.8 137.7 326.3 134.7 325.2 130.6 325 125.3 323.9 121.9 323.4 124.9 321.7 125.2 321.4 129.6 322.7 131.8 322.5 136.9 321.8 139.3 322.6 141.5 321.7 146.1 323.2 145.5 325.2 145.8 323.5 142.5 324.6 138.2 326.8 137.7" fill="#fff"/>
        <polygon points="361.1 280.5 360.8 280.8 363.8 282.6 363.7 282.1 361.1 280.5" fill="#fff"/>
        <polygon points="282.5 283.6 281.3 284.1 280.3 284.5 279.6 285.2 279.7 286.9 281.3 286.4 282.8 284.9 283.5 284.3 287.1 283.1 287.9 282.3 284.4 282.5 282.5 283.6" fill="#fff"/>
        <polygon points="273.3 209.2 274.1 208.1 275.2 204.5 275.4 203.1 274.6 202.6 273.5 203.1 271.3 206.5 271.5 208.9 272.5 210.6 273.3 209.2" fill="#fff"/>
        <polygon points="442.7 103.9 442.9 101.8 439.8 102.4 442.7 103.9" fill="#fff"/>
        <polygon points="522.8 114.7 519 108.6 515.5 105.6 514.2 103.9 512.3 104.5 511.7 106.1 509.2 105.8 505.6 102.8 501.4 102.1 501.4 66.6 496.2 64.7 492.9 65.3 485.7 64.3 482.1 63.1 475.9 63.4 472.9 61.3 470.6 61.9 464.6 59.7 461.8 61.7 458.7 61.5 454.8 63.9 452.7 63.8 447.5 69.5 442.7 69.8 443.2 72.7 447.5 75 448.9 77 453.4 77.5 453 81 448.5 80.9 446.3 79.1 438.6 82.9 442.8 86.6 445.7 87.1 448.5 86.6 450.6 87.4 454 87.1 455.3 89.5 451.9 90.5 449.4 92.2 446.7 91.7 446 93.8 443.8 95.7 442.8 97.7 445.3 99.9 444.6 101.3 448 103.8 451.9 102.5 453 107.9 456.3 106.4 460 108.5 462.9 108.6 462.4 111.5 458.8 114.4 452.1 117.5 449.4 119.6 451.9 119.7 460 116.7 460.8 115.2 465 113.3 465.3 112.3 468.8 109.9 470.6 109.5 472.6 107.1 470.7 106 472.3 104.1 474 103.4 477.3 100.6 476.1 104.1 478.2 105.7 482.4 103 484 103.1 485.3 100 488.2 99.7 490 101.4 493.9 102.6 496.8 102.8 504.3 104.8 511.4 109.1 515.1 107.3 519 110.9 518.9 112.8 520.1 113.2 522.7 115.9 524.3 116.7 525.6 120.6 526.4 119.8 526.9 117 526.8 116.3 522.8 114.7" fill="#fff"/>
        <polygon points="618.2 193 620.8 191.9 620.6 190.4 622.6 189.7 625.2 190 627.1 189.8 629.7 190.2 631 191.2 634.7 190.9 637.2 193.8 636.7 196.2 639.3 200.9 640.1 201.3 640.7 203 642.5 202.5 643.2 199.4 643.1 198.1 640.4 191.3 639.8 188.4 640.6 186.3 642.5 184.3 645 182.7 646 181.1 648.2 180.6 648.5 179.7 651.8 178 651.4 177.1 653.1 176.1 652.6 172.7 651.7 172.5 652 170.1 653.5 169.9 654.9 168.6 655.5 167.1 656.9 165.1 657.4 163.5 656.8 162.6 660 160.9 662.5 160.7 665.3 159.4 664.8 158.2 664.8 155.8 666.4 153.7 668.8 152.9 669 152.2 673.1 151.2 673.3 149.8 671.7 148.3 671.7 144.3 670.5 143.5 668.3 143.1 666.6 145.3 665.9 147.7 665 149.1 663.1 150.3 655.6 150.3 654.9 150.4 651.5 153 650.7 154.3 646.3 154.3 645.2 154.7 645.6 156.6 637 159.7 636 158.9 637.4 157.1 638.4 154.4 637.4 149.3 634.9 148 633.7 145.9 632 144.8 623.8 140.7 621.7 141.5 617.6 141 616.5 141.4 612.9 139.7 611.4 140 608 138.6 579.7 138.6 571.3 138.4 562.8 138.6 553.3 138.4 543.8 138.6 545 141.5 539.4 140.4 539.4 141.6 541.2 145.5 540.6 154.1 539.7 156.6 540.8 160.5 540.2 163.7 541.3 165 541.6 167.4 544.3 170.4 544.6 171.9 545.9 172.7 545.9 174.3 548.7 177.5 548.7 178.9 551.1 179.3 553.7 180.4 556.1 182.3 556.9 184.3 562.5 183.8 562.2 184.3 571.1 187.4 577.6 187.4 577.6 186.2 581.8 186.2 585.4 189.3 586.2 191.5 589.2 193.3 590.7 191.4 593 191.3 595.1 192.8 596.1 195 597.9 197 598.8 199.7 600.8 200.6 603.4 200.9 602.5 198.4 603.3 195.5 607.5 193.5 609 191.9 612.6 191.3 614.7 191.9 615.3 191.2 618.2 193" fill="#fff"/>
        <polygon points="518.7 115.5 520.5 119.7 521.7 118.1 519.5 115.6 518.7 115.5" fill="#fff"/>
        <polygon points="469.9 111.5 470 113.2 471.5 113.4 474.8 111.8 473.6 110.6 469.9 111.5" fill="#fff"/>
        <polygon points="511.7 110.1 513.2 111.8 515.5 109.9 513.6 109.1 511.7 110.1" fill="#fff"/>
        <polygon points="466.8 214.9 466.3 216.1 466.7 217.8 467.4 217.9 469.2 216.7 468.3 215.6 466.8 214.9" fill="#fff"/>
      </g>
      <g>
        <polygon points="547.7 479.1 549 476.5 543.2 476.1 543.6 479.2 547.7 479.1" fill="#fff"/>
        <polygon points="605.9 471.3 605.7 468.3 601.2 468.3 600 467.7 591.8 468.7 591.5 469.3 601.8 471.2 605.9 471.3" fill="#fff"/>
        <polygon points="661 467.2 664.7 468.3 659.4 470.5 660.9 471.6 668.5 471.1 670.7 468 670.5 464.1 666.4 456.9 665.6 455.3 661.9 456 662.3 460.1 664 461.1 662.6 465.1 660.2 464.7 654.1 467.3 657.3 469.5 661 467.2" fill="#fff"/>
        <polygon points="908.5 177 906.1 176.8 905.6 177.3 905.6 178.7 907 178.6 908.6 177.6 908.5 177" fill="#fff"/>
        <polygon points="858.7 117.4 857.9 116.2 855.3 117.9 856.6 119.3 858.7 117.4" fill="#fff"/>
        <polygon points="851.5 156.6 849.7 157.3 849.7 159.5 850.8 160.5 851.7 158.5 851.5 156.6" fill="#fff"/>
        <polygon points="818.2 116.5 818.6 118.3 817.4 120.2 821.1 121.3 822.1 122.7 822.4 124.9 819.9 125.6 819.8 128.4 817.4 129.5 821.8 131.2 819.7 131.9 818.9 133.2 816.5 134.9 817.3 135.5 821.5 133.6 824.7 133.7 826.9 133 830 133.2 832.7 132 831 131.2 833 129.2 833.3 127 831.1 126.3 829.3 124.2 829.3 122.7 826.8 121 825.6 118 823.3 115.6 825.4 111.8 824.6 111 820.5 111.3 820.2 110.1 822.3 108.2 817.7 108.2 815.9 111.8 816.6 112.5 815.8 114.8 818.2 116.5" fill="#fff"/>
        <polygon points="886 176.8 884.9 176.4 887.2 178 889.4 176.9 886 176.8" fill="#fff"/>
        <polygon points="812 129.1 814.7 128.6 815.5 126.5 815 122.8 816.5 120.9 815.3 119.2 812.7 119.6 810.2 119.4 809.1 120.9 809.6 122.3 806.2 122.2 806.2 125.1 807.9 126 807 127.7 806.2 128.3 806.2 130.5 807.9 131 812 129.1" fill="#fff"/>
        <polygon points="849.1 166.6 851.8 166.7 852.3 162.8 852 161.9 851.3 161.1 849.4 162 849.1 166.6" fill="#fff"/>
        <polygon points="861.4 169.9 859.1 169.3 858.4 170.3 863.2 173 864.7 173.4 864.6 171.3 865.8 169.2 861.4 169.9" fill="#fff"/>
        <polygon points="945.7 293.3 944.8 291.8 944 290.9 943 291.9 943 293.8 941.2 295.4 940.6 296.3 938.8 298.5 936.9 299.6 932.8 300.8 932.8 301.9 931.9 303.6 931.9 305.7 933 308.5 932.8 310 931.4 312.7 930.7 313.2 930.1 315.4 931.2 318.5 931.1 320.5 932 322.2 934.7 323.5 938.7 322.2 939.5 321 941 315.7 944.4 305.9 944.5 303.2 945.4 301.7 945 299.1 946.9 298.8 945.7 293.3" fill="#fff"/>
        <polygon points="879.7 25.8 878.1 30.9 881.9 32.3 887.4 30 883.3 28.8 879.7 25.8" fill="#fff"/>
        <polygon points="861.3 28.5 862.1 31.5 869.2 35.3 872.9 29.3 877.4 23.1 873.1 22.2 868.5 18.9 864 19.6 854.6 19.4 857.3 25.5 861.3 28.5" fill="#fff"/>
        <polygon points="885.6 22.5 892.5 19.2 892 17.6 878.1 17 872.2 18.1 875.8 20.9 885.6 22.5" fill="#fff"/>
        <polygon points="953.7 61.6 956.6 62.4 960 62.3 960 59.4 958.2 56.9 958.3 54.7 960.8 51.4 958.2 50.9 953.4 51.4 950 58.9 953.7 58.7 953.7 61.6" fill="#fff"/>
        <polygon points="960 44.1 958.7 45.7 955.6 49.9 960 50.4 960 44.1" fill="#fff"/>
        <polygon points="946.4 68.6 944 67.2 941.9 68.2 942.8 70.4 946.4 68.6" fill="#fff"/>
        <polygon points="916.3 144.6 918.4 144.2 916.8 144.3 916.3 144.6" fill="#fff"/>
      </g>
      <path d="M960,200.7l-3.3,3.3-.6,1.1-1.2.5-2.9-.2-1.8.4-.7-.7-.7-.8.7-.9v-2.3l-.7-.7-1.2,1.8v1.6l-1.6-2.6.2-1.1-.5-1.4-2.8-2.2-.9-2-.8-2.1v-1.6h1.2l1.2-.9,1.2.7,1.3-.4,2.7,5.2.7.7,2.1.6.5.7,2.4,1.5,2.2.6,3.3-1.5V70.9h-.4l-4.7,1.7-.2-3.1-3.6,2.2-3.3.4-6.9,3.1-.5,2.4-4.2.2-2.1-1.8,1.4-1.6,2.7-.3-1.9-2.6-5.8-.5,1.9,2.2-1,2.9,1.6,2.6-2.9,1-2.4-.4-5.5,3.5,1.3,3.2-2,.8-6.2-2.3-.8,1.2,1.5,1.7-1.9,1.5-3.4-2.1-1.1-3.2.6-2.1L907.5,80l-1.6-2.8,5.9,2.4,5.9,1.3,5.1-.8,2.5-2.1-.5-3.4L918.9,72l-6-3.5-8.1-1.1-3.5-1.3.2-2-2.1-1.9-5.7-1.6-4.2,1.1-2.7-.7-1.4,2.2-6.2,1.3-.5,1.2-4.6.5-4.7,4.4-4.3,2.5-.2,1.7-4.7,3.9-2.4,5.7-2,.9-4,4.2-1.7.6L842.4,95l-1.3,1.4.6,4.7-.3,4.7,1.4,2.4,1.9,1.3h3.8l5.7-4.4,1.8,1.3-.3,2,1.6,3.5,2.1,2.7v3.9h3.1l1.2-2.4,3-.3,1.6-4.2.2-3.7,3.5-1.8,1.6-2.2-.9-1.7-2.8-1.4-.5-3.3.6-3.1,2.8-2.7,5-2.5,1.6-1.9-.7-1.6,2.8-4h4.2l2.7,1.3-.2,2.1-1.6.5-5.2,5.5-2.7,2.1,1,4.2-.4,3.4,5.4,2.3,9.5-2,1.9-.3,1.3,2.1-2.7,1.8-5.8-.5-4.7,1.5.6,2.9,1.3,1.6.2,1.9-2.6.7-1.8-2.1-1.9.6-1.5,2.4v2.5l.4,2.7v1H876l-.9,1.6H873l-.9-1.4-4.1.9-.8.9-4.6,1.1v.7l-1.2-1.3-2.7-1.1-2.6,1.7-1.5-.4-2.4-2.4-.5-2.2,1.5-1.2.7-5.9-2.5,1.6-1.9.2-1,1.6v3.3l1.3,2.3.7,1.1-.3,2.3-3.8.6v1.2l-3.2-.3-2.6,1.3-.5,2.1-2.1,2.6,1.4.2h-2l-2,.9-2,.7-.9,2.7-2.5.9-.8,1.2-2.3-.3-.7,2.2-2.9.4-1.3-.9-3.4.9,1.2,2.1,4.2,1,1.4,2.9,1.5.5.2,1.7-.6,4.9-1.1,1.8h-2.9l-1.3-.4-2.2.3-3-.7-3.3.2-1.1-.5-1.2.9-2.2.7,1,2.1V159l.2,2.5-.4,2.5-1.2,2.2-.3,1.6,1.7,1.5-.6,3.1h2.7l1-.5,2.2.6,1,2,1,.5,1-1,2-.9h5l1.2-1.8,2-1,1-1.8,1.4-.9-1-.8-.3-1.2,3.2-4.2,2.4-.7L837,159v-1.4l-.3-1.3,2-1.9,2.7.3,2.4,1.1,3.2-1.9,1.3-.5,1.6-1.4,3.6,1.6.9,2.5,4.6,4.2,2.4.7.8,1,2.1.8v.9l1.9,1,1,3-1.4,1.6,1,.6,1.2-1.2,1.3-2.7-1.4-1.3,1-1.6,2.1.5.3-1-4.6-2.2V159h-1.3l-2-.9-1.2-1.3-1.1-2.5-2.7-1.9.3-2-.6-1.4,2.2-1,1.2.5-.4.2,3.1,1.3.6,2.4,2,2.1,2.1.3,1.6,1.3h.2l1.9,1.3,2,1.6.6.2-.6,3.8,1.6,2,1.7,1.9.9,3,1.3,1.6.4,1.5,1.2.2,1.6-.5.2-3,2-.7-2.9-1.6.8-1.8-1.3-1.5.2-1.3,2.3.8.3-1.5,3.1-.7,2.2.8.6,1.6,2.8-2.3h3.3l-1.4-1.3-.7-1.4-1.3-1.3,1.1-2.1,1.5-1.6.7-3.4,1.5.3.4-1.2,7.4-2.7h.7l1.1.7-2.7,1.6,2.4.8-.2,1.6,1.1.5L912,150l-1.4-3.1,2.2-1.3,2.3-.3,1.2-.7-8,1.4h0l10.2-3.1v1.3l-.6,3.2-.7,1.8-2.4.6,2,1.4,2.8,1.2,3,2.5L926,157l.7,2.3-.6.9-3,1.5-1.9-.4-2.4.6-4.6-1.1-.8-1.1h-1.8l-.7-.9h-4l-2.3.8-2.4,1.7-4.8-.3-.4,2.3h-5.3l-1.3,1.1-.2,1.4,1.7-.2-.2,2.3-1.1,1.2,2.3,1v1.3l1,1.1,3.3.8,1.5,1.4,1.8-.4.4-1.5,1.7.2,3.3,2.1,2.1-.4,2.1-1.6,2.8,1.2.2,1.1.2,3.4-2,4-1.5,3.9-.6.7-3.5.6h-1.4l-2.2-1.3-1.8.3-3.1,1.6-4.2-1.4-4.8-.7-.7-.9-3.7-.5-.5-1.1-3.4-.8-1.3.4-2.4,1.7-.2,1.5.5,1.2-1,1.5-1.9.5-3.6-2-3.9-.9-1.2-2.5-4.4-1.3H858l-1.7-.9-1-.9-1.5-.3-1-1.3,2.5-2.8-1.2-1.7-.9-3.6-1.2-.3-2.6,1.1-1.5.2-1.2-.6h-2.1l-2.5,1.1-1.6-.6h-2.2l-2.8.8h-3.1l-1.8.8-1.2,1.1h-.9l-2.9,1.8-1.3.2-5.7-.2-1.7-2-1.3.5-1.9,4.3-.8.8-2.8,1.2-2.1,2.1-1.3,2.9-.2,2,.6.7-.9,1.4v57.9l2,1.9,3.7,1.6,3.8-1.6,4.3-.5,2.4.3h-.1l2.5.7,5.2-2.3h1.6l.6-.7,1.1-.3,2.4-.3h4.1l2.2,2.2.5,1.8,1.1.8,3.4-.7h1.7l.7-.5,1,1.6,1,.4,1,1.4v2.3l-.6,3-.5,1v2.2l-1.1.9.5,1.5,1.7,2.7,3.1,3.2,2.2,2.6.4,1.7.5.6,1.5-.3-1.6.5,1,2,1.4,3.3-1,1.6,2,4.7-.2,1.8-.8,1.7-1,.6-1,1.6-1.8,6V305l1.6,2.3,2.3,4.8,2.4,3.7v3.9l.8,2.5.7,4.4,1.7,3.4,1.4,1.1,4.1,8,.2,2-1.1.9,2.3,3.9,2.8,1.1,1.1-.8,3-.2,1.7-1h2.5l2.9.5,3.7-1.1,3.3-1.8,5.6-5.3,2.4-4.1,2.3-2,1.4-4.4v-1.5l-.8-.6.8-1.3,4.8-2.1,1.2-1.4-.3-.9v-3.4l-.9-3.7-.7-.8.6-1.6,2.4-2.2.8-.3,2.1-2.5,2.1-1.2,2.3-.6,1.7-1.3,1.7-2.3.6-2.4-.6-1.5-.4-5.9.5-1.6-.3-.5-1.6-1.3-1.1-3.6v-2l.6-.9-1.5-1.8-.2-1.1.9-2.8.7-.5,1.4-2.8.3-1.3,1.4-.7.4-1.1,1.3-.6,1-1.6,4-4.3,5.4-3.8,4.6-4.7,1.5-2.3,2.8-5.8,2.3-3.4.2-2.1.5-.7V235l-.9-.3-1.6,1.1-2.7.6-3.4.2-2.2,1-2-.2-1.7.9h-1.3l-1.3-.8-1.4-1.7.3-1.2-.6-1.6-1.7-1.2-.3-.9-1.4-1-1.1-1.4-3.4-1.5-1.2-2.3-.7-2.9-.7-1.4-2.5-1.8-1.5-7.9-3-3.1v-1.7l-3.9-6.7-1-3.1-2.1-2.8-.6-1.6.5-.9,1.5,3.6,2.3,2,1.6-4.3v.3l-.8,3,1.9,1.1,4,6.1v1.2l.8,1.3,1.7.9,1,1.5,1,2.2v2.7l1.1,1.9,2.7,1.8,1.1,2.7,1.3,1.9,1.2,1,1.2,2.6-.3,1.7,1.3,5.7.6,1,1.2.5,2.4-.4,1.4-1.3,4.1-.8,1.4-.9h1.6l2-1.6,4.1-1.2,2.1-1,.2-1.6,1.8-.8,2.3-.8h2.3l1-2H960Zm-20.1-44.8.2-1.8-.7-1.5-1.2-.9,1.9-3.1,1.6-.5,2.3-1.6,4.5-2.3,2.2.8,1.9-.4.6.9-.9,3.2-3.2.6-.9,1.4-1.4.7,2.1,3.2,1.5,1.9,1.5.2-.3,2.7,1.6-.8h1.6l.5,1.6,1.5,1.7-2,.7-2.1-1.1-.4,1.3.8,3.1,1.8,1.5v4.2l.2,1-4.1.9-2.5-.3-2.7-1.9-2.1-.6-.6-2.1v-1l1.3-1.5.4-2.2,1.4-.4-2.2-1.9-1.5-2.3Z" fill="#fff"/>
      <path d="M422.6,76l-1.2-1.3-5-2.6-5.3-2.5-.5-.2L408,67.8l-7.3-2.2H394l-5.6-.7,1.2,4.3-3.2,1.1-4.6-3.9-1.7,1-6.3-.9-4.2.2-2,1.2-4-1.7.5-1.8-1.5-2.4-3.1-1-5-.3-7.9,1.1-2.1-1.9-5.9-2.2,1.7-1.3-5.5-1.1L331,57.8l-.7-3.5-11.1-1.5-2.7,1.7,1,4.4-9.6-.6-2.8,1-5.5-1.4-3,4.2-2.9-1.6-1.5-8.6-2.7-1.6-3.3.5-5-1.8-2.1.4-.8,3.2h-7.5l-3.5-1.3V49.7H257.2l-5.4-.7-3.5-1.3-.9,2.5-3.9-1,5.2-3,5.8-3,1.9-2.1-4.6-5.5-8.7-.5-5.6-1.9.6-1.9-4.3-1.2-7.1,3.6-3.2,3.7-6.3,1.5-5.4-1.1-2.4,1.5-7.8,1.2-5.9,2.1-3.8,3.8,1.3,2-7.1.6-6.9.8,1.3,5.2,2.5.7-1.3,2.2-5.2-2.8h-2.2L167,59.6l1-4.1-4.8,1.9-1.4,1.7,3,3.6-1.9,3.8,2.3,3.8.3,4.3-2,2.7-3.3,1.8-2-.9,3.8-4.3.9-2.8-2.4-2,.5-7.4-2-3,2.1-5-3-1h-5l-3.2,6.1-3.1,2,1.5,1.4-1.2,4.5,2.9.8,1.5,2.3-.7,2.4L142,67.5l-8.3-1.7-2,1.1,1.8,2.5-2.4,1.1-2.3-1.2-4.1,1.8-2.9-.3-4.7,1.7-.2-3.1-3.5,2.2L110,72l-6.9,3.1-.5,2.4-4.1.2-2.2-1.8,1.4-1.6,2.7-.3-1.9-2.6-5.7-.5,1.9,2.2L93.6,76l1.7,2.6-3,1-2.4-.4-5.5,3.5,1.4,3.2-2,.8-6.3-2.3-.8,1.2,1.6,1.7-2,1.5-3.4-2.1-1.1-3.2.7-2.1L69.8,80l-1.7-2.8L74,79.6l6,1.3,5-.8L87.6,78l-.5-3.4-6-2.6-6-3.5L67,67.4l-3.5-1.3.2-2-2-1.9L56,60.6l-4.3,1.1L49.1,61l-1.4,2.2-6.2,1.3L41,65.7l-4.6.5-4.8,4.4-4.3,2.5v1.7l-4.7,3.9L20,84.4l-1.9.9-4,4.2-1.8.6L4.6,95,3.3,96.4l.6,4.7-.2,4.7L5,108.2l2,1.3h3.7l5.7-4.4,1.8,1.3-.2,2,1.6,3.5,2.1,2.7v3.9h3l1.3-2.4,2.9-.3,1.6-4.2.3-3.7,3.5-1.8,1.6-2.2-1-1.7-2.8-1.4-.5-3.3.6-3.1L35,91.8l5-2.5,1.7-1.9-.8-1.6,2.8-4h4.2l2.8,1.3-.3,2.1-1.5.5-5.2,5.5-2.8,2.1L42,97.6l-.4,3.4,5.3,2.3,9.5-2,2-.3,1.2,2.1-2.7,1.8-5.8-.5-4.7,1.5.6,2.9,1.3,1.6.2,1.9-2.6.7-1.7-2.1-1.9.6-1.6,2.4v2.5l.4,2.7v1H38.2l-.9,1.6H35.2l-.9-1.4-4,.9-.9.9-4.6,1.1v.7l-1.3-1.3L21,121.6l-2.7,1.7-1.4-.4-2.5-2.4-.4-2.2,1.4-1.2.7-5.9-2.4,1.6-2,.2-1,1.6v3.3l1.2,2.3.7,1.1-.2,2.3-3.9.6v1.2l-3.2-.3-2.5,1.3-.6,2.1L.1,131.1l1.4.2H0v23.9l.9-.8,2.6.3L6,155.8l3.1-1.9,1.4-.5L12,152l3.6,1.6.9,2.5,4.6,4.2,2.4.7.9,1,2,.8v.9l1.9,1,1,3-1.3,1.6,1,.6,1.2-1.2,1.2-2.7-1.3-1.3.9-1.6,2.1.5.3-1L29,160.4V159H27.6l-2-.9-1.3-1.3-1-2.5-2.8-1.9.4-2-.6-1.4,2.2-1,1.1.5-.3.2,3,1.3.6,2.4,2,2.1,2.1.3,1.6,1.3h.3l1.9,1.3,1.9,1.6.6.2-.6,3.8,1.6,2,1.7,1.9.9,3,1.3,1.6.5,1.5,1.1.2,1.6-.5.3-3,1.9-.7-2.9-1.6.8-1.8-1.2-1.5V163l2.4.8.2-1.5,3.1-.7,2.2.8L53,164l2.7-2.3h3.4l-1.4-1.3-.8-1.4-1.2-1.3,1-2.1,1.6-1.6.6-3.4,1.6.3.3-1.2,7.5-2.7H69l1,.7-2.6,1.6,2.4.8-.2,1.6,1,.5,3.7-2.1-1.5-3.1,2.3-1.3,2.2-.3,1.3-.7L70.5,146h.1l10.2-3.1-.2,1.3-.6,3.2-.6,1.8-2.5.6,2,1.4,2.9,1.2,2.9,2.5,3.5,2.1.7,2.3-.6.9-2.9,1.5-1.9-.4-2.5.6-4.6-1.1-.8-1.1H73.8l-.6-.9H69.1l-2.2.8-2.5,1.7-4.8-.3-.3,2.3H54l-1.4,1.1v1.4l1.6-.2v2.3l-1.1,1.2,2.2,1v1.3l1.1,1.1,3.2.8,1.5,1.4,1.9-.4.3-1.5,1.7.2,3.3,2.1,2.1-.4,2.1-1.6,2.9,1.2.2,1.1v3.4l-2,4L72,186.7l-.7.7-3.5.6H66.4l-2.1-1.3-1.9.3-3.1,1.6-4.2-1.4-4.8-.7-.7-.9-3.7-.5-.5-1.1-3.3-.8-1.4.4-2.4,1.7-.2,1.5.5,1.2-1,1.5-1.8.5-3.7-2-3.8-.9L27,184.6l-4.4-1.3H20.3l-1.7-.9-1.1-.9-1.5-.3-.9-1.3,2.5-2.8-1.3-1.7-.9-3.6-1.2-.3-2.5,1.1-1.6.2L9,172.3H6.8l-2.4,1.1-1.6-.6H0v75H2l2.3,2.2.4,1.8,1.2.8,3.3-.7H11l.7-.5.9,1.6,1.1.4,1,1.4-.2,2.3-.5,3-.6,1v2.2l-1.1.9.5,1.5,1.7,2.7,3.2,3.2,2.1,2.6.4,1.7.5.6,1.5-.3-1.6.5,1.1,2,1.3,3.3-.9,1.6,2,4.7-.2,1.8-.9,1.7-.9.6-1,1.6-1.8,6-.2,3V305l1.6,2.3,2.3,4.8,2.4,3.7v3.9l.8,2.5.7,4.4,1.7,3.4,1.4,1.1,4.1,8,.2,2-1.1.9,2.3,3.9,2.8,1.1,1.2-.8,2.9-.2,1.8-1h2.4l3,.5,3.6-1.1,3.4-1.8,5.6-5.3,2.4-4.1,2.3-2,1.3-4.4.2-1.5-.9-.6.9-1.3,4.8-2.1,1.1-1.4-.3-.9v-3.4l-.8-3.7-.7-.8.5-1.6,2.4-2.2.9-.3,2.1-2.5,2-1.2,2.3-.6,1.7-1.3,1.7-2.3.6-2.4-.6-1.5-.4-5.9.6-1.6-.4-.5-1.6-1.3-1.1-3.6v-2l.6-.9-1.5-1.8-.2-1.1,1-2.8.6-.5,1.4-2.8.3-1.3,1.4-.7.4-1.1,1.3-.6,1-1.6,4-4.3,5.5-3.8,4.5-4.7,1.5-2.3,2.8-5.8,2.3-3.4.3-2.1.4-.7.2-2.9-1-.3-1.6,1.1-2.7.6-3.3.2-2.3,1-2-.2-1.7.9H95l-1.2-.8-1.5-1.7.3-1.2-.5-1.6-1.7-1.2-.4-.9-1.3-1-1.1-1.4L84.1,227,83,224.7l-.7-2.9-.8-1.4L79,218.6l-1.5-7.9-3-3.1.2-1.7-4-6.7-.9-3.1-2.2-2.8-.6-1.6.5-.9,1.6,3.6,2.2,2,1.6-4.3v.3l-.8,3,2,1.1,4,6.1v1.2l.8,1.3,1.7.9,1,1.5.9,2.2v2.7l1.2,1.9,2.7,1.8,1,2.7,1.3,1.9,1.2,1,1.3,2.6-.3,1.7,1.2,5.7.6,1,1.2.5,2.4-.4,1.4-1.3,4.1-.8,1.4-.9H105l2-1.6,4.1-1.2,2.1-1,.2-1.6,1.8-.8,2.3-.8h2.3l1-2,1.9-.2.9-1.5,1.2-.8,1.5-.3-.3-1.6,1-2.1.8.3,3.2-4.6-1.3-1.1-1.3-1.9-3.5-.9-1.4-1.4-.5-1.2-.3-1.7-.4-1-3.4,3.3-.6,1.1-1.2.5-2.9-.2-1.8.4-.7-.7-.7-.8.8-.9v-2.3l-.7-.7-1.1,1.8v1.6l-1.6-2.6.3-1.1-.6-1.4-2.7-2.2-.9-2-.8-2.1-.2-1.6h1.3l1.1-.9,1.2.7,1.3-.4,2.7,5.2.8.7,2.1.6.5.7,2.3,1.5,2.2.6,3.9-1.8,1.5.8.8,2.7,4,1,.9-.2,4.6,1,.5-.3h4.3l.2-.4,2.6.4,4.1-.9.7,1.8,1.1.2.4,1.6.6.7h1.3l1,1.7,1.4.8,2.2.7-2.7.9,3.5,3.3.9.3,2.6-1.1,1.2-1.3.9,2.5-.6,2,.5,2.9,1.1,5.3,1.6,3.6.8.9,1.1,4.1,3.5,6.8v1.1l.5,1.3,1.8,1.8,1.8-.5.8-1.8,1.3-.3v-1l1-1.5h1l-.2-2.5,1.4-4.7-.7-4,.5-1.5,1.6-.2.6-1.2,2.4-.7v-.9l4.3-3.2,1.6-2,1.5-1.3,1.9-.6,1.7-2-.3-.9.6-1,2-.8,1.2.5h1.3v-1.1l.4,1,1.4-.7,1.1.2.8-1.1,2-1,.8,1.1.5,2.8.6.9,1.1,1.4,1.4.4,1.5,1.5,1.3,4.5v3l.9,1.2,1,.2.9-1.1,2-.9.8-1.8,1.7,3.4.3,2.5,1.9,4.8v2.4l.4.3-.7,2.4.5,1.1-.8,2.1v2.5l.8-.2,2.5,2.8.9,1.6,2.2.5.2,1.4,2.2-1.4-1.4-1.5h-1.1l-1.9-1.5V243l-.7-.5-.5-1.6-.8.3-.6-1.2.2-1.6,1.7-3.9.2-3,2-.3v1.7h2l2.8,2.3.6,1.9.9.7,2,.5,3-1.4.7-1.8,1,.2,2.6-1.8v-2.3l-.6-1.6.4-1.4.3-1.2-2.2-3-1-1.9-2.7-2.9v-.5l-2.9-1.5.3-1,1.3.2.8-1-.8-1.4-1.2-.9-1.1.7-1.1-.5-2.3-3.6.8-1,1.2.8.7-.8,1.4.6,2.1-1,1.1-1,3,1.9.2,1.3,1.6,1,1.5.3,1.1-.3,1.7.5,1.4-.3-.3,1.6.7,1.4,1.3-.4-.7-1.4,1.8-1.1h1.5l.7-.8,1.5.2,3.4-1.8h.5l2.2-.7,3-.2,1-1.7h1.1l1.6-1.6v-1h1.4l1.3-1.5,1.7-3.5,2.6-4.2,1.1-.2v-2.2l.9-1.7-1.4-1,1.2-1.6-.5-1-1.5-1.4h1.9l-2.2-2V183l-1.5-3.4-2.3-1.2v-.6l2.5-3.2,3.8-2,.9.3.6-1.5h-2.2l-2.1-1-2.3,1.8-1.8-.3v-2.1l-2.1-.4-1.2-1.4.6-1.1,2.8-.2.9-1.5,2.6-1.4,1.6-1.8h1.6l1,.9-2.4,3.1,1,.8,3.9-1.8,2.3-.6,2.3,1.3-1,3.8,4,.9.5,2.2h-1.2l.9,3.2-1,1.6.5,2.2,2.8-1.7,1.8.2,1.4-.6.8-1-.3-4.7-2.1-3.7-2.3-1.6.3-1.6,1.8-.6,3.3-2.3v-2l2.3-2,2.7-2.7,1.1,1.1,2,.4,4.6-2.2,5.9-6.6,2.1-3.7,3.6-4,.9-3.5v-3.7l.9-2.5,1.4-1.8-.9-.8.6-2.3-3.9-3.5h-2.3l-.3,1.6-3.1.9-1.3-.9.3-2.6h-2.3l-1.3-1.1,5.6-3.9,2.2-2.8,4.3-2.8.7-1.6,2.9-2.4,2.7-1.3,7.6-.2,4.7.6,2.7-1.8,2.8,1.1,1.5-.2,3.2,2.1,5.5-1-2.2-2.2,7.5-6.9,6.3-.4-.5,2.8,1.8,1.3,3.8-3.2,1.6.4.7-3.6,2,1-1.2,4.8-3.9,1.6-7,7.1-3.7,2.1-3.4,3.6-.9,6,2.7,12.3,3.7-3.5.6-2.4,3-1.6.4-2.6,1.6-1.2,3.1-.6-.8-2,.8-2.4,3-.4-1.3-2v-1.7l-1.9-2.4.4-1.3,2.7-2.9.2-1.7,2.4-1,1.1.8,2.9-.5,3.7-1.9,3.5-.3,2.6,2.3.7-1.7,2.8-1.4,4.1-3.1,2.1-.4,6.6-2.7,3.8.8,1.4-1.2-2.2-3.2-.3-3.9,3.5-1.7,2.8-3.1,1.1,1.5,2.9-.5,2.3.6,1.6,2.5,4.9,1.9,2-.8.4-4,4-.4,1.8-1.9-5.3-3.1ZM117,162.6l-2-1.1-.5,1.3.9,3.1,1.7,1.5v4.2l.3,1-4.2.9-2.5-.3-2.7-1.9-2.1-.6-.5-2.1v-1l1.2-1.5.4-2.2,1.4-.4-2.1-1.9-1.6-2.3-2.6-3.4.3-1.8-.7-1.5-1.3-.9,1.9-3.1,1.7-.5,2.3-1.6,4.4-2.3,2.3.8,1.9-.4.5.9-.9,3.2-3.2.6-.9,1.4-1.4.7,2.1,3.2,1.5,1.9,1.5.2-.2,2.7,1.5-.8H117l.5,1.6,1.6,1.7Zm57.9,23v.3l-.7-1.7,1.2.5.6-.4Z" fill="#fff"/>
      <g>
        <polygon points="375.2 477.8 381.8 474.6 385.1 474 387.4 471.3 387.7 467.2 383.1 465.2 381.6 463.6 370.2 461.5 367.4 463.7 363.5 458.3 358.2 457.4 352.4 455.5 350.6 453.7 348 455.5 343.4 455.1 343.3 453.6 334.1 453.6 331.4 450.6 326.7 451.3 328.3 448.7 325.5 447.6 317.4 446.9 309.5 445.9 306.7 444.7 302.2 444.5 296.4 444.9 293.7 446 292.5 448.2 288.5 448.3 286.5 446.2 284.6 445.6 276.1 447.6 268.9 449.5 267.9 448.8 260 448.2 260.8 447.3 254.9 443.5 249.8 444.5 249.2 446.2 246.4 447.8 241.1 446 230.7 443.7 227.8 444 226.5 445.6 223 446.8 220.4 446 210.7 446.9 205.9 446.2 200.4 447.5 196.5 447.3 191.2 448.7 188.4 448.5 185.6 450.5 183.9 450.5 174.9 453.2 172.2 456.8 168.3 458.5 167.7 459.6 162.4 459.6 159 463.2 157.1 467.6 153.6 470.3 150.9 471 148.4 474.5 146.6 474 148.7 468.7 152.8 463.2 152.3 461.5 148.2 461.3 153.6 457.3 154.6 453.9 153.3 451.1 150.7 451.7 141.5 450.8 132.5 449.7 129.6 450 125.9 448.2 124.8 446.6 120.9 444.2 116.7 443.7 112.4 444.3 108.8 446 109.5 448.7 106.3 449 103.9 450.9 99.7 450.5 91.4 452.5 84.4 456 84.1 457.9 81.3 460.5 79.1 459 73.7 458.7 71.3 454.9 68.8 454.9 67.5 456.4 67.6 460.3 61.5 461.5 53.4 464.5 50.4 464.4 47.1 461.9 45.2 463.6 42.2 461.3 40.7 463.7 36.5 464.1 30.3 461.1 23.9 461.6 21.8 461.1 17.8 463.3 13 461 9 462.3 0 463.6 0 480 376.2 480 375.2 477.8" fill="#fff"/>
        <polygon points="685.3 479 689.5 474.3 687.6 465.4 686.4 462.3 681.9 456.2 677.6 454.4 677.2 449.4 680.4 447.8 681.1 445.3 685.2 444.7 684.8 441.7 690 438.3 692.4 438.1 693.9 435.8 696.8 434.4 695.9 433.8 687.8 436.9 686 438.9 681.1 440.6 680.8 442.2 676.7 444.7 672.4 448.5 674.2 450.2 674 453 672.6 455.5 672.7 457.8 669.6 457.9 671.6 463.5 674 469.2 671.2 472.9 661.8 475 652 476.8 650.6 475.2 646.2 475.4 642.3 472.9 638.2 477 629.4 474 623.7 474.2 622 471.8 617.9 474.6 613.5 473.8 605.2 474.5 601.4 473.2 591.1 472.9 590.5 474.6 595.7 474.7 592.8 477.7 593.9 479.8 594.2 480 684.4 480 685.3 479" fill="#fff"/>
        <polygon points="552.5 480 561.9 480 561.6 479.7 554.1 479.3 552.5 480" fill="#fff"/>
        <polygon points="788.4 480 960 480 960 445 958.7 444.2 954.4 443.7 950.2 444.3 946.6 446 947.3 448.7 944 449 941.7 450.9 937.5 450.5 929.1 452.5 922.2 456 921.9 457.9 919 460.5 916.8 459 911.4 458.7 909.1 454.9 906.5 454.9 905.3 456.4 905.4 460.3 899.3 461.5 891.1 464.5 888.1 464.4 884.9 461.9 882.9 463.6 880 461.3 878.5 463.7 874.3 464.1 868.1 461.1 861.7 461.6 859.6 461.1 855.5 463.3 850.7 461 846.7 462.3 835.5 464 827.4 465.9 815.6 465.9 816.5 463.8 811.1 464.2 811.5 466.8 809.3 467.3 806.4 464.6 806.2 464.8 803.9 466.8 802.7 470.6 796.9 473.1 792.7 473.8 791 476 793.3 479.3 788.9 479.3 788.4 480" fill="#fff"/>
      </g>
      <rect width="200" height="480" fill="url(#a)"/>
      <rect x="760" width="200" height="480" transform="translate(1720 480) rotate(-180)" fill="url(#b)"/>
    </g>
  </g>
</svg>
