<svg height="192" viewBox="0 0 1280 192" width="1280" xmlns="http://www.w3.org/2000/svg"><circle cx="324" cy="96" fill="#002b45" r="12"/><path d="m328 96h-328" fill="none" stroke="#002b45" stroke-miterlimit="10"/><g fill="#002b45"><path d="m432.1 46.3h-24.3a1.3 1.3 0 0 1 -1.3-1.3v-6.3a2.7 2.7 0 0 0 -2.2-2.6 26.4 26.4 0 0 0 -11.2.6l-2.5.7a2.6 2.6 0 0 0 -1.7 1.5l-2.9 6.6a1.2 1.2 0 0 1 -1.2.8h-46.5a40.8 40.8 0 0 0 -14.7 2.8 5 5 0 0 0 -2.7-.8h-1v2.4l-2.5 1.4h-.2v-3.2l-1.3.2a17.9 17.9 0 0 0 -3.9 1.3v7.5h.2a12.7 12.7 0 0 0 3.9 1.2l1.1.2v-3.2h.2l2.5 1.4v2.5h.9a5.1 5.1 0 0 0 2.7-.9 41.4 41.4 0 0 0 14.8 2.9h93.8c17.7 0 23.6-3.5 23.6-7.8s-5.9-7.9-23.6-7.9z"/><path d="m589.5 46.3h-24.3a1.3 1.3 0 0 1 -1.3-1.3v-6.3a2.6 2.6 0 0 0 -2.2-2.6 26.5 26.5 0 0 0 -11.2.6l-2.5.7a2.6 2.6 0 0 0 -1.6 1.5l-2.9 6.6a1.3 1.3 0 0 1 -1.2.8h-46.5a41.4 41.4 0 0 0 -14.8 2.8 5 5 0 0 0 -2.7-.8h-1v2.4l-2.4 1.4h-.2v-3.2l-1.3.2a18.7 18.7 0 0 0 -4 1.3v7.5h.3a12.9 12.9 0 0 0 3.8 1.2l1.2.2v-3.2h.2l2.4 1.4v2.5h1a4.8 4.8 0 0 0 2.6-.9 42.3 42.3 0 0 0 14.9 2.9h93.7c17.7 0 23.6-3.5 23.6-7.8s-5.9-7.9-23.6-7.9z"/><path d="m746.9 46.3h-24.2a1.3 1.3 0 0 1 -1.3-1.3v-6.3a2.7 2.7 0 0 0 -2.2-2.6 26.9 26.9 0 0 0 -11.3.6l-2.4.7a2.6 2.6 0 0 0 -1.7 1.5l-2.9 6.6a1.2 1.2 0 0 1 -1.2.8h-46.5a41.4 41.4 0 0 0 -14.8 2.8 4.7 4.7 0 0 0 -2.6-.8h-1v2.4a20.1 20.1 0 0 0 -2.5 1.4h-.2v-3.2l-1.3.2a17.9 17.9 0 0 0 -3.9 1.3v7.5h.2a12.9 12.9 0 0 0 3.8 1.2l1.2.2v-3.2h.2a20.1 20.1 0 0 0 2.5 1.4v2.5h.9a5.1 5.1 0 0 0 2.7-.9 41.4 41.4 0 0 0 14.8 2.9h93.7c17.7 0 23.7-3.5 23.7-7.8s-6-7.9-23.7-7.9z"/><path d="m788.4 59.2 1.2.2v-3.3h.2l2.4 1.4v2.5h1a4.8 4.8 0 0 0 2.6-.9 41.9 41.9 0 0 0 14.9 2.9h93.7c17.7 0 23.6-3.5 23.6-7.8s-5.9-7.9-23.6-7.9h-24.3a1.3 1.3 0 0 1 -1.3-1.3v-6.3a2.6 2.6 0 0 0 -2.2-2.6 26.5 26.5 0 0 0 -11.2.6l-2.5.7a3.1 3.1 0 0 0 -1.7 1.5l-2.8 6.6a1.3 1.3 0 0 1 -1.2.8h-46.5a41.4 41.4 0 0 0 -14.8 2.8 5 5 0 0 0 -2.7-.8h-1v2.4l-2.4 1.4h-.2v-3.2l-1.3.2a18.7 18.7 0 0 0 -4 1.3v7.5h.2a14.6 14.6 0 0 0 3.9 1.3z"/><path d="m476.1 88.3h-24.3a1.3 1.3 0 0 1 -1.3-1.3v-6.3a2.7 2.7 0 0 0 -2.2-2.6 24.9 24.9 0 0 0 -11.2.6l-2.5.7a2.6 2.6 0 0 0 -1.7 1.5l-2.9 6.6a1.2 1.2 0 0 1 -1.2.8h-46.5a38.8 38.8 0 0 0 -14.7 2.8 4.4 4.4 0 0 0 -2.7-.9h-1v2.5l-2.5 1.4h-.2v-3.2l-1.3.2a17.9 17.9 0 0 0 -3.9 1.3v7.5h.2a12.7 12.7 0 0 0 3.9 1.2l1.1.2v-3.2h.2l2.5 1.4v2.5h.9a5 5 0 0 0 2.7-.8 41.4 41.4 0 0 0 14.8 2.8h93.8c17.7 0 23.6-3.5 23.6-7.9s-5.9-7.8-23.6-7.8z"/><path d="m633.5 88.3h-24.3a1.3 1.3 0 0 1 -1.3-1.3v-6.3a2.6 2.6 0 0 0 -2.2-2.6 24.9 24.9 0 0 0 -11.2.6l-2.5.7a2.6 2.6 0 0 0 -1.6 1.5l-2.9 6.6a1.3 1.3 0 0 1 -1.2.8h-46.5a39.3 39.3 0 0 0 -14.8 2.8 4.4 4.4 0 0 0 -2.7-.9h-1v2.5l-2.4 1.4h-.2v-3.2l-1.3.2a18.7 18.7 0 0 0 -4 1.3v7.5h.3a12.9 12.9 0 0 0 3.8 1.2l1.2.2v-3.2h.2l2.4 1.4v2.5h1a4.7 4.7 0 0 0 2.6-.8 42.3 42.3 0 0 0 14.9 2.8h93.7c17.7 0 23.6-3.5 23.6-7.9s-5.9-7.8-23.6-7.8z"/><path d="m790.9 88.3h-24.2a1.3 1.3 0 0 1 -1.3-1.3v-6.3a2.7 2.7 0 0 0 -2.2-2.6 25.4 25.4 0 0 0 -11.3.6l-2.4.7a2.6 2.6 0 0 0 -1.7 1.5l-2.9 6.6a1.2 1.2 0 0 1 -1.2.8h-46.5a39.3 39.3 0 0 0 -14.8 2.8 4.1 4.1 0 0 0 -2.6-.9h-1v2.5a20.1 20.1 0 0 0 -2.5 1.4h-.2v-3.2l-1.3.2a17.9 17.9 0 0 0 -3.9 1.3v7.5h.2a12.9 12.9 0 0 0 3.8 1.2l1.2.2v-3.2h.2a20.1 20.1 0 0 0 2.5 1.4v2.5h.9a5 5 0 0 0 2.7-.8 41.4 41.4 0 0 0 14.8 2.8h93.7c17.7 0 23.7-3.5 23.7-7.9s-6-7.8-23.7-7.8z"/><path d="m948.4 88.3h-24.3a1.3 1.3 0 0 1 -1.3-1.3v-6.3a2.6 2.6 0 0 0 -2.2-2.6 24.9 24.9 0 0 0 -11.2.6l-2.5.7a3.1 3.1 0 0 0 -1.7 1.5l-2.8 6.6a1.3 1.3 0 0 1 -1.2.8h-46.5a39.3 39.3 0 0 0 -14.8 2.8 4.4 4.4 0 0 0 -2.7-.9h-1v2.5l-2.4 1.4h-.2v-3.2l-1.3.2a18.7 18.7 0 0 0 -4 1.3v7.5h.2a14.6 14.6 0 0 0 3.9 1.2l1.2.2v-3.2h.2l2.4 1.4v2.5h1a4.7 4.7 0 0 0 2.6-.8 41.9 41.9 0 0 0 14.9 2.8h93.7c17.7 0 23.6-3.5 23.6-7.9s-5.9-7.8-23.6-7.8z"/><path d="m432.1 130.3h-24.3a1.3 1.3 0 0 1 -1.3-1.4v-6.3a2.9 2.9 0 0 0 -2.2-2.6 24.9 24.9 0 0 0 -11.2.7l-2.5.7a2.3 2.3 0 0 0 -1.7 1.5l-2.9 6.6a1.4 1.4 0 0 1 -1.2.8h-46.5a38.8 38.8 0 0 0 -14.7 2.8 4.4 4.4 0 0 0 -2.7-.9h-1v2.5l-2.5 1.3-.2.2v-3.3l-1.3.2a13.8 13.8 0 0 0 -3.9 1.3v7.5h.2a16.1 16.1 0 0 0 3.9 1.2l1.1.2v-3.3h.2l2.5 1.4v2.6h.9a5 5 0 0 0 2.7-.8 41.4 41.4 0 0 0 14.8 2.8h93.8c17.7 0 23.6-3.5 23.6-7.9s-5.9-7.8-23.6-7.8z"/><path d="m589.5 130.3h-24.3a1.3 1.3 0 0 1 -1.3-1.4v-6.3a2.7 2.7 0 0 0 -2.2-2.6 25 25 0 0 0 -11.2.7l-2.5.7a2.4 2.4 0 0 0 -1.6 1.5l-2.9 6.6a1.5 1.5 0 0 1 -1.2.8h-46.5a39.3 39.3 0 0 0 -14.8 2.8 4.4 4.4 0 0 0 -2.7-.9h-1v2.5l-2.4 1.3-.2.2v-3.3l-1.3.2a14.4 14.4 0 0 0 -4 1.3v7.5h.3a16.8 16.8 0 0 0 3.8 1.2l1.2.2v-3.3h.2l2.4 1.4v2.6h1a4.7 4.7 0 0 0 2.6-.8 42.3 42.3 0 0 0 14.9 2.8h93.7c17.7 0 23.6-3.5 23.6-7.9s-5.9-7.8-23.6-7.8z"/><path d="m746.9 130.3h-24.2a1.3 1.3 0 0 1 -1.3-1.4v-6.3a2.9 2.9 0 0 0 -2.2-2.6 25.4 25.4 0 0 0 -11.3.7l-2.4.7a2.3 2.3 0 0 0 -1.7 1.5l-2.9 6.6a1.4 1.4 0 0 1 -1.2.8h-46.5a39.3 39.3 0 0 0 -14.8 2.8 4.1 4.1 0 0 0 -2.6-.9h-1v2.5l-2.5 1.3-.2.2v-3.3l-1.3.2a13.8 13.8 0 0 0 -3.9 1.3v7.5h.2a16.8 16.8 0 0 0 3.8 1.2l1.2.2v-3.3h.2l2.5 1.4v2.6h.9a5 5 0 0 0 2.7-.8 41.4 41.4 0 0 0 14.8 2.8h93.7c17.7 0 23.7-3.5 23.7-7.9s-6-7.8-23.7-7.8z"/><path d="m904.4 130.3h-24.3a1.3 1.3 0 0 1 -1.3-1.4v-6.3a2.7 2.7 0 0 0 -2.2-2.6 25 25 0 0 0 -11.2.7l-2.5.7a2.8 2.8 0 0 0 -1.7 1.5l-2.8 6.6a1.5 1.5 0 0 1 -1.2.8h-46.5a39.3 39.3 0 0 0 -14.8 2.8 4.4 4.4 0 0 0 -2.7-.9h-1v2.5l-2.4 1.3-.2.2v-3.3l-1.3.2a14.4 14.4 0 0 0 -4 1.3v7.5h.2a19.4 19.4 0 0 0 3.9 1.2l1.2.2v-3.3h.2l2.4 1.4v2.6h1a4.7 4.7 0 0 0 2.6-.8 41.9 41.9 0 0 0 14.9 2.8h93.7c17.7 0 23.6-3.5 23.6-7.9s-5.9-7.8-23.6-7.8z"/></g></svg>