<svg
  version="1.1"
  baseProfile="basic"
  xmlns="http://www.w3.org/2000/svg"
  xmlns:xlink="http://www.w3.org/1999/xlink"
  x="0" y="0"
  width="952"
  height="720"
  viewBox="0 0 952 720"
  xml:space="preserve"
>
  <defs>
  <symbol id="arrow">
    <g transform="translate(8 15)">
      <line x1="95" y1="616" x2="890" y2="100"></line>
      <polyline points="861.59,164.16 890,100 819.84,100"></polyline>
    </g>
  </symbol>
  <g id="provinces">
    <symbol id="heilongjiang">
      <path d="M826.61,183.2c0.86-7.8,17.6,0.92,17.13-5.28c-0.77-10.1,1.48-4.81,1.39-10.51c-0.05-2.97,4.02-8.2,2.56-12.43c-0.57-1.66-0.01-3.21-0.69-7.1c-0.5-2.82,1.32-4.12,0.32-6.62c-1.81-4.53,9.48-6.59,2.24-12.54c-2.21-1.82,1.41-7.68-1.55-8.27c-4.64-0.93-9.76,6.75-13.98,8.27c-5.62,2.02-6.59,8.38-7.74,8.75c-10.25,3.33-10.8,2.06-13.23,2.67c-5.72,1.43-0.15,4.18-7.26-3.15c-3.06-3.16-0.17-1.1-0.53-5.39c-0.4-4.74-3.58-0.47-3.34-6.81c0.19-5.03-2.71,2.62-11.45-5.72c-5.87-5.6-4.6,1.86-8.22-1.02c-6.05-4.81-7.48-0.3-14.08-1.02c-5.48-0.6-3.68-9.11-5.47-10.33c-3.18-2.18-0.88-2.28-4.52-8.13c-2.65-4.26-3.76-1.49-4.33-6.63c-0.17-1.54-1.93-2.32-2.27-4c-0.77-3.72-4.74-7.45-4.82-7.73c-0.36-1.34,0.34-2.9-0.24-4.16c-0.33-0.71-2.08,0.91-2.57-2.12c-0.12-0.73-4.55-7.69-4.68-7.76c-4.12-2.22-7.75-7.41-12.68-4.13c-3.33,2.21-9.78-8.35-21.54-2.74c-2.2,1.05-5.64-0.26-6.53,0.91c-0.98,1.3-5.6,1.84-8.49,2.5c12.33,7.2-6.75,11.52,2.8,15.79c3.66,1.63,3.51,3.84,6.19-0.59c1.72-2.84,4.15,2.14,5.71,2.83c3.78,1.68-1.37-0.62,1.44,5.34c2.28,4.84,3.59,13.28,10.94,9.44c3.31-1.73,4.89-0.12,12.06-2.99c5.65-2.26-0.17-11.02,10.51-1.12c6.85,6.35,6.11,6.17-0.16,21.5c-2.46,6.03,5.21,14.63-2.56,17.61c-2.92,1.12-0.11,8.12-2.03,10.24c-0.94,1.04,3.02,5.76,0.59,7.04c-2.74,1.45-2.12-10.55-5.5-3.95c-3.17,6.21-14.86,15.67-16.15,18.9c-1.33,3.34,4.49,5.01,6.13,8.45c3.57,7.49,4.3-4.92,6.34-0.05c0.28,0.67,3.14-1.1,2.6,1.64c-0.66,3.32-10.19,1.2-4.79,8.04c0.19,0.24,0.27,0.54,0.4,0.81c1.53,0.18,3.42,0.37,4.94-0.02c8.14-2.1,3.39,2.62,7.15,7.64c6.01,8.01,9.18,1.23,11.9,3.09c2.91,1.99,4.67-2.88,7.15-2.19c0.15,0.04,4.26,7.69,8,4.64c4.11-3.35,10.62-1.66,9.82,2.19c-1.86,8.98,6.64,1.96,6.88,4.96c0.72,8.9,8.99,8.11,7.9,5.07c-1.4-3.89,2.19-9.58,3.74-4.43c1.69,5.63,2.21,4.75,4.91,9.34c3.49,5.93,7.06,2.83,6.46,1.33c-1.71-4.21,2.85-2.76,4.75-5.44c3.18-4.49,4.11,1.35,5.92-1.92c1.84-3.32,3.01,3.49,5.34,4.27c5.26,1.75,2.7,1.87,8.4,0.62c-0.05-0.21-0.1-0.43-0.17-0.65c-1.95-6.61,1.96-6.67-7.11-21.52C820,187.79,826.39,185.19,826.61,183.2L826.61,183.2z"></path>
    </symbol>
    <symbol id="jilin">
      <path d="M788.3,207.06c1.1,3.04-7.18,3.83-7.9-5.07c-0.24-3-8.75,4.02-6.88-4.96c0.8-3.85-5.71-5.53-9.82-2.19c-3.74,3.05-7.86-4.6-8-4.64c-2.48-0.7-4.24,4.18-7.15,2.19c-2.72-1.86-5.89,4.92-11.9-3.09c-3.76-5.02,0.99-9.73-7.15-7.64c-1.51,0.39-3.4,0.2-4.94,0.02c0,5.63-5.63,2.14-3.13,5.72c0.64,0.92,1.38,6.75-3.83,2.33c-2.81-2.39,0.81,3.43-5.14-0.83c-3.74-2.68-1.76,0.82-3.83,3.41c-1.51,1.89,2.72-0.8,3.4,2.44c0.42,1.98,5.18,3.45,2.84,7c-1.45,2.2,1.87,2.21,0.24,4.51c-1.27,1.8,3.63,6.01,4.15,9.63c0.38,2.71,3.4-1.07,7.89-4.13c4.08-2.79-1.02,0.23,3.32,2.82c1.76,1.05-0.02,2.07,3.1,5.77c0.04,0.05,1.79,4.21,0.99,4.88c-3.38,2.83-0.52,2.01,0.96,3.19c0.92,0.74,0.32-0.05,2.27,0.27c0.83-2.59,1.45-1.35,1.69-1.1c2.95,3.07,6.62,1.69,7.06,4.62c1.26,8.34,3.86,0.15,3.88,0.11c2.66-4.31,2.38-0.32,2.35,1.72c-0.01,0.98,5.63,8.41,6.66,10.25c1.87,3.35,4.83-0.18,2.89,1.72c0,0-2.82,5.75-0.51,7.43c3.15,2.3,2.8,3.98,4.42,5.56c6.37,6.22-1.76,3.44,2.73,7.72c0.35-0.28,0.7-0.48,1.07-0.55c2.93-0.61,4.41-5.77,6.21-8.64c1.39-2.23,2.82-11.54,6.82-6.66c4.3,5.25,7.79,1.05,12.58,2.23c2.39,0.59,4.19-1.63,0.37-6.25c-0.8-0.97-2.53-4.2,0.16-4.62c14.56-2.28,10.31-9.77,13.09-9.96c2.72-0.18,0.24,1.4,3.21-0.62c2.23-1.51-1.19-3.82-0.24-6.25c0.26-0.66,1.39-3.5,2.03-3.52c0.6-0.02,8.66,6.93,8.83,7.27c0.16,0.31,0.6-2.02-1.53-3.3c-4.87-2.93,6.26-1.91,6.1-8.4c-0.06-2.51,0.63-4.23,0.11-6.63c-5.7,1.25-3.14,1.14-8.4-0.62c-2.32-0.77-3.49-7.58-5.34-4.27c-1.82,3.27-2.74-2.57-5.92,1.92c-1.9,2.68-6.46,1.23-4.75,5.44c0.61,1.49-2.97,4.6-6.46-1.33c-2.69-4.58-3.22-3.71-4.91-9.34C790.49,197.48,786.9,203.16,788.3,207.06L788.3,207.06z"></path>
    </symbol>
    <symbol id="liaoning">
      <path d="M759.46,244.28c-1.03-1.85-6.68-9.27-6.66-10.25c0.03-2.04,0.3-6.03-2.35-1.72c-0.02,0.04-2.62,8.23-3.88-0.11c-0.44-2.93-4.11-1.54-7.06-4.62c-0.24-0.25-0.86-1.49-1.69,1.1c0,13.2-2.33,0.73-5.43,9.72c-1.5,4.34-10.55-0.18-9.45,2.04c0.47,0.95,3.39,0.79-3.8,1.85c-3.76,0.55,0.64,5.15-5.54,4.27c-1.98-0.28-2.94,3.59-7.89,5.37c-6.22,2.23-8.19,11.8-9.6,8.96c-4.75-9.51-3.03-5.39-6.62-8.32c-0.94-0.77-5.94,0.01-3.2,3.2c1.96,2.29-0.34,3.66,1.92,10.24c0.31,0.91,1.76,1.49-1.6,3.41c0,1.51-0.43,2.17-1.44,3.74c-5.3,8.19-0.45,5.1,2.4,8.06c2.76,2.87,3.85-1.42,5.28,2.77c2.43,7.12,2.5,2.23,3.46,6.7c1.41-1.13,3.15-2.34,5.29-3.66c4.04-2.49,8.05-16.3,13.74-14.55c4.57,1.41,3.09-3.49,5.62-1.61c1.23,0.91-0.1,1.69,2.97,4.43c3.59,3.2,1.07,6.48-0.72,10.04c-1.57,3.11-7.11,5.51-4.98,7.86c0.97,1.07-6.37,3.88-1.34,5.56c1.59,0.53,5.73-0.96,3.53,1.45c-0.54,0.6,2.08,5.56,4.28,3.01l3.45-4.19c1.86-2.48,7.51-7.25,10.49-8.08c1.96-0.55,1.82-2.15,3.83-2.28c2.16-0.14,4.51-1.63,6.88-1.91c4.45-0.52,2.33-2.35,6.15-6.63c2.6-2.91,1.83-3.19,5.43-5.64c1.69-1.14,0.12-1.28,4.01-3.57c1.48-0.87,2.69-3.14,4.04-4.22c-4.49-4.28,3.64-1.5-2.73-7.72c-1.61-1.57-1.27-3.26-4.42-5.56c-2.31-1.68,0.51-7.43,0.51-7.43C764.29,244.11,761.33,247.63,759.46,244.28L759.46,244.28z M716.54,305.2c-3.06,2.94-1.47,0.18-1.65,3.78c-0.09,1.87,1.54-0.42,2.82-0.72c0.99-0.24,4.21-2.14,4.21-2.17c0.09-0.5-0.95-1.89-1.11-1.99C720.82,304.1,717.3,304.47,716.54,305.2L716.54,305.2z M735.69,301.18c-1.19,0.23-1,1.67,0,1.74c0.6-0.68,3.82-1.92,0.58-1.74C736.07,301.19,735.88,301.14,735.69,301.18z M740.1,300.37c-0.31,0.71,0.38,1.69,1.39,0.67c0.07-0.07,0.29-0.15,0.29-0.15C741.77,300.26,740.24,300.06,740.1,300.37L740.1,300.37z M730.36,299.47c-2.34,1.96,0.75,2.95,0.75,0.42C731.11,299.38,730.48,299.37,730.36,299.47z M732.87,298.56c1.69,2.26,4.2-0.02,3.13-0.08c-3.39-0.19-3.07-1.25-4.19-0.83C731.41,297.8,732.75,298.41,732.87,298.56L732.87,298.56z M737.59,297.69c-1.15,0.89,2.72,1.34,1.38-0.75c-0.13-0.2-0.64-0.12-0.64-0.12C737.82,297.29,739.49,296.21,737.59,297.69L737.59,297.69z M738.62,294.11c-0.45,0.18-0.46,2.39,0.58,1.49C739.19,295.39,739.3,293.84,738.62,294.11z M738.2,293.27c-2.44-1.19-1.77,1.93-0.04,0.59C738.39,293.69,738.28,293.31,738.2,293.27z M709.04,281.86c0.02-0.02,2.37-1.07-0.79-1.07c-0.04,0-0.11-0.04-0.13,0C708.11,280.78,707.71,283.22,709.04,281.86z"></path>
    </symbol>
    <symbol id="hebei">
      <path d="M687.56,281.22c-2.85-2.96-7.7,0.14-2.4-8.06c1.01-1.57,1.44-2.22,1.44-3.74l-1.07,0.16h-0.91l-1.49,0.05h-1.44L681,269l-0.64,0.43l-0.96,0.16h-0.96l-1.55,0.16l-0.53,0.64h-1.12l-0.37-1.17v-1.23l-0.16-1.07l-0.85-1.01l-1.44-0.48l-0.53-1.07l0.11-1.23l0.96-0.75l1.01-0.48l0.16-0.85l-1.39-0.91l-0.75-1.23l-0.91-0.96l-0.37-1.33l-0.96-1.01l-0.27-1.44l-0.05-1.17l-0.59-0.96l-0.8-0.75l-0.69-0.85l-0.85-0.85l-1.12-0.37h-1.28l-1.17,0.27l-0.64,0.69l-0.75,0.75l-0.59,0.53l-1.28,0.43H658h-1.12l-0.75,0.91l-0.53,0.96l-0.11,0.8l0.16,0.59l0.37,0.48v0.69l-0.37,0.69l-0.59,0.64l0.32,0.59l0.43,0.48l0.32,0.53l-0.64,0.96l-0.37,0.8l-1.12,0.43l-1.33,0.16l-1.28-0.16h-1.01l-0.85-0.69l-0.6-0.03l-0.48,0.21l-0.29,0.59l-0.78,0.78l-0.8,0.78l-0.4,0.59l-0.56,0.38l-0.48,0.35l-1.18-0.62l-0.48-0.81l-0.51-0.78l-1.62,0.39l-1.07,1.07l-1.07,0.75l-1.18,1.07l-1.07,0.75l-0.96,0.86l-0.75,1.07l-0.53,1.18l-0.96,0.64h-1.5h-1.39l-0.64-1.71v-1.71l0.53-1.6l0.53-1.71l-0.86-0.96l-1.07-1.18l-0.96-0.75l-1.07-0.32l-1.18,1.07l-0.96,1.39l-0.96,1.18l-1.07,1.18l-0.53,0.96l-0.32,1.28l-0.43,1.07l-0.32,1.28l-0.64,1.18h-1.6l-0.53,1.39l-0.08,1.71l-0.59,0.91l0.59,0.91l0.43,1.01l-0.16,0.8l-0.37,0.64l-0.05,0.8l0.53,0.69l0.59,0.8l0.53,0.75l0.43,1.07c2.46,4.76,1.83,2.17,3.51,7.13c0.76,2.26,7.47-0.37-2.52,4.13c-6.38,2.88,3.69,4.6,4.15,6.36c2.32,8.87,3.17-2.45,0.96,10.01c-0.72,4.07-7.25,0.44-8.91,4.56c-0.47,1.17,3.15,2.66-0.48,5.18c-1.43,0.99-3.68,6.34,0.25,7.76c1.65,0.6,6.35,9.07,6.35,9.12c0.01,0.37-5.08,9.32-5.23,12.54c-0.21,4.66-6.87,0.83,0.93,9.6c1.17,0.11,16.03,3.52,16.03,3.52c2.53,1.5,1.88-4.77,4.96-1.01c1.28,1.56,1.42,0.29,2.99-0.67c0.58-2.25-7.26-6.4,1.34-10.91c3.75-1.97,2.33-8.09,6.78-9.71c1.48-0.54,1.09-3.74,2.56-3.41c1.55,0.34-0.85,3.58,4.8-3.79c1.85-2.42,8.79-0.35,9.55-3.31c0.9-3.53,0.43-1.32,2.83-2.93c0.92-0.62,0.48-1.16,1.2-2.21c-2.19-1.5,1.05,0.31-3.23-5.74c-0.14-0.2-0.25-0.45-0.34-0.74c-6.82,1.02-15.92-3.08-10.65-6.95c2.95-2.17-0.6-1.67-0.58-8.96c-1.23-0.16-2.93-0.5-3.96,0.35c-6.52,5.4-0.63,0.82-6.05,0.54c-5.76-0.3-0.03,2.44-6.24,0c-4.43-1.74-0.93-2.55-1.63-4.48c-2.04-5.57-1.59-1.5,4.09-6.28c2.68-2.26-5.26-6.31,0.32-7c1.26-0.16,6.15-4.18,6.15-4.19c4.07-8.31,4.57,1.81,8.99,1.61c12.47-0.57-3.08,2.05,5.08,7.82c1.64-0.09,5.87,3.27,3.74,3.63c-3.94,0.65-0.78,6.61,2.24,7.1c4.23,0.69-1.08,2.18,1.92,3.74c0.75,0.39,0.6,0.66,0.76,1.29c0.36-0.1,0.71-0.05,1.06,0.18c7.03,4.67,1.82,3.53,7.39,0.3c0.97-0.57,4.04,1.8,7.12-2.66c2.01-2.91-0.66-6.41,7.47-12.9c-0.96-4.47-1.03,0.42-3.46-6.7C691.41,279.8,690.32,284.1,687.56,281.22L687.56,281.22z M662.48,297.5c-0.09-1.92-1.4-0.35-1.06-3.94c-1.64,0.05-6.27-0.4-4.34,2.72c0.92,1.49,2.38,0.42,1.67,3.07c-0.08,0.3-0.01,0.33,0.09,0.6C659.81,300.12,662.73,302.51,662.48,297.5L662.48,297.5z"></path>
    </symbol>
    <symbol id="shandong">
      <path d="M651.84,361.11 M687.29,325.67c-3.24-2.91-2.29,2.35-5.92,0.75c-3.28-1.45-3.56,3.41-5.82,0.21c-0.5-0.71-1.03-1.33-1.76-1.81c-0.49-0.33-0.87-0.58-1.15-0.77c-0.72,1.05-0.28,1.59-1.2,2.21c-2.39,1.62-1.92-0.59-2.83,2.93c-0.76,2.96-7.7,0.89-9.55,3.31c-5.65,7.37-3.25,4.13-4.8,3.79c-1.47-0.33-1.09,2.88-2.56,3.41c-4.44,1.62-3.02,7.74-6.78,9.71c-8.6,4.51-0.75,8.66-1.34,10.91c1.27,2.23-1.29,3.54-1.61,4.22c-1.9,4.09,2.77,0.32,2.94,0.3c3.51-0.56,1.11-1.24,3.45-1.8c2.3-0.55,3.2-1.54,3.47-1.93c-0.05,0.12-0.11,0.3-0.18,0.56c-0.81,3.13-8.72,6.84-8.8,8.54c-0.17,3.55-3.58,2.3-4.36,4.21c-0.7,1.72-5.76,6.31-1.61,6.31c6.82,0,2.65,0.47,5.03,1.37c7.13,2.68-4.32,5.41,13.33,4.83c1.9-1.09,1.06-0.88,2.19-1.78c1.51-1.2-0.85-4.35,2.15-4.55c3.17-0.21,2.26-1.89,3.16-1.15c0.05,0.04,0.11,0.09,0.16,0.13c-2.77-3.07-4.64-3.37-1.7-5.74c1.33-1.08,0.27,1.55,4.17,5.47l2.18,2.53c0.64,0.55,1.47,1.3,2.56,2.33c0.24,0.23,0.5,0.47,0.77,0.73c6.07,5.81,7.27-6.23,10.76-0.4c2.49,4.17,4.39,2.13,4.58,0.99c1.14-7.13,2-1.92,3.4-4.32c3.17-5.42-0.67-4.55,7.01-6.56c0.15-0.14,0.32-0.25,0.51-0.32c2.68-0.88,2.55-9.08,5.75-9.74c1.83-0.38,5.87-5.87,4.23-7.51c-2.61-2.61,2.76-4.45,2.33-0.91c-0.23,1.84,4.39-0.55,4.52-1.61c0.19-1.49-1.5-3.72,0.4-4.97c0.45-0.29,3.93,1.49,1.95-2.2c-0.58-1.08-4.25-0.01-0.91-0.94c4.61-1.28,8.97-3.08,12.65-6.06c1.58-1.28,3.97-1.55,5.18-0.05c1.35,1.69,5.06-1.37,2.56-2.72c-1.15-0.62,1.09-2.81,1.12-4.22c0.03-1.73,2.43-3.9-1.76-2.4c-3.12,1.11-4.54-2.61-6.24-0.96c-2.06,1.99-3.22,1.28-5.55,1.76c-1.78,0.37-1.34-2.08-4.11-1.87c-2.91,0.22-4.58-5.42-8.32-2.67c-2.06,1.52-4.26,1.25-4.96,3.9c-0.8,3.01-3.81,2.71-4.75,6.56c-1.39,5.69-16.56,2.27-12.75-2.19c0.79-0.92,1.53-4.67,0.75-5.23C686.65,328.43,690.62,328.65,687.29,325.67L687.29,325.67z M712.52,316.29c-0.03,0.04-0.64,3.08,1.26,0.81C714.67,316.03,712.54,316.27,712.52,316.29z M712.23,318.19c-0.3-0.07-1.18-0.25-1.39,0.03C710.59,318.53,713.78,321.14,712.23,318.19z M712.33,320.88c-2.72-1.5-5.29,2.99-1.42,0.89C711.56,321.41,713.16,321.33,712.33,320.88z M713.27,322.6c-0.33,0.33,0.62,2.09,1.07,0.72C714.82,321.87,713.46,322.41,713.27,322.6z M711.13,325.76c1.36,2.23,1.67-2.66-2.25-1.58c-0.13,0.04-0.12,0.26-0.11,0.4C708.93,325.87,710.25,324.32,711.13,325.76L711.13,325.76z"></path>
    </symbol>
    <symbol id="jiangsu">
      <path d="M720.63,439.35 M689.61,381.16c-1.4,2.4-2.26-2.81-3.4,4.32c-0.18,1.14-2.08,3.18-4.58-0.99c-3.48-5.83-4.69,6.21-10.76,0.4l-0.77-0.73c1.3,3.25-1.28,3.65-1.69,1.97c-0.15-0.61-3.2-5.11-3.29-5.15l-0.55-0.26c-0.32-0.13-0.83-0.46-1.67-1.14c-0.05-0.04-0.1-0.08-0.16-0.13c-0.9-0.74,0.01,0.94-3.16,1.15c-2.99,0.2-0.64,3.36-2.15,4.55c6.64,4.9,5.72,1.03,10.12,7.23c3.18,4.48,7.27-1.68,9.91,6.25c0.8,2.42,9.23-5.29,4.01,6.84c-2.07,4.81,2.42,2.74,3.68,2.13c-2.35-1.61,1.46-0.59,2.56-1.43c2.3-1.77,4.64,0.61,2.38-1.13c-1.27-0.97-3.37-6.1-0.43-4.97c0.54,0.21,0.82,0.6,0.99,1.13c1.05,3.24,4.77,2.36,3.48,5.39c-2.39,5.61-3.4,3.47-3.43,3.46c-0.95-0.12-1.84,2.54-2.49,0.72c-0.31-0.88-0.35-1.35-0.27-1.58c-0.2-0.09-0.44-0.21-0.75-0.38c-0.6-0.33-1.08-0.61-1.47-0.85c0.73,2.36-0.25,10.23,6.2,6.89c1.29-0.67,3.85-8.7,7.6-0.99c1.04,2.15,0.9,5.8-3.08,3.95c-2.1-0.98-8.09-1.48-3.99,1.61c4.31,3.24-3.43,4.94-3.48,5.82c-0.45,8.84,11.7,6.41,6.77,12.43c-3.24,3.96,6.86,0.26,8.22,1.18c1.64,1.12,2.49,1.31,4.47,1.21c0.93-0.98,1.68-0.97,3.65-0.97c-0.07-5.11,5.08-6.76,7.24-5.15c0.81,0.6-1.78-0.36-0.32,1.32c1.16,1.34-1.82,0.65,0.08,1.69c2.59,1.43,0.41,1.11,0.94,1.96c0.25,0.4,0.49,0.44,0.59,0.44c-0.09,0.03-0.33,0.15-0.78,0.5c-0.03,0.02-0.06,0.05-0.09,0.07c0.22,0.29,0.41,1.08,0.36,2.97l-0.05,0.62l1.04,1.13h0.8c0.89-1.43,2.47-1.86,2.78-3.27c1.2-0.57,1.35-1.28,2.54-1.5l0.05-1.37c3.63-2.05,0.7-5.23,4.31-6.55l1.3-0.88c-0.79-1.08-0.35-1.9-7.64-3.42c-2.86-0.6-1.96-7.69-7.44-2.39c-0.57,0.55-3.88,0.89-3.8,0.75c0.37-0.65,2.39-0.82,3.16-1.5c6.09-5.45,7.77,3.44,11.27,1.53c5.27-2.87,12.92,5.63,11.16-0.56c-1.69-5.92-8.41-2.65-8.94-7.51c-0.45-4.07-6.5-1.05-7.06-8.19c-0.23-2.91-6.95-12.2-7.97-17.15c-0.02-0.08-3.46-7.3-5.57-7.54c-5.22-0.6-10.94-5.23-12.36-5.31c-2.11-0.12-2.36-3.93-1.07-5.16C688.94,376.61,692.77,375.73,689.61,381.16L689.61,381.16z"></path>
    </symbol>
    <symbol id="zhejiang">
      <path d="M744.16,468.91 M751.3,443.42c0.3,1.3,2.27-0.57-0.79-2.04c-0.38,0.21-0.65,0.29-0.71,0.74c-0.19,1.37,0.72,0.92,1.71,1.13C751.43,443.47,751.26,443.25,751.3,443.42L751.3,443.42z M752.75,439.68c-0.9,0.1-0.43,1.13,1.47,0.78c0-0.33-0.05-1.37-0.54-1.36C753.42,439.11,753.2,439.63,752.75,439.68L752.75,439.68z M755.42,441.27c-2.14,0.66,0.05,1.27,1.22,1.02C756.89,441.76,755.56,441.23,755.42,441.27z M757.85,445.94c-1.17,1.65,1.94,0.68,0.62-0.51C758.17,445.17,757.96,445.79,757.85,445.94z M756.09,451.31l0.16,1.48C756.98,452.74,757.26,451.15,756.09,451.31z M754.19,450.32c-0.45,1.01,1.25,0.81,1.71,0.72C755.65,450.42,754.33,450,754.19,450.32z M748.19,447.66c0.37,0.42,3.23,0.13,3.45-0.3c0.01-0.02-1.73-0.22-1.9-1.45c-0.48-0.09-1.2,0.02-1.63,0.3C748.11,446.21,747.98,447.42,748.19,447.66L748.19,447.66z M744.31,451.15c0.17,0.17,0.27-1.28,0.27-1.32l-0.78-0.27C743.52,449.94,743.52,451.55,744.31,451.15L744.31,451.15z M747.31,449.08c-2.58-0.12-1.13,3.9,3.88,1.74c-0.14-0.16-1.26-1.81-1.02-0.91c-0.68,1.02-1.09-0.11-1.79-0.48C748.05,449.26,747.67,449.2,747.31,449.08L747.31,449.08z M745.65,455.26c2.27-0.13,2.82,1.19,4.95,1.29c4.79,0.23-3.2-4.08-4.23-4.32C744.96,451.89,742.42,455.44,745.65,455.26L745.65,455.26z M748.97,460.93c0.9-0.4,2.83-0.58,0.91-1.17c-0.09-1.04,0.86-0.26,0.91-1.39c0.02-0.58-0.89-0.97-1.33-0.75c-0.45,0.22-0.44,1.79-1.33,1.92c-1.87,0.27-0.95,0.42-0.05,1.44C748.75,461.75,748.19,461.28,748.97,460.93L748.97,460.93z M748.65,465.31c2.56,0.46,0.81-1.96,0.27-1.55c-0.22,0.16-0.03,0.54-0.11,0.8C748.64,465.11,748.65,465.31,748.65,465.31L748.65,465.31z M746.93,468.57c-0.92,0.76,1.04,2.46,1.04,1.15C747.98,469.39,747.37,468.21,746.93,468.57z M744.26,471.65c2.89,2.14,2.92-1.33,1.21-0.81c-0.27,0.08-0.19,0.06-0.19,0.06C744.87,471.03,744.35,471.52,744.26,471.65L744.26,471.65z M744.55,477.41c-1.07,0.9,1.51,1.89,1.11,0.83C745.32,477.36,745.21,477.56,744.55,477.41z M746.21,480.89c0.06,1.3,1.53,5.58,1.98,1.96c0.15-1.17-0.14-1.9-1.2-2.31L746.21,480.89L746.21,480.89z M742.6,485.29c-0.46,2.31,2.22,1.29,1.02,0.08C743.42,485.18,742.77,485.27,742.6,485.29z M735.77,491.54c0.41,0.66,4.15,1.53,2.3-1.77c-0.21,0.08-0.45,0.12-0.64,0.24L735.77,491.54L735.77,491.54z M735.43,494.39c0.44-0.96,0.6-1.75-0.78-1.64C734.46,493.44,734.98,493.95,735.43,494.39z M737.54,493.18c-0.57,0.26-0.25,0.61-1.07,0.64c-1.92,0.08,2.02,3.08,1.77,0.11C738.21,493.57,738.09,492.93,737.54,493.18L737.54,493.18z M719.76,439.92 M719.34,433.95c-2.17-1.61-7.32,0.04-7.24,5.15c-1.96,0-2.72-0.01-3.65,0.97l-0.05,0.59l0.05,0.59l0.11,0.7l-0.48,0.97l-0.16,0.72l-0.37,0.78v0.51l-0.16,0.86l-0.21,0.48l-0.29,0.51l-0.16,0.89l-0.51,0.51l-0.78,0.27l-0.78,0.32l-0.59,0.51l-0.75,0.48l0.86,0.59l0.37,0.4l0.67,0.7l0.45,0.7l0.08,0.59l-0.29,0.72l-0.62,0.64l-0.43,0.54l-0.8,0.48l-0.96,0.03l-0.72-0.3l-0.76-0.5l-0.62-0.15l-0.76,0.21l-0.67,0.55l-0.46,0.71l-0.11,0.7l0.03,1.05l-0.04,0.23l0.36,1.02l0.33,0.59l0.35,0.58l0.11,0.24l-0.07,0.71l-0.12,0.82l-0.33,0.31l-0.44,0.52l-0.29,0.44l-0.13,0.66l-0.25,0.32l-0.27,0.35l-0.25,0.28l-0.2,0.46l-0.23,0.32l-0.34,0.6l-0.54,0.54l-0.29,0.59l-0.48,0.46l-0.54,0.7l-0.54,0.48l-0.45,0.54l-0.64,0.54l-0.7,0.38l-0.48,0.32l-0.64,0.35l-0.56,0.32l-0.56,0.19l-0.59,0.06c0.14,1.43-1.7,3.17-1.71,3.2c-1.36,3.58,6.5,6.06,7.19,12.63c0.19,1.75,0.54,2.64,0.99,3.06c1.59,1.49,4.31-3.07,4.42,4.08c0.05,2.94,2.65,5.26,2.65,8.45c0,2.45,2.46-0.12,3.99,0.97c2.73,1.94,5.63-6.12,7.36-3.57c3.42,5.03,1.41,5.53,7.79,3.03c2.45-0.96,3.85,1.11,5.32,2.66c3.13-0.89,1.18-6.3,1.43-6.93c0.98-2.45,4.19-4.73,0.69-6.3c-6.35-2.85,3.72,0.38,4.38-1.97c0.79-2.84,2.07-1.51,0.59-4c-0.97-1.64,1.71-2.36,3.47,0.48c1.44,2.32,1.62-2.73,4.32-2.67c0.78,0.02,2.41,1.01-0.69-3.2c-2.87-3.89-6.72-2.28-0.43-3.31c1.87-0.31,2.33-2.16,0.43-2.67c-5.44-1.45,6.92,1.14-2.19-3.74c-1.25-0.67,0.81-2.16,1.28-3.04c0.81-1.53,1.61,4.16,2.88,1.23c0.13-0.29,0.21-0.57,0.26-0.83c0.03,0.18,0.06,0.39,0.1,0.63c0.13,0.67,2.63,2.22,1.7-2.55c-1.55-7.92-0.2-4.09-4.59-2.2c-0.19,0.08-4.35,3.34-3.46,0.59c0.01-0.03,2.33-0.55,5.97-4.51c2.93-3.19,4.3-1.96-2.52-4.05c-5.03-1.54-4.98-8.56-11.21-2.85c-5.44,4.99-3.51-3.96-10.05,0.2c-3.76,2.39,0.42-2.58,4.46-2.46c6.38,0.2,2.7-1.75,6.46-4.39c1.19-0.84,2.13-1.81,3.09-2.71c-1.2-0.14-1.24,0.01-1.84-0.98c-1.17,0.04-1.25-0.04-1.61-0.72l-1.28-0.13c-1.46-1.47,0.93-2.41-2.14-2.93c-1.2,0.22-1.34,0.93-2.54,1.5c-0.31,1.41-1.89,1.84-2.78,3.27h-0.8l-1.04-1.13l0.05-0.62c0.06-1.88-0.14-2.68-0.36-2.97c0,0,0,0,0,0l0.08-0.06c0.16-0.12,0.29-0.22,0.4-0.29c0.05-0.04,0.1-0.07,0.14-0.09c0.12-0.07,0.19-0.1,0.24-0.12c-0.1,0.01-0.34-0.04-0.59-0.44c-0.53-0.85,1.66-0.53-0.94-1.96c-1.9-1.04,1.08-0.35-0.08-1.69C717.56,433.58,720.15,434.54,719.34,433.95L719.34,433.95z"></path>
    </symbol>
    <symbol id="jiangxi">
      <path d="M698.56,456.38l0.11-0.7l0.46-0.71l0.67-0.55l0.76-0.21l0.62,0.15l0.76,0.5l0.72,0.3l0.96-0.03l0.8-0.48l0.43-0.54l0.62-0.64l0.29-0.72l-0.08-0.59l-0.45-0.7l-0.67-0.7l-0.37-0.4l-0.86-0.59l0.75-0.48l0.59-0.51l0.78-0.32l0.78-0.27l0.51-0.51l0.16-0.89l0.29-0.51l0.21-0.48l0.16-0.86v-0.51l0.37-0.78l0.16-0.72l0.48-0.97l-0.11-0.7l-0.05-0.59l0.05-0.59c-1.98,0.1-2.83-0.09-4.47-1.21c-1.35-0.92-11.46,2.78-8.22-1.18c4.93-6.02-7.22-3.59-6.77-12.43c0.04-0.88,7.79-2.58,3.48-5.82c-4.1-3.09,1.89-2.59,3.99-1.61c3.98,1.86,4.12-1.8,3.08-3.95c-3.75-7.7-6.31,0.33-7.6,0.99c-6.45,3.34-5.48-4.52-6.2-6.89c-0.23-0.14-0.42-0.26-0.58-0.38c-1.25,0.6-5.74,2.68-3.68-2.13c5.21-12.14-3.21-4.42-4.01-6.84c-2.63-7.94-6.73-1.77-9.91-6.25c-4.4-6.2-3.48-2.33-10.12-7.23c-1.13,0.9-0.29,0.69-2.19,1.78c-0.15,7.09,4.94,2.15,5.36,6.45c0.47,4.82,4.07,1.79-2.77,6.83c-5.29,3.9-4.35-6.88-9.71-4.38c-4.4,2.05,3.44,7.44-2.88,8.7c-4.31,0.86,3.36,7.84-4.86,7.84c-0.94,0-3.53-1.94-1.97,1.65c0.94,2.17,3.94,0.45,4.22,4.43c0.28,3.97,1.45,0.18,4.91,4.22c3.04,3.55,4.47-7.49,6.51,5.34c1.68,10.57-5.85,0.81-7.66,13.1c0.96,0.44,2.12,1.13,2.81,2.37c0.57,1.02,3.37-0.09,5.76,1.76c3.63,2.8,1.14,0.65-1.39,5.5c-0.89,1.71,1.54,4.24,1.92,6.51c0.65,3.87,0.94-2.02,3.25,7.26c0.27,1.08,0.62,1.74,1.02,2.09c2.18,1.92,6.03-5.12,8.1-4.28c5.92,2.4-1.13,3.12-0.48,6.88c0.53,3.05,7.29-1.56,5.98-3.36c-0.72-0.99,1.42-2.6,2.24-1.49c0.6,0.81-0.37,0.82,1.07,0.75c4.34-0.21-1.09,4.53,8.11,4.38c3.7-0.06,4.86,0.82,4.96,1.87l0.59-0.06l0.56-0.19l0.56-0.32l0.64-0.35l0.48-0.32l0.7-0.38l0.64-0.54l0.45-0.54l0.54-0.48l0.54-0.7l0.48-0.46l0.29-0.59l0.54-0.54l0.34-0.6l0.23-0.32l0.2-0.46l0.25-0.28l0.27-0.35l0.25-0.32l0.13-0.66l0.29-0.44l0.44-0.52l0.33-0.31l0.12-0.82l0.07-0.71l-0.11-0.24l-0.35-0.58l-0.33-0.59l-0.36-1.02l0.04-0.23L698.56,456.38L698.56,456.38z"></path>
    </symbol>
    <symbol id="hebei">
      <path d="M654.05,428.01c-2.04-12.83-3.47-1.79-6.51-5.34c-3.46-4.03-4.63-0.24-4.91-4.22c-0.28-3.98-3.28-2.26-4.22-4.43c-1.56-3.6,1.03-1.65,1.97-1.65c8.21,0,0.54-6.98,4.86-7.84c6.32-1.26-1.51-6.64,2.88-8.7c5.36-2.5,4.42,8.27,9.71,4.38c6.85-5.04,3.25-2.01,2.77-6.83c-0.42-4.3-5.51,0.63-5.36-6.45c-17.65,0.58-6.2-2.15-13.33-4.83c-2.38-0.9,1.79-1.37-5.03-1.37c-4.15,0,0.91-4.59,1.61-6.31c0.78-1.92,4.19-0.67,4.36-4.21c0.08-1.7,7.99-5.41,8.8-8.54c0.01-0.05,0.03-0.1,0.04-0.15c0.04-0.14,0.07-0.24,0.11-0.33c0.01-0.03,0.02-0.06,0.03-0.08c-0.26,0.39-1.17,1.38-3.47,1.93c-2.34,0.56,0.05,1.24-3.45,1.8c-0.17,0.03-4.84,3.79-2.94-0.3c0.32-0.68,2.88-1.99,1.61-4.22c-1.57,0.96-1.71,2.23-2.99,0.67c-3.09-3.76-2.43,2.52-4.96,1.01c0,0-14.87-3.42-16.03-3.52c-1.08,10.73-0.16,14.5-9.04,17.5c-5.62,1.9,3.63,1.53-9.5,1.92c-7.59,0.22,0.13,0.98-5.55,2.61c-7.72,2.23,0.27,3.49-9.55,4.96c-3.8,0.57-2.53,2.24-11.74,4c-0.29,0.05-0.54,0.22-0.81,0.33c1.73,2.18,1.76,5.14,2.65,5.88c0.62,0.52,2.68,4.17,1.72,5.18c-0.3,0.31,0.86,0.77,2.11,2.79c2.74,4.4,2.26-1.81,2.46,7.06c0,0.22,0.04,0.41,0.11,0.57l0.01,0.02c0.5,1.17,2.47,1.19,3.6,4.97c0.59,1.95,4.27,6.02,6.24,6.07c3.41,0.08,7.39,5.4,10.62,3.84c3.42-1.65,3.68,0.6,6.88-0.75c5.88-2.46,5.25,4.01,10.72-0.21c3.34-2.58,1.41,5.24,1.81,5.76c0.67,0.86,1.77,2.65,2.72,3.25c2.64,1.67-0.34,1.93,3.84,0.21c0.35-0.15,5.95,1.47,6.03,1.81c0.65,2.75,1.52,2.3,4.06,3.52c3.25,1.56,4.84-6.23,5.71,0.48c0.03,0.22,0.77,0.41,1.67,0.83C648.2,428.82,655.73,438.58,654.05,428.01L654.05,428.01z"></path>
    </symbol>
    <symbol id="shanxi">
      <path d="M610.57,375.99c8.88-3.01,7.96-6.77,9.04-17.5c-7.8-8.77-1.15-4.95-0.93-9.6c0.15-3.22,5.24-12.17,5.23-12.54c0-0.05-4.7-8.52-6.35-9.12c-3.92-1.43-1.68-6.77-0.25-7.76c3.63-2.52,0.01-4.01,0.48-5.18c1.66-4.12,8.19-0.49,8.91-4.56c2.21-12.46,1.36-1.14-0.96-10.01c-0.46-1.76-10.53-3.48-4.15-6.36c9.99-4.5,3.28-1.88,2.52-4.13c-1.68-4.96-1.05-2.37-3.51-7.13c0.93,7.79-2.01,4.21-5.24,8.02c-2.31,2.71-6.88-0.95-9.06,2.07c-2.9,4.01-6.91-2.74-9.6,2.88c-0.8,1.66-2.15,6.55-2.66,8.34c-0.89,3.08-3.58-1.97-7.17,1.88c-3,3.22-1.57,0.78-4.28,1.85c-0.02,3.85,3.29,0.19-0.94,7.73c-1.25,2.23,0.08,7.67-5.22,11.1c-2.01,1.3-1.19,5.75-0.05,7.2c5.39,6.88-0.31,4.93,0.96,9.44c0.61,2.16-5.43,3.77-2.45,13.87c0.99,3.38-1.67,7.65,0.85,10.78c3.73,4.62-7.82,17.79-3.16,21.7c0.32,0.27,0.61,0.57,0.85,0.88c0.27-0.11,0.52-0.28,0.81-0.33c9.21-1.76,7.94-3.43,11.74-4c9.82-1.47,1.83-2.74,9.55-4.96c5.68-1.64-2.04-2.39,5.55-2.61C614.19,377.52,604.94,377.89,610.57,375.99L610.57,375.99z"></path>
    </symbol>
    <symbol id="shaanxi">
      <path d="M555.51,330.93 M572.56,388.94c-4.67-3.91,6.88-17.09,3.16-21.7c-2.52-3.13,0.14-7.4-0.85-10.78c-2.97-10.1,3.06-11.72,2.45-13.87c-1.27-4.51,4.43-2.56-0.96-9.44c-1.14-1.45-1.96-5.9,0.05-7.2c5.3-3.43,3.97-8.86,5.22-11.1c4.23-7.54,0.91-3.88,0.94-7.73c1.21-3.83-2.81-2.12-4.84,1.48c-1.38,2.44-0.04-0.79-4.07-0.16c-0.26,0.04-4.92-2.29-4.47-0.72c0.06,0.21,3.86,2.09-0.13,2.63c-2.68,0.36,0.47-1.42-4.2,3.17c-1.64,1.61,1.21,1.52-3.53,4.05c-0.3,0.16-8.47,9.12-7.25,11.33c0.68,1.24,1.18,1.82,1.43,2.05c-0.36-0.18-1.27-0.44-2.85-0.01c-2.69,0.73,3.98,8.35-4.76,5.42c-2.95-0.98-0.33,3.36-7.25-1.21c-1.41-0.93-2.52-1.49-3.73-1.14c-1,0.29-2.08,1.22-3.44,3.1c-2.04,2.8-1.5,5.66-1.74,8.83c-0.57,6.37,1.82,2.36,9.58,8.11c6.59,4.88,11.54,2.78,8.99,10.7c-1.4,4.34-5-0.22-1.39,8.99c2.45,6.25-13.8,1.22-12.94,4.49c0.09,0.33,5.76,5.03-5.13,5.03c-3.69,0-5.94-6.12-10.8-3.1c-3.41,2.11,2.27,1.9-1.28,5.78c-5.06,5.52,2.92,2.3,3.74,6.42c0.31,1.54-4.17-1.21-4.17,7.59c0,6.45,7.67,5.53-3.53,5.13c-2.44-0.09-1.99-2.69-7.27,3.21c0.53,1.38,7.18,6.27,0.43,7.7c-2.14,0.45-4.19-1.36-4.13,2.1c0.42-0.21,0.55,0.39,2.07,1.77c0.34,0.31,6.32-5.11,7.36-0.27c0.83,3.86,12.1-1.6,13.07,1.97c1.61,5.92,5.03,1.01,5.5,2.83c0.57,2.23,2.33,0.86,4.32,3.09c2.62,2.95,2.3,1.91,4.59,0.91c1.02-0.45,2.58-0.23,4.32,0.37c9.63,3.28,3.53,3.39,8,4.59c2.52,0.67,1.67,0.49,2.51,1.61c2.81,3.75,5.86,2.51,7.41,2.59c0.38-4.91-2.53-2.28-0.2-5.84c1.31-2-4.25-3.64-0.11-8.38c1.47-1.68,8.67,1.37,8.38-2.29c-0.37-4.6-4.79-1.68-5.23-4.8c-0.48-3.46-4.79-2.7-5.02-3.2c-1-2.26,8.91-0.86,10.03-0.64c7.72,1.5,2.68-3.15,6.08,0.59c1.83,2.02,3.61-0.76,5.58-1.64l-0.01-0.02c-0.07-0.16-0.11-0.35-0.11-0.57c-0.2-8.87,0.27-2.66-2.46-7.06c-1.26-2.02-2.41-2.48-2.11-2.79c0.96-1.01-1.09-4.66-1.72-5.18c-0.89-0.75-0.92-3.7-2.65-5.88C573.17,389.51,572.89,389.21,572.56,388.94L572.56,388.94z"></path>
    </symbol>
    <symbol id="gansu">
      <path d="M518.43,376.03c-0.72-0.01-6.02-4.98-6.07-4.99c-4.8-1.48,1.74-0.67-4.5-2.95c-6.39-2.34-0.11-6.56-0.08-7.62c0.19-6.1-6.68-4.81-2.17-9.72c1.43-1.56-4.18-4.35-5.41-7.09c-0.9-2-5.58-0.15-2.89-1.77c2.53-1.52-0.62-3.07-2.35-3.25c-7.64,0.27-6.85-2.29-12.28-6.28c-0.63-0.47-1.69-1.03-2.06-1.74c-1.63-3.19,3.28-4.83,1.74-8c-0.98-2,4.36-0.81,8.59-7.73c3.42-5.58,0.17-3.14,0-8c-0.21-6.15-13.11,4.95-16.16,3.19c-5.31-3.05-5.94-1.53-7.84-1.48c-8.93,0.25-0.62,2.88-2.22,4.56c-4.59,4.84-3.6,5.65-11.88-1.74c-2.77-2.47-4.51,0.15-3.45-3.76c1.43-5.25-2.02-4.1-4.4-6.66c-1.03-1.11-1.49-0.53-1.81-2.19c-0.22-1.14-2.65-2.26-3.95-3.25c-6.66-5.12-10.72,1.77,1.64-10c7.5-7.14,1.08-10.47-9.25-9.17c-12.94,1.63-6.68,0.67-8.05,4.21c-0.61,1.56-6.01,0.55-3.99-3.52c1.05-2.1-4.36-7.69-5.78-9.85c-4.03-6.09-0.33-2.54,0.86-7.03c0.48-1.82-4.47-15.51-5.46-18.28c-3.73-0.46-6.95-0.77-8.91-0.85c-1.05-0.04-1.54-0.09-1.84-0.34c-4.31,3.64-4.5,3.22-3.18,8.67c0.42,1.71,1.54,4.16-4.38,4.27c-5.13,0.09-4.71,3.16-7.04,1.6c-5.31-3.54-14.82,4.72-18.09,8.64c-1.72,2.06-8.6,9.43-11.31,8.27c-7.69-3.29-4.78,0.15-7.68,8c-1.68,4.55,0.98,8.38-3.47,11.69c-2.74,2.03-2.28,2.75-2.3,2.83c2.3,2.11,6.88,2.17,7.16,5.55c0.18,2.19,12.34,0.87,8.06,2.72c-3.45,1.49,1.7,1.94,4.11,1.39c3.9-0.89,1.84,7.76,6.51,7.15c12.03-1.57,4.43,0.95,14.62,3.04c2.74,0.56,3.28-1.58,5.6,1.23c3.02,3.64,3.24-0.58,5.44,0.11c3.3,1.02,0.17-4.15,2.72-5.39c6.01-2.91-1.1-17.31,11.15-6.46l5.98,4.8c2.15,0.48,2-4.02,4.59-2.61c3.45,1.88,4.59-3.18,6.99,0.59c1.09,1.71,14.63,17.43,14.51,12.33c-0.12-5.32,2.41,1.52,4.38,2.19c2.08,0.71-0.16,1.12,4.7,4.59c3.4,2.43,1.47,0.24,6.56,5.18c6.79,6.59,4.62,0.8,7.52,0.69c2.08-0.07,0.4,4.3,1.65,5.12c11.12,7.27,1.39,5.82,6.67,11.1c1.28,1.28-2.18,1.13,0.32,3.63c1.81,1.81,0.49,3.26,2.72,4.91c2.71,2-0.67,3.32-0.59,5.87c0.1,3.02-2.83,1-2.83,4.91c0,4.17-7.76,1.28-5.98,7.31c0.86,2.89-11.16,4.3-6.88,9.34c5.2,6.11,5.04,2.04,0.27,7.52c-3.98,4.57-13.83-9.79-16.65-1.97c-0.22,0.6,5.91,9.52,6.67,9.71c3.43,0.88,3.44-0.51,5.32,2.99c0.22-0.67,0.69-1.03,1.62-0.8c2.39,0.6-3.39,10.34,2.35,6.19c5.25-3.8,7.33-3.95,5.55-6.03c-5.02-5.86-0.01-6.32,0.64-6.88c0.61-0.53-0.32-1.07,1.33-1.33c4.15-0.67,2.8-5.26,6.67-1.92c1.66,1.43,3.09,1.89,2.4,3.95c-1.71,5.12,3.92,4.73,4.64,5.23c2.2,1.54,3.94,0.51,6.4,0.96c2.93,0.54,6.13,9.93,4.11,13.13c-1.88,2.97,9.64,7.05,12.5,5.35c1.82-1.08,2.77-1.73,3.31-2c-0.06-3.47,1.99-1.65,4.13-2.1c6.75-1.43,0.1-6.32-0.43-7.7c5.28-5.9,4.84-3.3,7.27-3.21c11.2,0.4,3.53,1.31,3.53-5.13c0-8.81,4.48-6.06,4.17-7.59c-0.82-4.12-8.81-0.89-3.74-6.42c3.55-3.88-2.13-3.66,1.28-5.78c4.87-3.01,7.11,3.1,10.8,3.1c10.89,0,5.22-4.7,5.13-5.03c-0.86-3.28,15.4,1.76,12.94-4.49c-3.61-9.2-0.01-4.64,1.39-8.99c2.55-7.92-2.4-5.82-8.99-10.7c-7.76-5.75-10.15-1.74-9.58-8.11c-11.72,0.91-7.98-2.25-8.7,4.8c-0.18,1.78-4.44,3.08-2.78,4.67c2.94,2.82-2.16,3.72,1.55,4.08c7.49,0.73,4.93,9.61,2.01,9.42c-3.36-0.22-3.04-2.65-4.25,3.11C519.48,372.34,521.58,376.08,518.43,376.03L518.43,376.03z"></path>
    </symbol>
    <symbol id="hubei">
      <path d="M562.65,423.31c-4.14,4.74,1.41,6.37,0.11,8.38c-2.32,3.57,0.58,0.94,0.2,5.84c0.6,0.03,1.07,0.19,1.4,0.77c1.24,2.2-0.73,1.86,1.11,1.85c1.18-0.01,6.73,3.57,5.13,7.54c-1.01,2.5,0.03,5.3-3.63,4.32c-3.76-1-6.55,8.64-12.22,4.86c-0.93-0.62-1.5-1.02-2.29,0.05c-1.85,2.5-2.34,0.06-5.86,1.53c-2.61,1.09-1.36,1.98,0.04,3.38c0.86,0.86,0.51,5.14-0.41,6.14c-2.18,2.37-0.3,4,0.99,2.07c1.27-1.91,1.36,1.3,2.11,1.88c2.01,1.55,2.02,5,4.44,5.45c1.62,0.3,0.88,3.02,2.3,3.95c0.18,0.11,0.33,0.23,0.47,0.33c1.12-0.99,3.88-7.97,4.88-8.12c3.29-0.47,7.55-5.41,10.84-1.82c2.28,2.48,5.46-0.81,5.41-0.89c0.19-1.23-1.81-1.53-1.42-4.56c0.98-0.35,2.12-0.24,3.08-0.56c0.74-1.59,3.02-0.07,4.23,0.05c3.36,0.36,5.79,2.66,9.21,2.66c3.02,0,8,3.28,8.83,4.32c1.7,2.13,2.46,0.11,4.58,0.11c4.63,0,2.91-2.58,4.84-3.01c3.6-0.8,1.69,2.04,1.69,3.06c0,7.52,6.48-1.93,7.73-3.54c2.27-2.93,0.1,1.19,1.39,1.96c5.44,3.22,1.3,3.55,1.53,8.35c0.05,0.97,2.32,1.6,4.33,3.06c-0.21-3.89,2.43-2.83,4.47-5.53c0.14-0.19,5.07-1.61,5.08-1.61c4.91,0,4.84-5.76,7.23-3.27c1.57,1.63,0.17-1.93,1.82-1.93c4.59,0,2.67-2.43,4.31-3.33c4.35-2.38,2.83,4.95,9.17-0.44c-0.4-0.35-0.75-1.02-1.02-2.09c-2.32-9.28-2.61-3.39-3.25-7.26c-0.38-2.27-2.81-4.8-1.92-6.51c2.52-4.84,5.02-2.69,1.39-5.5c-2.4-1.85-5.19-0.74-5.76-1.76c-0.69-1.24-1.84-1.93-2.81-2.37c-0.91-0.41-1.64-0.61-1.67-0.83c-0.87-6.71-2.46,1.08-5.71-0.48c-2.54-1.22-3.41-0.77-4.06-3.52c-0.08-0.34-5.68-1.96-6.03-1.81c-4.18,1.72-1.21,1.46-3.84-0.21c-0.95-0.6-2.05-2.39-2.72-3.25c-0.41-0.52,1.53-8.35-1.81-5.76c-5.47,4.23-4.85-2.25-10.72,0.21c-3.2,1.34-3.46-0.9-6.88,0.75c-3.23,1.56-7.21-3.76-10.62-3.84c-1.96-0.05-5.65-4.11-6.24-6.07c-1.14-3.78-3.1-3.8-3.6-4.97c-1.97,0.89-3.75,3.66-5.58,1.65c-3.4-3.74,1.64,0.91-6.08-0.59c-1.12-0.22-11.03-1.62-10.03,0.64c0.22,0.5,4.53-0.26,5.02,3.2c0.43,3.12,4.86,0.2,5.23,4.8C571.32,424.68,564.12,421.64,562.65,423.31L562.65,423.31z"></path>
    </symbol>
    <symbol id="anhui">
      <path d="M630.73,487.72c0.29,2.95,3.04,5.86-0.16,7.9c-1.6,1.02-0.72,3.01-2.48,4.17c-3.55,2.33-1.87,2.47-3.77,5.34c-1.06,1.6-2.41,6.08,0.67,6.04c6.21-0.09-0.36,1.94,3.05,6.17c1.1,1.37-1.75,6.04,0.88,6.23c2.82,0.2,1.74,0.82,2.25,2.95c0.27,1.11-1.53,4.07-1.31,4.46c1.26,2.25,3.17-1.47,3.85-0.99c0.74,0.51-2.38,2.63-2.38,2.98c0,2.51-0.79,3.16-1.93,5.02c-0.02,0.03,0.39,3.39,1.12,5.87c0.43,1.47,0.97,2.63,1.61,2.61c7.17-0.22,5.23-4.54,9.93-0.21l-0.03,0.91c0.36,3.44-2.84,1.48-4.44,6.31c-0.37,1.1-3.26,3.75-3.24,3.86c0.58,2.65,6.12,1.03,7.55,0.91c4.51-0.36,4.05-2.45,5.65-2.52c3.32-0.15,4.6-1.77,6.18-1.77c0.61,0.65,4.2,4.15,4.92,4.19c2.26,0.11,0.38-2.55,0.28-3.03c-0.55-2.47,0.27-3.48,1.62-3.8c0.25-8.76,0.46-4.5,1.77-11.34c2.13-11.15,8.24-7.63,6.07-10.79c-3.18-4.64,3.2-2.82,1.87-5.77c-3.74-8.33,0.65-7.74,3.99-9.66c4.18-2.4,2.53-6.17,2.53-6.17c-0.6-4.59-2.29-4.28,0.12-5.08c1.37-0.45,4.36-7.21,6.23-4.98c3.26,3.87,2.17-0.68,5.95-1.4c3.17-0.6,1.87-1.74,3.18-1.84c4.59-0.34-1.04-1.17,3.95-4.05c-0.44-0.42-0.8-1.31-0.99-3.06c-0.7-6.57-8.55-9.04-7.19-12.63c0.01-0.03,1.85-1.76,1.71-3.2c-0.1-1.05-1.26-1.93-4.96-1.87c-9.2,0.15-3.77-4.58-8.11-4.38c-1.44,0.07-0.47,0.06-1.07-0.75c-0.82-1.11-2.96,0.5-2.24,1.49c1.31,1.8-5.45,6.42-5.98,3.36c-0.65-3.76,6.4-4.48,0.48-6.88c-2.07-0.84-5.92,6.2-8.1,4.28c-6.34,5.39-4.82-1.94-9.17,0.44c-1.63,0.89,0.28,3.33-4.31,3.33c-1.65,0-0.25,3.57-1.82,1.93c-2.39-2.48-2.31,3.27-7.23,3.27c-0.01,0-4.94,1.42-5.08,1.61c-2.03,2.7-4.68,1.64-4.47,5.53C629.16,483.78,630.5,485.29,630.73,487.72L630.73,487.72z"></path>
    </symbol>
    <symbol id="henan">
      <path d="M653.94,428.01c-2.04-12.83-3.47-1.79-6.51-5.34c-3.46-4.03-4.63-0.24-4.91-4.22c-0.28-3.98-3.28-2.26-4.22-4.43c-1.56-3.6,1.03-1.65,1.97-1.65c8.21,0,0.54-6.98,4.86-7.84c6.32-1.26-1.51-6.64,2.88-8.7c5.36-2.5,4.42,8.27,9.71,4.38c6.85-5.04,3.25-2.01,2.77-6.83c-0.42-4.3-5.51,0.63-5.36-6.45c-17.65,0.58-6.2-2.15-13.33-4.83c-2.38-0.9,1.79-1.37-5.03-1.37c-4.15,0,0.91-4.59,1.61-6.31c0.78-1.92,4.19-0.67,4.36-4.21c0.08-1.7,7.99-5.41,8.8-8.54c0.01-0.05,0.03-0.1,0.04-0.15c0.04-0.14,0.07-0.24,0.11-0.33c0.01-0.03,0.02-0.06,0.03-0.08c-0.26,0.39-1.17,1.38-3.47,1.93c-2.34,0.56,0.05,1.24-3.45,1.8c-0.17,0.03-4.84,3.79-2.94-0.3c0.32-0.68,2.88-1.99,1.61-4.22c-1.57,0.96-1.71,2.23-2.99,0.67c-3.09-3.76-2.43,2.52-4.96,1.01c0,0-14.87-3.42-16.03-3.52c-1.08,10.73-0.16,14.5-9.04,17.5c-5.62,1.9,3.63,1.53-9.5,1.92c-7.59,0.22,0.13,0.98-5.55,2.61c-7.72,2.23,0.27,3.49-9.55,4.96c-3.8,0.57-2.53,2.24-11.74,4c-0.29,0.05-0.54,0.22-0.81,0.33c1.73,2.18,1.76,5.14,2.65,5.88c0.62,0.52,2.68,4.17,1.72,5.18c-0.3,0.31,0.86,0.77,2.11,2.79c2.74,4.4,2.26-1.81,2.46,7.06c0,0.22,0.04,0.41,0.11,0.57l0.01,0.02c0.5,1.17,2.47,1.19,3.6,4.97c0.59,1.95,4.27,6.02,6.24,6.07c3.41,0.08,7.39,5.4,10.62,3.84c3.42-1.65,3.68,0.6,6.88-0.75c5.88-2.46,5.25,4.01,10.72-0.21c3.34-2.58,1.41,5.24,1.81,5.76c0.67,0.86,1.77,2.65,2.72,3.25c2.64,1.67-0.34,1.93,3.84,0.21c0.35-0.15,5.95,1.47,6.03,1.81c0.65,2.75,1.52,2.3,4.06,3.52c3.25,1.56,4.84-6.23,5.71,0.48c0.03,0.22,0.77,0.41,1.67,0.83C648.09,428.82,655.62,438.58,653.94,428.01L653.94,428.01z"/>
    </symbol>
    <!-- <symbol id="?">
      <path d="M554.27,620.63c0.18-0.28-0.39-1.02-1.24-0.68C551.97,621.02,553.02,622.65,554.27,620.63z"></path>
    </symbol>
    <symbol id="?">
      <path d="M554.7,623.41c1.53,0.66,1.65-0.93,0-0.53V623.41z"></path>
    </symbol> -->
    <symbol id="hunan">
      <path d="M630.53,543.84c-0.73-2.48-1.14-5.85-1.12-5.87c1.14-1.86,1.93-2.51,1.93-5.02c0-0.35,3.12-2.47,2.38-2.98c-0.69-0.48-2.59,3.24-3.85,0.99c-0.21-0.38,1.58-3.34,1.31-4.46c-0.51-2.13,0.57-2.75-2.25-2.95c-2.64-0.18,0.22-4.86-0.88-6.23c-3.41-4.23,3.16-6.27-3.05-6.17c-3.08,0.05-1.73-4.44-0.67-6.04c1.91-2.87,0.22-3.02,3.77-5.34c1.76-1.15,0.88-3.15,2.48-4.17c3.2-2.04,0.45-4.95,0.16-7.9c-0.24-2.42-1.57-3.94-3.04-5.01c-2.01-1.46-4.28-2.09-4.33-3.06c-0.24-4.79,3.91-5.12-1.53-8.35c-1.29-0.76,0.88-4.89-1.39-1.96c-1.25,1.61-7.73,11.06-7.73,3.54c0-1.02,1.92-3.86-1.69-3.06c-1.94,0.43-0.22,3.01-4.84,3.01c-2.12,0-2.87,2.02-4.58-0.11c-0.83-1.04-5.81-4.32-8.83-4.32c-3.42,0-5.84-2.3-9.21-2.66c-1.2-0.13-3.49-1.64-4.23-0.05c-0.96,0.32-2.1,0.21-3.08,0.56c-0.39,3.03,1.61,3.33,1.42,4.56c0.06,0.07-3.13,3.36-5.41,0.89c-3.29-3.58-7.55,1.35-10.84,1.82c-1,0.14-3.76,7.12-4.88,8.12c2.07,1.64,0.11,2.8,0.04,5.25c-0.02,0.73,1.25,1.36,0.67,1.66c-0.55,0.28-1.1,1.56-0.56,2.23c1.14,1.42,0.27,0.89-0.13,2.39c0.56,4.25,2.81,3.13,1.9,5.15c-3.56,7.93,3.09,6.84,1.63,9.77c-1.91,3.83-4.71,1.24-9.66,8.29c-3.13,4.45,6.9-3.2,10.41,0.62c1.96,2.13-1.4,1.68-0.29,3.09c1.6,2.03-3.26,2.96-2.35,4.13c2.5,3.22-1.02,3.49-0.48,6.25c1.38,0.05,0.75-0.14,2.21,0.17c0.72,1.6,0.27,3.19,0.34,4.88c0.97-0.6,2.09-0.66,3.41,0.66c0.07,0.07,1.19,4.11,2.02-0.7c0.5-2.89,2.72-4.31,4.31-1.45c3.17,5.7,5.59-5.45,9.61-3.89c2.03,0.78,6.39-2.09,7.97,0.56c0.87,1.46-2.58,7.84,1.69,5.85c2.39-1.11-0.74,3.76-0.7,6.63c0.03,2.06-8.08,8.59-4.42,9.72c1.06,0.32,5.4-6.66,7.12-0.67c0.44,1.54-1.45,7.5,2.25,5.72c2.84-1.37-0.55-2.94,5.62-1.4c3.64,0.91,1.93-6.78,3.88-7.19c8.8-1.84,8,6.16,11.53,3.38c1.13-0.88,1.54-5.11-0.27-5.34c-2.15-0.28,2-2.28,2.84-3.25c2.87-3.31,6.31,4.75,11.67,0.35C629.3,544.1,629.9,544.01,630.53,543.84L630.53,543.84z"></path>
    </symbol>
    <symbol id="guizhou">
      <path d="M560.26,535.54c-0.07-1.69,0.38-3.28-0.34-4.88c-1.46-0.31-0.83-0.13-2.21-0.17c-0.54-2.76,2.99-3.04,0.48-6.25c-0.91-1.17,3.95-2.1,2.35-4.13c-1.11-1.41,2.25-0.96,0.29-3.09c-3.51-3.82-13.54,3.83-10.41-0.62c4.95-7.05,7.75-4.46,9.66-8.29c1.46-2.93-5.19-1.84-1.63-9.77c0.91-2.02-1.34-0.9-1.9-5.15c-0.28,1.05-1.19,0.67-1.55,1.72c-1.97,5.65-1.77,2.18-3.43,1.85c-3.39-0.67-1.91-5.26-3.4-3.7c-0.97,1.02-1.24,3.62-1.15-1.91c0.03-1.76-3.53-0.75-3.75-3.6c-0.52-6.78,0.21-3.02-2.92-4.35c-3.2-1.36-3.81,3.13-5.63-0.97c-1.22-2.74-5.46-1.38-5.55-0.69c-0.27,2.04,1.12,2.47-0.21,3.84c-3.49,3.6-3.46-2.41-5.82,0.53c-1.94,2.43-3.14-1.15-1.97,1.71c0.54,1.32-3.41,6.17-3.41,2.61c0-2.28-2.05-6.32-1.87-1.23c0.07,1.97-1.4,2.22-2.69,1.82c-0.58-0.18-1.13-0.5-1.47-0.86c-2.36-2.44-8.44-1.46-9.18,1.39c-1.03,4,2.39,3.09,4.16,5.28c0.82,1.01,9.39,1.94,5.66,6.35c-1.09,1.29-9.79,2.17-11.05,1.33c-0.95-0.63-2.19-0.48-3.19-0.4c-2.13,1.43-0.43,5.65-5.89,6.47c-9.91,1.49-6.39-2.2-9.63-1.93c-2.73,0.23-1,3.8-4.63,0.67c-1.09-0.93-0.95-0.24-1.98-0.3c-0.34,2.77-6.34,4.08-3.75,5.96c2.42,1.75-1.36,4.51,0.83,5.61c0.07,0.24,0.11,5.13,4.17,2.98c0.52-0.28,0.92-0.95,1.28-1.4c1.48,0,1.91,0.59,3.24-0.16c2.41-1.37,6.35,4.22,3.77,6.2c-1.34,1.03-6.51,9.77-4.74,11.84c1.3,1.51,2.45,1.69,3.32,3.62c1.02,2.25,4.78,1.88,1.9,4.03c-0.9,0.67-0.62,2.52-1.63,3.54c-0.74,0.74-1.26,1.45-1.59,2.15c1.63,7.41,8.34-3.22,10.83-2.35c3.89,1.37,6.42,4.24,10.51,4.91c0.04,0.01,3.68,3.92,4.64-3.36c0.24-1.82,3.52-0.62,6.24-2.93c1.52-1.29,7.78-0.94,6.46-4.59c-1.25-3.43,4.34-4.94,5.02-1.44c0.18,0.95,2.28,4.5,3.15,4.22c3.16-1.05,0.61-1.54,3.41,1.01c4.06,3.7,7.29-5.04,8.86-5.66c1.87-0.74,4.59,4.92,4.59,1.71c0-1.37,1.4-4.15,2.56-2.99c2.54,2.54,5.63-0.64,3.41-1.33c-3.79-1.19,2.66-1.52,3.95-1.33C557.4,539.19,558.59,536.57,560.26,535.54L560.26,535.54z"></path>
    </symbol>
    <symbol id="sichuan">
      <path d="M502.57,491.35c0.74-2.85,6.82-3.83,9.18-1.39c0.34,0.36,0.89,0.68,1.47,0.86c0.03-0.16,0.08-0.32,0.1-0.49c1-9.26-7.63-5.98-7.87-7.95c-0.97-7.95-2.69-2.73-4.48-5.55l-2.93-4c0-0.02,4.8-4.01,5.5-4.38c5.79-3.06-0.97-3.56,0.48-6.46c4.38-8.77,8.06,2.79,11.47-0.75c3.52-3.66,1.78,5.06,9.07,3.9c1.78-0.29,6.19-7.38,6.19-8.8c0-6.22,2.62-3.84,5.92-3.84c1.66,0,4.93-11.04,7.74-12.7c6.33-3.74-2.35-4.15-0.64-6.62c1.16-1.67,1.66-1.6,1.81-1.49c-0.1-0.2-0.33-0.9-0.53-2.95c-1.74-0.59-3.3-0.81-4.32-0.37c-2.29,1.01-1.97,2.04-4.59-0.91c-1.99-2.24-3.75-0.87-4.32-3.09c-0.47-1.82-3.88,3.09-5.5-2.83c-0.98-3.58-12.24,1.88-13.07-1.97c-1.05-4.84-7.02,0.58-7.36,0.27c-1.52-1.39-1.65-1.98-2.07-1.77c-0.54,0.27-1.49,0.92-3.31,2c-2.86,1.7-14.38-2.37-12.5-5.35c2.02-3.2-1.18-12.58-4.11-13.13c-2.46-0.45-4.2,0.57-6.4-0.96c-0.72-0.5-6.35-0.11-4.64-5.23c0.69-2.06-0.74-2.52-2.4-3.95c-3.86-3.34-2.52,1.26-6.67,1.92c-1.65,0.26-0.73,0.81-1.33,1.33c-0.65,0.56-5.66,1.03-0.64,6.88c1.78,2.08-0.3,2.23-5.55,6.03c-5.74,4.15,0.04-5.59-2.35-6.19c-0.93-0.23-1.39,0.13-1.62,0.8c-0.79,2.39,1.49,8.66-3.24,5.6c-3.54-2.29-6.35,1.64-4.75,5.02c1.43,3.02-3.81,3.96-6.24,3.63c-2.31-0.31-0.06-0.35-2.4,1.55c-0.55,0.45-3.59,1.13-2.67-0.32c0.37-0.58,3.59-1.85-0.59-4c-1.33-0.68-4.71,4.98-4.32,0.8c0.23-2.52,3.51-1.13-1.49-5.34c-3.13-2.63-0.48,8.1-8.8,0.53c-1.71-1.55-2.36-2.96-4.64-4.06c-5.25-2.52,0.2-15.04-10.78-15.36c-5.47-0.16-4.43-3.2-8.56,0.75c-4.15,3.97,4.07,6.63,2.67,8.02c0,0-0.96,0-3.32,3.1c-1.04,1.37-0.27,2.05-1.76,3.17c-3.34,2.5,1.54,6.86,3.75,7.78c0.34,0.14,0.6,0.32,0.84,0.54c1.74,0.48,5.12,3.42,5.39,6.16c0.13,1.3,1.69,2.09,1.61,6.39c-0.02,0.79,2.24,3.41,2.78,4.62c0.27,0.6,4.61,6.16,0.88,4.78c-4.18-1.55,0.28,4.56-0.08,6.12c-0.34,1.45,2.62,0.85,1.07,6.66c-1.1,4.1,2.5,8.87,0.05,12.56c-0.05,0.07-0.23,5.24-0.21,11.07c0.03,6.97,0.35,14.89,1.55,16.2c2.69,2.92-0.87-2.65,2.7-5.21c2.55-1.82,4.09-6.36,5.62-0.32c0.84,3.29,6.34,4.69,2.93,8.29c-1.89,2,2.83,7.9,4.21,6.33c0.57-0.65,4.04-1.26,4.31-0.72c0.82,1.62,5.24,12.54,5.41,13.88c0.28,2.29,5.63,5.54,4.47,7.41c-2.77,4.45,1.84,2.63,1.99,6.34c0.17,4.1,6.54,5.04,9.63,2.43c7.8-6.6,3.7,4.38,6.61,0.75c1.23-1.54,0.66-1.72,2.78-2.15c1.37-0.28,2.45-4.28,1.07-8.96c-0.23-0.78-0.26-8.33,0.11-8.51c1.84-0.92,3.21-0.6,4.5-2.63c2.16-3.4,6.95-3.28,4.95-8.35c-0.54-1.37,1.84-4.74,3.37-2.9c1.25,1.5,4.04-1.99,2.33-3.4c-5.44-4.48,11.94-3.94,7.65-1.46c-5,2.9,3.25,3.7,0.19,8.72c-2.27,3.72,5,5.2,8.68,0.83c2.42-2.87,5.3,0,4.22,2.93c-0.9,2.43,0.02,2.48,1.4,2.37c1-0.08,2.24-0.23,3.19,0.4c1.25,0.83,9.95-0.05,11.05-1.33c3.73-4.41-4.84-5.34-5.66-6.35C504.96,494.43,501.53,495.34,502.57,491.35L502.57,491.35z"></path>
    </symbol>
    <symbol id="yunnan">
      <path d="M473.1,520.39c-2.19-1.1,1.59-3.86-0.83-5.61c-2.6-1.87,3.4-3.19,3.75-5.96c1.03,0.05,0.89-0.64,1.98,0.3c3.63,3.12,1.9-0.44,4.63-0.67c3.24-0.27-0.27,3.43,9.63,1.93c5.46-0.82,3.76-5.04,5.89-6.47c-1.37,0.1-2.29,0.06-1.4-2.37c1.08-2.94-1.8-5.8-4.22-2.93c-3.68,4.36-10.95,2.88-8.68-0.83c3.06-5.02-5.19-5.83-0.19-8.72c4.28-2.48-13.1-3.01-7.65,1.46c1.71,1.41-1.08,4.9-2.33,3.4c-1.53-1.84-3.91,1.52-3.37,2.9c2,5.06-2.79,4.94-4.95,8.35c-1.29,2.03-2.66,1.71-4.5,2.63c-0.36,0.18-0.34,7.73-0.11,8.51c1.38,4.68,0.3,8.69-1.07,8.96c-2.12,0.43-1.55,0.61-2.78,2.15c-2.91,3.62,1.19-7.36-6.61-0.75c-3.08,2.61-9.46,1.67-9.63-2.43c-0.15-3.71-4.76-1.9-1.99-6.34c1.17-1.87-4.19-5.11-4.47-7.41c-0.16-1.34-4.58-12.26-5.41-13.88c-0.27-0.54-3.73,0.08-4.31,0.72c-1.39,1.56-6.11-4.33-4.21-6.33c3.41-3.6-2.1-5-2.93-8.29c-1.53-6.04-3.07-1.5-5.62,0.32c-3.57,2.55-0.01,8.12-2.7,5.21c-1.2-1.3-1.52-9.22-1.55-16.2c-3.46,0.13-1.3,4.84-2.92,6.35c-1.74,1.61-1.54-2.03-1.82-2.55c-2-3.69-2.54,4.24-2.54,4.24c-1.99,3.58,2.34,7.27-1.36,7.94c-3.78,0.68-3.61,1.93-3.85-1.69c-0.28-4.19-2.93,0.2-3.83,1.93c0.01,0.33-0.08,1.09,0.11,3.53c0.13,1.73,1.53,7.71,3.15,6.83c6.76-3.67,2.89,6.37,3.31,8.06c0.58,2.31-0.49,4.16,0,6.03c0.61,2.35-2.86,7.68-1.87,8.59c2.54,2.32-3.86,1.97-1.44,3.84c3.9,3.01-2.56,1.95-2.99,3.41c-1.92,6.62-2.82-0.51-5.91,5.36c-3.14,5.96-3.82-0.39-6.82,5.26c-1.4,2.64,1.83,2.91-2.6,4.72c-1,0.41-2.03,5.01-0.83,5.39c6.12,1.97-1.63,8.14-1.61,8.32c0.76,4.87,3.28-2.04,16.81-0.81c8.35,0.76-0.04,1.14,0.59,4.99c0.36,2.2,3.52,2.24,1.5,4.86c-0.69,0.89,2.41,1.86,0.96,3.95c-3.99,5.74,15.15,3.36,7.57,8.53c-3.08,2.1-0.59,5.53-3.18,7.62c-9.34,7.52,11.91,4.58,10.04,9.18c-1.9,4.65,3.27,4.51,1.98,5.72c-3.39,3.17,4.47,2.29,5.51,2.98c3.25,2.17,9.78-6.66,10.86-2.25c0.71,2.88-3.1,10.47,4.09,7.7c0.65-0.25,7.6,5,4.82-0.3c-2-3.8,3.52-6.07-0.54-11.03c-2.65-3.24-0.26-11.38,3.21-8.56c1.12,0.91,6.25,1.51,7.33-0.16c8.18-12.67,7.11,8.45,15.09-1.61c4.08-5.14,3.29,4.06,5.75-1.1c1.8-3.78,4.37,8.54,6.48,1.8c2.11-6.74,5.2,1.07,6.72-0.35c2.96-2.78,5.8-1.44,6.18-4.7c0.39-3.36,4.45-3.42,6.66-5.34c1.12-0.97,2.8,0.74,4.38,2.59c1.47-1.26,4.15-3.3,4.9-5c1.6-0.33,2.53,1.61,3.45,0.62c4.86-5.24,0.84-12.82-1.12-11.46c-4.32,2.99-5.26,0.06-6.34,0.94c-1.1,0.9-1.9-0.07-3.34-0.32c-3.25-0.56-0.67-3.85-2.36-5.18c-3.81-3.01-7.82,1.25-8.46-0.91c-0.8-2.7-1.39-4.7-0.39-6.79c0.34-0.7,0.85-1.4,1.59-2.15c1.02-1.02,0.74-2.87,1.63-3.54c2.88-2.15-0.88-1.77-1.9-4.03c-0.87-1.93-2.02-2.11-3.32-3.62c-1.77-2.06,3.4-10.81,4.74-11.84c2.58-1.98-1.36-7.57-3.77-6.2c-1.32,0.75-1.75,0.16-3.24,0.16c-0.37,0.45-0.76,1.12-1.28,1.4C473.21,525.52,473.17,520.63,473.1,520.39L473.1,520.39z"></path>
    </symbol>
    <symbol id="qinghai-lake">
      <path d="M443.93,346.88c-0.08-1.35,0.9-1.86-0.94-2.58c-3.71-1.44-0.1-5.85-9.21-6.47l-1.28,0.11c-3.98,2.04,3.57,3.09-2.25,3.65c-3.3,0.32,1.81,5.85,7.52,6.33C439.54,348.08,444.27,352.4,443.93,346.88L443.93,346.88z"></path>
    </symbol>
    <symbol id="qinghai">
      <path d="M402.36,390.29c10.98,0.32,5.53,12.84,10.78,15.36c2.28,1.09,2.93,2.5,4.64,4.06c8.32,7.56,5.67-3.17,8.8-0.53c5,4.21,1.73,2.82,1.49,5.34c-0.39,4.18,3-1.48,4.32-0.8c4.18,2.15,0.95,3.42,0.59,4c-0.92,1.45,2.12,0.77,2.67,0.32c2.34-1.9,0.09-1.86,2.4-1.55c2.43,0.33,7.67-0.61,6.24-3.63c-1.6-3.38,1.21-7.3,4.75-5.02c4.73,3.06,2.45-3.21,3.24-5.6c-1.88-3.5-1.89-2.11-5.32-2.99c-0.76-0.19-6.89-9.11-6.67-9.71c2.81-7.82,12.67,6.54,16.65,1.97c4.77-5.49,4.93-1.41-0.27-7.52c-4.28-5.03,7.74-6.45,6.88-9.34c-1.79-6.03,5.98-3.14,5.98-7.31c0-3.91,2.93-1.89,2.83-4.91c-0.09-2.55,3.3-3.87,0.59-5.87c-2.23-1.65-0.91-3.1-2.72-4.91c-2.5-2.5,0.96-2.35-0.32-3.63c-5.28-5.28,4.45-3.83-6.67-11.1c-1.25-0.82,0.42-5.2-1.65-5.12c-2.91,0.1-0.73,5.9-7.52-0.69c-5.09-4.94-3.17-2.75-6.56-5.18c-4.86-3.47-2.61-3.88-4.7-4.59c-1.96-0.67-4.5-7.51-4.38-2.19c0.11,5.1-13.42-10.61-14.51-12.33c-2.4-3.76-3.54,1.29-6.99-0.59c-2.59-1.41-2.44,3.1-4.59,2.61l-5.98-4.8c-12.26-10.85-5.14,3.54-11.15,6.46c-2.55,1.23,0.58,6.41-2.72,5.39c-2.2-0.68-2.42,3.54-5.44-0.11c-2.32-2.8-2.86-0.67-5.6-1.23c-10.19-2.09-2.59-4.61-14.62-3.04c-4.67,0.61-2.61-8.04-6.51-7.15c-2.4,0.55-7.56,0.11-4.11-1.39c4.29-1.86-7.88-0.53-8.06-2.72c-0.28-3.37-4.86-3.44-7.16-5.55c-0.02,0.08-0.53-0.48-5.2-1.01c-3.43-0.39-28.56,2.66-28.71,4.72c-0.22,2.91,4.12,0.66,2.06,5.23c-2.95,6.54,6.65,9.52,7.01,15.32c0.16,2.57,5.08,5.79-1.69,5.45c-2.96-0.15-11.27,3.67-3.1,6.52c2.28,0.8,2.67,12.13-4.5,6.39c-2.34-1.88-5.17-1.48-7.39-3.6c-2-1.91,0.41,1.79-6.15,1.53l-0.47-0.02c-8.49-0.22,0.82,3.46,0.87,4.28c0,0.02-0.54,0.34-0.54,0.81c0,1.16-1,2.07-1.12,3.73c-0.25,3.39-6.56,1.15-4.01,7.03c0.86,1.99-1.77,3.16,1.5,3.65c3.71,0.56-2.03,3.27-0.96,4.4c1.11,1.19,1.2,1.9,0.91,4.72c-0.36,3.43-5.56,3.58-2.86,6.84c2.29,2.77,5.42,12.53,7.12,13.53c10,5.87,9.67-0.14,12.09,0.58c0.73,0.22,3.26,7.88,9.59,10.4c4.4,1.75,2.11,1.89,10.7,3.97c6.79,1.65,7.11,7.02,9.69,5.05c2.15-1.65,5.04,4.76,11.05,1.53c6.95-3.74,5.8,6.9,11.03,6.9c4.92,0,0.9,5.53,1.55,6.52c2.11,3.18,1.87,1.9,5.54,3.6c2.73,1.26,3.03-0.57,4.58,2.25c1.18,2.16,3.47,0.04,1.79-1.69c-0.69-0.71-0.75-5.56,3.56,0.08c2.93,3.84,4.49,1.02,4.2-2.74c-0.05-0.65,6.54,0.8,8.08-2.82c2.07-4.84,2.88-4.9,8.48-4.29c0.1,0.01,0.2,0.03,0.31,0.06c-0.24-0.23-0.51-0.4-0.84-0.54c-2.21-0.92-7.09-5.28-3.75-7.78c1.49-1.12,0.72-1.8,1.76-3.17c2.36-3.1,3.32-3.1,3.32-3.1c1.4-1.4-6.82-4.06-2.67-8.02C397.93,387.1,396.89,390.13,402.36,390.29L402.36,390.29z M430.26,341.6c5.81-0.56-1.73-1.61,2.25-3.65l1.28-0.11c9.11,0.62,5.49,5.03,9.21,6.47c1.83,0.71,0.85,1.22,0.94,2.58c0.34,5.52-4.39,1.2-6.15,1.05C432.07,347.45,426.96,341.92,430.26,341.6L430.26,341.6z"></path>
    </symbol>
    <symbol id="lake">
      <path d="M687.95,409.2 M690.1,405.04c2.26,1.73-0.08-0.64-2.38,1.13c-1.1,0.85-4.91-0.17-2.56,1.43c0.19-0.09,0.31-0.15,0.31-0.14c0.11,0.11,0.2,0.29,0.27,0.52c0.39,0.24,0.87,0.52,1.47,0.85c0.31,0.17,0.55,0.29,0.75,0.38c-0.08,0.23-0.04,0.7,0.27,1.58c0.65,1.81,1.54-0.84,2.49-0.72c0.02,0,1.03,2.15,3.43-3.46c1.29-3.03-2.43-2.16-3.48-5.39c-0.17-0.53-0.45-0.92-0.99-1.13C686.73,398.94,688.83,404.07,690.1,405.04L690.1,405.04z"></path>
    </symbol>
    <symbol id="hainan">
      <path d="M555.01,642.61c-0.8,2.93,2.31-0.14-4.34,4.83c-6.17,4.61-3.91,1.92-4.5,8.53c-0.24,2.74,1.01,3.47,0.78,5.37c-0.75,6.13,9.92,5.07,12.66,7.43c4.83,4.17,3.36-4.78,8.03-2.93c2.35,0.93,1.82-3.66,7.09-4.75c0.48-0.1,3.31-11,5.68-12.99c2.16-1.81-0.36-2.38,2.72-2.67c2.3-0.22,0.9-5.28-0.16-6.51c-0.12-0.14-0.38-0.01-0.56-0.02c-1.88-0.13-3.75-3.52-5.33-0.86c-1.06,1.8-3.86-1.17-6.53,0.24c-2.83,1.5-3.72,0.93-3.77,0.97c-2.03,1.38-4.12-1.31-6.32,1.26C559.14,642.08,555.87,639.47,555.01,642.61L555.01,642.61z"></path>
    </symbol>
    <symbol id="chongqing">
      <path d="M545.57,431.7 M549.34,471.92c-0.75-0.58-0.85-3.79-2.11-1.88c-1.29,1.94-3.17,0.3-0.99-2.07c0.92-1,1.27-5.28,0.41-6.14c-1.4-1.4-2.65-2.28-0.04-3.38c3.52-1.47,4,0.97,5.86-1.53c0.8-1.08,1.36-0.68,2.29-0.05c5.67,3.78,8.46-5.86,12.22-4.86c3.66,0.97,2.62-1.83,3.63-4.32c1.61-3.97-3.94-7.55-5.13-7.54c-1.84,0.01,0.12,0.35-1.11-1.85c-0.33-0.58-0.79-0.74-1.4-0.77c-1.54-0.08-4.59,1.16-7.41-2.59c-0.84-1.12,0.01-0.94-2.51-1.61c-4.47-1.19,1.63-1.31-8-4.59c0.2,2.05,0.43,2.75,0.53,2.95c-0.15-0.11-0.65-0.18-1.81,1.49c-1.71,2.46,6.97,2.88,0.64,6.62c-2.81,1.66-6.08,12.7-7.74,12.7c-3.3,0-5.92-2.38-5.92,3.84c0,1.43-4.41,8.52-6.19,8.8c-7.29,1.17-5.55-7.55-9.07-3.9c-3.41,3.54-7.09-8.02-11.47,0.75c-1.45,2.89,5.31,3.39-0.48,6.46c-0.7,0.37-5.5,4.36-5.5,4.38l2.93,4c1.79,2.81,3.51-2.4,4.48,5.55c0.24,1.97,8.87-1.31,7.87,7.95c-0.02,0.17-0.07,0.33-0.1,0.49c1.29,0.4,2.76,0.15,2.69-1.82c-0.18-5.09,1.87-1.06,1.87,1.23c0,3.56,3.95-1.29,3.41-2.61c-1.16-2.86,0.03,0.72,1.97-1.71c2.35-2.94,2.32,3.06,5.82-0.53c1.34-1.38-0.06-1.8,0.21-3.84c0.09-0.68,4.33-2.05,5.55,0.69c1.82,4.11,2.43-0.39,5.63,0.97c3.13,1.33,2.4-2.43,2.92,4.35c0.22,2.85,3.77,1.84,3.75,3.6c-0.09,5.52,0.18,2.92,1.15,1.91c1.49-1.56,0,3.04,3.4,3.7c1.65,0.32,1.46,3.79,3.43-1.85c0.36-1.05,1.27-0.67,1.55-1.72c0.4-1.5,1.28-0.97,0.13-2.39c-0.54-0.67,0.02-1.95,0.56-2.23c0.58-0.3-0.69-0.93-0.67-1.66c0.07-2.45,2.03-3.61-0.04-5.25c-0.14-0.11-0.29-0.22-0.47-0.33c-1.42-0.92-0.68-3.64-2.3-3.95C551.36,476.92,551.35,473.48,549.34,471.92L549.34,471.92z"></path>
    </symbol>
    <symbol id="tianjin">
      <path d="M658.43,310.62c-5.26,3.87,3.83,7.97,10.65,6.95c-0.94-3.2,1.67-11.12,4.2-11.8c-0.17-0.63-0.02-0.9-0.76-1.29c-3-1.55,2.31-3.05-1.92-3.74c-3.02-0.49-6.19-6.44-2.24-7.1c2.14-0.35-2.09-3.71-3.74-3.63c-0.76,0.63-3.11,2.7-3.19,3.53c-0.34,3.59,0.96,2.02,1.06,3.94c0.24,5.01-2.67,2.62-3.63,2.45c-1.1,0.58-0.97,1.06-1.01,1.71C657.83,308.95,661.37,308.46,658.43,310.62L658.43,310.62z"></path>
    </symbol>
    <symbol id="beijing">
      <path d="M647.84,302.55c5.42,0.28-0.47,4.87,6.05-0.54c1.03-0.85,2.72-0.51,3.96-0.35c0.03-0.65-0.09-1.13,1.01-1.71c-0.11-0.27-0.17-0.29-0.09-0.6c0.71-2.65-0.75-1.59-1.67-3.07c-1.93-3.12,2.7-2.67,4.34-2.72c0.08-0.83,2.43-2.9,3.19-3.53c-8.16-5.77,7.39-8.39-5.08-7.82c-4.42,0.2-4.93-9.92-8.99-1.61c0,0.01-4.9,4.03-6.15,4.19c-5.58,0.7,2.36,4.75-0.32,7c-5.68,4.78-6.13,0.71-4.09,6.28c0.71,1.93-2.8,2.74,1.63,4.48C647.81,304.98,642.08,302.25,647.84,302.55L647.84,302.55z"></path>
    </symbol>
    <symbol id="ningxia">
      <path d="M497.32,341.89c-2.69,1.62,1.99-0.23,2.89,1.77c1.23,2.73,6.84,5.53,5.41,7.09c-4.51,4.9,2.36,3.62,2.17,9.72c-0.03,1.06-6.31,5.28,0.08,7.62c6.24,2.28-0.3,1.47,4.5,2.95c0.05,0.02,5.36,4.98,6.07,4.99c3.15,0.05,1.05-3.69,1.12-4.03c1.21-5.76,0.9-3.33,4.25-3.11c2.92,0.19,5.49-8.7-2.01-9.42c-3.71-0.36,1.39-1.26-1.55-4.08c-1.66-1.59,2.6-2.89,2.78-4.67c0.71-7.06-3.03-3.9,8.7-4.8c0.24-3.17-0.3-6.03,1.74-8.83c1.37-1.87,2.44-2.8,3.44-3.1c-4.63-3.75-0.39,2.28-4.04-3.36c-3.46-5.34-5.6,1.9-10.3-4.54c-0.67-0.92,4.19-9.13,5.6-10.35c1-0.87,1.5,0.55-1.87-6.19c-1.43-2.87-7.52,2.56-7.52,2.56c-2.71,1.33,0.89-1.66-3.79,5.44c-3.93,5.97,0.93,5.53-1.65,9.07c-2.92,4,5.28,5.75-10.24,10.46l-8.14,1.56C496.7,338.83,499.84,340.37,497.32,341.89L497.32,341.89z"></path>
    </symbol>
    <symbol id="nei-mongol">
      <path d="M474.79,310.09c3.06,1.76,15.95-9.34,16.16-3.19c0.17,4.86,3.42,2.41,0,8c-4.23,6.92-9.57,5.73-8.59,7.73c1.55,3.16-3.37,4.81-1.74,8c0.37,0.72,1.43,1.28,2.06,1.74c5.43,3.99,4.64,6.55,12.28,6.28l8.14-1.56c15.53-4.7,7.32-6.46,10.24-10.46c2.58-3.54-2.27-3.11,1.65-9.07c4.68-7.1,1.08-4.11,3.79-5.44c0,0,6.09-5.43,7.52-2.56c3.37,6.74,2.87,5.32,1.87,6.19c-1.41,1.22-6.27,9.43-5.6,10.35c4.7,6.43,6.84-0.81,10.3,4.54c3.65,5.64-0.59-0.39,4.04,3.36c1.21-0.36,2.32,0.21,3.73,1.14c6.92,4.56,4.31,0.22,7.25,1.21c8.75,2.92,2.07-4.69,4.76-5.42c1.59-0.43,2.49-0.17,2.85,0.01c-0.14-0.13-0.36-0.37-0.64-0.77c-0.22-0.32-0.49-0.73-0.79-1.28c-1.22-2.2,6.95-11.16,7.25-11.33c4.74-2.53,1.9-2.44,3.53-4.05c4.67-4.59,1.53-2.8,4.2-3.17c3.99-0.54,0.19-2.42,0.13-2.63c-0.45-1.57,4.21,0.76,4.47,0.72c4.03-0.63,2.69,2.6,4.07,0.16c2.04-3.6,6.05-5.3,4.84-1.48c2.71-1.07,1.28,1.36,4.28-1.85c3.59-3.85,6.28,1.2,7.17-1.88c0.52-1.79,1.87-6.68,2.66-8.34c2.7-5.62,6.7,1.13,9.6-2.88c2.18-3.01,6.75,0.65,9.06-2.07c3.23-3.81,6.17-0.23,5.24-8.02l-0.43-1.07l-0.53-0.75l-0.59-0.8l-0.53-0.69l0.05-0.8l0.37-0.64l0.16-0.8l-0.43-1.01l-0.59-0.91l0.59-0.91l0.08-1.71l0.53-1.39h1.6l0.64-1.18l0.32-1.28l0.43-1.07l0.32-1.28l0.53-0.96l1.07-1.18l0.96-1.18l0.96-1.39l1.18-1.07l1.07,0.32l0.96,0.75l1.07,1.18l0.86,0.96l-0.53,1.71l-0.53,1.6v1.71l0.64,1.71h1.39h1.5l0.96-0.64l0.53-1.18l0.75-1.07l0.96-0.86l1.07-0.75l1.18-1.07l1.07-0.75l1.07-1.07l1.62-0.39l0.51,0.78l0.48,0.81l1.18,0.62l0.48-0.35l0.56-0.38l0.4-0.59l0.8-0.78l0.78-0.78l0.29-0.59l0.48-0.21l0.6,0.03l0.85,0.69h1.01l1.28,0.16l1.33-0.16l1.12-0.43l0.37-0.8l0.64-0.96l-0.32-0.53l-0.43-0.48l-0.32-0.59l0.59-0.64l0.37-0.69v-0.69l-0.37-0.48l-0.16-0.59l0.11-0.8l0.53-0.96l0.75-0.91H658h1.65l1.28-0.43l0.59-0.53l0.75-0.75l0.64-0.69l1.17-0.27h1.28l1.12,0.37l0.85,0.85l0.69,0.85l0.8,0.75l0.59,0.96l0.05,1.17l0.27,1.44l0.96,1.01l0.37,1.33l0.91,0.96l0.75,1.23l1.39,0.91l-0.16,0.85l-1.01,0.48l-0.96,0.75l-0.11,1.23l0.53,1.07l1.44,0.48l0.85,1.01l0.16,1.07v1.23l0.37,1.17h1.12l0.53-0.64l1.55-0.16h0.96l0.96-0.16L681,269l0.69,0.64h1.44l1.49-0.05h0.91l1.07-0.16c3.36-1.92,1.91-2.5,1.6-3.41c-2.26-6.58,0.04-7.96-1.92-10.24c-2.73-3.19,2.26-3.97,3.2-3.2c3.59,2.93,1.86-1.19,6.62,8.32c1.42,2.84,3.38-6.73,9.6-8.96c4.95-1.77,5.91-5.65,7.89-5.37c6.18,0.88,1.78-3.71,5.54-4.27c7.19-1.06,4.27-0.9,3.8-1.85c-1.1-2.22,7.95,2.3,9.45-2.04c3.1-8.98,5.43,3.49,5.43-9.72c-1.95-0.31-1.35,0.47-2.27-0.27c-1.48-1.19-4.35-0.37-0.96-3.19c0.8-0.67-0.95-4.84-0.99-4.88c-3.12-3.7-1.34-4.72-3.1-5.77c-4.33-2.59,0.77-5.61-3.32-2.82c-4.49,3.07-7.51,6.84-7.89,4.13c-0.51-3.62-5.42-7.84-4.15-9.63c1.62-2.3-1.69-2.31-0.24-4.51c2.34-3.56-2.42-5.03-2.84-7c-0.68-3.24-4.91-0.55-3.4-2.44c2.07-2.59,0.09-6.09,3.83-3.41c5.95,4.26,2.32-1.56,5.14,0.83c5.2,4.41,4.47-1.42,3.83-2.33c-2.5-3.57,3.13-0.09,3.13-5.72c-0.13-0.27-0.21-0.58-0.4-0.81c-5.4-6.84,4.13-4.72,4.79-8.04c0.55-2.74-2.32-0.97-2.6-1.64c-2.04-4.87-2.77,7.55-6.34,0.05c-1.64-3.44-7.46-5.12-6.13-8.45c1.28-3.22,12.97-12.69,16.15-18.9c3.37-6.6,2.76,5.4,5.5,3.95c2.43-1.29-1.53-6.01-0.59-7.04c1.92-2.12-0.89-9.13,2.03-10.24c7.77-2.97,0.1-11.58,2.56-17.61c6.27-15.33,7.01-15.16,0.16-21.5c-10.68-9.89-4.86-1.14-10.51,1.12c-7.17,2.87-8.75,1.26-12.06,2.99c-7.34,3.84-8.65-4.61-10.94-9.44c-2.81-5.95,2.34-3.65-1.44-5.34c-1.55-0.69-3.99-5.66-5.71-2.83c-2.68,4.43-2.53,2.22-6.19,0.59c-9.56-4.27,9.52-8.6-2.8-15.79c-1.09,0.25-1.93,0.51-2.24,0.83c-3.53,3.62-0.76-3.8-10.33,8.86c-1.03,1.36-3.52,2.84-1.47,5.02c1.47,1.57,6.91-5.46,6.77,2.95c-0.06,3.91,5.78,3.6-3.18,11.27c-3.68,3.15-2.35,10.02-5.51,13.55l-3.96,11.14c0.13,1.15,6.8,0.27-0.69,6.72c-2.49,2.15-3.15-0.53-8.54,5.66c-6.82,7.82-16.84-1.78-17.23,0.27c-1.56,8.14-8.07,15.6-8.38,24.22c-0.19,5.23-6.74,2.22,0.27,11.26c2.29,2.96,3.52-3.01,12.38-3.15c5.31-0.08,3.98,7.4,9.34-0.85c2.6-4,10.83-1.65,13.55,1.07c1.3,1.3,3.7,1.18,3.95,2.99c0.25,1.85,17.35,12.9,8.7,15.53c-6.65,2.02-9.25-3.27-12.33-0.53c-2.21,1.97-3.05-1.84-6.3,0.91c-6.71,5.68-8.63-0.96-8.75,4.48c-0.09,4.1-8.59-0.25-10.99,5.76c-1.83,4.58-2.24-0.08-2.24,7.26c0,2.27-7.18,7.26-14.09,7.26c-6.79,0-1.51-0.58-9.76,6.14c-5.38,4.38-7.93,6.53-15.36,5.02c-4.26-0.86-4.72-7.03-12.02-4.29c-0.03,0.01-6.71,10.37-5,13.45c5.53,9.95,10.48,6.85-1.61,14.91c-4.71,3.14-0.64-3.92-9.66,9.98c-3.03,4.67-6.33,1.01-10.35,4.8c-4.11,3.87-20.14,0.51-29.56,2.03c-18.19,2.93-24.43,13.14-33.72,11.47c-4.43-0.79,3.54-4.63-7.1-3.25c-8.05,1.04-13.11-7.36-20.65-7.36c-5.98,0-4.13-5.39-8.32-6.83c-18.72-6.43-21.4-1.4-29.83-4.48c-4.26-1.56-17.13-3.64-26.62-4.81c0.99,2.76,5.94,16.46,5.46,18.28c-1.19,4.49-4.88,0.94-0.86,7.03c1.43,2.16,6.83,7.75,5.78,9.85c-2.02,4.06,3.38,5.07,3.99,3.52c1.38-3.54-4.89-2.58,8.05-4.21c10.33-1.3,16.74,2.03,9.25,9.17c-12.36,11.77-8.29,4.89-1.64,10c1.3,1,3.73,2.11,3.95,3.25c0.32,1.66,0.78,1.07,1.81,2.19c2.37,2.56,5.82,1.41,4.4,6.66c-1.06,3.9,0.68,1.29,3.45,3.76c8.28,7.4,7.29,6.58,11.88,1.74c1.6-1.68-6.71-4.31,2.22-4.56C468.85,308.56,469.47,307.03,474.79,310.09L474.79,310.09z"></path>
    </symbol>
    <symbol id="guangxi">
      <path d="M587.47,591.09 M541.95,543c-1.56,0.62-4.8,9.36-8.86,5.66c-2.8-2.55-0.25-2.07-3.41-1.01c-0.87,0.29-2.96-3.27-3.15-4.22c-0.68-3.5-6.26-1.99-5.02,1.44c1.32,3.65-4.94,3.3-6.46,4.59c-2.73,2.31-6,1.11-6.24,2.93c-0.97,7.28-4.6,3.37-4.64,3.36c-4.09-0.67-6.62-3.54-10.51-4.91c-2.49-0.88-9.2,9.76-10.83,2.35c-1.01,2.09-0.41,4.09,0.39,6.79c0.64,2.17,4.64-2.1,8.46,0.91c1.69,1.33-0.89,4.62,2.36,5.18c1.44,0.25,2.24,1.23,3.34,0.32c1.08-0.88,2.03,2.05,6.34-0.94c1.96-1.36,5.99,6.22,1.12,11.46c-0.92,0.99-1.85-0.95-3.45-0.62c-0.75,1.7-3.43,3.74-4.9,5c1.21,1.41,2.36,2.9,3.16,3.34c5.59,3.08,0.68,1.47,5.81,1.05c4.64-0.38,0.43,3.47,6.72,0.95c1.12-0.45,7.65,1.87,1.71,6.51c-3.6,2.81,0.59,4.41,1.07,8.54c0.25,2.13,3.36,1.75,4.43,2.99c0.22,0.26,1.54,4.9,9.28,5.12c2.54,0.07,3.34-1.15,5.5,0.48c4.54,3.44,7.02-2.06,7.84,0.32c0.93,2.68,3.17-0.68,1.71-2.61c-1.75-2.31,2.04-2.71,1.97-1.65c-0.14,2.38-0.14,0.71,1.55,3.09c1.78,2.51,2.03-3.97,2.56-0.53c0.39,2.51,6.87,0.73,4.06,3.79c-1.84,2,6.25,0.8,7.15-0.59c0.89-1.39-1.64-2.16,0.11-3.74c1.23-1.11-0.95,1.51,0.85,2.35c1.62,0.75,0.24,2.3,2.93,2.45c-0.85-3.97,1.93-1.18,2.54-5.84c0.36-2.71,8.38,1.19,6.72-3.92c-1.64-5.03,1.5,0.11,5.41-3.6c2.91-2.76-0.98-0.5,0.29-4.7c0.45-1.47,4.21-1.34,5.41-2.25c0.45-0.34,0.83-0.63,1.14-0.88c0.53-0.42,0.87-0.7,1.08-0.89l0.8-0.49c5.41-3.31-1.13-10.66,5.22-15.11c1.77-1.24-0.43-0.87,1.87-2.67c7.13-5.59-0.18-5.76,3.15-7.47c4.47-2.29-0.71-5.78,0.63-8.78c-6.17-1.54-2.78,0.03-5.62,1.4c-3.7,1.78-1.81-4.18-2.25-5.72c-1.72-5.99-6.06,1-7.12,0.67c-3.66-1.12,4.45-7.65,4.42-9.72c-0.04-2.87,3.09-7.74,0.7-6.63c-4.27,1.99-0.82-4.39-1.69-5.85c-1.58-2.65-5.95,0.22-7.97-0.56c-4.02-1.55-6.44,9.59-9.61,3.89c-1.59-2.86-3.81-1.44-4.31,1.45c-0.83,4.8-1.95,0.77-2.02,0.7c-1.32-1.32-2.44-1.26-3.41-0.66c-1.66,1.03-2.86,3.65-3.8,3.51c-1.29-0.19-7.74,0.14-3.95,1.33c2.21,0.69-0.87,3.88-3.41,1.33c-1.16-1.16-2.56,1.62-2.56,2.99C546.54,547.92,543.82,542.26,541.95,543L541.95,543z"></path>
    </symbol>
    <!-- <symbol id="shanghai">
      <path d="M661.2,373.83c-2.94,2.37-1.06,2.67,1.7,5.74c0.85,0.69,1.35,1.01,1.67,1.14c1.11,0.45-0.01-1.43,2.98,1.12l-2.18-2.53C661.46,375.38,662.53,372.75,661.2,373.83L661.2,373.83z M665.12,380.97c0.09,0.04,3.14,4.54,3.29,5.15c0.41,1.68,2.99,1.29,1.69-1.97c-1.08-1.03-1.92-1.78-2.56-2.33c-2.98-2.54-1.87-0.67-2.98-1.12L665.12,380.97L665.12,380.97z"></path>
    </symbol> -->
    <symbol id="tibet">
      <path d="M407.64,448.39c1.55-5.81-1.41-5.2-1.07-6.66c0.36-1.56-4.1-7.67,0.08-6.12c3.73,1.39-0.61-4.18-0.88-4.78c-0.54-1.21-2.8-3.82-2.78-4.62c0.09-4.3-1.48-5.09-1.61-6.39c-0.27-2.75-3.65-5.68-5.39-6.16c-0.11-0.03-0.21-0.05-0.31-0.06c-5.61-0.6-6.42-0.54-8.48,4.29c-1.55,3.62-8.13,2.17-8.08,2.82c0.29,3.75-1.27,6.57-4.2,2.74c-4.31-5.64-4.25-0.79-3.56-0.08c1.68,1.73-0.61,3.85-1.79,1.69c-1.55-2.83-1.84-0.99-4.58-2.25c-3.67-1.69-3.43-0.42-5.54-3.6c-0.66-0.99,3.36-6.52-1.55-6.52c-5.22,0-4.07-10.64-11.03-6.9c-6.01,3.23-8.9-3.18-11.05-1.53c-2.58,1.97-2.9-3.4-9.69-5.05c-8.59-2.08-6.3-2.22-10.7-3.97c-6.33-2.52-8.85-10.18-9.59-10.4c-2.42-0.71-2.09,5.29-12.09-0.58c-1.7-1-4.83-10.76-7.12-13.53c-2.7-3.27,2.51-3.42,2.86-6.84c0.29-2.82,0.2-3.53-0.91-4.72c-1.06-1.14,4.68-3.85,0.96-4.4l0,0c-3.27-0.49-0.64-1.66-1.5-3.65c-2.55-5.88,3.76-3.64,4.01-7.03c0.12-1.66,1.12-2.58,1.12-3.73c0-0.47,0.54-0.78,0.54-0.81c-0.05-0.82-9.37-4.5-0.88-4.28c-2.91-2.76-5.82-5.82-9.8-6.78c-5.1-1.22,0.04-4.3-16.7-4.59c-8.87-0.15-18.57-2.32-20.35,1.26c-1.89,3.8-6.36,3.74-11.34,1.98c-3.49-1.23-9.42-1.12-15.32,1.19c-3.05,1.19-17.25-1.31-17.88-6.56c-0.5-4.21-6.24-4.61-9.34-3.15c-12.11,5.71-7.87,0.36-17.34-1.33c-3.93-0.7-7.53-5.88-9.82-2.83c-1.78,2.37-4.25,2.58-6.12,4.56c-6.89,7.32,4.39,6.65-17.5,5.8c-0.15,0.59-0.49,1.13-1.1,1.58c-3.68,2.77-3.1-1.05-3.53,5.15c-0.09,1.3-3.18,2.33-1.79,6.86c0.59,1.94,2.54,3.37,3.06,6.98c0.01,0.06,0.02,0.13,0.02,0.19c0.03,0.25,0.06,0.5,0.07,0.77c0.01,0.09,0.01,0.17,0.02,0.26c0.01,0.32,0.02,0.66,0.01,1.01c0,0.02,0,0.04,0,0.06c-0.01,0.38-0.04,0.78-0.08,1.2c-0.01,0.1-0.02,0.2-0.03,0.29c-0.04,0.34-0.08,0.69-0.14,1.06c-0.02,0.11-0.03,0.22-0.05,0.34c-0.08,0.47-0.17,0.96-0.29,1.48c0,0.01-0.01,0.02-0.01,0.03c-0.04,0.18-0.1,0.36-0.16,0.53c-0.02,0.05-0.03,0.1-0.05,0.15c-0.07,0.17-0.15,0.35-0.23,0.51c-0.02,0.04-0.04,0.08-0.07,0.12c-0.08,0.14-0.16,0.28-0.26,0.42c-0.02,0.04-0.05,0.07-0.07,0.11c-0.11,0.15-0.22,0.3-0.35,0.44c-2.35,2.71-7.03,3.16-6.69-2.84c0.16-2.9-5.07-1.46-4.79,1.45c0.12,1.29-0.14,1.83-0.48,2.14c-0.04,0.04-0.09,0.07-0.13,0.11c-0.01,0.01-0.02,0.01-0.02,0.02c-0.04,0.03-0.08,0.05-0.12,0.08c-0.02,0.01-0.03,0.02-0.05,0.03c-0.04,0.02-0.07,0.04-0.11,0.06c-0.03,0.02-0.06,0.03-0.09,0.05c-0.03,0.01-0.05,0.03-0.08,0.04c-0.04,0.02-0.09,0.05-0.13,0.07c-0.01,0-0.01,0.01-0.02,0.02c-0.03,0.02-0.07,0.04-0.1,0.07c-0.01,0.01-0.02,0.02-0.03,0.03c-0.03,0.02-0.05,0.05-0.07,0.08c-0.01,0.01-0.02,0.02-0.03,0.03c-0.02,0.03-0.05,0.07-0.07,0.11c0,0.01-0.01,0.01-0.01,0.02c-0.02,0.05-0.04,0.11-0.05,0.17c0,0.01,0,0.02,0,0.03c-0.01,0.05-0.01,0.11-0.02,0.18c0,0.02,0,0.04,0,0.06c0,0.06,0.01,0.13,0.01,0.21c0,0.02,0,0.04,0.01,0.06c0.03,0.2,0.08,0.44,0.17,0.72c0,0.01,0.01,0.03,0.01,0.04c0.04,0.13,0.09,0.27,0.14,0.42c0.01,0.03,0.02,0.06,0.03,0.09c0.06,0.15,0.12,0.32,0.19,0.49c0.01,0.02,0.01,0.04,0.02,0.06c0.29,0.7,0.7,1.59,1.27,2.71c1.01,1.98-3.07,1.84-0.51,4.54c2.14,2.24-2.05,2.32-1.09,4.23c1.37,2.74-1.79-0.36,1.28,4.7c0.6,0.99,0.85,5.15,2.14,5.99c0.5,0.33,1.17,0.15,2.08-0.92c0.01-0.01,0.02-0.01,0.02-0.02c0.05-0.05,0.09-0.09,0.14-0.13c0.02-0.01,0.05-0.02,0.07-0.04c0.04-0.02,0.08-0.04,0.11-0.05c0.03-0.01,0.05-0.01,0.08-0.02c0.04-0.01,0.08-0.01,0.12-0.01c0.03,0,0.05,0,0.08,0.01c0.05,0.01,0.09,0.02,0.14,0.03c0.02,0.01,0.05,0.01,0.07,0.02c0.07,0.03,0.14,0.06,0.22,0.1c0.01,0,0.02,0.01,0.02,0.01c0.07,0.04,0.14,0.08,0.21,0.13c0.02,0.02,0.05,0.04,0.07,0.05c0.82,0.59,1.76,1.75,2.54,2.2c4.25,2.46,2.32,6.48,10.72,12.27c2.25,1.55,5.34,5.31,5.44,8.11c0.21,5.66,6.67-5.52,9.55-2.99c0.33,0.29,0.54,0.7,0.85,1.01c2.34,2.34,4.86,1.94,4.86,5.82c0,0.01,4.98,5.75,7.08,9.48c2.51,4.48,5.01,0.67,7.01,8.35c2.29,8.76,4.24-0.43,9.71,4.79c2.32,2.21-1.63,6.13,0.96,6.94c2.81,0.88,5.07,8.83,9.66,6.3c4.15-2.29-0.16,4.96,0.21,5.6c1.04,1.77,2.22,0.21,6.03,2.61c1.68,1.06,2.35-3.45,4.48,6.08c1.16,5.18,4-3.98,4.43-0.11c0.74,6.69,4.75,0.11,7.2,2.19c12.92,10.93,6.14,2.74,11.9,6.72c2.48,1.72,2.94-2.17,4.91-0.53c3.35,2.78,11.06-1.81,12.54-0.05c5.51,6.52-6.29,8.94,1.01,14.78c2.15,1.72,4.12-0.2,2.51-2.67c-0.96-1.47,10.57-12.63,15.42-9.92c2.38,1.33,5.17,1.05,7.04,3.36c1.45,1.79,2.24-0.14,6.03,3.52c4.85,4.69,6.43-3.96,9.92,3.74c1.3,2.87-3.08,6.59,3.2,7.15c5.65,0.5-0.24,5.47,1.01,7.9c2.79,5.4-2.18,1.43,15.42,5.12c15.11,3.17,9.72-6.26,23.42-8.22c19.23-2.74,11.85-11.13,23.58-6.99c2.89,1.02,4.61-0.53,10.51,6.3c1.17,1.36,3.37,1.51,4.38,3.04c1.12,1.71,1.8,0.18,3.84-0.59c5.76-2.18-2.45-1.87,3.04-6.67c2.28-1.99,3.89-8.3,5.34-0.75c0.21,1.08,1.5-0.69,2.99,1.71c1.75,2.82,2,2.37,2.02,2.87c0.9-1.73,3.56-6.12,3.83-1.93c0.24,3.62,0.08,2.38,3.85,1.69c3.7-0.67-0.63-4.36,1.36-7.94c0,0,0.55-7.93,2.54-4.24c0.28,0.52,0.08,4.16,1.82,2.55c1.62-1.51-0.54-6.22,2.92-6.35c-0.02-5.83,0.16-11,0.21-11.07C410.15,457.26,406.55,452.49,407.64,448.39z"></path>
    </symbol>
    <symbol id="xinjiang">
      <path d="M398.44,240.75c-0.76-0.66-0.2-2.75-4.35-9.95c-1.52-2.64-1.39-12.51-3.57-13.71c-2.07-1.14-3.18-0.85-0.21-3.36c1.74-1.47-4.39-0.45-6.62-3.09c-17.99-21.37-22.23-12.32-31-18.09c-1.99-1.31-4.39-0.43-6.08-1.97c-2.06-1.88-12.54-2.12-7.42-12.65c2.05-4.22,3.79-0.19,4.48-8.11c0.55-6.33,5.04-3.26-0.62-13.53c-1.76-3.18-0.79-15.48-6.32-15.57c-2.91-0.05-1.87-3.71-7.25-4.08c-4.3-0.3-5.6-7.93-8.8-10.39c-5.57-4.27,1.25-3.34-3.21-5.82c-2.71-1.51,7.15-8.16-4.04-6.87c-1.95,0.23-5.91-5.72-7.25,0.99c-1.85,9.29-12.27,4.36-15.71,8.67c-4.71,5.91-0.8,22.35-9.7,18.74c-2.9-1.17-4.16,3.43-6.03-0.11c-2.25-4.25-4.47,2.1-14.94-7.79c-2.99-2.82-4.55,0.27-10.3,7.58c-1.5,1.9-9.04,11.59-9.07,13.18c-0.13,6.12,3.96,7.6,1.33,8.38c-4.53,1.34-7.83-5.28-8.48-5.23c-2.75,0.19-5.92,1.85-14.3,0.27c-0.91-0.17-9.68-1.12-9.87-0.05c-0.75,4.15,6.26,2.22,3.04,10.14c-1.42,3.5,1.03,8.32-0.85,11.58c-1.03,1.78,3.85,11.4-2.72,10.08c-2.77-0.55-3.34,1.96-1.97,3.25c1.53,1.45-5.41-0.68-5.66,5.92c-0.24,6.32-2.67,4.74-7.9,6.78c-1.28,0.5-12.54,2.37-16.11,3.36c-5.56,1.54-5.45-2.74-6.46,0c-1.33,3.63-3.61,0.62-5.34,2.29c-4.76,4.62-9.77-7.4-15.58,0c-8.25,10.5-6.56,2.56-12.33,4.7c-2.76,1.02-2.35-3.38-1.71-4.54c2.63-4.77-5.68,1.77-8.64-2.19c-2.16-2.88-1.12,1.15-8.54,3.15c-1.47,0.4-6.02-5.18-10.4,4.86c-1.85,4.23-6.32-0.96-5.92,5.23c0.18,2.79,2.2,3.56-0.53,5.87c-2.52,2.13,0.17,7.43,3.15,6.3c2.45-0.93,9.47,2.91,8.16,5.98c-3.45,8.12-0.56,8.77-3.09,11.9c-2.5,3.08,5,8.2-3.15,7.36c-1.43-0.15-7.87-4.91-6.3,0.69c0.44,1.55,3.01,0.22,3.9,1.81c1.56,2.83,4.53,1.53,7.52,7.2c1.14,2.15,4.32,0.86,4.48,6.72c0.01,0.41-0.05,0.8-0.14,1.18c-0.02,0.06-0.04,0.12-0.05,0.17c-0.04,0.13-0.08,0.25-0.13,0.38c-0.02,0.06-0.05,0.12-0.07,0.18c-0.05,0.12-0.1,0.24-0.16,0.35c-0.03,0.06-0.06,0.11-0.08,0.17c-0.06,0.12-0.13,0.24-0.2,0.37c-0.03,0.04-0.05,0.09-0.08,0.13c-0.09,0.15-0.18,0.3-0.27,0.44c0,0,0,0.01-0.01,0.01c-0.25,0.41-0.51,0.81-0.73,1.22c-0.04,0.08-0.09,0.16-0.13,0.24c-0.04,0.07-0.07,0.14-0.1,0.21c-0.04,0.09-0.08,0.18-0.12,0.26c-0.03,0.07-0.06,0.15-0.08,0.22c-0.03,0.09-0.06,0.18-0.09,0.26c-0.02,0.07-0.04,0.15-0.06,0.22c-0.02,0.09-0.04,0.18-0.05,0.27c-0.01,0.08-0.02,0.15-0.02,0.23c-0.01,0.09-0.01,0.19,0,0.28c0,0.08,0.01,0.16,0.02,0.23c0.01,0.1,0.03,0.2,0.06,0.3c0.02,0.08,0.03,0.15,0.06,0.23c0.03,0.11,0.08,0.22,0.13,0.34c0.03,0.07,0.06,0.15,0.1,0.22c0.08,0.16,0.19,0.33,0.3,0.49c0.02,0.03,0.03,0.05,0.05,0.08c2.72,3.78-3.63,2.69,5.34,3.74c2.88,0.34-3.35,0.8,2.77,5.44c1.54,1.17,2.95,2.35,4.41,3.42c0.1,0.07,0.2,0.14,0.3,0.21c0.39,0.28,0.77,0.56,1.17,0.82c0.01,0,0.01,0.01,0.02,0.02c0,0,0,0,0,0c1.98,1.29,4.12,2.32,6.79,2.8c0.92,0.16,1.42,0.37,1.64,0.61c-0.46,0.94-2.84,2.16-2.29,3.42c-0.06,0.29-0.02,0.59,0.22,0.88c0.66,0.83,0.98,1.65,1.1,2.45c0.07,2.26-1.24,4.34-0.9,6.01c-0.01,1.12,0.5,2.09,2.29,2.84c1.21,0.51,3.8,3.1,4.22,5.49c0,0.25-0.02,0.5-0.08,0.74c0.05,0,0.09,0,0.13,0.01c-0.01,0.21-0.03,0.41-0.08,0.61c21.89,0.85,10.6,1.52,17.5-5.8c1.87-1.98,4.34-2.2,6.12-4.56c2.29-3.05,5.89,2.12,9.82,2.83c9.47,1.7,5.23,7.04,17.34,1.33c3.1-1.46,8.83-1.06,9.34,3.15c0.63,5.25,14.82,7.76,17.87,6.56c5.9-2.31,11.83-2.42,15.32-1.19c4.98,1.76,9.45,1.82,11.34-1.98c1.78-3.58,11.48-1.41,20.35-1.26c16.74,0.29,11.6,3.37,16.7,4.59c3.98,0.95,6.89,4.02,9.8,6.78l0.47,0.02c6.56,0.26,4.15-3.44,6.15-1.53c2.21,2.11,5.04,1.72,7.39,3.6c7.16,5.75,6.78-5.59,4.5-6.39c-8.17-2.85,0.14-6.67,3.1-6.52c6.76,0.34,1.85-2.88,1.69-5.45c-0.37-5.8-9.96-8.78-7.01-15.32c2.06-4.57-2.28-2.33-2.06-5.23c0.16-2.07,25.28-5.11,28.71-4.72c4.67,0.52,5.17,1.08,5.2,1.01l0,0c0.02-0.08-0.43-0.8,2.3-2.83c4.44-3.3,1.79-7.14,3.47-11.69c2.9-7.86-0.01-11.3,7.68-8c2.71,1.16,9.59-6.21,11.31-8.27c3.27-3.92,12.78-12.18,18.09-8.64c2.34,1.56,1.92-1.51,7.04-1.6c5.92-0.11,4.79-2.56,4.38-4.27C393.94,243.97,394.13,244.39,398.44,240.75z"></path>
    </symbol>
    <symbol id="shanghai">
      <path d="M738.61,441.95c5.65-1.3,0.06-7.98-2.49-8.94c-2.13-0.8-2.83-1.41-3.22-1.95l-1.3,0.88c-3.61,1.32-0.68,4.5-4.31,6.55l-0.05,1.37c3.07,0.51,0.68,1.46,2.14,2.93l1.28,0.13c0.36,0.69,0.43,0.77,1.61,0.72c0.59,0.99,0.63,0.84,1.84,0.98C735.36,443.44,736.65,442.4,738.61,441.95L738.61,441.95z M733.39,429.09c1,0.61,4.38,2.31,6.05,2.23c0.7-0.03,2.19-0.46,2.01-1.34c-0.47-2.29-1.64-0.31-5.75-2.52c-6.64-3.57-7.08-0.06-4.31,0.89C732.23,428.63,731.2,427.74,733.39,429.09L733.39,429.09z"></path>
      <path d="M738.13,431.99c-3.6-0.29,1.66,2.23,2.92,1.27C742.16,432.41,738.73,432.03,738.13,431.99z"></path>
    </symbol>
    <symbol id="fujian">
      <path d="M674.25,513.74c-3.34,1.92-7.73,1.33-3.99,9.66c1.32,2.95-5.05,1.13-1.87,5.77c2.16,3.16-3.94-0.36-6.07,10.79c-1.31,6.84-1.52,2.59-1.77,11.34c2.77-0.65,7.74,1.58,7.57,0.12c-0.33-2.79,2.19,4.55,3.64,3.52c3.9-2.78,2.17,0.99,5.34,4.82c3.51,4.24-1.81,2.74,4.25,12.06c1.01-0.35,2-0.81,2.53-2.19c0.45-1.17,1.84-1.05,2.56-2.19c0.42-0.67,12.44-7.91,9.76-9.87c-1.39-1.02-3.48-0.85-1.12-3.15c1.11-1.08,3-1.07,4.38-1.87c2.65-1.53,3.47,4.02,5.5-1.6c0.76-2.12-1.71-2.23,1.01-3.31c4.75-1.88-2.08-4.39,4.43-6.19c4.17-1.15-2.87-3.42,1.81-5.12c1.3-0.47,10.13,1.33,4.22-1.44c-4.53-2.12,1.23-1.64,0.75-3.84c-0.89-4.06,2.33-0.46-1.28-5.02c-1.51-1.91,3.98-2.05,0.48-5.55c-2.73-2.73,6.58-0.71-0.37-3.52c-3.47-1.4-0.67-4.67,1.97-3.09c4.3,2.56,5.35-4.47,7.79-6.14c2.78-1.9-0.09-0.67-1.73-2.28l0.79,0.23c1.28,0.35,2.23,0.38,2.92,0.18c-1.48-1.55-2.88-3.62-5.32-2.66c-6.38,2.49-4.37,2-7.79-3.03c-1.73-2.55-4.63,5.51-7.36,3.57c-1.53-1.08-3.99,1.49-3.99-0.97c0-3.19-2.6-5.51-2.65-8.45c-0.11-7.15-2.83-2.59-4.42-4.08c-4.99,2.88,0.64,3.71-3.95,4.05c-1.32,0.1-0.01,1.24-3.18,1.84c-3.78,0.72-2.7,5.27-5.95,1.4c-1.88-2.23-4.86,4.52-6.23,4.98c-2.41,0.8-0.72,0.48-0.12,5.08C676.78,507.57,678.43,511.34,674.25,513.74L674.25,513.74z M684.15,577.52 M686.01,575.76c-3.28,1.59,1.99,2.07,0.64,0.32C686.51,575.89,686.23,575.65,686.01,575.76z M681.1,576.4c0.74-0.54,3.78-2.34-0.53-1.55l-1.12,0.21C678.12,576.06,680.57,576.22,681.1,576.4L681.1,576.4z M719.35,517.63c1.05,2.46,5.05-3.3,4.47-3.78c-0.16-0.13-0.86-0.32-0.86-0.32C722.16,514.12,719.72,516.72,719.35,517.63L719.35,517.63z M718.17,522c0.14,1.56,0.96-0.19,1.58-0.46c1.47-0.63,0.41-1.02-0.51-1.58C718.44,520.68,718.06,520.84,718.17,522L718.17,522z M717.76,541.45c0.01-0.07-2.78-2.06-2.45-0.8C715.55,541.61,717.53,543.53,717.76,541.45z M718.54,532.09c-0.27,1.48,0.79,1.99,0.78,2.95c-0.02,1.03-0.56,0.99,0.21,1.99c1.17,1.5,2.46-2.16,1.98-3.19c-0.21-0.45-1.44-2.04-1.95-2.07C719.2,531.75,718.88,531.99,718.54,532.09L718.54,532.09z"></path>
      <path d="M688.39,568.8c-0.01,0.02-1.39,0.65-0.73,1.18c1.77,1.42,2.27-4.42,1.07-3.21C688.46,567.04,688.78,568.19,688.39,568.8L688.39,568.8z"></path>
    </symbol>
    <symbol id="guangdong">
      <path d="M579.15,631.66c-0.59,1.02-2.11,0.17-2.35,1.29c0.79,0.44,3.4,0.68,2.7-0.67L579.15,631.66L579.15,631.66z"></path>
      <path d="M576.36,622.23c0,0.65,0.85,1.84,1.07,2.24c1.8-1.2-0.57-1.87-0.21-3.68c0.22-1.12,2.04-0.59,1.17-2.19c-0.09-0.16-0.37-0.02-0.53,0.05c-0.81,0.38-1.34,1.25-2.13,1.6c-0.72,0.32-0.85-0.2-1.44,0.53C574.84,622.06,576.36,621.6,576.36,622.23L576.36,622.23z"></path>
      <path d="M647.55,555.71c-1.6,0.07-1.14,2.16-5.65,2.52c-1.42,0.11-6.96,1.74-7.55-0.91c-0.03-0.12,2.87-2.76,3.24-3.86c1.6-4.83,4.8-2.86,4.44-6.31l0.03-0.91c-4.7-4.33-2.75,0-9.93,0.21c-0.64,0.02-1.18-1.14-1.61-2.61c-0.62,0.16-1.22,0.26-1.74,0.68c-5.36,4.4-8.79-3.66-11.67-0.35c-0.84,0.97-4.98,2.97-2.84,3.25c1.8,0.23,1.39,4.46,0.27,5.34c-3.54,2.78-2.73-5.23-11.53-3.38c-1.95,0.41-0.24,8.1-3.88,7.19c-1.34,3,3.84,6.49-0.63,8.78c-3.33,1.71,3.98,1.88-3.15,7.47c-2.3,1.8-0.1,1.43-1.87,2.67c-6.34,4.45,0.2,11.8-5.22,15.11c-0.3,0.18-0.56,0.34-0.8,0.49c-0.33,0.29-1.01,0.84-2.22,1.77c-1.2,0.91-4.96,0.79-5.41,2.25c-1.28,4.2,2.61,1.94-0.29,4.7c-3.91,3.71-7.04-1.43-5.41,3.6c1.66,5.11-6.36,1.21-6.72,3.92c-0.61,4.66-3.39,1.87-2.54,5.84c3.93,0.23,0.03,2.14-0.27,3.36c-0.38,1.6-1.43,2.33-1.17,3.84c0.55,3.3-1.97,1.22,0.8,6.14c3.5,6.2,3.12,2.85,3.95,4.96c1.05,2.66,1.4,4.12,5.18,2.88c5.91-1.93,0.8-5.39,0.37-8.16c-0.56-3.6-5.45-2.63-0.11-6.14c1.65-1.08,2.14-8.7,3.25-3.9c0.79,3.4,2.37-0.88,4.16-1.23c2.75-0.53,4.64-2.22,7.63-1.39c1.77,0.49,1.01-1.12,5.66-1.12c4.38,0-0.03-6.55,2.67-3.52c1.35,1.51,4.01,1.41,2.99-1.17c-0.88-2.24,0.72,0.28,1.92,0.05c2.76-0.51,0.94,0.85,3.09,1.01c2.29,0.17,3.36-6.63,3.36-3.25c0,6.5,4.53-1.6,5.82-0.85c6.75,3.91,2.18-4.93,3.04-7.9c0.46-1.58,0.16,8.59,3.63,5.12c1.89-1.89,3.12-2.01,3.92-2.16c0.42-0.08,0.71-0.18,0.91-0.55c0.33-0.61,0.4-1.96,0.35-5.24c-0.05-3.6-5.01-7.11,2.13-3.79c3.15,1.47,0.4,3.53,3.09,2.08c0.98-0.53,1.23,0.21,2.55,0.42c0.62,0.1,1.49,0.08,2.78-0.26c0.24-0.06,0.49-0.13,0.76-0.22c2.88-0.89,5.96,6.33,3.84,0.37c-1.12-3.16,3.25-4.58,3.68-1.97c0.16,0.96,2.27,2.16,2.45,2.03c1.08-0.76,2.2-8.1,6.88-3.15c3.45,3.65,3.08-5.96,6.14-2.56c2.07,2.31,5.85-1.49,10.78-2.08c3.39-0.41,0.49-3.81,3.63-4.96c6.29-2.32-3.43-1.85-2.29-2.99c1.48-1.49,5.23,1.5,5.71-1.97c0.32-2.31,1.77-2.6,3.18-3.1c-6.06-9.32-0.74-7.82-4.25-12.06c-3.16-3.82-1.43-7.6-5.34-4.82c-1.45,1.03-3.97-6.31-3.64-3.52c0.17,1.46-4.8-0.77-7.57-0.12c-1.35,0.32-2.18,1.33-1.62,3.8c0.11,0.48,1.98,3.15-0.28,3.03c-0.72-0.04-4.31-3.54-4.92-4.19C652.15,553.94,650.86,555.56,647.55,555.71L647.55,555.71z"></path>
      <path d="M685.75,569.3c-2.16,1.63,1.3,4.35,0.84,0.56C686.52,569.28,686.56,568.7,685.75,569.3z"></path>
      <path d="M620.19,603.89c-0.51,0.56-2.97,1.9,0.25,1.66c1.18-1.52,0.26-2.24,0.03-2.31C620.25,603.17,620.35,603.71,620.19,603.89L620.19,603.89z M622.19,602.22c-2.15,0.59,1.24,0.94,1.52,0.79C624.02,602.84,624.22,601.66,622.19,602.22z M629.7,603.97c0.31-0.18-2.46-3.5-4.01-4.78c-0.2,0.37-0.49,0.46-0.91,0.55c1.18,1.95,1.34,0.59,2.08,1.52C628.42,603.21,626.63,605.81,629.7,603.97L629.7,603.97z M613.48,610.81c-0.37,2.17,2.27-2.82,1.07-2.95c-0.24-0.03-1.45,0.43-1.45,0.43c-1.12,1.4-2.44-0.4-3,1.64C611.44,611.55,612.31,609.15,613.48,610.81L613.48,610.81z"></path>
    </symbol>
    <symbol id="hong-kong">
      <path d="M638.88,601.44c-0.64-0.19-1.05-0.38-1.69-0.05c-0.28,0.15-0.5,0.39-0.75,0.59C637.38,602.22,638.98,602.87,638.88,601.44L638.88,601.44z"></path>
      <path d="M636.92,602.36l-1.79-0.03C634.47,605.92,637.48,602.48,636.92,602.36z"></path>
      <path d="M633.93,605.63c1.28-1.18,0.14-2.14-0.21-1.56C633.33,604.7,633.58,605.1,633.93,605.63z"></path>
      <path d="M637.99,595.89c-6.09,2.91-1.39,4.29-0.75,2.84c0.35-0.8,0.76-0.96,1.07-1.74C638.16,596.65,638.37,596.27,637.99,595.89L637.99,595.89z M632.62,597.55c-0.97,0.32-4.24,1.74-1.07,1.74C633.21,599.3,634.01,598.48,632.62,597.55z M633.81,592.66c-0.07,0.51-3.16,7.84,3.43,2.85c2.64-2-0.19-0.23-0.48-2.44c-0.03-0.23-0.11-0.44-0.17-0.66C635.3,592.74,634.44,592.76,633.81,592.66L633.81,592.66z"></path>
    </symbol>
    <symbol id="macau">
      <path d="M664.83,621.08c1.28-1.18,0.14-2.14-0.21-1.56C664.23,620.15,664.48,620.54,664.83,621.08z"></path>
      <path d="M629.32,598.56c-4.47,1.74-0.83,3.37-0.4,2.36c0.24-0.56,0.26,0.7-0.16-0.97C628.65,599.71,629.57,598.82,629.32,598.56L629.32,598.56z M624.89,601.01c-0.87,0.46-2.01-0.05,0.11-0.05C626.11,600.96,625.82,601.66,624.89,601.01z M626.52,596.29c-0.05,0.36-2.12,5.52,2.3,2.01c1.77-1.4-1.2,1.26-1.39-0.29c-0.02-0.16-0.71-1.18-0.26,0.04C626.3,598.28,626.94,596.36,626.52,596.29L626.52,596.29z"></path>
    </symbol>
    <symbol id="taiwan">
      <path d="M752.7,534.79l-0.07,0.01l-0.05,0.06l-0.03,0.08h-0.33l-0.1-0.1l-0.06,0.04v0.1l-0.06,0.04l-0.28,0.04l-0.03-0.08l-0.03,0.03l-0.01,0.09l-0.08,0.06l-0.19,0.04l-0.08,0.05l-0.09,0.03l-0.19,0.38l-0.03,0.01l-0.2-0.03l-0.07,0.05l-0.01,0.09l-0.05,0.06l-0.05,0.15l-0.04,0.06l-0.01,0.1l-0.05,0.07l-0.13,0.09l-0.05,0.06l-0.01,0.1l-0.11,0.2l-0.1,0.03l-0.06-0.01l0.01,0.06l0.19,0.16l0.1,0.01l0.19,0.08l0.08,0.13l0.08,0.05l0.05,0.06l0.12,0.23l0.01,0.39l-0.05,0.04l-0.01-0.08l-0.04-0.08l-0.01-0.08l-0.11-0.14l-0.01-0.09l-0.04-0.09l-0.27-0.23l-0.17-0.08h-0.1l-0.06,0.05l-0.03,0.12l-0.2,0.18l-0.17,0.06l-0.07,0.05l-0.08,0.02l-0.23,0.14l-0.28,0.08l-0.07,0.04l-0.66,0.01l-0.13,0.12l-0.09,0.03l-0.1-0.01l-0.14-0.1l-0.08-0.03l-0.19,0.04l-0.05,0.05h-0.1l-0.46,0.17l-0.12,0.01l-0.09,0.05l-0.2,0.19l-0.19,0.08l-0.08,0.07l-0.66,0.16h-0.11l-0.16,0.08l-0.08,0.07l-0.1,0.03l-0.09,0.05l-0.07,0.07l-0.14,0.08l-0.08,0.03l-0.06,0.06l-0.09,0.01l-0.22,0.09l-0.25,0.21l-0.13,0.18l-0.06,0.04l-0.06,0.15l-0.17,0.19l-0.01,0.09l0.05,0.06v0.19l-0.1,0.1l-0.07,0.04l-0.07,0.07l-0.03,0.07l-0.17,0.21l-0.07,0.05l-0.32,0.44l0.02,0.1l0.04,0.08l-0.3,0.35l-0.03,0.17l-0.05,0.04l-0.03,0.09l-0.11,0.13l-0.03,0.07l-0.06,0.05l-0.08,0.03l-0.28,0.35l-0.07,0.06l0.03,0.15l-0.01,0.05l0.03,0.03l0.1,0.01l0.01,0.08l-0.04,0.08l-0.02,0.18l-0.04,0.06l-0.01,0.2l-0.1,0.13l-0.03,0.08l0.08,0.06l-0.04,0.05l-0.03,0.09l-0.12,0.11l-0.3,0.12l-0.05,0.07l-0.07,0.06l-0.07,0.14v0.1l-0.02,0.08l-0.05,0.06l-0.03,0.08l-0.3,0.24l-0.08,0.04l-0.05,0.06l-0.01,0.09l0.1,0.01l0.04,0.08l0.08,0.03l0.1,0.01l0.04,0.05l-0.07,0.04l-0.12-0.03l-0.06-0.05l-0.21-0.07h-0.13l-0.24,0.1l-0.3,0.01l-0.11,0.12l-0.09,0.01l-0.17,0.27l-0.03,0.17l-0.05,0.04l0.08,0.06l0.09,0.04l0.01,0.08l-0.06-0.01h-0.08l-0.15,0.08l0.02,0.1l-0.02,0.08l-0.06-0.08l-0.15-0.12l-0.17,0.04l-0.06,0.06l-0.01,0.04l-0.12,0.15l-0.53,1.46l-0.06,0.07l-0.07,0.16l-0.28,0.35l-0.03,0.07l-0.17,0.2l-0.21,0.16l-0.17,0.06l-0.01,0.12l-0.5,0.64l-0.1,0.24l0.01,0.19l-0.01,0.03l-0.07,0.08l-0.03,0.07l-0.15,0.06l-0.06,0.09l-0.25,0.16l0.01,0.07l0.03,0.06l0.01,0.11l-0.05,0.05l-0.13-0.04l0.15,0.07l0.03,0.06l-0.05,0.07l-0.05,0.04l-0.12-0.15l-0.05,0.03l-0.06,0.06l-0.12,0.06l0.01,0.09l-0.04,0.07l-0.15,0.08l-0.05,0.07l0.23,0.29l-0.01,0.08l-0.05,0.07l-0.02,0.08l-0.06-0.1l0.01-0.08l-0.08,0.08l-0.08-0.01l-0.02-0.1l0.05-0.09l-0.01-0.09l-0.07,0.06l-0.12,0.33l0.09,0.07l0.03,0.07l0.03,0.03l0.01-0.01l0.1,0.06v0.1l-0.03,0.08l-0.21,0.29l-0.06,0.05l-0.08,0.19l0.01,0.1l-0.08,0.02l0.03,0.08l0.04,0.04l-0.08,0.04l-0.18,0.21l0,0.01l-0.15,0.22l-0.07,0.04l-0.3,0.01l0.01,0.08l0.08,0.07l-0.01,0.19l-0.06,0.04l-0.03,0.07l-0.02,0.09l-0.05,0.06l-0.01,0.19l-0.01,0.02l-0.06,0.08v0.1l0.03,0.06l-0.01,0.1l-0.08,0.06l-0.17,0.06l-0.04,0.09l-0.12,0.12l-0.01,0.18l-0.03,0.07l-0.15,0.03l-0.08,0.06l-0.09,0.01l-0.13,0.09l-0.08,0.03l-0.02,0.08l-0.22,0.15l-0.04,0.15v0.11l-0.05,0.08l-0.01,0.08l-0.07,0.04l-0.03,0.17l-0.13,0.01l-0.1-0.02l-0.08,0.06l-0.05,0.25l0.02,0.06h0.21v0.04l-0.26,0.37l-0.01-0.01l-0.02,0.1l-0.05,0.06l-0.02,0.08l-0.05,0.05l-0.07,0.25l-0.12,0.12l-0.03,0.09l-0.1,0.13l-0.03,0.08l-0.05,0.05l-0.01,0.11l-0.07,0.03l-0.06,0.05l-0.08,0.04l-0.05,0.07l-0.08,0.04v0.07l0.05,0.07l-0.04,0.03h-0.1l-0.05,0.06l-0.02,0.19l-0.02,0.05h-0.21l-0.07-0.03l-0.08-0.01l-0.03,0.08l-0.1,0.01l-0.33,0.55l-0.01,0.03l-0.12-0.01l-0.07,0.04l-0.11,0.12l-0.03,0.08l-0.01,0.19l-0.06,0.06l-0.01,0.08l0.09,0.12l-0.01,0.09l-0.09,0.12l-0.17,0.01l-0.02,0.08v0.1l-0.12,0.06v0.12l-0.01-0.01l-0.03,0.01l-0.02,0.08v0.1l0.03,0.07l0.1,0.01l0.08,0.1l-0.12,0.14l-0.08,0.14l-0.02,0.08l-0.1,0.16l-0.05,0.18l-0.07,0.1l-0.14,0.38l0.01,0.38l-0.02,0.08l0.01,0.07l0.1,0.04l-0.01,0.08l-0.08,0.03l-0.12,0.08l0.03,0.11l0.06,0.03l0.08,0.01l0.01,0.1l-0.05,0.06v0.19l0.07,0.05l0.11,0.14l0.08,0.06l-0.07,0.04l-0.05,0.08l-0.1,0.01l-0.03-0.07l-0.06-0.04l-0.08,0.04l-0.12,0.14l-0.08,0.04l-0.02,0.46l0.05,0.08l0.1,0.03l0.31-0.02l0.08,0.03v0.1l-0.04,0.07l-0.03,0.09l-0.05,0.06v0.1l-0.04,0.08l0.02,0.1l0.09,0.04h0.09l-0.12,0.21l-0.01,0.09l0.08,0.02v0.08l-0.06,0.16l0.01,0.1l0.04,0.08l0.07,0.05l0.08-0.06l0.03,0.04l0.01,0.18l-0.05,0.08l-0.07,0.26l-0.2,0.08l-0.08-0.01l-0.16,0.35l-0.01,0.26l0.02,0.08h0.21l0.09,0.03l0.02,0.08l-0.05-0.05l-0.39-0.07l-0.21,0.35l0.03,0.07l0.05,0.01l-0.03,0.1l-0.07,0.05l-0.01,0.09l0.15,0.08l0.06,0.01l0.09-0.03l-0.12,0.16l-0.19,0.06l-0.05,0.07l0.01,0.09l0.04,0.08l-0.14,0.12l-0.02,0.08l-0.04,0.07l-0.13-0.03l-0.03,0.07l-0.04,0.17l0.01,0.19l-0.27,0.47l-0.03,0.18l-0.08,0.13l0.06-0.07l0.08-0.03l0.08-0.01l0.03,0.41l0.06,0.04l0.08,0.03l-0.05,0.27l-0.18,0.07h-0.01l-0.19,0.06l-0.17,0.15l-0.18,0.08l-0.01,0.18l0.01,0.03l0.01,0.19l0.04,0.04h0.1l-0.01,0.3l0.04,0.12l0.12,0.13l0.02,0.04l0.1-0.03l0.13-0.1l0.01,0.08l-0.01,0.09l0.25,0.14l0.05,0.01l0.1,0.08l0.17,0.08l0.22,0.21l0.08,0.04l0.29,0.25l0.01,0.03l0.19,0.17l0.13,0.19l0.09-0.02l0.12-0.11l0.08-0.04l-0.05,0.11l-0.05,0.06v0.07l0.18,0.04l-0.09,0.07l-0.1-0.01l-0.06-0.07l-0.05-0.03l0.04,0.1l0.06,0.08l0.03,0.08l-0.03,0.49l-0.03,0.07l0.03,0.08l0.1,0.1l0.04,0.21l0.17,0.32v0.1h0.04l0.01-0.08l0.03-0.07l0.1-0.01l0.12,0.26l-0.01,0.08l-0.1,0.01l-0.08-0.04l-0.04-0.06l-0.02,0.04l0.01,0.09l0.04,0.11l0.01,0.09l0.1,0.17v0.07l0.49,1.07l0.01,0.09l0.08,0.17l0.08,0.09l0.26,0.53l0.25,0.28l-0.12,0.13l-0.21-0.2l0.14,0.31l-0.22,0.2l-0.01,0.21l-0.03,0.08l0.03,0.09l0.15,0.13l0.05,0.07v0.1l0.05,0.05l-0.01,0.1l-0.06,0.04l0.04,0.06l0.08,0.04l0.07,0.18l0.15,0.13l0.03,0.07l0.07,0.09l0.06,0.04l0.05,0.06l0.04,0.07l0.16,0.19l0.04,0.09l-0.15,0.03l-0.03,0.03v0.03l0.09,0.02l0.18-0.01l0.03,0.01l0.18,0.18l0.08,0.04l0.12,0.13l0.03,0.07l0.67,0.49l0.1,0.04l0.15,0.13l0.3,0.08l0.01-0.03l-0.05-0.74l0.05-0.15l0.05-0.06l0.09,0.02v0.1l-0.04,0.06l-0.01,0.19l-0.03,0.07l0.04,0.09l0.01,0.46l0.16,0.01l0.11,0.1l-0.01,0.09l-0.05,0.01l0.1,0.12l0.27,0.19l0.05,0.06l0.08,0.03l0.03,0.01l-0.01,0l0.01,0.02l0.17,0.07l0.06,0.06l0.08,0.05l0.16,0.05l0.06,0.05l0.08,0.04l0.05,0.05l0.09,0.04l0.06,0.05l0.52,0.26l0.06,0.07l0.09,0.03l0.59,0.44l0.05,0.07l0.11,0.28l-0.02,0.04l0.3,0.19l0.32,0.37l0.03,0.08v0.24l0.1,0.15l0.04,0.17l-0.01,0.09l-0.03,0.08l0.01,0.08l0.22,0.17l0.05,0.06l0.07,0.05l0.04,0.06l0.05,0.18l0.18,0.17l-0.05,0.09v0.1l0.02,0.09l0.06,0.06l0.09,0.25l0.01,0.28l0.05,0.17v0.1l0.04,0.06l0.03,0.11l0.07,0.06l0.04,0.06l0.02,0.09l0.08,0.07l0.01,0.18l0.04,0.06l-0.01,0.1l-0.04,0.06l-0.28,0.08l0.01,0.08l0.1,0.02l0.03,0.07l-0.01,0.03l0.02,0.08l0.03,0.07l-0.03,0.06l-0.05,0.05l-0.14,0.08l-0.01,0.08l0.05,0.06l-0.21,0.18v0.19l0.08,0.04v0.1l0.07,0.06l-0.02,0.08l0.21,0.17l0.02,0.07l0.07,0.07l0.04,0.06l0.03,0.13l-0.05,0.15l0.01,0.3l-0.06,0.14l0.05,0.06l0.1,0.01l0.05,0.17l0.05,0.08l0.21,0.02l0.08-0.12l0.06-0.04l0.01-0.08l-0.04-0.16l0.03-0.07l0.08-0.03l0.11-0.11l0.07-0.03h0.1l0.03,0.07l0.23,0.15l0.03,0.01l0.12-0.01l0.09,0.02l0.03,0.07l0.08,0.02l0.08,0.04l0.1,0.03l0.1,0.01l0.21,0.19l0.01,0.09l0.1,0.03l0.05,0.04l0.03,0.06l0.01,0.09l0.15,0.13h0.1l0.07-0.04l-0.01-0.08l-0.06-0.04l-0.02-0.08l0.01-0.09l-0.03-0.07l-0.27-0.38v-0.37l0.03-0.07l-0.03-0.07l0.03-0.15l0.05-0.02l0.01-0.08l0.19-0.03l0.09-0.03l0.03-0.06l0.08-0.02l0.07-0.05l0.03-0.08l0.01-0.09l0.05-0.05l0.1-0.01l0.02-0.17l0.2-0.12l0.02-0.07l-0.11-0.13l-0.01-0.48l-0.06-0.08v-0.1l0.15-0.23l0.05-0.05v-0.08l-0.08-0.03l-0.11-0.11l-0.03-0.08l-0.01-0.25l0.01-0.04l0.05,0l0.03-0.03l0.04-0.03l0.02-0.04l-0.05-0.07l0-0.19l-0.05-0.07l0.01-0.03l0.03-0.03l0.02-0.03l0.01-0.04l-0.01-0.04v-0.1l-0.02-0.05l-0.02-0.03l0-0.06l-0.03-0.04l-0.02-0.04l0.01-0.08l0.08-0.06l0.02-0.03l0.01-0.04l0-0.09l-0.01-0.04v-0.04l0.01-0.03l-0.05-0.05l0.04-0.17l0.05-0.06l0.03-0.07l-0.05-0.06l-0.06-0.84l-0.07-0.08l-0.01-0.28l0.03-0.07v-0.18l0.16-0.46l0.14-0.13l0.03-0.26l0.05-0.07l0.19-0.51l0.05-0.06l0.03-0.07l0.1-0.13l0.02-0.09l0.05-0.07l0.01-0.18l0.05-0.06l0.03-0.18l0.07-0.08l-0.01-0.11l0.12-0.21v-0.19l0.05-0.04v-0.1l0.16-0.35v-0.13l0.07-0.04v-0.1l0.04-0.08l0.01-0.09l0.05-0.06l0.01-0.08l0.04-0.06l0.09-0.04l0.05-0.07l0.19-0.16l0.11-0.14l0-0.07l0.04-0.07l0.01-0.27l0.01-0.03l-0.01-0.09l0.04-0.08l0.01-0.09l0.05-0.06l0.01-0.08l0.06-0.07l0.05-0.16l0.09-0.13l0.06-0.05l0.22-0.09l0.06-0.05l0.1-0.01l0.05-0.06l0.02-0.08l0.15-0.06l0.12-0.09l0.07-0.03l0.05-0.06l0.1-0.01l0.05-0.05l0.1-0.01l0.08-0.03l0.05-0.04l0.12-0.03l0.11-0.07l0.21-0.23l0.08-0.03l0.06-0.04l0.04-0.06l0.14-0.1l0.04-0.06l0.06-0.05l0.15-0.06l0.12-0.1l0.07-0.41l0.08-0.07l0.09-0.01l0.12-0.1l0.03-0.08l-0.06-0.14l0.02-0.09l-0.05-0.06l-0.07-0.03l-0.03-0.06l0.04-0.06h0.1l-0.02-0.07l-0.1-0.1l-0.03-0.07l0.01-0.08l0.04-0.06l0.32-0.24l0.19-0.03l0.08-0.03l0.17,0.04l0.01-0.15l0.13-0.13l0.08-0.02l0.06-0.05l0.03-0.16l0.12-0.22l0.12-0.1l0.19-0.38l0.01-0.16l0.04-0.01l0.05-0.08l0.06-0.05l0.1-0.01l0.03-0.07l0.18-0.18v-0.1l0.03-0.08l0.04-0.04l0.07-0.26l0.05-0.08l0.05-0.15l0.06-0.06l0.06-0.04l0.01-0.08l0.06-0.08l0.05-0.29l0.05-0.07l0.08-0.25l0.11-0.15v-0.1l0.04-0.06v-0.1l0.08-0.04l0.05-0.06l0.21-0.01l0.07-0.03l0.12-0.21l0.07-0.05l0.2-0.01l0.05-0.15l-0.17-0.16l-0.01-0.28l0.08-0.07l0.01-0.19l-0.02-0.09l-0.1-0.19l-0.02-0.4l0.16-0.1l-0.01-0.07l-0.05-0.05l0.06-0.03l0.05,0.07l0.08,0.01l0.08-0.06l0.04-0.06l-0.03-0.07l-0.05-0.06l0.1-0.32l0.01-0.1l0.03-0.08l0.05-0.06l0.02-0.21l0.06-0.06l0.01-0.08l0.03-0.07l0.08-0.07l0.04-0.06l0.06-0.16l0.07-0.05l0.08-0.02h0.1l0.08-0.05l0.06-0.28l-0.01-0.28l0.1-0.19l0.1-0.65l0.08-0.04v-0.1l0.2-0.47l0.02-0.19l0.03-0.08v-0.1l0.04-0.08l-0.09-0.05l-0.02-0.03l0.1-0.01l0.08-0.03l0.05-0.06l0.03-0.08l0.01-0.19l-0.09-0.13v-0.19l-0.03-0.08l-0.03-0.02l0.01-0.11l0.05-0.07l0.01-0.19l0.07-0.17l0.01-0.1l0.09-0.12l0.02-0.08l0.08-0.06l0.05-0.15l0.01-0.2l0.05-0.09l0.01-0.65l0.07-0.08l0.03-0.17l0.08-0.03l0.06-0.06l-0.04-0.06l-0.01-0.06l0.05-0.05l0.05-0.35l0.03-0.06l0.01-0.08l0.05-0.06l-0.04-0.13l-0.05-0.03l0.01-0.09l0.03-0.07V561l0.09-0.06l0.19-0.28l0.08-0.33l-0.03-0.07v-0.53l0.07-0.17l0.14-0.18l0.02-0.09l0.1-0.2l0.01-0.08l0.03-0.07v-0.1l0.1-0.22l0.02-0.17l0.03-0.06l0.01-0.28l0.03-0.08l0.03-0.37l0.03-0.07l-0.01-0.28l-0.08-0.15l0.06-0.15l0.06-0.06l0.03-0.08l0.06-0.04h0.08l0.04,0.06l0.1-0.01l0.04-0.15h-0.09l0.06-0.13l0.08-0.03l-0.04-0.06l0.02-0.08l0.08,0.02l0.05-0.17v-0.1l-0.39-0.38l-0.03-0.17l-0.03-0.06l-0.01-0.6l0.08-0.14l0.19-0.17l0.08-0.04l0.18-0.19l0.08-0.02l0.08-0.12l0.02,0.01l0.01-0.03l0.03-0.26l0.04-0.04l-0.13-0.22v-0.29l0.06-0.17l0.21-0.27l0.07-0.04l0.05-0.06l0.08-0.02l0.18-0.15l0.09-0.01l0.07-0.05l0.17-0.28l0.19-0.02l0.01-0.01l0.04-0.1l0.08-0.03l0.06-0.14l0.06-0.04l0.01-0.28l0.15-0.2l0.12-0.1l0.05-0.08l0.08-0.03l0.03-0.06l-0.01-0.27l-0.04-0.06l0.01-0.19l0.14-0.25l0.02-0.08l0.08-0.13l0.03-0.55l0.03-0.08l0.05-0.06v-0.11l0.05-0.18l0.1-0.12l0.03-0.09l0.15-0.08l0.05-0.06l0.07-0.13l0.01-0.09l0.25-0.22l0.25-0.1h0.1l0.03-0.01l-0.08-0.04l-0.05-0.05l-0.04-0.06v-0.1l-0.14-0.08l-0.03-0.25l0.1-0.06l0.05-0.07l0.18-0.03l0.15-0.09l0.09-0.02l0.03-0.08l-0.01-0.08l-0.03-0.09l-0.01-0.09l-0.04-0.06l-0.02-0.18l0.04-0.06l-0.05-0.07l0.04-0.08h0.1l-0.01-0.07l-0.05-0.04l-0.01-0.03l0.08-0.03l-0.07,0.01l-0.1-0.03l-0.01-0.06l-0.13-0.11l0.02-0.08l0.1-0.01l0.08,0.04l0.01,0.09l0.1-0.01l0.08-0.04l-0.2-0.19l-0.17-0.05l-0.02-0.04l-0.03-0.01l-0.09-0.11l-0.01-0.07l-0.2-0.46l-0.01-0.19l-0.04-0.06l0.02-0.03v-0.1l-0.03-0.08l0.03-0.52l-0.16-0.16l-0.05-0.08v-0.08l-0.08-0.08l-0.03-0.17l0.01-0.09l-0.06-0.05l0.03-0.71l0.04-0.11v-0.1l0.07-0.14l-0.01-0.19l0.05-0.15l0.01-0.09l0.13-0.26l0.01-0.09l0.07-0.11l0.08-0.04l0.05-0.15l0.05-0.06l0.08-0.03l0.21-0.23l0.07-0.03l0.17-0.19l0.01-0.18l0.03-0.08l0.15-0.08l0.08-0.02l0.08-0.11l0.06-0.05l0.07-0.03l0.14-0.18l0.02-0.1l0.1-0.05l0.1-0.01l0.07-0.03l0.06-0.06l0.09-0.01l0.07-0.04l0.1-0.01l0.21-0.09l0.04-0.08l0.1-0.01l0.04-0.06l0.15-0.07l0.04-0.07l0.1-0.01l0.04-0.07l0-0.07l-0.1-0.1l-0.08,0.01l-0.06,0.05l-0.06-0.11l-0.08-0.03l-0.05-0.05l-0.08-0.02l-0.1,0l-0.05,0.04l-0.09,0.05l-0.22-0.02l-0.27-0.21l-0.02-0.07v-0.29l-0.03-0.04l0.08-0.05l-0.01-0.03l-0.23-0.21l-0.07-0.15l0.08-0.23l0.08-0.05l0.02-0.08l-0.03-0.06l-0.05-0.05l-0.03-0.04l0.04-0.06l0.07-0.04v-0.1l-0.1-0.01l-0.09,0.02l-0.05,0.05l-0.19,0.06h-0.1l-0.32-0.07l-0.08,0.03l-0.08-0.03l-0.24-0.01l-0.16-0.04l-0.08,0.04l-0.07,0.06h-0.09l-0.06-0.06l0.02-0.08l0.04-0.07l0.03-0.03h-0.1l-0.09,0.03h-0.1l-0.05-0.06l0.03-0.17l-0.1,0.01l-0.13,0.08l-0.12-0.1l-0.1-0.01l-0.05-0.03v-0.11l-0.09-0.02l-0.04,0.07l-0.08,0.02l-0.02-0.08h-0.07l0.03,0.08l0.08,0.1l-0.1,0.11l-0.15,0.1l-0.07,0.01l0.12-0.11l-0.04-0.07v-0.16l-0.08-0.01l-0.08-0.04l-0.1-0.01l-0.11-0.1h-0.21l-0.06-0.04l0.01-0.07l-0.04-0.08l-0.09-0.02l-0.07-0.05l-0.08-0.03l-0.09-0.06l-0.03-0.07l0.04-0.08l0.16-0.07l-0.02-0.04l-0.06-0.05l0.05-0.06l0.08-0.04l0.07-0.06l-0.02-0.06l-0.25,0.2l-0.34,0.02l-0.27-0.26l-0.01-0.06l0.07-0.07l-0.03-0.06h-0.11l-0.08-0.03l-0.11-0.1l0.03-0.19l-0.02-0.09l-0.04-0.06l-0.06-0.05l-0.2-0.26l-0.17-0.05l-0.1-0.12l-0.08-0.04h-0.1l-0.08-0.05l-0.06-0.06l-0.07-0.04L752.7,534.79L752.7,534.79z"></path>
    </symbol>
  </g>
  </defs>
</svg>
